<svg width="19" height="23" xmlns="http://www.w3.org/2000/svg"><path d="M15.79 11.79c-.028-2.787 2.309-4.123 2.413-4.19-1.313-1.89-3.358-2.15-4.087-2.18-1.741-.173-3.397 1.01-4.28 1.01-.881 0-2.245-.984-3.688-.958C4.25 5.5 2.5 6.558 1.524 8.23c-1.971 3.367-.505 8.354 1.417 11.085.938 1.336 2.058 2.837 3.528 2.784 1.415-.056 1.95-.902 3.662-.902 1.71 0 2.192.902 3.69.874 1.523-.028 2.488-1.362 3.42-2.703 1.078-1.55 1.522-3.051 1.549-3.128-.034-.016-2.97-1.123-3-4.45zm-2.815-8.177c.78-.931 1.307-2.224 1.163-3.513-1.123.045-2.485.737-3.292 1.666-.723.825-1.356 2.14-1.187 3.404 1.255.096 2.535-.627 3.316-1.557z" fill="#FFF"/></svg>