<svg width="227" height="167" xmlns="http://www.w3.org/2000/svg" xmlns:xlink="http://www.w3.org/1999/xlink"><defs><linearGradient x1="58.909%" y1="18.114%" x2="58.909%" y2="100%" id="a"><stop stop-color="#FFC04D" offset="0%"/><stop stop-color="#C58409" offset="100%"/></linearGradient><linearGradient x1="57.098%" y1="55%" x2="38.624%" y2="42.091%" id="b"><stop stop-color="#77C4DF" stop-opacity="0" offset="0%"/><stop stop-color="#114758" offset="100%"/></linearGradient><linearGradient x1="58.909%" y1="9.505%" x2="58.909%" y2="100%" id="c"><stop stop-color="#FFC04D" offset="0%"/><stop stop-color="#C58409" offset="100%"/></linearGradient><linearGradient x1="69.571%" y1="100%" x2="30.429%" y2="0%" id="d"><stop stop-color="#FFCB6C" offset="0%"/><stop stop-color="#FFFAF4" offset="100%"/></linearGradient><linearGradient x1="96.661%" y1="71.827%" x2="30.199%" y2="37.123%" id="f"><stop stop-color="#F9B231" offset="0%"/><stop stop-color="#FFFAF4" offset="100%"/></linearGradient><path id="e" d="M114.106 36.376l-11.412-4.547 22.822-9.094L68.464 0 0 27.283l68.464 27.28z"/><linearGradient x1="54.725%" y1="55.667%" x2="46.296%" y2="47.174%" id="g"><stop stop-color="#77C4DF" stop-opacity="0" offset="0%"/><stop stop-color="#114758" offset="100%"/></linearGradient><linearGradient x1="395.714%" y1="34.174%" x2="0%" y2="34.174%" id="i"><stop stop-color="#50BED3" offset="0%"/><stop stop-color="#B8E0D4" offset="100%"/></linearGradient><linearGradient x1="127.888%" y1="41.436%" x2="-26.693%" y2="34.174%" id="j"><stop stop-color="#50BED3" offset="0%"/><stop stop-color="#B8E0D4" offset="100%"/></linearGradient><linearGradient x1="100%" y1="34.174%" x2="-279.954%" y2="34.174%" id="k"><stop stop-color="#50BED3" offset="0%"/><stop stop-color="#91C7A9" offset="100%"/></linearGradient><linearGradient x1="55.741%" y1="55.238%" x2="40.416%" y2="43.404%" id="l"><stop stop-color="#77C4DF" stop-opacity="0" offset="0%"/><stop stop-color="#114758" offset="100%"/></linearGradient><linearGradient x1="58.909%" y1="18.114%" x2="58.909%" y2="92.194%" id="m"><stop stop-color="#FFC04D" offset="0%"/><stop stop-color="#C58409" offset="100%"/></linearGradient><linearGradient x1="19.639%" y1="122.358%" x2="41.057%" y2="-6.573%" id="n"><stop stop-color="#FDBB39" offset="0%"/><stop stop-color="#FFF" offset="100%"/></linearGradient><linearGradient x1="258.813%" y1="34.174%" x2="-149.94%" y2="34.174%" id="o"><stop stop-color="#50BED3" offset="0%"/><stop stop-color="#B8E0D4" offset="100%"/></linearGradient><linearGradient x1="76.632%" y1="41.065%" x2="-84.615%" y2="34.174%" id="p"><stop stop-color="#50BED3" offset="0%"/><stop stop-color="#B8E0D4" offset="100%"/></linearGradient><linearGradient x1="51.648%" y1="51.579%" x2="43.819%" y2="44.078%" id="q"><stop stop-color="#77C4DF" stop-opacity="0" offset="0%"/><stop stop-color="#114758" offset="100%"/></linearGradient><linearGradient x1="88.557%" y1="42.851%" x2="14.338%" y2="56.613%" id="r"><stop stop-color="#F9B231" offset="0%"/><stop stop-color="#FFFAF4" offset="100%"/></linearGradient><linearGradient x1="99.998%" y1="50%" x2="-.002%" y2="50%" id="s"><stop stop-color="#AC9370" offset="0%"/><stop stop-color="#594834" offset="100%"/></linearGradient><linearGradient x1="-41.813%" y1="-2071.516%" x2="58.187%" y2="-2071.516%" id="t"><stop stop-color="#AC9370" offset="0%"/><stop stop-color="#594834" offset="100%"/></linearGradient><linearGradient x1="38.41%" y1="74.388%" x2="0%" y2="31.072%" id="u"><stop stop-color="#FDBB39" offset="0%"/><stop stop-color="#FFF" offset="100%"/></linearGradient><linearGradient x1="55.494%" y1="74.788%" x2="55.646%" y2="74.788%" id="v"><stop stop-color="#AC9370" offset="0%"/><stop stop-color="#594834" offset="100%"/></linearGradient><linearGradient x1="66.871%" y1="62.605%" x2="50%" y2="36.514%" id="w"><stop stop-color="#FFCB6C" offset="0%"/><stop stop-color="#FFFAF4" offset="100%"/></linearGradient></defs><g fill="none" fill-rule="evenodd"><path fill="url(#a)" fill-rule="nonzero" d="M125.516 104.556l-22.01 8.867-1.668-81.594 23.678-9.094z" transform="translate(77)"/><path fill="url(#b)" fill-rule="nonzero" opacity=".64" d="M159.748 118.138l-34.232-13.64-23.511 9.325 34.232 13.641z" transform="translate(77)"/><path fill="#358A93" fill-rule="nonzero" d="M195.655 75.393v-17.62l-14.738 5.873v17.62zm0-26.798v-17.62l-14.738 5.873v17.62zm0 53.069v-17.62l-14.738 5.875v17.618z"/><path fill="url(#c)" fill-rule="nonzero" d="M114.106 36.376l-45.642 18.19v82.148l45.642-18.188z" transform="translate(77)"/><path fill="url(#d)" fill-rule="nonzero" d="M0 109.433v-82.15l68.464 27.28v82.15z" transform="translate(77)"/><g transform="translate(77)"><mask id="h" fill="#fff"><use xlink:href="#e"/></mask><use fill="url(#f)" fill-rule="nonzero" xlink:href="#e"/><path fill="url(#g)" fill-rule="nonzero" opacity=".5" mask="url(#h)" d="M80 50.229l47.766-19.253-25.928-10.296-48.74 18.892z"/></g><path fill="url(#i)" fill-rule="nonzero" d="M4.631 79.664v-17.62L19.37 67.92v17.618z" transform="translate(77)"/><path fill="url(#j)" fill-rule="nonzero" d="M26.063 88.17V70.552l14.739 5.872v17.619z" transform="translate(77)"/><path fill="url(#k)" fill-rule="nonzero" d="M47.495 96.675V79.057l14.739 5.873v17.62z" transform="translate(77)"/><path fill="url(#i)" fill-rule="nonzero" d="M4.631 52.866v-17.62l14.739 5.875v17.618z" transform="translate(77)"/><path fill="url(#j)" fill-rule="nonzero" d="M26.063 61.372V43.754l14.739 5.872v17.619z" transform="translate(77)"/><path fill="url(#k)" fill-rule="nonzero" d="M47.495 69.877V52.26l14.739 5.873v17.62z" transform="translate(77)"/><path fill="url(#i)" fill-rule="nonzero" d="M4.631 106.212v-17.62l14.739 5.874v17.618z" transform="translate(77)"/><path fill="url(#j)" fill-rule="nonzero" d="M26.063 114.717V97.1l14.739 5.873v17.618z" transform="translate(77)"/><path fill="url(#k)" fill-rule="nonzero" d="M47.495 123.222v-17.618l14.739 5.873v17.62z" transform="translate(77)"/><path fill="#358A93" fill-rule="nonzero" d="M166.006 97.95V80.332l-14.738 5.873v17.618zm21.432-8.26V72.07L172.7 77.945v17.62zm-21.432-18.538V53.534l-14.738 5.873v17.618zm21.432-8.261V45.273L172.7 51.146v17.62zm-21.432 61.607v-17.619l-14.738 5.873v17.618zm21.432-8.262V98.618l-14.738 5.873v17.62z"/><path fill="url(#l)" fill-rule="nonzero" opacity=".64" d="M68.464 136.768l34.23 13.642 45.643-18.19-34.23-13.64z" transform="translate(77)"/><g fill-rule="nonzero"><path fill="url(#m)" d="M107.715 58.644v-36.39L55.429 43.088V79.48z" transform="translate(0 77)"/><path fill="url(#n)" d="M.938 57.494V21.618l54.491 21.47V79.48z" transform="translate(0 77)"/><path fill="url(#o)" d="M6.857 52.989V32.806l16.884 6.727v20.183z" transform="translate(0 77)"/><path fill="url(#p)" d="M31.408 62.732V42.549l16.884 6.728V69.46z" transform="translate(0 77)"/><path fill="#358A93" d="M103.637 130.157v-20.183l-16.883 6.728v20.183zM79.084 139.9v-20.182l-16.882 6.727v20.185z"/><path fill="url(#q)" opacity=".64" d="M55.43 79.542l39.212 15.626 52.286-20.836-39.213-15.627z" transform="translate(0 77)"/><path fill="url(#r)" d="M51.444 0h-.175L.939 21.618l54.49 21.47 52.336-20.834z" transform="translate(0 77)"/><path fill="url(#s)" opacity=".195" d="M49.857 14.899l29.227 11.87v-5.208l-28.09-10.887-28.496 11.412v5.21z" transform="translate(0 77)"/><path fill="url(#t)" d="M23.74 24.601l25.854-11.317 32.127 13.657v-5.208L48.995 8.537 21.655 19.95l.494 3.39z" transform="translate(0 77)"/><path d="M51.608.033L.938 21.618 55.613 43.09l52.285-20.836-13.072-5.21L51.608.033zm4.005 32.638L22.149 19.962 48.292 8.537l20.392 8.507 13.07 5.21-26.14 10.416z" fill="url(#u)" transform="translate(0 77)"/></g><path fill="url(#v)" fill-rule="nonzero" d="M100.822 27.957v-5.826l47.107-18.766 33.14 12.822v5.548l-15.972 6.222 4.92 1.656v6.067l-24.607 9.96z"/><path fill="url(#w)" fill-rule="nonzero" d="M100.822 22.13L147.73 3.125l33.339 13.063-21.984 8.448 10.931 4.978-24.606 9.959z"/></g></svg>