<svg width="155" height="99" xmlns="http://www.w3.org/2000/svg"><defs><linearGradient x1="58.909%" y1="18.114%" x2="58.909%" y2="92.194%" id="a"><stop stop-color="#FFC04D" offset="0%"/><stop stop-color="#C58409" offset="100%"/></linearGradient><linearGradient x1="15.767%" y1="103.824%" x2="39.917%" y2="7.918%" id="b"><stop stop-color="#FDBB39" offset="0%"/><stop stop-color="#FFF" offset="100%"/></linearGradient><linearGradient x1="395.714%" y1="34.174%" x2="0%" y2="34.174%" id="c"><stop stop-color="#50BED3" offset="0%"/><stop stop-color="#B8E0D4" offset="100%"/></linearGradient><linearGradient x1="258.813%" y1="34.174%" x2="-149.94%" y2="34.174%" id="d"><stop stop-color="#50BED3" offset="0%"/><stop stop-color="#B8E0D4" offset="100%"/></linearGradient><linearGradient x1="76.632%" y1="41.065%" x2="-84.615%" y2="34.174%" id="e"><stop stop-color="#50BED3" offset="0%"/><stop stop-color="#B8E0D4" offset="100%"/></linearGradient><linearGradient x1="51.648%" y1="51.579%" x2="43.819%" y2="44.078%" id="f"><stop stop-color="#77C4DF" stop-opacity="0" offset="0%"/><stop stop-color="#114758" offset="100%"/></linearGradient><linearGradient x1="88.557%" y1="43.011%" x2="14.338%" y2="56.464%" id="g"><stop stop-color="#F9B231" offset="0%"/><stop stop-color="#FFFAF4" offset="100%"/></linearGradient><linearGradient x1="99.998%" y1="50%" x2="-.002%" y2="50%" id="h"><stop stop-color="#AC9370" offset="0%"/><stop stop-color="#594834" offset="100%"/></linearGradient><linearGradient x1="-41.813%" y1="-2071.516%" x2="58.187%" y2="-2071.516%" id="i"><stop stop-color="#AC9370" offset="0%"/><stop stop-color="#594834" offset="100%"/></linearGradient><linearGradient x1="38.41%" y1="73.9%" x2="0%" y2="31.451%" id="j"><stop stop-color="#FDBB39" offset="0%"/><stop stop-color="#FFF" offset="100%"/></linearGradient></defs><g fill="none"><path fill="url(#a)" d="M130.715 67.644v-36.39L78.429 52.088V88.48z"/><path fill="url(#b)" d="M78.43 88.48L0 57.226v-36.39l78.43 31.251z"/><path fill="url(#c)" d="M5.306 52.245V32.062l16.883 6.728v20.183z"/><path fill="url(#d)" d="M29.857 61.989V41.806l16.884 6.727v20.183z"/><path fill="url(#e)" d="M54.408 71.732V51.549l16.884 6.728V78.46z"/><path fill="#358A93" d="M126.637 62.157V41.974l-16.883 6.728v20.183zM102.084 71.9V51.718l-16.882 6.727V78.63z"/><path fill="url(#f)" opacity=".64" d="M78.43 88.542l39.212 15.626 52.286-20.836-39.213-15.627z"/><path fill="url(#g)" d="M130.765 31.254L52.338.002h-.175L.157 20.836l78.272 31.252z"/><path fill="url(#h)" opacity=".195" d="M29.498 28.295l28.496-11.411 52.287 20.834v-5.207L57.994 11.674 29.498 23.086z"/><path fill="url(#i)" d="M23.938 26.518l28.496-11.412 52.287 20.835v-5.208L52.434 9.897 23.938 21.308z"/><path d="M117.827 26.044L52.471 0 .184 20.835 78.613 52.09l52.285-20.836-13.072-5.21h.001zM78.613 41.671L26.327 20.835l26.144-10.418 39.213 15.627 13.07 5.21-26.14 10.416z" fill="url(#j)"/></g></svg>