<svg width="209" height="216" xmlns="http://www.w3.org/2000/svg"><defs><linearGradient x1="52.843%" y1="100%" x2="45.267%" y2="-11.048%" id="a"><stop stop-color="#FFCB6C" offset="0%"/><stop stop-color="#FFFAF4" offset="100%"/></linearGradient><linearGradient x1="58.909%" y1="-1.545%" x2="58.909%" y2="94.105%" id="b"><stop stop-color="#FFC04D" offset="0%"/><stop stop-color="#C58409" offset="100%"/></linearGradient><linearGradient x1="65.288%" y1="59.442%" x2="18.791%" y2="37.294%" id="c"><stop stop-color="#FFCB6C" offset="0%"/><stop stop-color="#FFFAF4" offset="100%"/></linearGradient><linearGradient x1="49.417%" y1="74.788%" x2="50.7%" y2="74.788%" id="d"><stop stop-color="#AC9370" offset="0%"/><stop stop-color="#594834" offset="100%"/></linearGradient><linearGradient x1="66.871%" y1="59.742%" x2="21.214%" y2="37.714%" id="e"><stop stop-color="#FFCB6C" offset="0%"/><stop stop-color="#FFFAF4" offset="100%"/></linearGradient><linearGradient x1="100%" y1="34.174%" x2="-119.684%" y2="34.174%" id="f"><stop stop-color="#50BED3" offset="0%"/><stop stop-color="#B8E0D4" offset="100%"/></linearGradient><linearGradient x1="222.837%" y1="34.174%" x2="0%" y2="34.174%" id="g"><stop stop-color="#50BED3" offset="0%"/><stop stop-color="#B8E0D4" offset="100%"/></linearGradient><linearGradient x1="53.181%" y1="57.94%" x2="40.416%" y2="43.405%" id="h"><stop stop-color="#77C4DF" stop-opacity="0" offset="0%"/><stop stop-color="#114758" offset="100%"/></linearGradient><linearGradient x1="54.725%" y1="55.626%" x2="46.296%" y2="47.194%" id="i"><stop stop-color="#77C4DF" stop-opacity="0" offset="0%"/><stop stop-color="#114758" offset="100%"/></linearGradient><linearGradient x1="54.892%" y1="100%" x2="44.364%" y2="-14.716%" id="j"><stop stop-color="#FFCB6C" offset="0%"/><stop stop-color="#FFFAF4" offset="100%"/></linearGradient><linearGradient x1="58.909%" y1="2.299%" x2="58.909%" y2="100%" id="k"><stop stop-color="#FFC04D" offset="0%"/><stop stop-color="#C58409" offset="100%"/></linearGradient><linearGradient x1="66.871%" y1="59.742%" x2="35.337%" y2="34.076%" id="l"><stop stop-color="#FFCB6C" offset="0%"/><stop stop-color="#FFFAF4" offset="100%"/></linearGradient><linearGradient x1="100%" y1="34.174%" x2="-120.101%" y2="34.174%" id="m"><stop stop-color="#50BED3" offset="0%"/><stop stop-color="#B8E0D4" offset="100%"/></linearGradient><linearGradient x1="226.549%" y1="34.174%" x2="0%" y2="34.174%" id="n"><stop stop-color="#50BED3" offset="0%"/><stop stop-color="#B8E0D4" offset="100%"/></linearGradient><linearGradient x1="55.787%" y1="55.507%" x2="40.416%" y2="43.405%" id="o"><stop stop-color="#77C4DF" stop-opacity="0" offset="0%"/><stop stop-color="#114758" offset="100%"/></linearGradient><linearGradient x1="49.417%" y1="74.788%" x2="50.7%" y2="74.788%" id="p"><stop stop-color="#AC9370" offset="0%"/><stop stop-color="#594834" offset="100%"/></linearGradient><linearGradient x1="66.871%" y1="59.742%" x2="21.214%" y2="37.714%" id="q"><stop stop-color="#FFCB6C" offset="0%"/><stop stop-color="#FFFAF4" offset="100%"/></linearGradient><linearGradient x1="54.725%" y1="55.457%" x2="46.296%" y2="47.278%" id="r"><stop stop-color="#77C4DF" stop-opacity="0" offset="0%"/><stop stop-color="#114758" offset="100%"/></linearGradient><linearGradient x1="57.18%" y1="100%" x2="41.727%" y2="-14.716%" id="s"><stop stop-color="#FFCB6C" offset="0%"/><stop stop-color="#FFFAF4" offset="100%"/></linearGradient><linearGradient x1="58.909%" y1="2.299%" x2="58.909%" y2="100%" id="t"><stop stop-color="#FFC04D" offset="0%"/><stop stop-color="#C58409" offset="100%"/></linearGradient></defs><g fill="none"><path fill="url(#a)" d="M0 145.039l33.839 13.484-.137-127.818L0 16.607z" transform="translate(61.012)"/><path fill="url(#b)" d="M33.839 158.523l33.838-13.484V16.955l-33.975 13.75z" transform="translate(61.012)"/><path fill="url(#c)" d="M0 16.607L33.839 3.681l33.838 13.274-33.975 13.75z" transform="translate(61.012)"/><path fill="url(#d)" d="M9.33 15.428V9.361l49.017.252v6.067L33.74 25.64z" transform="translate(61.012)"/><path fill="url(#e)" d="M9.33 9.361L33.84 0l24.508 9.613-24.606 9.959z" transform="translate(61.012)"/><path fill="url(#f)" d="M26.687 10.603l-.036 14.239-11.863-4.756V5.862zm0 17.472l-.036 14.238-11.863-4.755V23.334z" transform="translate(64.48 23.864)"/><path fill="url(#g)" d="M11.897 4.741l-.034 14.239L0 14.224V0zm0 17.472l-.034 14.238L0 31.696V17.472z" transform="translate(64.48 23.864)"/><path fill="url(#f)" d="M26.687 45.033l-.036 14.239-11.863-4.756V40.292z" transform="translate(64.48 23.864)"/><path fill="url(#g)" d="M11.897 39.17l-.034 14.24L0 48.653V34.43z" transform="translate(64.48 23.864)"/><path fill="url(#f)" d="M26.687 61.991L26.65 76.23l-11.863-4.756V57.25z" transform="translate(64.48 23.864)"/><path fill="url(#g)" d="M11.897 56.129l-.034 14.239L0 65.612V51.388z" transform="translate(64.48 23.864)"/><path fill="url(#f)" d="M26.687 78.95l-.036 14.238-11.863-4.756V74.208z" transform="translate(64.48 23.864)"/><path fill="url(#g)" d="M11.897 73.087l-.034 14.239L0 82.57V68.346z" transform="translate(64.48 23.864)"/><path fill="url(#f)" d="M26.687 95.907l-.036 14.239-11.863-4.756V91.166z" transform="translate(64.48 23.864)"/><path fill="url(#g)" d="M11.897 90.045l-.034 14.239L0 99.528V85.304z" transform="translate(64.48 23.864)"/><path fill="url(#f)" d="M26.687 112.865l-.036 14.239-11.863-4.755v-14.225z" transform="translate(64.48 23.864)"/><path fill="url(#g)" d="M11.897 107.003l-.034 14.239L0 116.487v-14.225z" transform="translate(64.48 23.864)"/><path d="M97.918 34.467l.036 14.238 11.863-4.755V29.726zm0 17.471l.036 14.24 11.863-4.756V47.197zm14.789-23.333l.035 14.238 11.863-4.755V23.864zm0 17.471l.035 14.239 11.863-4.755V41.335zM97.918 68.897l.036 14.238 11.863-4.755V64.155zm14.789-5.862l.035 14.238 11.863-4.755V58.293zm-14.789 22.82l.036 14.238 11.863-4.755V81.114zm14.789-5.862l.035 14.238 11.863-4.755V75.25zm-14.789 22.82l.036 14.238 11.863-4.755V98.072zm14.789-5.863l.035 14.24 11.863-4.756V92.21zm-14.789 22.82l.036 14.24 11.863-4.756V115.03zm14.789-5.861l.035 14.238 11.863-4.755v-14.224zm-14.789 22.82l.036 14.239 11.863-4.756v-14.224zm14.789-5.862l.035 14.238 11.863-4.755v-14.224z" fill="#358A93"/><path fill="url(#h)" opacity=".5" d="M33.839 158.523l38.307 15.266 33.839-13.485-38.308-15.265z" transform="translate(61.012)"/><path fill="url(#i)" opacity=".5" d="M33.74 25.639l6.245 2.523 25.412-10.285-7.05-2.197z" transform="translate(61.012)"/><path fill="url(#j)" d="M0 125.372l39.419 15.707-.16-109.6L0 15.057z" transform="translate(0 59.096)"/><path fill="url(#k)" d="M39.419 141.08l39.418-15.708V15.462L39.26 31.48z" transform="translate(0 59.096)"/><path fill="url(#l)" d="M0 15.057L39.419 0l39.418 15.462L39.26 31.48z" transform="translate(0 59.096)"/><path fill="#358A93" d="M43.896 94.309l.04 16.585 13.82-5.54v-16.57zm17.227-6.83l.04 16.586 13.82-5.54v-16.57zm-17.227 26.87l.04 16.587 13.82-5.54v-16.57zm17.227-6.829l.04 16.586 13.82-5.54v-16.569zm-17.227 26.87l.04 16.586 13.82-5.54v-16.57zm17.227-6.83l.04 16.587 13.82-5.54v-16.57zm-17.227 26.87l.04 16.587 13.82-5.54v-16.57zm17.227-6.828l.04 16.585 13.82-5.54V142.08zm-17.227 26.87l.04 16.586 13.82-5.54v-16.57zm17.227-6.83l.04 16.587 13.82-5.54v-16.57z"/><path fill="url(#m)" d="M35.127 35.213l-.042 16.585-13.819-5.54v-16.57zm0 20.19l-.042 16.585-13.819-5.539V49.88z" transform="translate(0 59.096)"/><path fill="url(#n)" d="M17.899 28.383l-.041 16.587-13.819-5.54V22.86zm0 20.19l-.041 16.587-13.819-5.54V43.05z" transform="translate(0 59.096)"/><path fill="url(#m)" d="M35.127 75.71l-.042 16.585-13.819-5.54v-16.57z" transform="translate(0 59.096)"/><path fill="url(#n)" d="M17.899 68.88l-.041 16.587-13.819-5.54v-16.57z" transform="translate(0 59.096)"/><path fill="url(#m)" d="M35.127 96.017l-.042 16.585-13.819-5.54v-16.57z" transform="translate(0 59.096)"/><path fill="url(#n)" d="M17.899 89.187l-.041 16.586-13.819-5.54v-16.57z" transform="translate(0 59.096)"/><path fill="url(#m)" d="M35.127 116.324l-.042 16.585-13.819-5.54V110.8z" transform="translate(0 59.096)"/><path fill="url(#n)" d="M17.899 109.494l-.041 16.586-13.819-5.54v-16.57z" transform="translate(0 59.096)"/><path fill="url(#o)" opacity=".5" d="M39.419 141.08l44.624 17.781 39.418-15.707-44.624-17.782z" transform="translate(0 59.096)"/><path fill="url(#p)" d="M0 14.285V8.668l45.385.233v5.618l-22.783 9.22z" transform="translate(15.898 60.156)"/><path fill="url(#q)" d="M0 8.668L22.693 0l22.692 8.901-22.783 9.221z" transform="translate(15.898 60.156)"/><path fill="url(#r)" opacity=".5" d="M31.564 27.136l23.53-9.523-9.709-3.094-22.783 9.22z" transform="translate(15.898 60.156)"/><path fill="url(#s)" d="M39.419 119.08l-.16-87.601L0 15.057v88.315z" transform="translate(95 81)"/><path fill="url(#t)" d="M78.837 103.372v-87.91L39.26 31.48l.159 87.6z" transform="translate(95 81)"/><path fill="url(#l)" d="M0 15.057L39.419 0l39.418 15.462L39.26 31.48z" transform="translate(95 81)"/><path fill="#358A93" d="M138.896 114.253l.04 16.587 13.82-5.54v-16.57zm17.227-6.828l.04 16.585 13.82-5.54v-16.568zm-17.227 26.87l.04 16.585 13.82-5.54v-16.57zm17.227-6.83l.04 16.586 13.82-5.54v-16.57zm-17.227 26.87l.04 16.586 13.82-5.539v-16.57zm17.227-6.829l.04 16.586 13.82-5.54v-16.569zm-17.227 26.87l.04 16.586 13.82-5.54v-16.57zm17.227-6.829l.04 16.586 13.82-5.54v-16.57z"/><path fill="url(#m)" d="M35.127 33.403l-.042 16.585-13.819-5.539V27.88z" transform="translate(95 81)"/><path fill="url(#n)" d="M17.899 26.573l-.041 16.587-13.819-5.54V21.05z" transform="translate(95 81)"/><path fill="url(#m)" d="M35.127 53.71l-.042 16.585-13.819-5.54v-16.57z" transform="translate(95 81)"/><path fill="url(#n)" d="M17.899 46.88l-.041 16.587-13.819-5.54v-16.57z" transform="translate(95 81)"/><path fill="url(#m)" d="M35.127 74.017l-.042 16.585-13.819-5.54v-16.57z" transform="translate(95 81)"/><path fill="url(#n)" d="M17.899 67.187l-.041 16.586-13.819-5.54v-16.57z" transform="translate(95 81)"/><path fill="url(#m)" d="M35.127 94.324l-.042 16.585-13.819-5.54V88.8z" transform="translate(95 81)"/><path fill="url(#n)" d="M17.899 87.494l-.041 16.586-13.819-5.54V81.97z" transform="translate(95 81)"/><path fill="url(#o)" opacity=".5" d="M39.419 119.08l44.624 17.781 39.418-15.707-44.624-17.782z" transform="translate(95 81)"/><path fill="url(#p)" d="M0 14.285V8.668l45.385.233v5.618l-22.783 9.22z" transform="translate(110.898 82.06)"/><path fill="url(#q)" d="M0 8.668L22.693 0l22.692 8.901-22.783 9.221z" transform="translate(110.898 82.06)"/><path fill="url(#r)" opacity=".5" d="M31.564 27.136l23.53-9.523-9.709-3.094-22.783 9.22z" transform="translate(110.898 82.06)"/></g></svg>