<svg width="187" height="180" xmlns="http://www.w3.org/2000/svg"><defs><linearGradient x1="0%" y1="50.003%" x2="100%" y2="50.003%" id="a"><stop stop-color="#F9B231" offset="0%"/><stop stop-color="#FFFAF4" offset="100%"/></linearGradient><linearGradient x1="51.293%" y1="53.683%" x2="40.416%" y2="42.432%" id="b"><stop stop-color="#77C4DF" stop-opacity="0" offset="0%"/><stop stop-color="#114758" offset="100%"/></linearGradient><linearGradient x1="53.237%" y1="90.014%" x2="38.702%" y2="-20.606%" id="c"><stop stop-color="#FFCB6C" offset="0%"/><stop stop-color="#FFFAF4" offset="100%"/></linearGradient><linearGradient x1="46.774%" y1="-2.4%" x2="50.302%" y2="53.308%" id="d"><stop stop-color="#AC9370" offset="0%"/><stop stop-color="#594834" offset="100%"/></linearGradient><linearGradient x1="5.915%" y1="55.068%" x2="149.031%" y2="45.599%" id="e"><stop stop-color="#AC9370" offset="0%"/><stop stop-color="#594834" offset="100%"/></linearGradient><linearGradient x1="-18.624%" y1="54.162%" x2="131.342%" y2="44.929%" id="f"><stop stop-color="#AC9370" offset="0%"/><stop stop-color="#594834" offset="100%"/></linearGradient><linearGradient x1="46.663%" y1="-2.4%" x2="50.312%" y2="53.308%" id="g"><stop stop-color="#AC9370" offset="0%"/><stop stop-color="#594834" offset="100%"/></linearGradient></defs><g fill="none" fill-rule="evenodd"><path d="M107.013 84.49l43.24 17.135c3.624 1.431 4.873 4.642 2.78 7.13a6.912 6.912 0 0 1-2.768 1.867l-3.668 1.456c-2.45.977-3.286 3.111-1.874 4.822a4.68 4.68 0 0 0 1.874 1.294l36.142 14.46c4.074 1.624 5.467 5.227 3.124 8.04a7.786 7.786 0 0 1-3.124 2.152l-13.54 5.389c-2.45.97-3.294 3.11-1.875 4.822a4.668 4.668 0 0 0 1.874 1.294l7.28 2.937c2.45.97 3.293 3.11 1.874 4.822a4.606 4.606 0 0 1-1.874 1.294l-35.392 14.08a38.192 38.192 0 0 1-27.262 0l-34.567-13.75a23.839 23.839 0 0 0-17.04 0l-5.536 2.196a23.839 23.839 0 0 1-17.034 0L4.268 151.862c-4.08-1.624-5.48-5.227-3.124-8.039a7.749 7.749 0 0 1 3.124-2.165l36.08-14.311c2.449-.977 3.292-3.111 1.874-4.828a4.724 4.724 0 0 0-1.875-1.295l-13.503-5.438c-4.086-1.624-5.486-5.22-3.124-8.039a7.774 7.774 0 0 1 3.124-2.159L79.813 84.52a38.173 38.173 0 0 1 27.2-.03z" fill="#F0F2F5"/><g fill-rule="nonzero"><path fill="url(#a)" d="M81.983 72.281l36.396-45.026L73.5 45.378 59.19 0 45.01 56.88 0 75.056l36.518 15.857-13.557 54.36 36.053-44.587 36.992 16.068z" transform="translate(28)"/><path fill="url(#b)" opacity=".64" d="M103.207 145.519L99.037 117 164 146.5l-78.319 29.408L26 145.52z" transform="translate(28)"/><path fill="url(#c)" d="M92.889 76.522l36.404-45.026-44.886 18.123L70.103 4.24 55.914 61.12l-45 18.176 36.518 15.857-13.557 54.36 36.053-44.587 36.983 16.068z" transform="translate(28)"/><path fill="url(#d)" d="M70.103 4.241L59.19 0 45.01 56.88l10.905 4.241z" transform="translate(28)"/><path fill="url(#e)" d="M0 75.056l10.914 4.24 45-18.175L45.01 56.88z" transform="translate(28)"/><path fill="url(#f)" d="M84.407 49.619l44.886-18.123-10.914-4.241-36.387 14.69z" transform="translate(28)"/><path fill="url(#g)" d="M36.518 90.913l10.914 4.241-13.557 54.36-10.914-4.24z" transform="translate(28)"/></g></g></svg>