<svg width="243" height="205" xmlns="http://www.w3.org/2000/svg"><defs><linearGradient x1="49.408%" y1="4.585%" x2="50.641%" y2="99.624%" id="a"><stop stop-color="#F9B231" offset="0%"/><stop stop-color="#FFFAF4" offset="100%"/></linearGradient><linearGradient x1="49.976%" y1="3.979%" x2="50.026%" y2="100.28%" id="b"><stop stop-color="#AC9370" offset="0%"/><stop stop-color="#594834" offset="100%"/></linearGradient><linearGradient x1="49.408%" y1="4.585%" x2="50.641%" y2="99.624%" id="c"><stop stop-color="#FEE8C4" offset="0%"/><stop stop-color="#FFF" offset="100%"/></linearGradient><linearGradient x1="49.46%" y1="4.52%" x2="50.566%" y2="99.699%" id="d"><stop stop-color="#AC9370" offset="0%"/><stop stop-color="#594834" offset="100%"/></linearGradient><linearGradient x1="56.957%" y1="52.113%" x2="36.016%" y2="43.618%" id="e"><stop stop-color="#77C4DF" stop-opacity="0" offset="0%"/><stop stop-color="#114758" offset="100%"/></linearGradient></defs><g fill="none"><path d="M3.987 162.493l100.621 40.092a30 30 0 0 0 22.514-.123l17.846-7.339a5 5 0 0 0-.3-9.361l-26.023-8.792a5 5 0 0 1-.25-9.382l15.112-6.023a5 5 0 0 0 0-9.29l-54.08-21.553a32 32 0 0 0-23.694 0L3.987 151.346a6 6 0 0 0 0 11.147z" fill="#F0F2F5"/><g transform="translate(35)"><path fill="url(#a)" d="M1.855 24.203v64.421l60.75-24.203V0z"/><rect fill="url(#b)" y="18.983" width="3.7" height="134.072" rx="1.58"/><path fill="url(#c)" d="M47.795 24.203v64.421l60.75-24.203V0z"/><path fill="url(#d)" d="M62.605 0l-14.81 24.203 14.81-5.897z"/><path fill="url(#e)" opacity=".64" d="M182.77 138.052l-46.93 18.16-23.273-9.47-60.874 23.547L3.7 151.399l-2.814 1.469 52.63 20.713 59.958 24.058 45.992-18.317 24.2 9.638 62.313-24.829z"/></g></g></svg>