<svg width="242" height="155" xmlns="http://www.w3.org/2000/svg"><defs><linearGradient x1="78.041%" y1="58.99%" x2="57.688%" y2="50.569%" id="a"><stop stop-color="#AC9370" offset="0%"/><stop stop-color="#594834" offset="100%"/></linearGradient><linearGradient x1="21.198%" y1="53.308%" x2="78.802%" y2="39.383%" id="b"><stop stop-color="#AC9370" offset="0%"/><stop stop-color="#594834" offset="100%"/></linearGradient><linearGradient x1=".078%" y1="49.956%" x2="100%" y2="49.956%" id="c"><stop stop-color="#FEE8C4" offset="0%"/><stop stop-color="#FFF" offset="100%"/></linearGradient><linearGradient x1="71.343%" y1="39.461%" x2="48.773%" y2="27.808%" id="d"><stop stop-color="#AC9370" offset="0%"/><stop stop-color="#594834" offset="100%"/></linearGradient><linearGradient x1="21.23%" y1="58.821%" x2="78.77%" y2="39.096%" id="e"><stop stop-color="#AC9370" offset="0%"/><stop stop-color="#594834" offset="100%"/></linearGradient><linearGradient x1=".028%" y1="50.007%" x2="100%" y2="50.007%" id="f"><stop stop-color="#FEE8C4" offset="0%"/><stop stop-color="#FFF" offset="100%"/></linearGradient><linearGradient x1="60.761%" y1="22.293%" x2="70.799%" y2="71.76%" id="g"><stop stop-color="#FFC04D" offset="0%"/><stop stop-color="#C58409" offset="100%"/></linearGradient><linearGradient x1="51.234%" y1="52.057%" x2="44.473%" y2="40.747%" id="h"><stop stop-color="#77C4DF" stop-opacity="0" offset="0%"/><stop stop-color="#114758" offset="100%"/></linearGradient><linearGradient x1="30.861%" y1="14.9%" x2="51.792%" y2="52.216%" id="i"><stop stop-color="#AC9370" offset="0%"/><stop stop-color="#594834" offset="100%"/></linearGradient><linearGradient x1="41.546%" y1="40.974%" x2="64.368%" y2="56.283%" id="j"><stop stop-color="#AC9370" offset="0%"/><stop stop-color="#594834" offset="100%"/></linearGradient></defs><g fill="none"><path d="M2.52 121.782l40.206 16.02a20 20 0 0 0 14.805 0l28.498-11.354a20 20 0 0 1 14.297-.194l4.53 1.663a20 20 0 0 0 14.404-.237l53.585-21.709a3.816 3.816 0 0 0-.02-7.08 3.784 3.784 0 0 1 0-7.03l38.787-15.454a4 4 0 0 0 0-7.432L171.408 52.95a20 20 0 0 0-14.808 0L2.52 114.35a4 4 0 0 0 0 7.431z" fill="#F0F2F5"/><path d="M3.267 77.446c4.68-22.227 21.753-37.42 38.164-34.03l-2.124-.442c-16.435-3.43-33.491 11.804-38.13 34.022-4.64 22.219 4.9 43.024 21.31 46.455l2.125.44C8.168 120.462-1.34 99.657 3.267 77.447z" fill="url(#a)" transform="translate(21)"/><path d="M41.43 43.416c-16.41-3.39-33.482 11.803-38.163 34.03-4.68 22.226 4.901 43.015 21.312 46.446 16.41 3.43 33.49-11.804 38.13-34.022 4.64-22.218-4.868-43.024-21.278-46.454zm-14.556 76.873C12.057 117.193 3.447 98.414 7.638 78.352c4.19-20.062 19.604-33.826 34.43-30.721 14.826 3.104 23.427 21.875 19.237 41.937-4.19 20.061-19.605 33.817-34.43 30.721z" fill="url(#b)" transform="translate(21)"/><path d="M21.32 80.786l-4.084-.343a29.113 29.113 0 0 1 6.763-16.729c3.954-4.5 8.936-6.73 14.074-6.298l-.35 4.085c-3.8-.327-7.581 1.43-10.62 4.9a25.004 25.004 0 0 0-5.783 14.385z" fill="url(#c)" transform="translate(21)"/><path d="M105.725 36.505c4.648-22.226 21.704-37.46 38.122-34.054l-2.124-.442c-16.41-3.43-33.49 11.804-38.13 34.022-4.64 22.219 4.901 43.024 21.312 46.454l2.131.442c-16.418-3.407-25.959-24.204-21.311-46.422z" fill="url(#d)" transform="translate(21)"/><path d="M143.855 2.45c-16.418-3.43-33.49 11.804-38.13 34.03-4.64 22.227 4.901 43.016 21.311 46.447 16.411 3.43 33.491-11.804 38.123-34.03 4.631-22.227-4.893-42.991-21.304-46.446zM129.3 79.35c-14.817-3.096-23.435-21.875-19.237-41.937 4.199-20.062 19.605-33.826 34.422-30.73 14.818 3.096 23.436 21.908 19.245 41.945-4.19 20.037-19.612 33.818-34.43 30.722z" fill="url(#e)" transform="translate(21)"/><path d="M118.623 58.413a36.423 36.423 0 0 1-1.062-19.368c1.634-7.678 5.35-14.458 10.53-19.09 5.358-4.778 11.615-6.722 17.627-5.464 5.31 1.11 9.908 4.689 12.947 10.08l-3.553 2.01c-2.45-4.355-6.086-7.222-10.227-8.088-4.705-.988-9.705.613-14.075 4.518-4.533 4.043-7.817 10.039-9.246 16.868a32.208 32.208 0 0 0 .906 17.153l-3.847 1.38z" fill="url(#f)" transform="translate(21)"/><path d="M137.933 40.736c-14.033-8.34-31.105-10.513-48.08-6.053a72.373 72.373 0 0 0-7.604 2.451c12.726-12.35 19.204-23.362 19.204-32.74a2.042 2.042 0 1 0-4.085 0c0 8.333-6.534 18.96-18.91 30.73-3.945 3.75-7.907 7.074-11.215 9.688-11.436 7.426-23.689 19.27-34.569 38.14a2.034 2.034 0 0 0 .817 2.817 2 2 0 0 0 1.02.27 2.018 2.018 0 0 0 1.724-1.087c7.948-13.764 16.599-23.64 25.086-30.713l.09-.041c.237-.163 3.61-2.45 8.307-6.15a73.704 73.704 0 0 1 21.238-9.444c15.88-4.15 31.857-2.156 44.927 5.62a2.042 2.042 0 0 0 2.083-3.512l-.033.024z" fill="url(#g)" transform="translate(21)"/><path d="M181.978 73.067c-23.615-5.064-43.775 3.684-45.025 19.531-.751 9.5 5.473 19.4 15.66 26.89a65.144 65.144 0 0 1-8.986 6.045 73.37 73.37 0 0 1-21.818 7.883c-1.92.188-3.627.384-5.081.572-6.698-10.162-20.046-18.894-35.86-22.284-23.615-5.064-43.775 3.684-45.025 19.531-1.25 15.847 16.876 32.805 40.492 37.853 23.615 5.048 43.783-3.684 45.024-19.531a22.872 22.872 0 0 0-2.32-11.51 69.623 69.623 0 0 0 3.268-.555c4.19-.408 9.353-.768 14.801-.817 17.072-.09 29.145 3.039 34.92 9.051a2.045 2.045 0 1 0 2.95-2.834c-6.535-6.756-18.788-10.211-36.538-10.293a73.672 73.672 0 0 0 7.18-3.512 68.942 68.942 0 0 0 10.505-7.205 66.459 66.459 0 0 0 21.311 8.577c23.615 5.065 43.775-3.684 45.017-19.53 1.241-15.848-16.86-32.797-40.475-37.862zm-64.654 74.22c-1.127 14.31-19.335 22.201-40.654 17.635-21.32-4.566-37.698-19.882-36.57-34.226 1.126-14.344 19.326-22.21 40.646-17.636 14.89 3.194 27.356 11.616 33.147 21.287-1.372.196-2.189.343-2.311.36h-.098c-11.02.817-24.106-.335-39.372-4.754a2.018 2.018 0 0 0-1.977.49 1.96 1.96 0 0 0-.548.898 2.042 2.042 0 0 0 1.39 2.533c17.717 5.13 32.673 5.946 44.926 4.517a19.988 19.988 0 0 1 1.421 8.895zm101.118-38.646c-1.127 14.311-19.327 22.21-40.655 17.636a60.161 60.161 0 0 1-18.444-7.246 60.12 60.12 0 0 0 16.745-27.601 2.042 2.042 0 0 0-3.937-1.086 56.2 56.2 0 0 1-16.337 26.384c-9.484-6.813-15.316-15.904-14.63-24.636 1.128-14.312 19.327-22.21 40.655-17.636 21.328 4.574 37.73 19.874 36.603 34.185z" fill="url(#h)" opacity=".64" transform="translate(21)"/><path d="M62.897 21.54a1.634 1.634 0 0 0-1.037-1.527l-.751-.294a4.721 4.721 0 0 0-.531-.204l-36.4-14.45c-2.736-1.267-5.954.326-8.543 2.638a16.868 16.868 0 0 0-5.016 9.149 16.892 16.892 0 0 0 .964 10.406c1.454 3.153 3.855 5.228 6.772 5.84h.253c.42 0 .812-.216 1.037-.571l.72-1.152a1.2 1.2 0 0 0 .056-1.103 1.217 1.217 0 0 0-.874-.718 6.535 6.535 0 0 1-4.468-3.97 12.816 12.816 0 0 1-.71-7.94 12.84 12.84 0 0 1 3.822-7.025c1.773-1.585 3.627-2.148 5.465-1.389l30.256 12.008c-.474.343-.923.71-1.364 1.095A16.909 16.909 0 0 0 47.5 31.48c-.8 3.486-.475 7.135.931 10.423 1.446 3.153 3.856 5.228 6.772 5.84h.253c.42 0 .812-.216 1.037-.57l.686-1.128a1.2 1.2 0 0 0 .123-1.12 1.217 1.217 0 0 0-.874-.718 6.535 6.535 0 0 1-4.468-3.97 12.816 12.816 0 0 1-.71-7.94 12.865 12.865 0 0 1 3.83-6.976c1.773-1.584 3.627-2.148 5.465-1.388l.588.228a1.25 1.25 0 0 0 1.764-1.192v-1.43z" fill="url(#i)" transform="translate(21)"/><path d="M101.29.466c9.115 3.716 2.916 6.804-.997 6.534-5.114-.31-12.408 4.354-14.597 3.104-2.05-1.168 2.328-3.447 5.718-5.39 2.712-1.57 5.162-6.176 9.875-4.248z" fill="url(#j)" transform="translate(21)"/></g></svg>