<svg width="195" height="181" xmlns="http://www.w3.org/2000/svg"><defs><linearGradient x1="96.288%" y1="57.567%" x2="29.746%" y2="46.69%" id="a"><stop stop-color="#77C4DF" stop-opacity="0" offset="38%"/><stop stop-color="#114758" offset="100%"/></linearGradient><linearGradient x1="94.296%" y1="85.092%" x2="-13.852%" y2="4.203%" id="b"><stop stop-color="#AC9370" offset="0%"/><stop stop-color="#594834" offset="100%"/></linearGradient><linearGradient x1="94.045%" y1="84.766%" x2="-11.671%" y2="4.114%" id="c"><stop stop-color="#F9B231" offset="0%"/><stop stop-color="#FFFAF4" offset="100%"/></linearGradient><linearGradient x1=".002%" y1="49.992%" x2="100.024%" y2="49.992%" id="d"><stop stop-color="#AC9370" offset="0%"/><stop stop-color="#594834" offset="100%"/></linearGradient></defs><g fill="none"><path d="M191.802 164.679l-35.1 13.985a20 20 0 0 1-14.806 0l-24.641-9.817a20 20 0 0 0-14.297-.194l-2.83 1.039a20 20 0 0 1-14.404-.237l-48.138-19.502a3.473 3.473 0 0 1 .018-6.446 3.444 3.444 0 0 0 0-6.4L3.131 123.372a4 4 0 0 1 0-7.432l35.1-13.989a20 20 0 0 1 14.808 0l138.763 55.296a4 4 0 0 1 0 7.432z" fill="#F0F2F5"/><path fill="url(#a)" opacity=".64" d="M61.385 141.325l155.768 62.176 9.38-3.567-155.76-62.168z" transform="translate(20)"/><path d="M122.762 43.423L16.792 1.194a5.624 5.624 0 0 0-3.955-.095l-.364.143-8.771 3.504L9 8.969v77.323a14.237 14.237 0 0 0 8.97 13.224l37.395 14.854 7.047 11.176-.53 15.732 8.914-3.512a.846.846 0 0 0 .253-.158l12.291-12.054 3.955 1.582 31.835 18.12 8.7-3.456.357-.143.182-.07a5.647 5.647 0 0 0 3.29-5.142v-79.79a14.237 14.237 0 0 0-8.898-13.232z" fill="url(#b)" transform="translate(20)"/><path d="M113.761 46.982L7.783 4.746A5.679 5.679 0 0 0 0 10.029v79.774a14.237 14.237 0 0 0 8.97 13.233l37.371 14.893 14.561 23.072a.79.79 0 0 0 1.171.134l12.275-12.046 40.584 16.175a5.687 5.687 0 0 0 7.79-5.283V60.206c0-5.826-3.55-11.065-8.961-13.224z" fill="url(#c)" transform="translate(20)"/><path d="M86.568 66.597c-2.04-3.693-4.816-6.161-7.822-6.96a6.328 6.328 0 0 0-6.082 1.416 11.358 11.358 0 0 0-2.444 3.069 23.546 23.546 0 0 0-2.5-4.382c-1.827-2.508-3.891-4.081-6.137-4.675a7.016 7.016 0 0 0-7.736 2.816c-1.961 2.586-3.021 6.549-2.99 11.168 0 4.746 1.306 9.42 3.955 14.712 2.373 4.745 5.806 9.791 9.768 15.66 1.345 2.001 2.88 4.271 4.47 6.676.34.575.876 1.007 1.51 1.218a1.495 1.495 0 0 0 1.495-.411 410.687 410.687 0 0 1 4.39-4.327c3.875-3.78 7.22-7.04 9.546-10.511a21.498 21.498 0 0 0 3.741-12.656 27.454 27.454 0 0 0-3.164-12.813z" fill="url(#d)" transform="translate(20)"/><path d="M95.029 63.607c-2.041-3.693-4.817-6.161-7.815-6.968a6.383 6.383 0 0 0-6.09 1.424 11.342 11.342 0 0 0-2.436 3.069 24.361 24.361 0 0 0-2.531-4.39c-1.82-2.5-3.884-4.073-6.13-4.666-3.006-.791-5.75.197-7.743 2.815-1.993 2.618-3.022 6.55-2.982 11.168.04 4.746 1.297 9.42 3.955 14.712 2.372 4.746 5.805 9.792 9.76 15.653 1.352 2.009 2.887 4.279 4.476 6.683.34.575.877 1.008 1.511 1.218a1.495 1.495 0 0 0 1.495-.42 522.642 522.642 0 0 1 4.382-4.318c3.875-3.78 7.23-7.039 9.547-10.52a21.466 21.466 0 0 0 3.749-12.654 27.359 27.359 0 0 0-3.148-12.806z" fill="#FFF"/></g></svg>