<svg width="197" height="261" xmlns="http://www.w3.org/2000/svg" xmlns:xlink="http://www.w3.org/1999/xlink"><defs><linearGradient x1="68.033%" y1="93.714%" x2="68.033%" y2="-13.478%" id="a"><stop stop-color="#FEE8C4" offset="0%"/><stop stop-color="#FFF" offset="100%"/></linearGradient><linearGradient x1="0%" y1="49.995%" x2="100%" y2="49.995%" id="b"><stop stop-color="#AC9370" offset="0%"/><stop stop-color="#594834" offset="100%"/></linearGradient><linearGradient x1="43.336%" y1="56.456%" x2="78.021%" y2="25.719%" id="c"><stop stop-color="#FEE8C4" offset="0%"/><stop stop-color="#FFF" offset="100%"/></linearGradient><linearGradient x1="87.783%" y1="53.631%" x2="-1.028%" y2="45.101%" id="d"><stop stop-color="#AC9370" offset="0%"/><stop stop-color="#594834" offset="100%"/></linearGradient><linearGradient x1="49.741%" y1="50%" x2="50.134%" y2="50%" id="e"><stop stop-color="#AC9370" offset="0%"/><stop stop-color="#594834" offset="100%"/></linearGradient><linearGradient x1="56.514%" y1="50%" x2="32.935%" y2="35.689%" id="f"><stop stop-color="#77C4DF" stop-opacity="0" offset="0%"/><stop stop-color="#114758" offset="100%"/></linearGradient><linearGradient x1="46.234%" y1="7.032%" x2="57.786%" y2="138.153%" id="h"><stop stop-color="#FEE8C4" offset="0%"/><stop stop-color="#FFF" offset="100%"/></linearGradient><path d="M24.805 150.136C42.943 146.065 31.797 50.582.724 0c0 0-7.242 157.174 24.081 150.136z" id="g"/><linearGradient x1=".011%" y1="50.006%" x2="100.045%" y2="50.006%" id="k"><stop stop-color="#FEE8C4" offset="0%"/><stop stop-color="#FFF" offset="100%"/></linearGradient><path d="M8.337 66.944C-8.716 60.667 2.893 17.904 20.72 2.767L53.772 0S27.692 74.087 8.337 66.944z" id="j"/><linearGradient x1="0%" y1="49.99%" x2="100.008%" y2="49.99%" id="m"><stop stop-color="#AC9370" offset="0%"/><stop stop-color="#594834" offset="100%"/></linearGradient><linearGradient x1="0%" y1="50.007%" x2="134.205%" y2="50.007%" id="n"><stop stop-color="#FEE8C4" offset="0%"/><stop stop-color="#FFF" offset="100%"/></linearGradient><linearGradient x1="55.751%" y1="43.591%" x2="-30.577%" y2="67.192%" id="o"><stop stop-color="#FEE8C4" offset="0%"/><stop stop-color="#FFF" offset="100%"/></linearGradient><linearGradient x1="95.516%" y1="80.226%" x2="-10.923%" y2="-38.798%" id="p"><stop stop-color="#FEE8C4" offset="0%"/><stop stop-color="#FFF" offset="100%"/></linearGradient></defs><g fill="none" fill-rule="evenodd"><path d="M89.971 164.498L46.74 181.696c-3.623 1.437-4.873 4.659-2.78 7.157a6.91 6.91 0 0 0 2.767 1.873l3.668 1.461c2.448.98 3.286 3.123 1.874 4.84a4.68 4.68 0 0 1-1.874 1.299L14.26 212.839c-4.073 1.63-5.466 5.245-3.123 8.068a7.784 7.784 0 0 0 3.123 2.16l13.538 5.408c2.45.975 3.293 3.123 1.874 4.84a4.667 4.667 0 0 1-1.874 1.299l-7.278 2.948c-2.449.974-3.292 3.122-1.874 4.84a4.604 4.604 0 0 0 1.874 1.298l35.385 14.132a38.048 38.048 0 0 0 27.256 0l34.56-13.8a23.749 23.749 0 0 1 17.037 0l5.535 2.203a23.749 23.749 0 0 0 17.03 0l35.372-14.119c4.08-1.63 5.479-5.245 3.123-8.068a7.747 7.747 0 0 0-3.123-2.173l-36.072-14.363c-2.449-.98-3.292-3.122-1.874-4.846a4.723 4.723 0 0 1 1.874-1.299l13.5-5.458c4.086-1.63 5.486-5.24 3.124-8.068a7.772 7.772 0 0 0-3.124-2.167l-52.958-21.144a38.03 38.03 0 0 0-27.194-.032z" fill="#F0F2F5"/><path fill="url(#a)" fill-rule="nonzero" d="M39.716 218.384v-37.68l47.25 18.837v37.686z"/><path fill="url(#b)" fill-rule="nonzero" d="M86.965 199.541l47.25-18.837v37.68l-47.25 18.843z"/><path fill="url(#c)" fill-rule="nonzero" d="M39.716 180.704l47.25-18.843 47.249 18.843-47.25 18.837z"/><path fill="url(#d)" fill-rule="nonzero" d="M55.258 180.704l31.707-12.645 31.707 12.645-31.707 12.64z"/><path fill="url(#e)" fill-rule="nonzero" d="M86.965 173.373l25.05 9.982 6.657-2.651-31.707-12.645-31.707 12.645 6.657 2.65z"/><path d="M84.45 187.09c2.613-37.442-5.226-65.347-5.226-65.347" stroke="#603813"/><path fill="url(#f)" fill-rule="nonzero" opacity=".64" d="M86.965 237.227l94.505 37.68 47.25-18.843-94.505-37.68z"/><g transform="translate(60.966)"><mask id="i" fill="#fff"><use xlink:href="#g"/></mask><use fill="url(#h)" fill-rule="nonzero" xlink:href="#g"/><path d="M23.484 187.09c2.613-37.442-5.226-65.347-5.226-65.347" stroke="#E8D4C5" mask="url(#i)"/></g><path d="M92.075 183.824c-3.538-51.063 24.423-88.469 24.423-88.469" stroke="#603813"/><g transform="translate(89.353 76.098)"><mask id="l" fill="#fff"><use xlink:href="#j"/></mask><use fill="url(#k)" fill-rule="nonzero" xlink:href="#j"/><path d="M2.722 107.726C-.816 56.663 27.145 19.258 27.145 19.258" stroke="#E8D4C5" mask="url(#l)"/></g><path d="M110.072 78.864s2.863 22.427 18.345 31.916c0 0 4.379-9.22 9.281-20.58 4.903-11.36-27.626-11.336-27.626-11.336z" fill="url(#m)" fill-rule="nonzero" opacity=".3"/><path d="M110.072 78.864l33.053-2.766s24.002 10.043 47.085 40.666c.024 0-46.427-15.028-80.138-37.9z" fill="url(#n)" fill-rule="nonzero"/><path d="M22.766 100.92S8.296 106.537 0 125.825c0 0 34.965-10.518 53.431-24.907H22.766z" fill="url(#o)" fill-rule="nonzero"/><path d="M77.732 183.824c.256-31.415-21.42-53.732-21.42-53.732" stroke="#603813"/><path d="M71.672 154.444c17.98-9.75-4.811-45.31-24.142-58.01l-24.764 4.485s33.51 61.886 48.906 53.525z" fill="url(#p)" fill-rule="nonzero"/><path d="M71.672 154.444c-12.18-30.867-33.796-52.52-33.796-52.52" stroke="#E8D4C5"/></g></svg>