<svg width="1440" height="911" xmlns="http://www.w3.org/2000/svg" xmlns:xlink="http://www.w3.org/1999/xlink"><defs><radialGradient cx="-2.505%" cy="1.714%" fx="-2.505%" fy="1.714%" r="172.402%" gradientTransform="matrix(.61995 -.06343 .02444 .61888 -.01 .005)" id="b"><stop stop-color="#FDA916" stop-opacity=".776" offset="0%"/><stop stop-color="#F2D469" offset="32.97%"/><stop stop-color="#50BED3" offset="100%"/></radialGradient><path d="M1547 0H0v704.31l225.233 89.667c26.59 10.594 59.358 10.594 85.949 0l156.505-62.313c26.597-10.593 59.368-10.593 85.965 0l555.723 221.399c26.578 10.583 59.323 10.583 85.9 0l316.8-125.91c8.326-3.305 13.457-9.426 13.457-16.051 0-6.626-5.131-12.747-13.457-16.052l-42.325-16.859c-5.013-1.969-8.108-5.641-8.108-9.62 0-3.978 3.095-7.65 8.108-9.62l77.25-30.818V0z" id="a"/><radialGradient cx="56.007%" cy="54.723%" fx="56.007%" fy="54.723%" r="45.814%" gradientTransform="matrix(-1 .00273 -.00214 -.54137 1.121 .842)" id="c"><stop stop-color="#FFF" offset="0%"/><stop stop-color="#FCFDFC" stop-opacity=".964" offset="60.812%"/><stop stop-color="#FFF" stop-opacity="0" offset="100%"/></radialGradient></defs><g transform="translate(-107 -50)" fill="none" fill-rule="evenodd"><mask id="d" fill="#fff"><use xlink:href="#a"/></mask><use fill="url(#b)" xlink:href="#a"/><path d="M1802.98 169.019l-.37-.93-477.893 190.418-55.553-22.135 533.816-212.703-.37-.93-534.796 213.093-55.564-22.135 590.73-235.378-.37-.92-591.73 235.758-55.523-22.125L1802.98 32.969l-.37-.93-648.583 258.453-55.583-22.145L1802.98-12.37l-.37-.93-705.516 281.117-55.553-22.135L1802.98-57.72l-.37-.93-762.42 303.792-55.563-22.135L1802.98-103.07l-.37-.93-819.332 326.467L206.37-87.093l-.37.929 775.908 309.17-55.554 22.136L206.37-41.744l-.37.92 719.024 286.496-55.553 22.135L206.37 3.596l-.37.93 662.121 263.82-55.553 22.136L206.37 48.966l-.37.93 605.218 241.146-55.553 22.135L206.37 94.296l-.37.93 548.315 218.47-55.564 22.136L206.37 139.646l-.37.93 491.402 195.796-55.554 22.135L206.37 184.995l-.37.94 434.498 173.111-55.543 22.136L206.37 230.345l-.37.93 377.595 150.446-55.553 22.165-321.672-128.2-.37.929 320.692 127.781-55.564 22.135L206.37 321.045l-.37.93L469.779 427.07l-55.554 22.135-207.855-82.821-.37.93 206.875 82.431-55.553 22.125-150.952-60.136-.37.93 149.982 59.756-55.573 22.135-93.989-37.471-.37.93 93.059 37.081-55.603 22.135-37.136-14.797-.37.93 36.156 14.407-34.266 13.657.37.92 35.246-13.997 55.553 22.135-55.553 22.095-37.136-14.807-.37.93 36.156 14.407-34.266 13.657.37.93 35.246-14.047 55.553 22.135-55.573 22.145-37.116-14.787-.37.92 36.136 14.407-34.246 13.647.37.93 35.226-13.997 55.563 22.135-55.543 22.085-37.136-14.797-.37.93 36.156 14.427-34.266 13.636.37.93 35.246-14.047 55.553 22.135-55.563 22.136-37.126-14.797-.37.93 36.146 14.406-34.256 13.657.37.93 35.236-13.997 55.563 22.065-55.563 22.155-37.126-14.796-.37.93 36.146 14.406-34.256 13.647.37.93 35.236-13.997 55.563 22.145-55.553 22.085-37.136-14.796-.37.93 36.156 14.406-34.266 13.657.37.93 35.246-14.057 55.553 22.135-55.553 22.135-37.136-14.797-.37.93 36.156 14.407-34.266 13.657.37.93 35.246-13.997 55.553 22.135-55.573 22.095-37.116-14.787-.37.93 36.136 14.397-34.246 13.647.37.93 35.226-13.997 55.553 22.135-55.533 22.125-37.136-14.837-.37.93 36.156 14.407-34.266 13.657.37.93 35.246-13.997 55.553 22.135-55.563 22.135-37.126-14.847-.37.93 36.146 14.407-34.256 13.647.37.93 35.236-13.998 55.563 22.135-55.553 22.136-37.136-14.837-.37.93 36.156 14.406-34.266 13.657.37.93 35.246-13.997 55.553 22.135-55.553 22.135-37.136-14.846-.37.93 36.156 14.406-34.266 13.647.37.93 35.246-13.997 55.553 22.145-55.553 22.055-37.136-14.776-.37.93 36.156 14.406-34.266 13.657.37.93 35.246-14.047 55.553 22.135-55.583 22.155-37.106-14.787-.37.93 36.126 14.397-34.236 13.637.37.93 35.216-13.997 55.513 22.095-55.523 22.125-37.096-14.797-.37.93 36.156 14.407-34.266 13.657.37.93 35.246-13.997 55.553 22.125-91.17 36.282.37.93 92.15-36.712 55.573 22.135-148.092 58.987.37.93 149.072-59.407 55.543 22.135-204.985 81.691.37.92 205.975-82.061 55.554 22.155-261.9 104.346.37.93 262.88-104.737 55.553 22.136-318.802 126.971.37.93 319.782-127.422 55.553 22.135-375.705 149.757.37.93 376.695-150.097 55.543 22.105-432.608 172.402.37.93 433.588-172.762 55.574 22.145-489.532 195.057.37.93 490.511-195.447 55.544 22.125-546.425 217.732.37.93 547.405-218.122 55.553 22.135-603.328 240.396.37.93 604.308-240.786 55.553 22.135-660.231 263.071.37.93 661.211-263.461 55.553 22.135-717.134 285.746.37.93 718.114-286.106 55.534 22.105-774.018 308.411.37.93 775.018-308.801L1800.73 1819l.37-.93-816.463-325.317 55.534-22.105 760.56 303.032.37-.93-759.58-302.632 55.573-22.145 703.636 280.357.37-.93-702.656-279.937 55.553-22.135 646.733 257.682.37-.93-645.753-257.352 55.553-22.135 589.83 235.018.37-.93-588.84-234.628 55.564-22.135 532.936 212.333.37-.93-531.936-211.953 55.543-22.135 476.013 189.668.37-.93-475.053-189.298 55.553-22.135 419.11 166.963.37-.93-418.13-166.593 55.563-22.145 362.197 144.318.37-.93-361.217-143.967 55.554-22.136 305.293 121.643.37-.93-304.314-121.142 55.554-22.135 248.39 98.977.37-.93-247.41-98.577 55.583-22.145 191.457 76.283.37-.93-190.477-75.893 55.533-22.125 134.574 53.618.37-.93-133.594-53.198 55.554-22.135 77.67 30.993.37-.93-76.69-30.553 55.563-22.135 20.757 8.268.37-.93-19.777-7.878 21.657-8.628-.37-.93-22.637 8.998-55.554-22.135 55.554-22.135 20.757 8.268.37-.93-19.777-7.878 21.657-8.628-.37-.93-22.637 8.998-55.554-22.135 55.554-22.135 20.757 8.278.37-.93-19.777-7.878 21.657-8.638-.37-.93-22.637 8.998-55.554-22.135 55.584-22.155 20.727 8.258.37-.93-19.747-7.868 21.627-8.608-.37-.93-22.607 8.998-55.564-22.145 55.524-22.115 20.767 8.269.37-.93-19.787-7.879 21.667-8.638-.37-.93-22.647 8.999-55.554-22.135 55.564-22.135 20.757 8.268.37-.93-19.777-7.878 21.657-8.638-.37-.93-22.637 8.998-55.554-22.135 55.554-22.135 20.757 8.268.37-.93-19.777-7.878 21.657-8.628-.37-.93-22.637 8.998-55.554-22.135 55.554-22.135 20.757 8.268.37-.93-19.777-7.878 21.657-8.628-.37-.93-22.637 8.998-55.554-22.135 55.554-22.135 20.757 8.278.37-.93-19.777-7.878 21.657-8.638-.37-.93-22.637 8.998-55.554-22.135 55.554-22.135 20.757 8.268.37-.93-19.777-7.878 21.657-8.638-.37-.92-22.637 8.998-55.564-22.135 55.554-22.145 20.767 8.278.37-.93-19.787-7.758 21.667-8.638-.37-.93-22.647 8.998-55.554-22.135 55.564-22.145 20.757 8.279.37-.93-19.777-7.879 21.657-8.638-.37-.93-22.637 8.999-55.564-22.035 55.564-22.136 20.757 8.269.37-.93-19.777-7.878 21.657-8.628-.37-.93-22.637 8.998-55.564-22.135 55.564-22.135 20.757 8.268.37-.93-19.777-7.878 21.657-8.628-.37-.93-22.637 8.998-55.554-22.135 55.554-22.135 20.757 8.278.37-.93-19.777-7.888 21.657-8.628-.37-.93-22.637 8.998-55.564-22.135 78.571-31.313-.37-.92-79.55 31.693-55.554-22.145 135.474-53.988-.37-.93-136.454 54.378-55.563-22.135 192.387-76.663-.37-.93-193.367 77.103-55.553-22.135 249.29-99.328-.37-.93-250.27 99.718-55.494-22.115L1803 305.11l-.37-.92-307.133 122.372-55.644-22.165L1802.98 259.72l-.37-.93-364.077 145.097-55.553-22.135 420-167.352-.37-.92-420.95 167.733-55.563-22.136L1802.98 169.02zm-479.613 190.027l-55.553 22.136-55.554-22.136 55.554-22.145 55.553 22.145zm-340.08 181.96l55.554 22.135-55.553 22.105-55.554-22.135 55.554-22.105zM926.385 562.6l-55.563-22.165 55.553-22.135 55.534 22.135-55.524 22.165zm55.524 23.185l-55.564 22.135-55.523-22.135 55.563-22.135 55.524 22.135zm1.35.54l55.643 22.145-55.593 22.135-55.584-22.145 55.534-22.135zm-1.33 44.82l-55.554 22.135-55.553-22.145L926.374 609l55.554 22.145zm1.35.54l55.563 22.145-55.563 22.135-55.524-22.135 55.524-22.146zm-1.37 44.8l-55.544 22.125-55.533-22.126 55.543-22.125 55.534 22.125zm1.35.54l55.563 22.134-55.543 22.125-55.554-22.135 55.534-22.125zm-1.35 44.79l-55.574 22.144-55.513-22.145 55.563-22.145 55.524 22.145zm1.35.54L1038.9 744.5l-55.573 22.145-55.604-22.135 55.534-22.155zm-1.35 44.83l-55.554 22.134-55.533-22.135 55.553-22.135 55.534 22.135zm1.35.53l55.563 22.144-55.533 22.135-55.564-22.145 55.534-22.135zm-1.35 44.81l-55.554 22.144-55.533-22.145 55.553-22.135 55.534 22.135zm1.35.539l55.553 22.135-55.553 22.135-55.554-22.135 55.554-22.135zm-1.35 44.81l-55.564 22.145-55.523-22.135 55.563-22.095 55.524 22.085zm1.35.54l55.553 22.135-55.563 22.135-55.554-22.135 55.564-22.135zm-1.35 44.81l-55.554 22.135-55.553-22.135 55.553-22.135 55.554 22.135zm1.35.54l55.553 22.135-55.553 22.135-55.554-22.135 55.554-22.135zm-1.35 44.81l-55.524 22.185-55.553-22.135 55.543-22.135 55.534 22.085zm1.35.54l55.563 22.135-55.543 22.135-55.564-22.145 55.544-22.125zm-1.35 44.81l-55.564 22.135-55.563-22.136 55.603-22.165 55.524 22.165zm1.35.53l55.643 22.134-55.623 22.155-55.544-22.135 55.524-22.155zm-1.35 44.82l-55.554 22.134-55.543-22.135 55.553-22.135 55.544 22.135zm1.35.53l55.563 22.144-55.553 22.135-55.564-22.145 55.554-22.135zm-1.35 44.82l-55.524 22.104-55.563-22.145 55.553-22.135 55.534 22.175zm1.35.53l55.553 22.134-55.553 22.135-55.554-22.135 55.554-22.135zm-1.35 44.81l-55.574 22.144-55.553-22.135 55.573-22.145 55.554 22.135zm1.35.539l55.553 22.135-55.573 22.145-55.554-22.135 55.574-22.145zm-1.35 44.81l-55.544 22.135-55.543-22.135 55.543-22.125 55.544 22.125zm1.35.54l55.563 22.135-55.553 22.135-55.554-22.135 55.544-22.135zm1.36-.54l55.563-22.135 55.553 22.135-55.563 22.135-55.554-22.135zm56.913-22.675l55.553-22.135 55.553 22.135-55.553 22.135-55.553-22.135zm-1.35-.54l-55.554-22.135 55.554-22.135 55.553 22.135-55.553 22.135zm1.35-44.81l55.553-22.135 55.553 22.135-55.543 22.135-55.563-22.135zm-1.35-.53l-55.554-22.135 55.554-22.145 55.553 22.145-55.553 22.135zm1.35-44.81l55.573-22.145 55.553 22.135-55.573 22.145-55.553-22.135zm-1.35-.54l-55.554-22.135 55.564-22.145 55.563 22.135-55.573 22.145zm1.36-44.82l55.543-22.125 55.563 22.135-55.533 22.145-55.573-22.155zm-1.35-.54l-55.554-22.125 55.554-22.165 55.553 22.136-55.553 22.155zm1.35-44.8l55.543-22.134 55.553 22.135-55.553 22.135-55.543-22.135zm-1.36-.54l-55.554-22.134 55.544-22.135 55.563 22.135-55.553 22.135zm1.34-44.81l55.573-22.124 55.563 22.135-55.563 22.135-55.573-22.145zm-1.35-.54l-55.554-22.134 55.564-22.135 55.553 22.135-55.563 22.135zm1.36-44.81l55.553-22.134 55.553 22.135-55.553 22.135-55.553-22.135zm-1.35-.539l-55.554-22.135 55.564-22.085 55.553 22.135-55.563 22.085zm1.35-44.81l55.553-22.135 55.553 22.135-55.543 22.135-55.563-22.135zm-1.35-.53l-55.554-22.145 55.554-22.135 55.553 22.145-55.553 22.135zm1.35-44.81l55.573-22.145 55.553 22.135-55.563 22.145-55.563-22.135zm-1.35-.54l-55.554-22.135 55.564-22.145 55.563 22.135-55.573 22.145zm1.37-44.82l55.533-22.125 55.563 22.135-55.543 22.125-55.553-22.135zm-1.36-.54l-55.544-22.145 55.544-22.125 55.553 22.125-55.553 22.145zm1.34-44.8l55.563-22.135 55.553 22.135-55.553 22.135-55.563-22.135zm-1.35-.54l-55.554-22.135 55.554-22.135 55.553 22.135-55.553 22.136zm1.36-44.79l55.553-22.135 55.563 22.136-55.563 22.115-55.553-22.115zm-1.35-.54l-55.534-22.124 55.554-22.135 55.533 22.125-55.553 22.135zm1.38-44.8l55.553-22.134 55.523 22.125-55.553 22.115-55.523-22.105zm-1.36-.54l-55.574-22.144 55.554-22.135 55.583 22.175-55.563 22.105zm1.33-44.82l55.553-22.134 55.583 22.145-55.553 22.135-55.583-22.145zm-1.35-.53l-55.554-22.144 55.554-22.135 55.553 22.135-55.553 22.145zm-56.903-22.674l-55.564-22.165 55.554-22.135 55.563 22.145-55.553 22.155zm-56.914-22.675l-55.553-22.165 55.553-22.135 55.534 22.145-55.534 22.155zm-1.35.53l-55.553 22.145-55.543-22.165 55.553-22.135 55.543 22.155zm-56.903 22.655l-55.553 22.145-55.564-22.145 55.564-22.135 55.553 22.135zm1.35.54l55.563 22.135-55.563 22.145-55.543-22.145 55.543-22.135zm-1.35 44.81l-55.553 22.135-55.554-22.135 55.554-22.135 55.553 22.135zm1.35.54l55.553 22.135-55.553 22.135-55.543-22.135 55.543-22.135zm-1.35 44.81l-55.543 22.135-55.554-22.135L812.568 609l55.553 22.135zm1.35.54l55.573 22.155-55.543 22.125-55.573-22.125 55.543-22.156zm-1.32 44.81l-55.573 22.145-55.564-22.146 55.564-22.145 55.573 22.145zm1.35.54l55.533 22.124-55.563 22.145-55.543-22.125 55.573-22.145zm-1.38 44.79l-55.553 22.134-55.544-22.135 55.554-22.135 55.543 22.135zm1.35.54l55.553 22.134-55.553 22.135-55.543-22.115 55.543-22.155zm-1.35 44.81L812.568 789.3l-55.554-22.145 55.554-22.135 55.553 22.145zm1.35.53l55.553 22.134-55.553 22.165-55.543-22.135 55.543-22.165zm-1.35 44.81l-55.563 22.144-55.554-22.135 55.564-22.145 55.553 22.135zm1.35.539l55.563 22.135-55.563 22.145-55.543-22.115 55.543-22.165zm-1.36 44.82l-55.543 22.125-55.554-22.135 55.544-22.065 55.553 22.075zm1.36.53l55.553 22.135-55.553 22.135-55.543-22.115 55.543-22.155zm-1.35 44.81l-55.543 22.135-55.564-22.135 55.554-22.135 55.553 22.135zm1.35.54l55.553 22.135-55.543 22.135-55.553-22.115 55.543-22.155zm-1.34 44.81l-55.563 22.205-55.554-22.135 55.564-22.135 55.553 22.065zm1.35.53l55.553 22.135-55.563 22.145-55.543-22.115 55.553-22.165zm-1.36 44.82l-55.553 22.135-55.554-22.136 55.554-22.145 55.553 22.145zm1.35.54l55.563 22.134-55.553 22.165-55.553-22.145 55.543-22.155zm-1.34 44.81l-55.553 22.134-55.564-22.145 55.554-22.135 55.563 22.145zm1.35.54l55.543 22.124-55.553 22.145-55.543-22.115 55.553-22.155zm-1.36 44.8l-55.573 22.134-55.544-22.135 55.574-22.135 55.543 22.135zm1.35.54l55.563 22.134-55.573 22.145-55.533-22.115 55.543-22.165zm-1.36 44.82l-55.543 22.124-55.554-22.135 55.534-22.125 55.563 22.135zm1.35.539l55.553 22.135-55.543 22.125-55.543-22.115 55.533-22.145zm-1.34 44.8l-55.553 22.135-55.554-22.135 55.554-22.135 55.553 22.135zm1.35.54l55.553 22.135-55.553 22.135-55.543-22.115 55.543-22.155zm56.903 22.675l55.534 22.195-55.544 22.135-55.533-22.135 55.543-22.195zm56.904 22.675l55.623 22.155-55.553 22.135-55.564-22.135 55.494-22.155zm1.36-.54l55.543-22.135 55.563 22.195-55.543 22.095-55.564-22.155zm56.893-22.675l55.563-22.135 55.563 22.135-55.563 22.145-55.563-22.145zm56.913-22.675l55.553-22.135 55.564 22.135-55.554 22.135-55.563-22.135zm56.903-22.675l55.553-22.135 55.564 22.135-55.584 22.155-55.533-22.155zm-1.35-.54l-55.553-22.135 55.553-22.135 55.554 22.135-55.554 22.135zm1.35-44.81l55.573-22.135 55.554 22.135-55.594 22.155-55.533-22.155zm-1.35-.54l-55.553-22.125 55.573-22.145 55.554 22.135-55.574 22.135zm1.37-44.81l55.543-22.125 55.554 22.135-55.584 22.145-55.513-22.155zm-1.35-.54l-55.553-22.135 55.543-22.125 55.554 22.135-55.544 22.125zm1.34-44.8l55.553-22.135 55.554 22.135-55.584 22.165-55.523-22.165zm-1.35-.54l-55.563-22.135 55.553-22.145 55.564 22.136-55.554 22.145zm1.34-44.81l55.563-22.134 55.554 22.135-55.584 22.155-55.533-22.155zm-1.35-.54l-55.553-22.134 55.563-22.135 55.554 22.135-55.564 22.135zm1.36-44.81l55.523-22.104 55.554 22.135-55.554 22.125-55.523-22.155zm-1.35-.54l-55.563-22.134 55.553-22.135 55.564 22.135-55.554 22.135zm1.34-44.81l55.533-22.114 55.564 22.135-55.564 22.135-55.533-22.155zm-1.35-.539l-55.553-22.135 55.553-22.065 55.554 22.135-55.554 22.065zm1.35-44.81l55.583-22.145 55.554 22.135-55.604 22.165-55.533-22.155zm-1.35-.53l-55.553-22.135 55.573-22.145 55.564 22.135-55.584 22.145zm1.38-44.82l55.503-22.115 55.554 22.145-55.534 22.125-55.523-22.155zm-1.35-.54l-55.563-22.135 55.543-22.125 55.554 22.135-55.534 22.125zm1.33-44.8l55.523-22.115 55.554 22.135-55.554 22.135-55.523-22.155zm-1.35-.54l-55.563-22.135 55.553-22.135 55.564 22.135-55.554 22.135zm1.34-44.81l55.533-22.115 55.554 22.135-55.554 22.135-55.533-22.155zm-1.35-.54l-55.553-22.135 55.563-22.135 55.554 22.135-55.564 22.136zm1.36-44.77l55.523-22.155 55.584 22.156-55.584 22.115-55.523-22.115zm-1.35-.54l-55.563-22.154L1153.997 609l55.564 22.135-55.554 22.155zm1.34-44.81l55.533-22.154 55.564 22.135-55.564 22.135-55.533-22.115zm-1.35-.54l-55.523-22.094 55.553-22.135 55.524 22.125-55.554 22.105zm1.38-44.8l55.553-22.134 55.534 22.125-55.584 22.115-55.503-22.105zm-1.35-.53l-55.583-22.154 55.553-22.135 55.584 22.155-55.554 22.135zm-56.933-22.704l-55.553-22.135 55.553-22.135 55.553 22.135-55.553 22.135zm-56.903-22.675l-55.554-22.135 55.554-22.135 55.553 22.135-55.553 22.135zm-56.913-22.675l-55.554-22.135 55.554-22.145 55.563 22.145-55.563 22.135zm-56.904-22.685l-55.553-22.125 55.553-22.135 55.534 22.135-55.534 22.125zm-1.35.54l-55.553 22.135-55.543-22.125 55.553-22.145 55.543 22.135zm-56.903 22.675l-55.553 22.135-55.564-22.135 55.564-22.135 55.553 22.135zm-56.913 22.675l-55.553 22.145-55.554-22.145 55.554-22.135 55.553 22.135zm-56.903 22.675L698.75 562.57l-55.553-22.135L698.75 518.3l55.554 22.135zm1.35.54l55.563 22.135-55.553 22.135L700.1 563.11l55.554-22.135zm-1.34 44.81L698.76 607.92l-55.563-22.135 55.553-22.135 55.564 22.135zm1.35.54l55.553 22.135-55.543 22.135-55.564-22.135 55.554-22.135zm-1.34 44.81L698.75 653.27l-55.553-22.135L698.761 609l55.564 22.135zm1.35.54l55.553 22.155-55.573 22.135L700.1 653.83l55.574-22.156zm-1.37 44.81L698.75 698.62l-55.553-22.136 55.553-22.135 55.554 22.135zm1.35.54l55.573 22.144-55.553 22.135L700.1 699.16l55.554-22.135zm-1.33 44.79L698.77 743.95l-55.573-22.135 55.553-22.135 55.574 22.135zm1.35.54l55.533 22.134-55.553 22.135-55.534-22.115 55.554-22.155zm-1.37 44.8L698.74 789.32l-55.543-22.135 55.573-22.135 55.534 22.105zm1.35.54l55.563 22.134-55.563 22.165-55.564-22.135 55.564-22.165zm-1.35 44.82L698.76 834.65l-55.563-22.145L698.74 790.4l55.564 22.115zm1.35.539l55.553 22.135-55.543 22.125-55.554-22.135 55.544-22.125zm-1.34 44.8L698.76 879.99l-55.553-22.135 55.553-22.065 55.554 22.065zm1.35.54l55.553 22.135-55.553 22.135-55.554-22.135 55.554-22.135zm-1.35 44.81L698.75 925.34l-55.553-22.135 55.563-22.135 55.554 22.135zm1.35.54l55.563 22.135-55.573 22.135L700.1 925.88l55.564-22.135zm-1.36 44.81L698.75 970.76l-55.553-22.135 55.553-22.135 55.554 22.065zm1.36.54l55.553 22.135-55.553 22.135L700.1 971.23l55.564-22.135zm-1.36 44.81l-55.554 22.135-55.553-22.136 55.553-22.145 55.554 22.145zm1.35.54l55.553 22.134-55.553 22.165-55.554-22.135 55.554-22.165zm-1.35 44.8l-55.574 22.144-55.553-22.135 55.573-22.145 55.554 22.135zm1.35.54l55.573 22.144-55.573 22.145-55.564-22.145 55.564-22.145zm-1.35 44.82l-55.544 22.124-55.563-22.145 55.533-22.125 55.574 22.145zm1.35.54l55.543 22.134-55.533 22.125-55.554-22.125 55.544-22.135zm-1.34 44.8l-55.554 22.134-55.553-22.125 55.553-22.145 55.554 22.135zm1.35.539l55.553 22.135-55.553 22.135-55.554-22.135 55.554-22.135zm-1.35 44.81l-55.564 22.135-55.553-22.135 55.563-22.135 55.554 22.135zm1.35.54l55.553 22.135-55.553 22.135-55.554-22.135 55.554-22.135zm56.903 22.675l55.553 22.195-55.553 22.135-55.554-22.135 55.554-22.195zm56.903 22.675l55.553 22.135-55.553 22.135-55.543-22.115 55.543-22.155zm56.913 22.665l55.524 22.165-55.564 22.135-55.563-22.135 55.603-22.165zm56.914 22.685l55.543 22.155-55.553 22.145-55.544-22.145 55.554-22.155zm1.35-.54l55.553-22.135 55.543 22.135-55.553 22.135-55.544-22.135zm56.903-22.675l55.543-22.135 55.543 22.135-55.543 22.135-55.543-22.135zm56.893-22.665l55.563-22.145 55.554 22.135-55.564 22.135-55.553-22.125zm56.923-22.685l55.553-22.135 55.544 22.135-55.584 22.155-55.513-22.155zm56.903-22.675l55.554-22.135 55.543 22.135-55.553 22.135-55.544-22.135zm56.904-22.675l55.573-22.135 55.543 22.125-55.573 22.145-55.543-22.135zm-1.35-.53l-55.564-22.145 55.564-22.145 55.563 22.145-55.563 22.145zm1.36-44.82l55.533-22.135 55.563 22.145-55.543 22.125-55.553-22.135zm-1.31-.54l-55.554-22.135 55.544-22.135 55.553 22.135-55.543 22.135zm1.34-44.8l55.553-22.145 55.553 22.135-55.553 22.145-55.553-22.135zm-1.35-.54l-55.554-22.135 55.554-22.135 55.553 22.135-55.553 22.135zm1.35-44.81l55.563-22.135 55.553 22.135-55.613 22.165-55.503-22.165zm-1.35-.54l-55.554-22.135 55.564-22.145 55.553 22.136-55.563 22.145zm1.36-44.81l55.553-22.134 55.553 22.135-55.553 22.135-55.553-22.135zm-1.36-.54l-55.554-22.134 55.554-22.135 55.563 22.135-55.563 22.135zm1.35-44.81l55.553-22.134 55.563 22.135-55.553 22.135-55.563-22.135zm-1.35-.54l-55.554-22.134 55.554-22.135 55.553 22.135-55.553 22.135zm1.35-44.81l55.583-22.144 55.553 22.135-55.583 22.145-55.553-22.135zm-1.35-.539l-55.564-22.135 55.574-22.125 55.563 22.135-55.573 22.125zm1.37-44.82l55.533-22.125 55.563 22.135-55.533 22.135-55.563-22.145zm-1.35-.53l-55.554-22.135 55.534-22.135 55.553 22.135-55.533 22.135zm1.33-44.81l55.553-22.135 55.553 22.135-55.553 22.145-55.553-22.145zm-1.35-.53l-55.554-22.135 55.554-22.135 55.553 22.135-55.553 22.135zm1.35-44.81l55.563-22.135 55.553 22.135-55.563 22.135-55.553-22.135zm-1.35-.54l-55.604-22.135 55.554-22.135 55.563 22.135-55.513 22.135zm1.36-44.81l55.553-22.135 55.553 22.135-55.553 22.135-55.553-22.135zm-1.35-.54l-55.564-22.135 55.554-22.135 55.563 22.135-55.553 22.136zm1.34-44.81l55.553-22.134 55.513 22.175-55.553 22.135-55.513-22.175zm-1.35-.54l-55.554-22.134 55.554-22.135 55.553 22.135-55.553 22.135zm1.35-44.81l55.553-22.134 55.553 22.135-55.553 22.135-55.553-22.135zm-1.35-.54l-55.564-22.134 55.564-22.135 55.553 22.135-55.553 22.135zm1.35-44.81l55.553-22.134 55.553 22.135-55.553 22.135-55.553-22.135zm-1.35-.539l-55.584-22.095 55.594-22.135 55.523 22.115-55.533 22.115zm-56.884-22.655l-55.583-22.145 55.483-22.125 55.584 22.155-55.484 22.115zm-56.933-22.685l-55.553-22.135 55.563-22.135 55.554 22.135-55.564 22.135zm-56.953-22.655l-55.553-22.135 55.553-22.135 55.563 22.135-55.563 22.135zm-56.903-22.685l-55.564-22.135 55.564-22.145 55.553 22.145-55.553 22.135zm-56.913-22.675l-55.554-22.135 55.554-22.135 55.553 22.135-55.553 22.135zm-56.904-22.675l-55.543-22.125 55.563-22.145 55.514 22.145-55.534 22.125zm-1.35.54l-55.553 22.135-55.543-22.125 55.553-22.135 55.543 22.125zm-56.903 22.685l-55.553 22.125-55.544-22.135 55.554-22.135 55.543 22.145zm-56.903 22.675l-55.563 22.135-55.544-22.135 55.564-22.135 55.543 22.135zm-56.913 22.665l-55.554 22.145-55.543-22.135 55.553-22.135 55.544 22.125zm-56.903 22.685l-55.554 22.085-55.543-22.125 55.553-22.135 55.544 22.175zm-56.904 22.665l-55.543 22.135-55.543-22.135 55.543-22.135 55.543 22.135zm1.35.54l55.554 22.135-55.554 22.135-55.553-22.135 55.553-22.135zm-1.35 44.81l-55.543 22.135-55.553-22.135 55.553-22.135 55.543 22.135zm1.35.54l55.564 22.135-55.564 22.135-55.563-22.135 55.563-22.135zm-1.35 44.81l-55.543 22.135-55.573-22.135L584.955 609l55.543 22.135zm1.35.54l55.554 22.155-55.554 22.115-55.553-22.115 55.553-22.156zm-1.35 44.81l-55.543 22.135-55.553-22.136 55.553-22.135 55.543 22.135zm1.35.54l55.554 22.134-55.554 22.135-55.553-22.135 55.553-22.135zm-1.35 44.79l-55.543 22.154-55.583-22.155 55.583-22.115 55.543 22.115zm1.35.54l55.574 22.134-55.574 22.165-55.563-22.145 55.563-22.155zm-1.35 44.81l-55.543 22.154-55.563-22.145 55.563-22.125 55.543 22.115zm1.35.54l55.544 22.134-55.544 22.145-55.543-22.125 55.543-22.155zm-1.35 44.8l-55.543 22.154-55.543-22.125 55.543-22.135 55.543 22.105zm1.35.539l55.564 22.135-55.554 22.135-55.563-22.135 55.553-22.135zm-1.34 44.81l-55.553 22.165-55.563-22.145 55.563-22.085 55.553 22.065zm1.35.54l55.554 22.135-55.564 22.135-55.553-22.135 55.563-22.135zm-1.36 44.81l-55.543 22.155-55.553-22.135 55.553-22.135 55.543 22.115zm1.35.54l55.554 22.135-55.554 22.135-55.553-22.135 55.553-22.135zm-1.35 44.81l-55.543 22.205-55.553-22.135 55.553-22.185 55.543 22.115zm1.35.54l55.554 22.135-55.554 22.135-55.553-22.135 55.553-22.135zm-1.35 44.81l-55.543 22.165-55.553-22.136 55.553-22.175 55.543 22.145zm1.35.54l55.554 22.134-55.574 22.165-55.553-22.135 55.573-22.165zm-1.37 44.81l-55.523 22.154-55.553-22.145 55.553-22.125 55.523 22.115zm1.35.54l55.554 22.134-55.534 22.125-55.553-22.135 55.533-22.125zm-1.33 44.8l-55.543 22.134-55.553-22.135 55.553-22.115 55.543 22.115zm1.35.54l55.564 22.144-55.554 22.135-55.563-22.145 55.553-22.135zm-1.34 44.82l-55.553 22.154-55.573-22.145 55.573-22.135 55.553 22.125zm1.35.529l55.544 22.135-55.554 22.135-55.543-22.125 55.553-22.145zm-1.36 44.81l-55.543 22.155-55.543-22.125 55.543-22.145 55.543 22.115zm1.35.54l55.554 22.135-55.554 22.135-55.553-22.135 55.553-22.135zm56.903 22.675l55.554 22.195-55.554 22.135-55.553-22.135 55.553-22.195zm56.914 22.675l55.543 22.135-55.553 22.135-55.544-22.135 55.554-22.135zm56.903 22.675l55.553 22.135-55.553 22.135-55.554-22.135 55.554-22.135zm56.903 22.675l55.563 22.155-55.553 22.135-55.553-22.135 55.543-22.155zm56.913 22.674l55.524 22.156-55.554 22.135-55.543-22.135 55.573-22.156zm56.904 22.665l55.553 22.145-55.553 22.135-55.554-22.135 55.554-22.145zm1.35-.53l55.553-22.145 55.563 22.136-55.563 22.145-55.554-22.135zm56.913-22.654l55.543-22.125 55.563 22.125-55.553 22.135-55.553-22.135zm56.893-22.665l55.553-22.135 55.554 22.135-55.544 22.135-55.563-22.135zm56.903-22.675l55.533-22.145 55.554 22.135-55.554 22.135-55.533-22.125zm56.913-22.675l55.554-22.135 55.563 22.135-55.503 22.125-55.614-22.125zm56.904-22.675l55.553-22.135 55.563 22.135-55.553 22.135-55.563-22.135zm56.903-22.675l55.573-22.145 55.564 22.135-55.574 22.145-55.563-22.135zm56.923-22.685l55.533-22.125 55.564 22.135-55.534 22.135-55.563-22.145zm-1.35-.53l-55.543-22.135 55.533-22.135 55.544 22.135-55.534 22.135zm1.34-44.8l55.553-22.145 55.554 22.135-55.564 22.135-55.543-22.125zm-1.35-.54l-55.563-22.145 55.553-22.135 55.564 22.145-55.554 22.135zm1.34-44.82l55.563-22.135 55.554 22.135-55.554 22.145-55.563-22.145zm-1.35-.53l-55.553-22.135 55.563-22.145 55.554 22.135-55.564 22.145zm1.36-44.81l55.553-22.135 55.554 22.135-55.554 22.135-55.553-22.135zm-1.35-.54l-55.553-22.135 55.553-22.135 55.554 22.135-55.554 22.136zm1.35-44.81l55.553-22.134 55.554 22.135-55.554 22.135-55.553-22.135zm-1.35-.54l-55.553-22.134 55.553-22.135 55.554 22.135-55.554 22.135zm1.35-44.81l55.583-22.144 55.554 22.135-55.584 22.145-55.553-22.135zm-1.35-.54l-55.563-22.134 55.583-22.145 55.564 22.135-55.584 22.145zm1.37-44.82l55.523-22.124 55.564 22.135-55.524 22.125L1383 880.55zm-1.35-.539l-55.553-22.135 55.533-22.085 55.544 22.135-55.524 22.085zm1.33-44.8l55.553-22.135 55.554 22.135-55.564 22.135-55.543-22.135zm-1.35-.53l-55.563-22.145 55.553-22.135 55.564 22.135-55.554 22.145zm1.35-44.82l55.553-22.135 55.554 22.135-55.554 22.145-55.553-22.145zm-1.35-.53l-55.563-22.135 55.563-22.145 55.554 22.135-55.554 22.145zm1.35-44.81l55.553-22.135 55.554 22.135-55.554 22.135-55.553-22.135zm-1.35-.54l-55.553-22.165 55.553-22.135 55.554 22.135-55.554 22.165zm1.35-44.81l55.553-22.135 55.554 22.135-55.554 22.135-55.553-22.135zm-1.35-.54l-55.553-22.135 55.553-22.135 55.554 22.135-55.554 22.136zm1.35-44.81l55.553-22.135 55.554 22.146-55.554 22.135-55.553-22.145zm-1.35-.54l-55.563-22.144L1381.62 609l55.564 22.135-55.554 22.145zm1.34-44.81l55.553-22.134 55.564 22.135-55.554 22.135-55.563-22.135zm-1.35-.54l-55.553-22.134 55.553-22.135 55.554 22.135-55.554 22.135zm1.35-44.81l55.563-22.134 55.554 22.135-55.564 22.135-55.553-22.135zm-1.35-.53l-55.553-22.144 55.563-22.135 55.554 22.135-55.564 22.145zm-56.903-22.674l-55.523-22.125 55.563-22.145 55.523 22.125-55.563 22.145zm-56.843-22.675l-55.584-22.145 55.584-22.145 55.583 22.155-55.583 22.135zm-56.994-22.685l-55.553-22.135 55.553-22.145 55.554 22.145-55.554 22.135zm-56.873-22.685l-55.563-22.135 55.563-22.145 55.554 22.145-55.554 22.135zm-56.913-22.665l-55.553-22.135 55.553-22.185 55.563 22.145-55.563 22.175zm-56.903-22.675l-55.564-22.135 55.564-22.135 55.553 22.135-55.553 22.135zm-56.913-22.645l-55.534-22.125 55.564-22.145 55.533 22.135-55.563 22.135zm1.38-44.8l55.553-22.185 55.533 22.125-55.553 22.136-55.534-22.076zm-1.35-.54l-55.574-22.144 55.554-22.136 55.613 22.116-55.593 22.165zm-1.35.54l-55.564 22.106-55.573-22.146 55.563-22.145 55.574 22.185zm-56.914 22.675l-55.563 22.125-55.553-22.165 55.553-22.135 55.563 22.175zm-56.913 22.675l-55.553 22.135-55.574-22.145 55.564-22.135 55.563 22.145zm-56.903 22.635l-55.553 22.135-55.574-22.135 55.554-22.135 55.573 22.135zm-56.903 22.675l-55.564 22.125-55.563-22.135 55.553-22.135 55.574 22.145zm-56.913 22.675l-55.554 22.135-55.573-22.135 55.563-22.145 55.564 22.145zm-56.914 22.675l-55.543 22.135-55.563-22.145 55.563-22.125 55.543 22.135zm-56.893 22.675l-55.563 22.135-55.564-22.145 55.564-22.135 55.563 22.145zm-56.913 22.665l-55.554 22.145-55.563-22.145 55.553-22.135 55.564 22.135zm1.35.54l55.553 22.135-55.563 22.135-55.544-22.125 55.554-22.145zm-1.36 44.81l-55.554 22.135-55.553-22.135 55.553-22.135 55.554 22.135zm1.35.54l55.553 22.135-55.553 22.135-55.554-22.135 55.554-22.135zm-1.35 44.81l-55.554 22.135-55.553-22.135L471.128 609l55.554 22.135zm1.35.54l55.563 22.155-55.553 22.135-55.564-22.135 55.554-22.156zm-1.34 44.81l-55.574 22.145-55.563-22.146 55.573-22.135 55.564 22.135zm1.35.54l55.553 22.134-55.573 22.135-55.554-22.135 55.574-22.135zm-1.37 44.79l-55.534 22.134-55.553-22.135 55.533-22.135 55.554 22.135zm1.35.54l55.563 22.134-55.543 22.135-55.554-22.115 55.534-22.155zm-1.33 44.8L471.128 789.3l-55.553-22.115 55.563-22.145 55.554 22.115zm1.35.54l55.563 22.144-55.563 22.155-55.564-22.145 55.564-22.155zm-1.35 44.82l-55.554 22.134-55.563-22.115 55.553-22.145 55.564 22.125zm1.36.529l55.543 22.135-55.563 22.135-55.544-22.125 55.564-22.145zm-1.37 44.81l-55.554 22.135-55.543-22.135 55.553-22.065 55.544 22.065zm1.35.54l55.563 22.135-55.553 22.135-55.564-22.135 55.554-22.135zm-1.34 44.81l-55.554 22.135-55.563-22.135 55.553-22.135 55.564 22.135zm1.35.54l55.553 22.135-55.553 22.135-55.554-22.135 55.554-22.135zm-1.35 44.81l-55.584 22.205-55.553-22.135 55.583-22.145 55.554 22.075zm1.35.54l55.553 22.135-55.573 22.145-55.564-22.135 55.584-22.145zm-1.37 44.82l-55.534 22.125-55.553-22.136 55.523-22.145 55.564 22.155zm1.35.53l55.553 22.134-55.533 22.165-55.554-22.135 55.534-22.165zm-1.33 44.81l-55.564 22.134-55.553-22.135 55.563-22.145 55.554 22.145zm1.35.53l55.553 22.134-55.563 22.145-55.554-22.135 55.564-22.145zm-1.36 44.81l-55.554 22.134-55.553-22.135 55.553-22.145 55.554 22.145zm1.35.54l55.553 22.134-55.553 22.135-55.554-22.135 55.554-22.135zm-1.35 44.81l-55.554 22.134-55.553-22.135 55.553-22.135 55.554 22.135zm1.35.539l55.563 22.145-55.553 22.135-55.564-22.145 55.554-22.135zm-1.34 44.82l-55.554 22.135-55.563-22.125 55.553-22.135 55.564 22.125zm1.35.53l55.553 22.135-55.553 22.135-55.544-22.135 55.544-22.135zm56.913 22.695l55.543 22.175-55.543 22.095-55.563-22.095 55.563-22.175zm56.903 22.675l55.554 22.135-55.554 22.135-55.553-22.135 55.553-22.135zm56.903 22.675l55.554 22.135-55.554 22.135-55.553-22.135 55.553-22.135zm56.904 22.675l55.543 22.135-55.553 22.135-55.554-22.135 55.564-22.135zm56.913 22.664l55.563 22.146-55.553 22.135-55.564-22.145 55.554-22.136zm56.913 22.685l55.543 22.135-55.553 22.135-55.553-22.135 55.563-22.135zm56.893 22.665l55.524 22.105-55.554 22.135-55.533-22.135 55.563-22.105zm56.914 22.675l55.553 22.135-55.553 22.135-55.554-22.135 55.554-22.135zm1.35-.53l55.553-22.135 55.543 22.095-55.553 22.145-55.544-22.105zm56.903-22.675l55.563-22.145 55.553 22.135-55.573 22.145-55.543-22.135zm56.913-22.684l55.553-22.126 55.554 22.136-55.554 22.125-55.553-22.135zm56.893-22.665l55.543-22.135 55.554 22.135-55.574 22.135-55.523-22.135zm56.893-22.675l55.574-22.135 55.543 22.135-55.563 22.135-55.554-22.135zm56.924-22.675l55.553-22.135 55.553 22.135-55.553 22.135-55.553-22.135zm56.903-22.675l55.553-22.135 55.554 22.135-55.554 22.135-55.553-22.135zm56.903-22.675l55.573-22.145 55.554 22.135-55.574 22.145-55.553-22.135zm56.923-22.685l55.534-22.125 55.553 22.135-55.533 22.125-55.554-22.135zm56.883-22.665l55.564-22.135 55.553 22.135-55.563 22.135-55.554-22.135zm-1.35-.53l-55.583-22.145 55.554-22.135 55.563 22.135-55.533 22.145zm1.35-44.82l55.554-22.135 55.563 22.135-55.553 22.145-55.564-22.145zm-1.35-.54l-55.583-22.125 55.564-22.145 55.543 22.135-55.523 22.135zm1.36-44.8l55.554-22.145 55.543 22.135-55.553 22.135-55.544-22.125zm-1.35-.54l-55.593-22.145 55.554-22.135 55.563 22.145-55.523 22.135zm1.34-44.81l55.554-22.135 55.563 22.135-55.553 22.145-55.564-22.145zm-1.35-.54l-55.583-22.135 55.554-22.135 55.553 22.135-55.523 22.136zm1.35-44.81l55.584-22.144 55.553 22.135-55.583 22.145-55.554-22.135zm-1.35-.54l-55.583-22.134 55.584-22.145 55.553 22.135-55.553 22.145zm1.38-44.82l55.524-22.114 55.553 22.135-55.523 22.125-55.554-22.145zm-1.35-.54l-55.553-22.134 55.524-22.125 55.553 22.135-55.523 22.125zm1.32-44.8l55.564-22.134 55.553 22.135-55.563 22.135-55.554-22.135zm-1.35-.539l-55.583-22.135 55.584-22.085L1551 857.925l-55.563 22.085zm1.35-44.81l55.554-22.135 55.563 22.135-55.553 22.135-55.564-22.135zm-1.35-.54l-55.583-22.135 55.554-22.135 55.553 22.135-55.523 22.135zm1.36-44.81l55.544-22.135 55.553 22.135-55.553 22.135-55.544-22.135zm-1.36-.53l-55.583-22.145 55.554-22.135 55.553 22.145-55.523 22.135zm1.35-44.81l55.554-22.135 55.553 22.135-55.553 22.135-55.554-22.135zm-1.35-.54l-55.583-22.155 55.554-22.135 55.583 22.135-55.553 22.155zm1.35-44.81l55.554-22.135 55.553 22.135-55.553 22.135-55.554-22.135zm-1.35-.54l-55.583-22.135 55.554-22.135 55.553 22.135-55.523 22.136zm1.35-44.81l55.554-22.135 55.553 22.156-55.553 22.135-55.554-22.155zm-1.35-.54l-55.583-22.134L1495.407 609l55.553 22.135-55.523 22.135zm1.35-44.81l55.564-22.134 55.553 22.135-55.563 22.135-55.554-22.135zm-1.35-.53l-55.583-22.144 55.564-22.135 55.563 22.135-55.543 22.145zm1.35-44.82l55.554-22.134 55.563 22.135-55.553 22.135-55.564-22.135zm-1.35-.54l-55.583-22.134 55.554-22.135 55.553 22.135-55.523 22.135zm-56.903-22.714l-55.553-22.135 55.553-22.135 55.554 22.135-55.554 22.135zm-56.903-22.675l-55.523-22.115 55.553-22.135 55.524 22.115-55.554 22.135zm-56.873-22.655l-55.583-22.145 55.553-22.145 55.583 22.155-55.553 22.135zm-56.993-22.685l-55.554-22.135 55.664-22.095 55.553 22.135-55.663 22.095zm-56.884-22.635l-55.553-22.135 55.553-22.135 55.554 22.135-55.554 22.135zm-56.903-22.675l-55.563-22.135 55.553-22.135 55.564 22.135-55.554 22.135zm-56.883-22.645l-55.553-22.135 55.553-22.135 55.553 22.135-55.553 22.135zm1.35-44.81l55.553-22.175 55.554 22.135-55.554 22.136-55.553-22.096zm-1.35-.54l-55.533-22.124 55.553-22.136 55.533 22.126-55.553 22.135zm-56.883-22.664l-55.574-22.145 55.554-22.135 55.573 22.145-55.553 22.135zm-56.923-22.685l-55.554-22.135 55.554-22.135 55.553 22.135-55.553 22.135zm-1.35.54l-55.554 22.135-55.553-22.135 55.553-22.135 55.554 22.135zm-56.904 22.675l-55.563 22.135-55.543-22.165 55.563-22.136 55.543 22.166zm-56.913 22.644l-55.553 22.136-55.554-22.136 55.554-22.145 55.553 22.145zm-56.903 22.675l-55.563 22.165-55.554-22.135 55.554-22.135 55.563 22.105zm-56.913 22.675l-55.554 22.135-55.553-22.135 55.553-22.135 55.554 22.135zm-56.903 22.675l-55.554 22.135-55.553-22.135 55.553-22.135 55.554 22.135zm-56.904 22.675l-55.543 22.125-55.553-22.135 55.553-22.125 55.543 22.135zm-56.913 22.675l-55.543 22.135-55.554-22.135 55.544-22.135 55.553 22.135zm-56.893 22.665l-55.564 22.145-55.553-22.135 55.563-22.145 55.554 22.135zM469.78 517.76l-55.554 22.145-55.553-22.135 55.553-22.145 55.554 22.135zm-56.904 22.675l-55.553 22.145-55.563-22.145 55.563-22.135 55.553 22.135zm1.35.54l55.554 22.145-55.554 22.135-55.553-22.145 55.553-22.135zm-1.35 44.81l-55.553 22.135-55.563-22.135 55.563-22.135 55.553 22.135zm1.35.54l55.554 22.135-55.554 22.135-55.553-22.135 55.553-22.135zm-1.35 44.81l-55.573 22.145-55.553-22.135L357.322 609l55.553 22.135zm1.35.54l55.554 22.155-55.574 22.135-55.553-22.135 55.573-22.156zm-1.37 44.81l-55.543 22.135-55.553-22.136 55.543-22.135 55.553 22.135zm1.35.54l55.564 22.134-55.544 22.135-55.553-22.135 55.533-22.135zm-1.33 44.79l-55.553 22.134-55.563-22.135 55.563-22.145 55.553 22.145zm1.36.54l55.554 22.134-55.564 22.135-55.553-22.115 55.563-22.155zm-1.36 44.81L357.322 789.3l-55.553-22.115 55.553-22.135 55.553 22.115zm1.35.53l55.554 22.134-55.554 22.165-55.553-22.135 55.553-22.165zm-1.35 44.81l-55.553 22.134-55.553-22.115 55.553-22.135 55.553 22.115zm1.35.539l55.564 22.145-55.564 22.135-55.553-22.145 55.553-22.135zm-1.35 44.81l-55.553 22.135-55.553-22.115 55.553-22.085 55.553 22.065zm1.35.54l55.554 22.135-55.554 22.135-55.553-22.135 55.553-22.135zm-1.35 44.81l-55.583 22.145-55.553-22.135 55.583-22.145 55.553 22.135zm1.35.54l55.564 22.135-55.584 22.145-55.563-22.135 55.583-22.145zm-1.37 44.82l-55.533 22.195-55.553-22.135 55.523-22.125 55.563 22.065zm1.35.54l55.554 22.135-55.534 22.125-55.543-22.135 55.523-22.125zm-1.33 44.8l-55.553 22.135-55.553-22.136 55.553-22.145 55.553 22.145zm1.35.54l55.564 22.134-55.564 22.165-55.553-22.135 55.553-22.165zm-1.35 44.81l-55.553 22.134-55.553-22.135 55.553-22.135 55.553 22.135zm1.35.54l55.554 22.134-55.554 22.135-55.553-22.135 55.553-22.135zm-1.35 44.81l-55.553 22.124-55.553-22.135 55.553-22.145 55.553 22.155zm1.35.53l55.554 22.134-55.554 22.135-55.553-22.135 55.553-22.135zm-1.35 44.81l-55.553 22.134-55.553-22.135 55.553-22.135 55.553 22.135zm1.35.539l55.554 22.135-55.554 22.135-55.553-22.135 55.553-22.135zm-1.35 44.81l-55.593 22.145-55.553-22.135 55.593-22.145 55.553 22.135zm1.35.54l55.564 22.135-55.584 22.155-55.573-22.145 55.593-22.145zm56.913 22.675l55.554 22.195-55.584 22.145-55.553-22.145 55.583-22.195zm56.904 22.675l55.553 22.135-55.583 22.145-55.554-22.135 55.584-22.145zm56.913 22.695l55.553 22.135-55.553 22.145-55.553-22.135 55.553-22.145zm56.903 22.675l55.544 22.135-55.584 22.145-55.553-22.145 55.593-22.135zm56.903 22.664l55.554 22.136-55.574 22.145-55.553-22.125 55.573-22.156zm56.904 22.675l55.573 22.145-55.573 22.145-55.574-22.145 55.574-22.145zm56.923 22.685l55.533 22.095-55.573 22.145-55.544-22.125 55.584-22.115zm56.893 22.665l55.563 22.135-55.573 22.145-55.543-22.135 55.553-22.145zm56.913 22.675l55.514 22.135-55.574 22.145-55.553-22.135 55.613-22.145zm56.904 22.675l55.553 22.135-55.573 22.145-55.554-22.135 55.574-22.145zm1.35-.54l55.553-22.135 55.553 22.135-55.553 22.135-55.554-22.135zm56.903-22.675l55.553-22.135 55.553 22.135-55.553 22.135-55.553-22.135zm56.893-22.705l55.563-22.135 55.554 22.135-55.564 22.145-55.553-22.145zm56.913-22.675l55.553-22.125 55.554 22.135-55.584 22.155-55.523-22.165zm56.903-22.664l55.544-22.136 55.563 22.136-55.553 22.135-55.554-22.135zm56.904-22.675l55.563-22.135 55.553 22.135-55.563 22.135-55.553-22.135zm56.913-22.675l55.553-22.135 55.554 22.135-55.554 22.135-55.553-22.135zm56.903-22.675l55.553-22.135 55.554 22.135-55.554 22.135-55.553-22.135zm56.873-22.605l55.574-22.145 55.553 22.135-55.573 22.145-55.554-22.135zm56.923-22.685l55.534-22.125 55.553 22.135-55.533 22.125-55.554-22.135zm56.884-22.665l55.563-22.135 55.603 22.095-55.563 22.135-55.603-22.095zm56.913-22.675l55.553-22.135 55.554 22.135-55.554 22.135-55.553-22.135zm-1.35-.54l-55.553-22.135 55.553-22.135 55.553 22.135-55.553 22.135zm1.35-44.81l55.553-22.135 55.554 22.135-55.554 22.135-55.553-22.135zm-1.35-.53l-55.563-22.145 55.563-22.135 55.553 22.145-55.553 22.135zm1.35-44.82l55.553-22.135 55.554 22.145-55.554 22.135-55.553-22.145zm-1.36-.54l-55.543-22.125 55.553-22.135 55.543 22.125-55.553 22.135zm1.36-44.8l55.583-22.155 55.554 22.135-55.554 22.125-55.583-22.105zm-1.35-.54l-55.563-22.135 55.593-22.155 55.553 22.135-55.583 22.156zm1.38-44.82l55.523-22.124 55.554 22.135-55.524 22.125-55.553-22.135zm-1.35-.54l-55.563-22.134 55.523-22.125 55.553 22.135-55.513 22.125zm1.32-44.8l55.553-22.134 55.554 22.135-55.554 22.135-55.553-22.135zm-1.36-.54l-55.543-22.134 55.553-22.135 55.553 22.135-55.563 22.135zm1.36-44.81l55.553-22.134 55.554 22.135-55.554 22.135-55.553-22.135zm-1.35-.539l-55.553-22.135 55.583-22.125 55.573 22.085-55.603 22.175zm1.35-44.81l55.553-22.135 55.554 22.135-55.554 22.135-55.553-22.135zm-1.35-.53l-55.563-22.145 55.553-22.135 55.613 22.105-55.603 22.175zm1.34-44.82l55.553-22.135 55.564 22.145-55.554 22.135-55.563-22.145zm-1.35-.53l-55.553-22.135 55.553-22.145 55.613 22.095-55.613 22.185zm1.36-44.81l55.553-22.135 55.554 22.135-55.554 22.135-55.553-22.135zm-1.35-.54l-55.533-22.195 55.553-22.135 55.583 22.135-55.603 22.195zm1.34-44.81l55.553-22.135 55.564 22.135-55.554 22.135-55.563-22.135zm-1.35-.54l-55.553-22.135 55.553-22.135 55.613 22.095-55.613 22.176zm1.35-44.81l55.563-22.135 55.584 22.116-55.564 22.135-55.583-22.115zm-1.35-.54l-55.553-22.134 55.563-22.135 55.603 22.095-55.613 22.175zm1.36-44.81l55.553-22.134 55.554 22.135-55.554 22.135-55.553-22.135zm-1.35-.54l-55.553-22.134 55.553-22.135 55.603 22.095-55.603 22.175zm1.35-44.81l55.553-22.134 55.564 22.135-55.564 22.135-55.553-22.135zm-1.35-.53l-55.563-22.144 55.553-22.135 55.613 22.095-55.603 22.185zm-56.883-22.764l-55.554-22.135 55.554-22.135 55.553 22.135-55.553 22.135zm-56.903-22.665l-55.584-22.105 55.554-22.135 55.553 22.135-55.523 22.105zm-56.904-22.675l-55.523-22.125 55.563-22.135 55.514 22.125-55.554 22.135zm-56.873-22.645l-55.583-22.145 55.553-22.135 55.584 22.145-55.554 22.135zm-56.933-22.685l-55.553-22.135 55.553-22.135 55.553 22.135-55.553 22.135zm-56.913-22.675l-55.554-22.135 55.554-22.135 55.563 22.135-55.563 22.135zm-56.934-22.625l-55.563-22.135 55.563-22.165 55.564 22.135-55.564 22.165zm55.554-67.484l-55.554 22.105-55.553-22.135 55.553-22.136 55.554 22.166zm-56.913-22.675l-55.554 22.135-55.503-22.155 55.563-22.135 55.494 22.155zm-56.884-22.665l-55.553 22.135-55.573-22.145 55.583-22.135 55.543 22.145zm-56.923-22.685l-55.553 22.135-55.554-22.135 55.554-22.135 55.553 22.135zm-112.436-44.84l55.563 22.145-55.553 22.135-55.564-22.145 55.554-22.135zm-56.904 22.675l55.534 22.135-55.554 22.145-55.533-22.145 55.553-22.135zm-56.903 22.705l55.563 22.135-55.553 22.135-55.553-22.165 55.543-22.105zm-56.903 22.675l55.563 22.135-55.563 22.135-55.554-22.135 55.554-22.135zm-56.903 22.674l55.553 22.136-55.563 22.135-55.554-22.135 55.564-22.136zM698.752 336.9l55.554 22.135-55.554 22.136-55.553-22.136 55.553-22.135zm-56.903 22.685l55.554 22.135-55.554 22.165-55.553-22.135 55.553-22.165zm-56.893 22.675l55.553 22.135-55.553 22.135-55.553-22.135 55.553-22.135zm-56.903 22.675l55.553 22.135-55.563 22.135-55.554-22.135 55.564-22.135zm-56.914 22.675l55.554 22.135-55.554 22.125-55.563-22.125 55.563-22.135zm-56.913 22.665l55.564 22.145-55.564 22.135-55.553-22.135 55.553-22.145zm-56.903 22.685l55.553 22.135-55.553 22.135-55.563-22.135 55.563-22.135zm-112.467 44.81l55.554-22.135 55.573 22.135-55.573 22.135-55.554-22.135zm0 45.34l55.554-22.135 55.573 22.135-55.573 22.135-55.554-22.135zm0 45.36l55.564-22.145 55.563 22.135-55.583 22.145-55.544-22.135zm0 45.34l55.544-22.136 55.583 22.156-55.573 22.115-55.554-22.135zm0 45.35l55.564-22.146 55.563 22.135-55.573 22.145-55.554-22.135zm0 45.35l55.564-22.146 55.563 22.145-55.573 22.135-55.554-22.135zm0 45.35l55.554-22.136 55.573 22.135-55.573 22.135-55.554-22.135zm0 45.339l55.554-22.135 55.573 22.135-55.573 22.135-55.554-22.135zm0 45.36l55.574-22.145 55.553 22.135-55.593 22.145-55.534-22.135zm0 45.34l55.534-22.125 55.593 22.135-55.533 22.125-55.594-22.135zm0 45.35l55.554-22.145 55.573 22.145-55.553 22.135-55.574-22.135zm0 45.35l55.554-22.136 55.573 22.135-55.573 22.145-55.554-22.145zm0 45.35l55.554-22.136 55.573 22.135-55.553 22.135-55.574-22.135zm0 45.34l55.554-22.136 55.573 22.135-55.573 22.135-55.554-22.135zm0 45.369l55.584-22.155 55.543 22.135-55.583 22.155-55.544-22.135zm0 45.33l55.514-22.125 55.613 22.135-55.523 22.125-55.604-22.135zm56.914 22.715l55.513-22.125 55.573 22.125-55.523 22.115-55.563-22.115zm56.913 22.675l55.523-22.125 55.544 22.135-55.524 22.125-55.543-22.135zm56.903 22.675l55.513-22.125 55.564 22.135-55.524 22.125-55.553-22.135zm56.903 22.635l55.524-22.125 55.553 22.125-55.523 22.125-55.554-22.125zm56.904 22.675l55.563-22.126 55.553 22.136-55.553 22.125-55.563-22.135zm56.903 22.664l55.523-22.125 55.564 22.135-55.534 22.125-55.553-22.135zm56.903 22.645l55.533-22.125 55.574 22.145-55.534 22.125-55.573-22.145zm56.923 22.685l55.534-22.125 55.543 22.125-55.533 22.125-55.544-22.125zm56.893 22.665l55.534-22.125 55.553 22.135-55.533 22.125-55.554-22.135zm56.914 22.705l55.543-22.125 55.553 22.135-55.543 22.125-55.553-22.135zm56.903 22.675l55.543-22.125 55.534 22.135-55.544 22.125-55.533-22.135zm112.457 44.81l-55.554-22.135 55.544-22.125 55.553 22.135-55.543 22.125zm56.893-22.665l-55.554-22.135 55.574-22.145 55.553 22.135-55.573 22.145zm56.923-22.685l-55.553-22.135 55.553-22.135 55.553 22.135-55.553 22.135zm56.903-22.675l-55.553-22.135 55.553-22.135 55.554 22.135-55.554 22.135zm56.903-22.675l-55.553-22.135 55.573-22.135 55.554 22.135-55.574 22.135zm56.924-22.675l-55.564-22.165 55.544-22.135 55.553 22.135-55.533 22.165zm56.893-22.665l-55.553-22.135 55.553-22.135 55.553 22.135-55.553 22.135zm56.903-22.674l-55.553-22.135 55.563-22.146 55.554 22.136-55.564 22.145zm56.913-22.675l-55.563-22.135 55.553-22.135 55.554 22.135-55.544 22.135zm56.904-22.675l-55.594-22.135 55.554-22.135 55.553 22.135-55.513 22.135zm56.903-22.675l-55.554-22.135 55.584-22.145 55.553 22.135-55.583 22.145zm56.933-22.685l-55.563-22.085 55.523-22.125 55.583 22.125-55.543 22.085zm56.883-22.665l-55.553-22.135 55.553-22.135 55.554 22.135-55.554 22.135zm112.467-44.81l-55.563 22.135-55.554-22.135 55.554-22.135 55.563 22.135zm0-45.35l-55.563 22.135-55.554-22.135 55.554-22.135 55.563 22.135zm0-45.34l-55.573 22.105-55.544-22.125 55.544-22.135 55.573 22.155zm0-45.37l-55.593 22.155-55.554-22.135 55.584-22.155 55.563 22.135zm0-45.33l-55.524 22.116-55.553-22.136 55.524-22.115 55.553 22.135zm0-45.35l-55.573 22.186-55.554-22.135 55.554-22.135 55.573 22.085zm0-45.35l-55.563 22.136-55.554-22.135 55.554-22.135 55.563 22.135zm0-45.35l-55.553 22.136-55.544-22.135 55.524-22.085 55.573 22.085zm0-45.339l-55.563 22.135-55.554-22.135 55.554-22.145 55.563 22.145zm0-45.35l-55.563 22.135-55.554-22.145 55.554-22.135 55.563 22.145zm0-45.35l-55.553 22.135-55.574-22.155 55.554-22.135 55.573 22.155zm0-45.35l-55.563 22.136-55.554-22.136 55.554-22.135 55.563 22.135zm0-45.35l-55.563 22.136-55.554-22.135L1723.07 609l55.563 22.135zm0-45.35l-55.563 22.136-55.554-22.135 55.564-22.135 55.553 22.135zm0-45.35l-55.553 22.146-55.564-22.145 55.554-22.135 55.563 22.135zm-56.913-22.664l-55.554 22.135-55.563-22.145 55.563-22.135 55.554 22.145zm-56.894-22.685l-55.563 22.135-55.553-22.135 55.553-22.135 55.563 22.135zm-56.913-22.665l-55.553 22.135-55.554-22.135 55.554-22.145 55.553 22.145zm-56.903-22.675l-55.573 22.125-55.514-22.125 55.554-22.135 55.533 22.135zm-56.863-22.665l-55.564 22.135L1383 427.071l55.553-22.135 55.594 22.145zm-56.993-22.685l-55.554 22.135-55.553-22.135 55.553-22.135 55.554 22.135zm-56.904-22.675l-55.523 22.165-55.563-22.135 55.553-22.135 55.533 22.105z" fill="url(#c)" fill-rule="nonzero" mask="url(#d)"/></g></svg>