<svg width="1963" height="594" xmlns="http://www.w3.org/2000/svg"><defs><linearGradient x1="51.293%" y1="0%" x2="51.293%" y2="97.082%" id="a"><stop stop-color="#FFF" stop-opacity="0" offset="0%"/><stop stop-color="#FDBB39" offset="100%"/></linearGradient></defs><path d="M1963 0H0v268.313L285.8 382.08c33.74 13.442 75.32 13.442 109.06 0l198.592-79.062c33.749-13.44 75.333-13.44 109.081 0l705.161 280.91c33.725 13.428 75.275 13.428 109 0l401.99-159.753c10.564-4.194 17.076-11.96 17.076-20.366 0-8.407-6.512-16.173-17.077-20.366l-53.706-21.392c-6.36-2.497-10.288-7.157-10.288-12.205s3.927-9.708 10.288-12.206l98.023-39.1V0z" fill="url(#a)" transform="matrix(1 0 0 -1 0 594)" fill-rule="evenodd" opacity=".4"/></svg>