<svg width="1440" height="1508" xmlns="http://www.w3.org/2000/svg"><defs><style/></defs><g id="Page-1" stroke="none" stroke-width="1" fill="none" fill-rule="evenodd" stroke-dasharray="4"><g id="CONCEPT-Copy-2" transform="translate(0 -5274)" stroke="#FDBB39"><path d="M-7.923 5996.966v-489.168l77.266-30.81c5.014-1.967 8.11-5.639 8.11-9.616 0-3.977-3.096-7.649-8.11-9.617l-42.333-16.854c-8.328-3.304-13.46-9.423-13.46-16.047 0-6.624 5.132-12.743 13.46-16.047l316.866-125.872c26.583-10.58 59.335-10.58 85.919 0l555.84 221.333c26.602 10.59 59.38 10.59 85.983 0l156.539-62.294c26.596-10.59 59.37-10.59 85.967 0l225.28 89.64v521.032l230.951 92.287a30.68 30.68 0 0 1 12.236 8.489c9.121 10.93 3.63 268.946-12.236 275.285L907.63 6772.834a122.936 122.936 0 0 1-88.408-.112l-443.184-178.537a123.026 123.026 0 0 0-88.274-.179l-158.306 62.872a123.138 123.138 0 0 1-88.14-.112l-183.36-73.489c-3.9-1.469-7.374-247.814-10.106-250.96-7.642-9.162-3.115-20.898 10.107-26.207l31.374-12.587a15.262 15.262 0 0 0 6.073-4.211c4.572-5.465 1.838-12.499-6.096-15.68l-245.705-98.26a30.254 30.254 0 0 1-12.214-8.511c-9.098-10.976-3.608-25.042 12.304-31.358l348.382-138.537z" id="Combined-Shape-Copy-2" style="animation:dash 25s linear alternate infinite" stroke-width="1" stroke-dasharray="4" stroke-dashoffset="-1000"/></g></g></svg>