<svg width="1367" height="742" xmlns="http://www.w3.org/2000/svg"><defs><linearGradient x1="51.293%" y1="87.319%" x2="51.293%" y2="-48.719%" id="linearGradient-1"><stop stop-color="#FFF" stop-opacity="0" offset="0%"/><stop stop-color="#FDBB39" offset="100%"/></linearGradient><linearGradient x1="51.293%" y1="87.319%" x2="51.293%" y2="-48.719%" id="linearGradient-2"><stop stop-color="#FFF" stop-opacity="0" offset="0%"/><stop stop-color="#FDBB39" offset="100%"/></linearGradient><linearGradient x1="51.293%" y1="87.319%" x2="51.293%" y2="-48.719%" id="linearGradient-3"><stop stop-color="#FFF" stop-opacity="0" offset="0%"/><stop stop-color="#FDBB39" offset="100%"/></linearGradient><linearGradient x1="51.293%" y1="87.319%" x2="51.293%" y2="-48.719%" id="linearGradient-4"><stop stop-color="#FFF" stop-opacity="0" offset="0%"/><stop stop-color="#FDBB39" offset="100%"/></linearGradient><linearGradient x1="51.293%" y1="87.319%" x2="51.293%" y2="-48.719%" id="linearGradient-5"><stop stop-color="#FFF" stop-opacity="0" offset="0%"/><stop stop-color="#FFF" offset="100%"/></linearGradient><style/></defs><g id="Page-1" stroke="none" stroke-width="1" fill="none" fill-rule="evenodd"><g id="CONCEPT-Copy-6" transform="translate(-39 -4787)" fill-rule="nonzero"><g id="Group-9" transform="translate(39 4787)"><path class="line" id="Path-Copy-18" fill="url(#linearGradient-1)" opacity=".5" transform="matrix(-1 0 0 1 1768 0)" d="M897 577h-26V145.23L897 135z"/><path class="line" id="Path-Copy-20" fill="url(#linearGradient-2)" opacity=".5" d="M342 490h-12V284.86l12-4.86z"/><path class="line" id="Path-Copy-21" fill="url(#linearGradient-2)" opacity=".5" d="M64 210H52V4.86L64 0z"/><path class="line" id="Path-Copy-22" fill="url(#linearGradient-3)" opacity=".3" transform="matrix(-1 0 0 1 2470 0)" d="M1258 514h-46V65.099L1258 47z"/><path class="line" id="Path-Copy-23" fill="url(#linearGradient-3)" opacity=".3" d="M266 561h-46V112.099L266 94z"/><path class="line" id="Path-Copy-24" fill="url(#linearGradient-4)" opacity=".5" transform="matrix(-1 0 0 1 908 0)" d="M477 599h-46V420.145L477 402z"/><path class="line" id="Path-Copy-12" fill="url(#linearGradient-1)" opacity=".5" d="M537 547h-26V115.23L537 105z"/><path class="line" id="Path-Copy-25" fill="url(#linearGradient-5)" opacity=".5" d="M1367 332h-46V153.145L1367 135z"/><path class="line" id="Path-Copy-26" fill="url(#linearGradient-5)" opacity=".5" d="M1120 546h-46V367.145L1120 349z"/><path class="line" id="Path-Copy-17" fill="url(#linearGradient-1)" opacity=".5" d="M26 798H0V366.23L26 356z"/></g></g></g></svg>