<svg width="1463" height="932" xmlns="http://www.w3.org/2000/svg"><defs><radialGradient cx="-3492.049%" cy="8584.028%" fx="-3492.049%" fy="8584.028%" r="12667.358%" gradientTransform="matrix(-.44275 .00329 -.00146 -1 -50.256 171.795)" id="a"><stop stop-color="#FFF" offset="0%"/><stop stop-color="#FCFDFC" stop-opacity=".96" offset="61%"/><stop stop-color="#FFF" stop-opacity="0" offset="100%"/></radialGradient><radialGradient cx="-15.235%" cy="-9.638%" fx="-15.235%" fy="-9.638%" r="194.794%" gradientTransform="matrix(.63572 -.0625 .03981 .99804 -.052 -.01)" id="b"><stop stop-color="#FDA916" stop-opacity=".7" offset="0%"/><stop stop-color="#F2D469" offset="33%"/><stop stop-color="#50BED3" offset="100%"/></radialGradient><radialGradient cx="-665.864%" cy="2710.007%" fx="-665.864%" fy="2710.007%" r="3150.544%" gradientTransform="matrix(-.40283 .00329 -.00132 -1 -9.305 54.222)" id="c"><stop stop-color="#FFF" offset="0%"/><stop stop-color="#FCFDFC" stop-opacity=".96" offset="61%"/><stop stop-color="#FFF" stop-opacity="0" offset="100%"/></radialGradient><radialGradient cx="-1232.916%" cy="754.423%" fx="-1232.916%" fy="754.423%" r="5210.686%" gradientTransform="matrix(-.4152 .00329 -.00136 -1 -17.438 15.129)" id="d"><stop stop-color="#FFF" offset="0%"/><stop stop-color="#FCFDFC" stop-opacity=".96" offset="61%"/><stop stop-color="#FFF" stop-opacity="0" offset="100%"/></radialGradient></defs><g fill="none"><path fill="url(#a)" opacity=".51" d="M1462.3 473.3V472l-11.4-4.5-1.7.7z"/><path d="M1462 0H.507L0 716.9l120.472 47.3c26.997 10.6 60.286 10.6 87.182 0l158.836-62.3c26.997-10.6 60.286-10.6 87.283 0l563.994 221.4c26.997 10.6 60.185 10.6 87.182 0l321.529-125.9c8.423-3.3 13.701-9.4 13.701-16.1 0-6.7-5.176-12.7-13.701-16.1l-42.932-16.9c-5.074-2-8.22-5.6-8.22-9.6s3.146-7.7 8.22-9.6l78.353-30.8.101-678.1V0z" fill="url(#b)"/><path d="M1378.85 356.72l56.25-22.42c-.1-.3-.3-.6-.4-.9l-57.49 22.9c.54.15 1.09.28 1.64.42z" fill="url(#c)" opacity=".36"/><path d="M1410.44 859.61l33.86 13.49a4.87 4.87 0 0 1 .1-1.2L1412 859l-1.56.61z" fill="url(#d)" opacity=".36"/></g></svg>