<svg width="1440" height="1392" xmlns="http://www.w3.org/2000/svg"><defs><radialGradient cx="-5.236%" cy="-16.38%" fx="-5.236%" fy="-16.38%" r="154.07%" gradientTransform="matrix(.6408 .10632 -.04249 .61662 -.026 -.057)" id="a"><stop stop-color="#FDA916" stop-opacity=".776" offset="0%"/><stop stop-color="#F2D469" offset="32.97%"/><stop stop-color="#50BED3" offset="100%"/></radialGradient></defs><path d="M-103.923 2869.637v-542.852l77.266-30.808c5.014-1.968 8.11-5.639 8.11-9.616 0-3.977-3.096-7.648-8.11-9.616l-42.333-16.854c-8.328-3.304-13.46-9.422-13.46-16.046 0-6.623 5.132-12.742 13.46-16.045l316.866-125.865c26.583-10.58 59.335-10.58 85.919 0l555.84 221.32c26.602 10.59 59.38 10.59 85.983 0l156.539-62.29c26.596-10.59 59.37-10.59 85.967 0l225.28 89.634v617.007l230.951 126.277a30.68 30.68 0 0 1 12.236 8.488c9.121 10.93 3.63 25.018-12.236 31.356L811.63 3477.834a122.943 122.943 0 0 1-88.408-.112l-443.184-178.526a123.033 123.033 0 0 0-88.274-.18l-158.306 62.87a123.145 123.145 0 0 1-88.14-.113l-183.36-73.484a25.1 25.1 0 0 1-10.106-7.033c-7.642-9.16-3.115-20.896 10.107-26.204l31.374-12.588a15.261 15.261 0 0 0 6.073-4.21c4.572-5.465 1.838-12.498-6.096-15.678l-245.705-98.256a30.254 30.254 0 0 1-12.214-8.51c-9.098-10.975-3.608-25.04 12.304-31.356l348.382-214.817z" transform="translate(0 -2094)" fill="url(#a)" fill-rule="evenodd"/></svg>