<svg width="179" height="179" xmlns="http://www.w3.org/2000/svg" xmlns:xlink="http://www.w3.org/1999/xlink"><defs><filter x="-95.6%" y="-95.6%" width="291.2%" height="291.2%" filterUnits="objectBoundingBox" id="a"><feOffset dy="22" in="SourceAlpha" result="shadowOffsetOuter1"/><feGaussianBlur stdDeviation="17" in="shadowOffsetOuter1" result="shadowBlurOuter1"/><feColorMatrix values="0 0 0 0 0.0117647059 0 0 0 0 0.192156863 0 0 0 0 0.266666667 0 0 0 0.137756774 0" in="shadowBlurOuter1" result="shadowMatrixOuter1"/><feMerge><feMergeNode in="shadowMatrixOuter1"/><feMergeNode in="SourceGraphic"/></feMerge></filter><radialGradient cx="-26.213%" cy="-26.171%" fx="-26.213%" fy="-26.171%" r="182.842%" gradientTransform="matrix(.94597 -.32426 .25513 .74429 .053 -.152)" id="b"><stop stop-color="#FDA916" stop-opacity=".776" offset="0%"/><stop stop-color="#F2D469" offset="32.97%"/><stop stop-color="#50BED3" offset="100%"/></radialGradient><circle id="c" cx="56.5" cy="56.5" r="56.5"/></defs><g fill="none" fill-rule="evenodd"><g filter="url(#a)" transform="translate(33 11)"><use fill="url(#b)" xlink:href="#c"/></g><path d="M88.77 37.91a3.107 3.107 0 0 0-3.098 3.098l-.037 22.184-22.182.036a3.107 3.107 0 0 0-3.1 3.099 3.083 3.083 0 0 0 3.089 3.087l25.248-.038a3.107 3.107 0 0 0 3.097-3.097l.071-25.277a3.083 3.083 0 0 0-3.088-3.092zm7.364 28.84a3.077 3.077 0 0 1 3.097-3.096l15.317.095a3.154 3.154 0 0 1 3.135 3.135 3.077 3.077 0 0 1-3.096 3.096l-15.318-.095a3.154 3.154 0 0 1-3.135-3.135zm-7.574 7.575a3.154 3.154 0 0 1 3.135 3.135l.095 15.317a3.077 3.077 0 0 1-3.096 3.096 3.154 3.154 0 0 1-3.134-3.135l-.096-15.317a3.077 3.077 0 0 1 3.096-3.096z" fill="#033144" fill-rule="nonzero"/></g></svg>