<svg width="146" height="26" xmlns="http://www.w3.org/2000/svg"><g transform="translate(0 -1)" fill="#033144" fill-rule="evenodd"><rect fill-rule="nonzero" y="1.601" width="3.483" height="24.382" rx="1.742"/><rect fill-rule="nonzero" x="44" y="1.601" width="3.483" height="24.382" rx="1.742"/><rect fill-rule="nonzero" x="106.764" y="1.601" width="3.483" height="24.382" rx="1.742"/><rect fill-rule="nonzero" transform="rotate(25 126.708 14.169)" x="124.967" y="1.169" width="3.483" height="26" rx="1.742"/><rect fill-rule="nonzero" transform="scale(-1 1) rotate(25 0 -614.004)" x="138.023" y="5.935" width="3.483" height="21" rx="1.742"/><path d="M131.327 16.747h8.173a1.5 1.5 0 0 1 1.5 1.5v.456a1.5 1.5 0 0 1-1.5 1.5h-8.173a1.728 1.728 0 0 1 0-3.457z"/><path d="M73.443 2.513a1.74 1.74 0 0 0 0 2.462L82.27 13.8l-8.827 8.827a1.742 1.742 0 0 0 2.461 2.462l10.048-10.045a1.742 1.742 0 0 0 0-2.46L75.906 2.514a1.742 1.742 0 0 0-2.463-.002zm14.302 8.275a1.742 1.742 0 0 1 0-2.463L93.8 2.271a1.742 1.742 0 1 1 2.463 2.463l-6.055 6.054c-.68.68-1.783.68-2.463 0zm0 6.026c.68-.68 1.783-.68 2.463 0l6.055 6.054a1.742 1.742 0 1 1-2.463 2.463l-6.055-6.054a1.742 1.742 0 0 1 0-2.463zM15.238 1.601a1.742 1.742 0 1 0 0 3.483h6.531v19.157a1.742 1.742 0 1 0 3.483 0V3.343c0-.962-.78-1.742-1.741-1.742h-8.273zM33.96 3.343c0 .962-.78 1.741-1.741 1.741h-2.613a1.742 1.742 0 0 1 0-3.483h2.613c.961 0 1.741.78 1.741 1.742zm29.014 0c0 .962-.78 1.741-1.742 1.741h-9.517a1.742 1.742 0 0 1 0-3.483h9.517c.962 0 1.742.78 1.742 1.742zm0 20.898c0 .962-.78 1.742-1.742 1.742h-9.517a1.742 1.742 0 1 1 0-3.483h9.517c.962 0 1.742.78 1.742 1.741zm-2-10.449c0 .962-.78 1.742-1.742 1.742h-7.517a1.742 1.742 0 1 1 0-3.483h7.517c.962 0 1.742.78 1.742 1.741z" fill-rule="nonzero"/></g></svg>