<svg width="1372" height="353" xmlns="http://www.w3.org/2000/svg"><defs><linearGradient x1="62.832%" y1="-74.747%" x2="62.832%" y2="87.961%" id="linearGradient-1"><stop stop-color="#FDBB39" offset="0%"/><stop stop-color="#FFF" offset="100%"/></linearGradient><linearGradient x1="62.832%" y1="-13.057%" x2="62.832%" y2="112.983%" id="linearGradient-2"><stop stop-color="#FDBB39" offset="0%"/><stop stop-color="#FFF" offset="100%"/></linearGradient><linearGradient x1="62.832%" y1="-27.706%" x2="62.832%" y2="111.404%" id="linearGradient-3"><stop stop-color="#FDBB39" offset="0%"/><stop stop-color="#FFF" offset="100%"/></linearGradient><style/></defs><g id="Page-1" stroke="none" stroke-width="1" fill="none" fill-rule="evenodd"><g id="CONCEPT-Copy" transform="translate(-44 -7385)" fill-rule="nonzero"><g id="Group-20" transform="translate(44 7385)"><g id="quote-(2)-copy" opacity=".34" fill="url(#linearGradient-1)"><path id="Path-1" d="M0 58.1h28.9L9.632 96.632h28.9L57.797 58.1V.3H0z"/></g><g id="quote-(2)-copy-3" opacity=".4" transform="translate(437 11)" fill="url(#linearGradient-2)"><path id="Path-2" d="M0 163.752h81.5l-54.334 108.8h81.5L163 163.752V.552H0z"/></g><g id="quote-(2)-copy-2" opacity=".34" transform="translate(1131 21)" fill="url(#linearGradient-3)"><path id="Path-3" d="M0 197.185h53.812l-35.875 71.75H71.75l35.875-71.75V89.561H0z"/><path id="Path-4" opacity=".45" d="M133 107.624h53.812l-35.875 71.75h53.812l35.875-71.75V0H133z"/></g><g id="quote-(2)-copy-4" opacity=".34" transform="translate(31 84)" fill="url(#linearGradient-3)"><path id="Path-5" d="M0 197.185h53.812l-35.875 71.75H71.75l35.875-71.75V89.561H0z"/><path id="Path-6" opacity=".45" d="M133 107.624h53.812l-35.875 71.75h53.812l35.875-71.75V0H133z"/></g></g></g></g></svg>