<svg width="1440" height="663" xmlns="http://www.w3.org/2000/svg"><defs><linearGradient x1="51.293%" y1="0%" x2="51.293%" y2="97.082%" id="a"><stop stop-color="#FFF" stop-opacity="0" offset="0%"/><stop stop-color="#FDBB39" offset="100%"/></linearGradient></defs><path d="M1547 5717H0v406.117l225.233 89.734c26.59 10.601 59.358 10.601 85.949 0l156.505-62.36c26.597-10.601 59.368-10.601 85.965 0l555.723 221.566c26.578 10.59 59.323 10.59 85.9 0l316.8-126.005c8.326-3.307 13.457-9.433 13.457-16.063 0-6.63-5.131-12.756-13.457-16.064l-42.325-16.872c-5.013-1.97-8.108-5.645-8.108-9.627 0-3.982 3.095-7.657 8.108-9.627l77.25-30.842V5717z" transform="matrix(1 0 0 -1 0 6380)" fill="url(#a)" fill-rule="evenodd" opacity=".4"/></svg>