<svg width="597" height="367" xmlns="http://www.w3.org/2000/svg" xmlns:xlink="http://www.w3.org/1999/xlink"><defs><linearGradient x1="51.293%" y1="87.319%" x2="51.293%" y2="-48.719%" id="linearGradient-1"><stop stop-color="#77C4DF" stop-opacity="0" offset="0%"/><stop stop-color="#114758" offset="100%"/></linearGradient><linearGradient x1="51.293%" y1="87.319%" x2="51.293%" y2="-48.719%" id="linearGradient-2"><stop stop-color="#77C4DF" stop-opacity="0" offset="0%"/><stop stop-color="#114758" offset="100%"/></linearGradient><linearGradient x1="51.293%" y1="87.319%" x2="51.293%" y2="-48.719%" id="linearGradient-3"><stop stop-color="#77C4DF" stop-opacity="0" offset="0%"/><stop stop-color="#114758" offset="100%"/></linearGradient><linearGradient x1="51.293%" y1="87.319%" x2="51.293%" y2="-48.719%" id="linearGradient-4"><stop stop-color="#77C4DF" stop-opacity="0" offset="0%"/><stop stop-color="#114758" offset="100%"/></linearGradient><linearGradient x1="50%" y1="0%" x2="50%" y2="120.306%" id="linearGradient-5"><stop stop-color="#FFF" offset="0%"/><stop stop-color="#FFF" stop-opacity="0" offset="100%"/></linearGradient><radialGradient cx="49.136%" cy="65.818%" fx="49.136%" fy="65.818%" r="73.024%" id="radialGradient-6"><stop stop-color="#FFF" stop-opacity="0" offset="0%"/><stop stop-color="#FFF" stop-opacity="0" offset="62.78%"/><stop stop-color="#FFF" offset="100%"/></radialGradient><radialGradient cx="50%" cy="73.641%" fx="50%" fy="73.641%" r="111.879%" id="radialGradient-7"><stop stop-color="#FFF" stop-opacity="0" offset="0%"/><stop stop-color="#FFF" stop-opacity="0" offset="42.493%"/><stop stop-color="#FFF" offset="100%"/></radialGradient><radialGradient cx="50%" cy="83.98%" fx="50%" fy="83.98%" r="128.911%" id="radialGradient-8"><stop stop-color="#FFF" stop-opacity="0" offset="0%"/><stop stop-color="#FFF" stop-opacity="0" offset="38.206%"/><stop stop-color="#FFF" offset="100%"/></radialGradient><path d="M10 0h397c5.523 0 10 4.477 10 10v321H0V10C0 4.477 4.477 0 10 0z" id="path-9"/><linearGradient x1="50%" y1="0%" x2="50%" y2="100%" id="linearGradient-11"><stop stop-color="#FFF" offset="0%"/><stop stop-color="#FFF" stop-opacity="0" offset="100%"/></linearGradient><linearGradient x1="51.035%" y1="54.912%" x2="36.103%" y2="40.923%" id="linearGradient-12"><stop stop-color="#77C4DF" stop-opacity="0" offset="0%"/><stop stop-color="#114758" offset="100%"/></linearGradient><linearGradient x1="49.936%" y1="49.991%" x2="50.187%" y2="49.991%" id="linearGradient-13"><stop stop-color="#AC9370" offset="0%"/><stop stop-color="#594834" offset="100%"/></linearGradient><linearGradient x1="49.936%" y1="49.991%" x2="50.187%" y2="49.991%" id="linearGradient-14"><stop stop-color="#AC9370" offset="0%"/><stop stop-color="#594834" offset="100%"/></linearGradient><linearGradient x1="79.078%" y1="64.79%" x2="31.362%" y2="43.524%" id="linearGradient-15"><stop stop-color="#F9B231" offset="0%"/><stop stop-color="#FFFAF4" offset="100%"/></linearGradient><style>@keyframes floating{0%{transform:translateY(0%)}50%{transform:translateY(8%)}}.line{animation-name:floating;-webkit-animation-name:floating;animation-duration:5s;-webkit-animation-duration:5s;animation-iteration-count:infinite;-webkit-animation-iteration-count:infinite}#Path-Copy-10.line{animation-delay:7s}</style></defs><g id="Page-1" stroke="none" stroke-width="1" fill="none" fill-rule="evenodd"><g id="CONCEPT-Copy" transform="translate(-682 -3387)"><g id="Group-20" transform="translate(682 3387)"><path class="line" fill="url(#linearGradient-1)" fill-rule="nonzero" opacity=".3" style="animation-delay:3s" d="M196 367h-13V148.184L196 143z"/><path class="line" fill="url(#linearGradient-1)" fill-rule="nonzero" opacity=".5" style="animation-delay:4s" d="M13 276H0V57.184L13 52z"/><path class="line" fill="url(#linearGradient-1)" fill-rule="nonzero" opacity=".3" style="animation-delay:6s" d="M239 246h-13V27.184L239 22z"/><path class="line" id="Path-Copy-11" fill="url(#linearGradient-2)" fill-rule="nonzero" opacity=".1" d="M560 219h-13V.185L560 0z"/><path class="line" fill="url(#linearGradient-3)" fill-rule="nonzero" opacity=".5" style="animation-delay:5s" d="M59 367H46v-95.815L59 266z"/><path class="line" fill="url(#linearGradient-3)" fill-rule="nonzero" opacity=".5" style="animation-delay:3.5s" d="M597 367h-13v-95.815L597 266z"/><path class="line" fill="url(#linearGradient-4)" fill-rule="nonzero" opacity=".2" style="animation-delay:5.5s" d="M477 390h-38V51.157L477 36z"/><g id="Group-10" transform="translate(222 110)"><path d="M223.164 75.993C247.017 80.719 265 101.76 265 127c0 28.719-23.281 52-52 52H52c-28.719 0-52-23.281-52-52 0-25.476 18.32-46.672 42.504-51.135A34.217 34.217 0 0 1 42 70c0-18.778 15.222-34 34-34a33.85 33.85 0 0 1 20.9 7.181C106.029 17.995 130.164 0 158.5 0 194.675 0 224 29.325 224 65.5c0 3.572-.286 7.076-.836 10.493z" id="Combined-Shape" fill="url(#linearGradient-5)"/><circle id="Oval-Copy-31" fill="url(#radialGradient-6)" cx="158.5" cy="65.5" r="65.5"/><circle id="Oval-Copy-32" fill="url(#radialGradient-6)" cx="75" cy="69" r="33"/><circle id="Oval-Copy-34" fill="url(#radialGradient-7)" cx="213" cy="127" r="52"/><circle id="Oval-Copy-35" fill="url(#radialGradient-8)" cx="52" cy="127" r="52"/></g><path id="Path-Copy-10" fill="url(#linearGradient-1)" fill-rule="nonzero" opacity=".3" d="M409 367h-13V148.184L409 143z"/><g id="Rectangle" transform="translate(150 36)"><mask id="mask-10" fill="#fff"><use xlink:href="#path-9"/></mask><path fill="#FFF" mask="url(#mask-10)" d="M0 0h417v25H0z"/></g><circle id="Oval" fill="#D8D8D8" cx="161.5" cy="48.5" r="3.5"/><circle id="Oval-Copy-33" fill="#D8D8D8" cx="172.5" cy="48.5" r="3.5"/><circle id="Oval-Copy-36" fill="#D8D8D8" cx="183.5" cy="48.5" r="3.5"/><path id="Rectangle" fill="url(#linearGradient-11)" d="M150 60h6v307h-6z"/><path id="Rectangle-Copy-11" fill="url(#linearGradient-11)" d="M561 60h6v307h-6z"/><path id="Path" fill="url(#linearGradient-12)" fill-rule="nonzero" opacity=".146" d="M503.219 338L561 315.184 508.203 293 450 316.066z"/><g id="wifi" transform="translate(391 252)" fill-rule="nonzero"><path id="Path" fill="url(#linearGradient-13)" d="M0 40.908V24.184h117.152v16.724L58.576 64.254z"/><path id="Path" fill="#483928" d="M0 24.184L58.576.838l58.576 23.346L58.576 47.53z"/><path id="Path" fill="#50E6FF" d="M50.845 55.692L5.972 37.812v-4.567l44.873 17.88z"/></g><g id="wifi-copy" transform="translate(391 235)" fill-rule="nonzero"><path id="Path" fill="url(#linearGradient-13)" d="M0 40.908V24.184h117.152v16.724L58.576 64.254z"/><path id="Path" fill="#483928" d="M0 24.184L58.576.838l58.576 23.346L58.576 47.53z"/><path id="Path" fill="#50E6FF" d="M50.845 55.692L5.972 37.812v-4.567l44.873 17.88z"/></g><g id="wifi-copy-2" transform="translate(391 218)" fill-rule="nonzero"><path id="Path" fill="url(#linearGradient-14)" d="M0 40.908V24.184h116.713v16.724L58.356 64.254z"/><path id="Path" fill="url(#linearGradient-15)" d="M0 24.184L58.356.838l58.357 23.346L58.356 47.53z"/><path id="Path" fill="#50E6FF" d="M50.654 55.692L5.95 37.812v-4.567l44.704 17.88z"/></g></g></g></g></svg>