<svg viewBox="0 0 1440 1080" xmlns="http://www.w3.org/2000/svg" xmlns:xlink="http://www.w3.org/1999/xlink"><defs><style>@media (max-width:1200px){#flower{display:none}}@media (max-width:991px){#table{transform:translate(40px,40px)}}@media (max-width:767px){#dfg{display:none}}</style><linearGradient x1="50%" y1="50.602%" x2="14.339%" y2="45.263%" id="Y"><stop stop-color="#77C4DF" stop-opacity="0" offset="0%"/><stop stop-color="#114758" offset="100%"/></linearGradient><linearGradient x1="95.571%" y1="80.226%" x2="6.396%" y2="6.127%" id="aX"><stop stop-color="#FEE8C4" offset="0%"/><stop stop-color="#FFF" offset="100%"/></linearGradient><linearGradient x1="55.751%" y1="43.599%" x2="10.897%" y2="55.435%" id="aW"><stop stop-color="#FEE8C4" offset="0%"/><stop stop-color="#FFF" offset="100%"/></linearGradient><linearGradient x1="-.36%" y1="49.995%" x2="108.523%" y2="49.995%" id="e"><stop stop-color="#AC9370" offset="0%"/><stop stop-color="#594834" offset="100%"/></linearGradient><linearGradient x1="90.998%" y1="54.874%" x2="4.376%" y2="42.412%" id="f"><stop stop-color="#77C4DF" stop-opacity="0" offset="0%"/><stop stop-color="#114758" offset="100%"/></linearGradient><linearGradient x1="94.992%" y1="54.813%" x2="3.56%" y2="42.41%" id="g"><stop stop-color="#77C4DF" stop-opacity="0" offset="0%"/><stop stop-color="#114758" offset="100%"/></linearGradient><linearGradient x1="0%" y1="50%" x2="108.873%" y2="50%" id="h"><stop stop-color="#AC9370" offset="0%"/><stop stop-color="#594834" offset="100%"/></linearGradient><linearGradient x1="0%" y1="50%" x2="108.884%" y2="50%" id="i"><stop stop-color="#AC9370" offset="0%"/><stop stop-color="#594834" offset="100%"/></linearGradient><linearGradient x1="30.861%" y1="41.393%" x2="51.792%" y2="50.543%" id="j"><stop stop-color="#AC9370" offset="0%"/><stop stop-color="#594834" offset="100%"/></linearGradient><linearGradient x1="66.871%" y1="60.038%" x2="39.675%" y2="43.756%" id="k"><stop stop-color="#FFCB6C" offset="0%"/><stop stop-color="#FFFAF4" offset="100%"/></linearGradient><linearGradient x1="51.293%" y1="53.107%" x2="40.416%" y2="43.615%" id="l"><stop stop-color="#77C4DF" stop-opacity="0" offset="0%"/><stop stop-color="#114758" offset="100%"/></linearGradient><linearGradient x1="76.595%" y1="64.517%" x2="14.38%" y2="44.537%" id="m"><stop stop-color="#77C4DF" stop-opacity="0" offset="0%"/><stop stop-color="#114758" offset="100%"/></linearGradient><linearGradient x1="59.377%" y1="75.808%" x2="36.367%" y2="8.397%" id="n"><stop stop-color="#F9B231" offset="0%"/><stop stop-color="#FFFAF4" offset="100%"/></linearGradient><linearGradient x1="40.131%" y1="1.068%" x2="58.891%" y2="94.102%" id="o"><stop stop-color="#AC9370" offset="0%"/><stop stop-color="#594834" offset="100%"/></linearGradient><linearGradient x1="59.865%" y1="102.117%" x2="40.135%" y2="4.811%" id="p"><stop stop-color="#FEE8C4" offset="0%"/><stop stop-color="#FFF" offset="100%"/></linearGradient><linearGradient x1="52.384%" y1="51.134%" x2="46.635%" y2="45.779%" id="q"><stop stop-color="#77C4DF" stop-opacity="0" offset="0%"/><stop stop-color="#114758" offset="100%"/></linearGradient><linearGradient x1="5.524%" y1="43.307%" x2="60.252%" y2="51.495%" id="r"><stop stop-color="#AC9370" offset="0%"/><stop stop-color="#594834" offset="100%"/></linearGradient><linearGradient x1="64.196%" y1="65.271%" x2="36.742%" y2="43.308%" id="s"><stop stop-color="#F9B231" offset="0%"/><stop stop-color="#FFFAF4" offset="100%"/></linearGradient><linearGradient x1="102.685%" y1="60.95%" x2="25.964%" y2="43.837%" id="t"><stop stop-color="#AC9370" offset="0%"/><stop stop-color="#594834" offset="100%"/></linearGradient><linearGradient x1="102.685%" y1="60.951%" x2="25.964%" y2="43.83%" id="u"><stop stop-color="#AC9370" offset="0%"/><stop stop-color="#594834" offset="100%"/></linearGradient><linearGradient x1="102.685%" y1="60.96%" x2="25.964%" y2="43.823%" id="v"><stop stop-color="#AC9370" offset="0%"/><stop stop-color="#594834" offset="100%"/></linearGradient><linearGradient x1="102.689%" y1="60.95%" x2="25.963%" y2="43.85%" id="w"><stop stop-color="#AC9370" offset="0%"/><stop stop-color="#594834" offset="100%"/></linearGradient><linearGradient x1="102.724%" y1="60.944%" x2="26.003%" y2="43.822%" id="x"><stop stop-color="#AC9370" offset="0%"/><stop stop-color="#594834" offset="100%"/></linearGradient><linearGradient x1="102.685%" y1="60.97%" x2="25.964%" y2="43.811%" id="y"><stop stop-color="#AC9370" offset="0%"/><stop stop-color="#594834" offset="100%"/></linearGradient><linearGradient x1="102.588%" y1="60.91%" x2="25.995%" y2="43.863%" id="z"><stop stop-color="#AC9370" offset="0%"/><stop stop-color="#594834" offset="100%"/></linearGradient><linearGradient x1="102.686%" y1="60.952%" x2="25.95%" y2="43.848%" id="A"><stop stop-color="#AC9370" offset="0%"/><stop stop-color="#594834" offset="100%"/></linearGradient><linearGradient x1="102.686%" y1="60.964%" x2="25.95%" y2="43.821%" id="B"><stop stop-color="#AC9370" offset="0%"/><stop stop-color="#594834" offset="100%"/></linearGradient><linearGradient x1="102.685%" y1="60.959%" x2="25.964%" y2="43.774%" id="C"><stop stop-color="#AC9370" offset="0%"/><stop stop-color="#594834" offset="100%"/></linearGradient><linearGradient x1="102.685%" y1="60.944%" x2="25.964%" y2="43.822%" id="D"><stop stop-color="#AC9370" offset="0%"/><stop stop-color="#594834" offset="100%"/></linearGradient><linearGradient x1="102.585%" y1="60.93%" x2="25.968%" y2="43.84%" id="E"><stop stop-color="#AC9370" offset="0%"/><stop stop-color="#594834" offset="100%"/></linearGradient><linearGradient x1="102.685%" y1="60.953%" x2="25.964%" y2="43.815%" id="F"><stop stop-color="#AC9370" offset="0%"/><stop stop-color="#594834" offset="100%"/></linearGradient><linearGradient x1="102.584%" y1="60.901%" x2="25.996%" y2="43.87%" id="G"><stop stop-color="#AC9370" offset="0%"/><stop stop-color="#594834" offset="100%"/></linearGradient><linearGradient x1="102.685%" y1="60.943%" x2="25.95%" y2="43.776%" id="H"><stop stop-color="#AC9370" offset="0%"/><stop stop-color="#594834" offset="100%"/></linearGradient><linearGradient x1="102.689%" y1="60.953%" x2="25.948%" y2="43.847%" id="I"><stop stop-color="#AC9370" offset="0%"/><stop stop-color="#594834" offset="100%"/></linearGradient><linearGradient x1="102.684%" y1="60.936%" x2="25.993%" y2="43.875%" id="J"><stop stop-color="#AC9370" offset="0%"/><stop stop-color="#594834" offset="100%"/></linearGradient><linearGradient x1="95.237%" y1="56.986%" x2="29.449%" y2="44.892%" id="K"><stop stop-color="#AC9370" offset="0%"/><stop stop-color="#594834" offset="100%"/></linearGradient><linearGradient x1="102.686%" y1="60.948%" x2="25.95%" y2="43.819%" id="L"><stop stop-color="#AC9370" offset="0%"/><stop stop-color="#594834" offset="100%"/></linearGradient><linearGradient x1="102.584%" y1="60.919%" x2="25.996%" y2="43.865%" id="M"><stop stop-color="#AC9370" offset="0%"/><stop stop-color="#594834" offset="100%"/></linearGradient><linearGradient x1="66.292%" y1="62.19%" x2="36.742%" y2="43.586%" id="N"><stop stop-color="#F9B231" offset="0%"/><stop stop-color="#FFFAF4" offset="100%"/></linearGradient><linearGradient x1="40.083%" y1="45.127%" x2="75.051%" y2="69.976%" id="O"><stop stop-color="#FFC65D" offset="0%"/><stop stop-color="#CC8F1C" offset="100%"/></linearGradient><linearGradient x1="-35.969%" y1="38.467%" x2="80.579%" y2="54.103%" id="P"><stop stop-color="#AC9370" offset="0%"/><stop stop-color="#594834" offset="100%"/></linearGradient><linearGradient x1="27.461%" y1=".867%" x2="70.318%" y2="94.286%" id="Q"><stop stop-color="#FEE8C4" offset="0%"/><stop stop-color="#FFF" offset="100%"/></linearGradient><linearGradient x1="27.456%" y1=".867%" x2="70.322%" y2="94.286%" id="R"><stop stop-color="#FEE8C4" offset="0%"/><stop stop-color="#FFF" offset="100%"/></linearGradient><linearGradient x1=".385%" y1="51.919%" x2="171.172%" y2="48.428%" id="S"><stop stop-color="#EACFA1" offset="0%"/><stop stop-color="#FFF" offset="100%"/></linearGradient><linearGradient x1="5.674%" y1="40.329%" x2="100.138%" y2="79.379%" id="T"><stop stop-color="#ECD3A9" offset="0%"/><stop stop-color="#F5E9D3" offset="100%"/></linearGradient><linearGradient x1=".365%" y1="51.919%" x2="171.222%" y2="48.428%" id="U"><stop stop-color="#EACFA1" offset="0%"/><stop stop-color="#FFF" offset="100%"/></linearGradient><linearGradient x1=".375%" y1="51.919%" x2="171.198%" y2="48.428%" id="V"><stop stop-color="#EACFA1" offset="0%"/><stop stop-color="#FFF" offset="100%"/></linearGradient><linearGradient x1=".375%" y1="51.919%" x2="171.196%" y2="48.428%" id="W"><stop stop-color="#EACFA1" offset="0%"/><stop stop-color="#FFF" offset="100%"/></linearGradient><linearGradient x1="55.914%" y1="56.493%" x2="42.316%" y2="42.05%" id="X"><stop stop-color="#77C4DF" stop-opacity="0" offset="0%"/><stop stop-color="#114758" offset="100%"/></linearGradient><linearGradient x1="0%" y1="50.007%" x2="100.03%" y2="50.007%" id="aV"><stop stop-color="#FEE8C4" offset="0%"/><stop stop-color="#FFF" offset="100%"/></linearGradient><linearGradient x1="21.411%" y1="49.586%" x2="14.239%" y2="44.636%" id="Z"><stop stop-color="#77C4DF" stop-opacity="0" offset="0%"/><stop stop-color="#114758" offset="100%"/></linearGradient><linearGradient x1="0%" y1="49.99%" x2="100.008%" y2="49.99%" id="aU"><stop stop-color="#AC9370" offset="0%"/><stop stop-color="#594834" offset="100%"/></linearGradient><linearGradient x1="73.982%" y1="57.511%" x2="36.742%" y2="41.058%" id="ab"><stop stop-color="#F9B231" offset="0%"/><stop stop-color="#FFFAF4" offset="100%"/></linearGradient><linearGradient x1="4.059%" y1="38.426%" x2="91.387%" y2="60.432%" id="ac"><stop stop-color="#AC9370" offset="0%"/><stop stop-color="#594834" offset="100%"/></linearGradient><linearGradient x1="4.059%" y1="40.685%" x2="91.387%" y2="58.395%" id="ad"><stop stop-color="#AC9370" offset="0%"/><stop stop-color="#594834" offset="100%"/></linearGradient><linearGradient x1="67.411%" y1="58.811%" x2="36.742%" y2="43.281%" id="ae"><stop stop-color="#F9B231" offset="0%"/><stop stop-color="#FFFAF4" offset="100%"/></linearGradient><linearGradient x1="4.059%" y1="42.65%" x2="91.387%" y2="56.624%" id="af"><stop stop-color="#AC9370" offset="0%"/><stop stop-color="#594834" offset="100%"/></linearGradient><linearGradient x1="67.411%" y1="58.443%" x2="36.742%" y2="43.562%" id="ag"><stop stop-color="#F9B231" offset="0%"/><stop stop-color="#FFFAF4" offset="100%"/></linearGradient><linearGradient x1="49.936%" y1="49.991%" x2="50.187%" y2="49.991%" id="ah"><stop stop-color="#AC9370" offset="0%"/><stop stop-color="#594834" offset="100%"/></linearGradient><linearGradient x1="79.078%" y1="64.679%" x2="31.362%" y2="43.573%" id="ai"><stop stop-color="#F9B231" offset="0%"/><stop stop-color="#FFFAF4" offset="100%"/></linearGradient><linearGradient x1="48.758%" y1="30.856%" x2="49.393%" y2="40.633%" id="aj"><stop stop-color="#AC9370" offset="0%"/><stop stop-color="#594834" offset="100%"/></linearGradient><linearGradient x1="51.242%" y1="30.856%" x2="50.607%" y2="40.633%" id="ak"><stop stop-color="#AC9370" offset="0%"/><stop stop-color="#594834" offset="100%"/></linearGradient><linearGradient x1="-8.447%" y1="62.97%" x2="21.461%" y2="56.349%" id="al"><stop stop-color="#AC9370" offset="0%"/><stop stop-color="#594834" offset="100%"/></linearGradient><linearGradient x1="48.764%" y1="30.856%" x2="49.395%" y2="40.633%" id="am"><stop stop-color="#AC9370" offset="0%"/><stop stop-color="#594834" offset="100%"/></linearGradient><linearGradient x1="-8.696%" y1="62.938%" x2="21.281%" y2="56.378%" id="an"><stop stop-color="#AC9370" offset="0%"/><stop stop-color="#594834" offset="100%"/></linearGradient><linearGradient x1="51.035%" y1="54.746%" x2="36.103%" y2="41.23%" id="ao"><stop stop-color="#77C4DF" stop-opacity="0" offset="0%"/><stop stop-color="#114758" offset="100%"/></linearGradient><linearGradient x1="61.075%" y1="55.292%" x2="33.969%" y2="40.776%" id="ap"><stop stop-color="#77C4DF" stop-opacity="0" offset="0%"/><stop stop-color="#114758" offset="100%"/></linearGradient><linearGradient x1="58.909%" y1="18.114%" x2="58.909%" y2="100%" id="aq"><stop stop-color="#FFC04D" offset="0%"/><stop stop-color="#C58409" offset="100%"/></linearGradient><linearGradient x1="123.488%" y1="68.702%" x2="5.944%" y2="41.544%" id="ar"><stop stop-color="#F9B231" offset="0%"/><stop stop-color="#FFFAF4" offset="100%"/></linearGradient><linearGradient x1="4.059%" y1="32.498%" x2="91.387%" y2="65.774%" id="as"><stop stop-color="#AC9370" offset="0%"/><stop stop-color="#594834" offset="100%"/></linearGradient><linearGradient x1="105.98%" y1="-28.968%" x2="91.387%" y2="83.263%" id="at"><stop stop-color="#AC9370" offset="0%"/><stop stop-color="#594834" offset="100%"/></linearGradient><linearGradient x1="31.351%" y1="66.168%" x2="41.3%" y2="50%" id="au"><stop stop-color="#FEE8C4" offset="0%"/><stop stop-color="#FFF" offset="100%"/></linearGradient><linearGradient x1="70.847%" y1="42.313%" x2="62.455%" y2="50%" id="av"><stop stop-color="#FEE8C4" offset="0%"/><stop stop-color="#FFF" offset="100%"/></linearGradient><linearGradient x1="61.952%" y1="60.75%" x2="38.387%" y2="40.992%" id="aw"><stop stop-color="#77C4DF" stop-opacity="0" offset="0%"/><stop stop-color="#114758" offset="100%"/></linearGradient><linearGradient x1="72.085%" y1="96.961%" x2="27.595%" y2="20.314%" id="ax"><stop stop-color="#F9B231" offset="0%"/><stop stop-color="#FFFAF4" offset="100%"/></linearGradient><linearGradient x1="31.987%" y1="50%" x2="42.127%" y2="73.69%" id="ay"><stop stop-color="#FFD891" offset="0%"/><stop stop-color="#FFFAF4" offset="100%"/></linearGradient><linearGradient x1="40.548%" y1="50%" x2="40.117%" y2="50%" id="az"><stop stop-color="#FEE8C4" offset="0%"/><stop stop-color="#FFF" offset="100%"/></linearGradient><linearGradient x1="33.634%" y1="22.804%" x2="50%" y2="94.809%" id="aA"><stop stop-color="#AC9370" offset="0%"/><stop stop-color="#594834" offset="100%"/></linearGradient><linearGradient x1="50%" y1="83.186%" x2="46.517%" y2="10.622%" id="aB"><stop stop-color="#FEE8C4" offset="0%"/><stop stop-color="#FFF" offset="100%"/></linearGradient><linearGradient x1=".011%" y1="50.006%" x2="100.045%" y2="50.006%" id="aS"><stop stop-color="#FEE8C4" offset="0%"/><stop stop-color="#FFF" offset="100%"/></linearGradient><linearGradient x1="46.23%" y1="7.032%" x2="51.925%" y2="93.099%" id="aP"><stop stop-color="#FEE8C4" offset="0%"/><stop stop-color="#FFF" offset="100%"/></linearGradient><linearGradient x1="50%" y1="0%" x2="50%" y2="82.897%" id="aE"><stop stop-color="#FFF" offset="0%"/><stop stop-color="#FFF" stop-opacity="0" offset="100%"/></linearGradient><linearGradient x1="50%" y1="0%" x2="50%" y2="82.897%" id="aF"><stop stop-color="#FFF" offset="0%"/><stop stop-color="#FFF" stop-opacity="0" offset="100%"/></linearGradient><linearGradient x1="50%" y1="0%" x2="50%" y2="82.897%" id="aG"><stop stop-color="#FFF" offset="0%"/><stop stop-color="#FFF" stop-opacity="0" offset="100%"/></linearGradient><linearGradient x1="50%" y1="0%" x2="50%" y2="82.897%" id="aH"><stop stop-color="#FFF" offset="0%"/><stop stop-color="#FFF" stop-opacity="0" offset="100%"/></linearGradient><linearGradient x1="62.617%" y1="93.714%" x2="41.469%" y2="20.431%" id="aI"><stop stop-color="#FEE8C4" offset="0%"/><stop stop-color="#FFF" offset="100%"/></linearGradient><linearGradient x1="0%" y1="49.995%" x2="100%" y2="49.995%" id="aJ"><stop stop-color="#AC9370" offset="0%"/><stop stop-color="#594834" offset="100%"/></linearGradient><linearGradient x1="43.336%" y1="56.448%" x2="78.021%" y2="25.748%" id="aK"><stop stop-color="#FEE8C4" offset="0%"/><stop stop-color="#FFF" offset="100%"/></linearGradient><linearGradient x1="87.783%" y1="53.626%" x2="-1.028%" y2="45.107%" id="aL"><stop stop-color="#AC9370" offset="0%"/><stop stop-color="#594834" offset="100%"/></linearGradient><linearGradient x1="49.741%" y1="50%" x2="50.134%" y2="50%" id="aM"><stop stop-color="#AC9370" offset="0%"/><stop stop-color="#594834" offset="100%"/></linearGradient><linearGradient x1="56.514%" y1="50%" x2="32.935%" y2="35.707%" id="aN"><stop stop-color="#77C4DF" stop-opacity="0" offset="0%"/><stop stop-color="#114758" offset="100%"/></linearGradient><radialGradient cx="50%" cy="100%" fx="50%" fy="100%" r="919.865%" gradientTransform="matrix(0 -.15773 .08829 0 .412 1.079)" id="aC"><stop stop-color="#FFF" stop-opacity="0" offset="0%"/><stop stop-color="#FFF" stop-opacity=".272" offset="29.792%"/><stop stop-color="#FFF" offset="100%"/></radialGradient><radialGradient cx="66.564%" cy="77.898%" fx="66.564%" fy="77.898%" r="189.606%" gradientTransform="matrix(-.38294 .14869 -.03147 -.5404 .945 1.101)" id="aa"><stop stop-color="#77C4DF" stop-opacity="0" offset="0%"/><stop stop-color="#77C4DF" stop-opacity="0" offset="39.484%"/><stop stop-color="#114758" offset="100%"/></radialGradient><radialGradient cx="56.007%" cy="54.723%" fx="56.007%" fy="54.723%" r="45.814%" gradientTransform="matrix(-1 .00273 -.00214 -.54137 1.121 .842)" id="c"><stop stop-color="#FFF" offset="0%"/><stop stop-color="#FCFDFC" stop-opacity=".964" offset="60.812%"/><stop stop-color="#FFF" stop-opacity="0" offset="100%"/></radialGradient><radialGradient cx="-2.505%" cy="1.714%" fx="-2.505%" fy="1.714%" r="172.402%" gradientTransform="matrix(.61995 -.06343 .02444 .61888 -.01 .005)" id="b"><stop stop-color="#FDA916" stop-opacity=".776" offset="0%"/><stop stop-color="#F2D469" offset="32.97%"/><stop stop-color="#50BED3" offset="100%"/></radialGradient><path d="M21.23 128.422C36.756 124.94 27.216 43.266.62 0c0 0-6.198 134.442 20.61 128.422z" id="aO"/><path d="M7.136 57.262C-7.46 51.893 2.476 15.315 17.734 2.367L46.024 0S23.701 63.372 7.135 57.262z" id="aR"/><path d="M1547 0H0v704.31l225.233 89.667c26.59 10.594 59.358 10.594 85.949 0l156.505-62.313c26.597-10.593 59.368-10.593 85.965 0l555.723 221.399c26.578 10.583 59.323 10.583 85.9 0l316.8-125.91c8.326-3.305 13.457-9.426 13.457-16.051 0-6.626-5.131-12.747-13.457-16.052l-42.325-16.859c-5.013-1.969-8.108-5.641-8.108-9.62 0-3.978 3.095-7.65 8.108-9.62l77.25-30.818V0z" id="a"/><rect id="aD" x="0" y=".464" width="50" height="50" rx="10"/></defs><g fill="none" fill-rule="evenodd"><g transform="translate(-107 -50)"><mask id="d" fill="#fff"><use xlink:href="#a"/></mask><use fill="url(#b)" xlink:href="#a"/><path d="M1802.98 169.019l-.37-.93-477.893 190.418-55.553-22.135 533.816-212.703-.37-.93-534.796 213.093-55.564-22.135 590.73-235.378-.37-.92-591.73 235.758-55.523-22.125L1802.98 32.969l-.37-.93-648.583 258.453-55.583-22.145L1802.98-12.37l-.37-.93-705.516 281.117-55.553-22.135L1802.98-57.72l-.37-.93-762.42 303.792-55.563-22.135L1802.98-103.07l-.37-.93-819.332 326.467L206.37-87.093l-.37.929 775.908 309.17-55.554 22.136L206.37-41.744l-.37.92 719.024 286.496-55.553 22.135L206.37 3.596l-.37.93 662.121 263.82-55.553 22.136L206.37 48.966l-.37.93 605.218 241.146-55.553 22.135L206.37 94.296l-.37.93 548.315 218.47-55.564 22.136L206.37 139.646l-.37.93 491.402 195.796-55.554 22.135L206.37 184.995l-.37.94 434.498 173.111-55.543 22.136L206.37 230.345l-.37.93 377.595 150.446-55.553 22.165-321.672-128.2-.37.929 320.692 127.781-55.564 22.135L206.37 321.045l-.37.93L469.779 427.07l-55.554 22.135-207.855-82.821-.37.93 206.875 82.431-55.553 22.125-150.952-60.136-.37.93 149.982 59.756-55.573 22.135-93.989-37.471-.37.93 93.059 37.081-55.603 22.135-37.136-14.797-.37.93 36.156 14.407-34.266 13.657.37.92 35.246-13.997 55.553 22.135-55.553 22.095-37.136-14.807-.37.93 36.156 14.407-34.266 13.657.37.93 35.246-14.047 55.553 22.135-55.573 22.145-37.116-14.787-.37.92 36.136 14.407-34.246 13.647.37.93 35.226-13.997 55.563 22.135-55.543 22.085-37.136-14.797-.37.93 36.156 14.427-34.266 13.636.37.93 35.246-14.047 55.553 22.135-55.563 22.136-37.126-14.797-.37.93 36.146 14.406-34.256 13.657.37.93 35.236-13.997 55.563 22.065-55.563 22.155-37.126-14.796-.37.93 36.146 14.406-34.256 13.647.37.93 35.236-13.997 55.563 22.145-55.553 22.085-37.136-14.796-.37.93 36.156 14.406-34.266 13.657.37.93 35.246-14.057 55.553 22.135-55.553 22.135-37.136-14.797-.37.93 36.156 14.407-34.266 13.657.37.93 35.246-13.997 55.553 22.135-55.573 22.095-37.116-14.787-.37.93 36.136 14.397-34.246 13.647.37.93 35.226-13.997 55.553 22.135-55.533 22.125-37.136-14.837-.37.93 36.156 14.407-34.266 13.657.37.93 35.246-13.997 55.553 22.135-55.563 22.135-37.126-14.847-.37.93 36.146 14.407-34.256 13.647.37.93 35.236-13.998 55.563 22.135-55.553 22.136-37.136-14.837-.37.93 36.156 14.406-34.266 13.657.37.93 35.246-13.997 55.553 22.135-55.553 22.135-37.136-14.846-.37.93 36.156 14.406-34.266 13.647.37.93 35.246-13.997 55.553 22.145-55.553 22.055-37.136-14.776-.37.93 36.156 14.406-34.266 13.657.37.93 35.246-14.047 55.553 22.135-55.583 22.155-37.106-14.787-.37.93 36.126 14.397-34.236 13.637.37.93 35.216-13.997 55.513 22.095-55.523 22.125-37.096-14.797-.37.93 36.156 14.407-34.266 13.657.37.93 35.246-13.997 55.553 22.125-91.17 36.282.37.93 92.15-36.712 55.573 22.135-148.092 58.987.37.93 149.072-59.407 55.543 22.135-204.985 81.691.37.92 205.975-82.061 55.554 22.155-261.9 104.346.37.93 262.88-104.737 55.553 22.136-318.802 126.971.37.93 319.782-127.422 55.553 22.135-375.705 149.757.37.93 376.695-150.097 55.543 22.105-432.608 172.402.37.93 433.588-172.762 55.574 22.145-489.532 195.057.37.93 490.511-195.447 55.544 22.125-546.425 217.732.37.93 547.405-218.122 55.553 22.135-603.328 240.396.37.93 604.308-240.786 55.553 22.135-660.231 263.071.37.93 661.211-263.461 55.553 22.135-717.134 285.746.37.93 718.114-286.106 55.534 22.105-774.018 308.411.37.93 775.018-308.801L1800.73 1819l.37-.93-816.463-325.317 55.534-22.105 760.56 303.032.37-.93-759.58-302.632 55.573-22.145 703.636 280.357.37-.93-702.656-279.937 55.553-22.135 646.733 257.682.37-.93-645.753-257.352 55.553-22.135 589.83 235.018.37-.93-588.84-234.628 55.564-22.135 532.936 212.333.37-.93-531.936-211.953 55.543-22.135 476.013 189.668.37-.93-475.053-189.298 55.553-22.135 419.11 166.963.37-.93-418.13-166.593 55.563-22.145 362.197 144.318.37-.93-361.217-143.967 55.554-22.136 305.293 121.643.37-.93-304.314-121.142 55.554-22.135 248.39 98.977.37-.93-247.41-98.577 55.583-22.145 191.457 76.283.37-.93-190.477-75.893 55.533-22.125 134.574 53.618.37-.93-133.594-53.198 55.554-22.135 77.67 30.993.37-.93-76.69-30.553 55.563-22.135 20.757 8.268.37-.93-19.777-7.878 21.657-8.628-.37-.93-22.637 8.998-55.554-22.135 55.554-22.135 20.757 8.268.37-.93-19.777-7.878 21.657-8.628-.37-.93-22.637 8.998-55.554-22.135 55.554-22.135 20.757 8.278.37-.93-19.777-7.878 21.657-8.638-.37-.93-22.637 8.998-55.554-22.135 55.584-22.155 20.727 8.258.37-.93-19.747-7.868 21.627-8.608-.37-.93-22.607 8.998-55.564-22.145 55.524-22.115 20.767 8.269.37-.93-19.787-7.879 21.667-8.638-.37-.93-22.647 8.999-55.554-22.135 55.564-22.135 20.757 8.268.37-.93-19.777-7.878 21.657-8.638-.37-.93-22.637 8.998-55.554-22.135 55.554-22.135 20.757 8.268.37-.93-19.777-7.878 21.657-8.628-.37-.93-22.637 8.998-55.554-22.135 55.554-22.135 20.757 8.268.37-.93-19.777-7.878 21.657-8.628-.37-.93-22.637 8.998-55.554-22.135 55.554-22.135 20.757 8.278.37-.93-19.777-7.878 21.657-8.638-.37-.93-22.637 8.998-55.554-22.135 55.554-22.135 20.757 8.268.37-.93-19.777-7.878 21.657-8.638-.37-.92-22.637 8.998-55.564-22.135 55.554-22.145 20.767 8.278.37-.93-19.787-7.758 21.667-8.638-.37-.93-22.647 8.998-55.554-22.135 55.564-22.145 20.757 8.279.37-.93-19.777-7.879 21.657-8.638-.37-.93-22.637 8.999-55.564-22.035 55.564-22.136 20.757 8.269.37-.93-19.777-7.878 21.657-8.628-.37-.93-22.637 8.998-55.564-22.135 55.564-22.135 20.757 8.268.37-.93-19.777-7.878 21.657-8.628-.37-.93-22.637 8.998-55.554-22.135 55.554-22.135 20.757 8.278.37-.93-19.777-7.888 21.657-8.628-.37-.93-22.637 8.998-55.564-22.135 78.571-31.313-.37-.92-79.55 31.693-55.554-22.145 135.474-53.988-.37-.93-136.454 54.378-55.563-22.135 192.387-76.663-.37-.93-193.367 77.103-55.553-22.135 249.29-99.328-.37-.93-250.27 99.718-55.494-22.115L1803 305.11l-.37-.92-307.133 122.372-55.644-22.165L1802.98 259.72l-.37-.93-364.077 145.097-55.553-22.135 420-167.352-.37-.92-420.95 167.733-55.563-22.136L1802.98 169.02zm-479.613 190.027l-55.553 22.136-55.554-22.136 55.554-22.145 55.553 22.145zm-340.08 181.96l55.554 22.135-55.553 22.105-55.554-22.135 55.554-22.105zM926.385 562.6l-55.563-22.165 55.553-22.135 55.534 22.135-55.524 22.165zm55.524 23.185l-55.564 22.135-55.523-22.135 55.563-22.135 55.524 22.135zm1.35.54l55.643 22.145-55.593 22.135-55.584-22.145 55.534-22.135zm-1.33 44.82l-55.554 22.135-55.553-22.145L926.374 609l55.554 22.145zm1.35.54l55.563 22.145-55.563 22.135-55.524-22.135 55.524-22.146zm-1.37 44.8l-55.544 22.125-55.533-22.126 55.543-22.125 55.534 22.125zm1.35.54l55.563 22.134-55.543 22.125-55.554-22.135 55.534-22.125zm-1.35 44.79l-55.574 22.144-55.513-22.145 55.563-22.145 55.524 22.145zm1.35.54L1038.9 744.5l-55.573 22.145-55.604-22.135 55.534-22.155zm-1.35 44.83l-55.554 22.134-55.533-22.135 55.553-22.135 55.534 22.135zm1.35.53l55.563 22.144-55.533 22.135-55.564-22.145 55.534-22.135zm-1.35 44.81l-55.554 22.144-55.533-22.145 55.553-22.135 55.534 22.135zm1.35.539l55.553 22.135-55.553 22.135-55.554-22.135 55.554-22.135zm-1.35 44.81l-55.564 22.145-55.523-22.135 55.563-22.095 55.524 22.085zm1.35.54l55.553 22.135-55.563 22.135-55.554-22.135 55.564-22.135zm-1.35 44.81l-55.554 22.135-55.553-22.135 55.553-22.135 55.554 22.135zm1.35.54l55.553 22.135-55.553 22.135-55.554-22.135 55.554-22.135zm-1.35 44.81l-55.524 22.185-55.553-22.135 55.543-22.135 55.534 22.085zm1.35.54l55.563 22.135-55.543 22.135-55.564-22.145 55.544-22.125zm-1.35 44.81l-55.564 22.135-55.563-22.136 55.603-22.165 55.524 22.165zm1.35.53l55.643 22.134-55.623 22.155-55.544-22.135 55.524-22.155zm-1.35 44.82l-55.554 22.134-55.543-22.135 55.553-22.135 55.544 22.135zm1.35.53l55.563 22.144-55.553 22.135-55.564-22.145 55.554-22.135zm-1.35 44.82l-55.524 22.104-55.563-22.145 55.553-22.135 55.534 22.175zm1.35.53l55.553 22.134-55.553 22.135-55.554-22.135 55.554-22.135zm-1.35 44.81l-55.574 22.144-55.553-22.135 55.573-22.145 55.554 22.135zm1.35.539l55.553 22.135-55.573 22.145-55.554-22.135 55.574-22.145zm-1.35 44.81l-55.544 22.135-55.543-22.135 55.543-22.125 55.544 22.125zm1.35.54l55.563 22.135-55.553 22.135-55.554-22.135 55.544-22.135zm1.36-.54l55.563-22.135 55.553 22.135-55.563 22.135-55.554-22.135zm56.913-22.675l55.553-22.135 55.553 22.135-55.553 22.135-55.553-22.135zm-1.35-.54l-55.554-22.135 55.554-22.135 55.553 22.135-55.553 22.135zm1.35-44.81l55.553-22.135 55.553 22.135-55.543 22.135-55.563-22.135zm-1.35-.53l-55.554-22.135 55.554-22.145 55.553 22.145-55.553 22.135zm1.35-44.81l55.573-22.145 55.553 22.135-55.573 22.145-55.553-22.135zm-1.35-.54l-55.554-22.135 55.564-22.145 55.563 22.135-55.573 22.145zm1.36-44.82l55.543-22.125 55.563 22.135-55.533 22.145-55.573-22.155zm-1.35-.54l-55.554-22.125 55.554-22.165 55.553 22.136-55.553 22.155zm1.35-44.8l55.543-22.134 55.553 22.135-55.553 22.135-55.543-22.135zm-1.36-.54l-55.554-22.134 55.544-22.135 55.563 22.135-55.553 22.135zm1.34-44.81l55.573-22.124 55.563 22.135-55.563 22.135-55.573-22.145zm-1.35-.54l-55.554-22.134 55.564-22.135 55.553 22.135-55.563 22.135zm1.36-44.81l55.553-22.134 55.553 22.135-55.553 22.135-55.553-22.135zm-1.35-.539l-55.554-22.135 55.564-22.085 55.553 22.135-55.563 22.085zm1.35-44.81l55.553-22.135 55.553 22.135-55.543 22.135-55.563-22.135zm-1.35-.53l-55.554-22.145 55.554-22.135 55.553 22.145-55.553 22.135zm1.35-44.81l55.573-22.145 55.553 22.135-55.563 22.145-55.563-22.135zm-1.35-.54l-55.554-22.135 55.564-22.145 55.563 22.135-55.573 22.145zm1.37-44.82l55.533-22.125 55.563 22.135-55.543 22.125-55.553-22.135zm-1.36-.54l-55.544-22.145 55.544-22.125 55.553 22.125-55.553 22.145zm1.34-44.8l55.563-22.135 55.553 22.135-55.553 22.135-55.563-22.135zm-1.35-.54l-55.554-22.135 55.554-22.135 55.553 22.135-55.553 22.136zm1.36-44.79l55.553-22.135 55.563 22.136-55.563 22.115-55.553-22.115zm-1.35-.54l-55.534-22.124 55.554-22.135 55.533 22.125-55.553 22.135zm1.38-44.8l55.553-22.134 55.523 22.125-55.553 22.115-55.523-22.105zm-1.36-.54l-55.574-22.144 55.554-22.135 55.583 22.175-55.563 22.105zm1.33-44.82l55.553-22.134 55.583 22.145-55.553 22.135-55.583-22.145zm-1.35-.53l-55.554-22.144 55.554-22.135 55.553 22.135-55.553 22.145zm-56.903-22.674l-55.564-22.165 55.554-22.135 55.563 22.145-55.553 22.155zm-56.914-22.675l-55.553-22.165 55.553-22.135 55.534 22.145-55.534 22.155zm-1.35.53l-55.553 22.145-55.543-22.165 55.553-22.135 55.543 22.155zm-56.903 22.655l-55.553 22.145-55.564-22.145 55.564-22.135 55.553 22.135zm1.35.54l55.563 22.135-55.563 22.145-55.543-22.145 55.543-22.135zm-1.35 44.81l-55.553 22.135-55.554-22.135 55.554-22.135 55.553 22.135zm1.35.54l55.553 22.135-55.553 22.135-55.543-22.135 55.543-22.135zm-1.35 44.81l-55.543 22.135-55.554-22.135L812.568 609l55.553 22.135zm1.35.54l55.573 22.155-55.543 22.125-55.573-22.125 55.543-22.156zm-1.32 44.81l-55.573 22.145-55.564-22.146 55.564-22.145 55.573 22.145zm1.35.54l55.533 22.124-55.563 22.145-55.543-22.125 55.573-22.145zm-1.38 44.79l-55.553 22.134-55.544-22.135 55.554-22.135 55.543 22.135zm1.35.54l55.553 22.134-55.553 22.135-55.543-22.115 55.543-22.155zm-1.35 44.81L812.568 789.3l-55.554-22.145 55.554-22.135 55.553 22.145zm1.35.53l55.553 22.134-55.553 22.165-55.543-22.135 55.543-22.165zm-1.35 44.81l-55.563 22.144-55.554-22.135 55.564-22.145 55.553 22.135zm1.35.539l55.563 22.135-55.563 22.145-55.543-22.115 55.543-22.165zm-1.36 44.82l-55.543 22.125-55.554-22.135 55.544-22.065 55.553 22.075zm1.36.53l55.553 22.135-55.553 22.135-55.543-22.115 55.543-22.155zm-1.35 44.81l-55.543 22.135-55.564-22.135 55.554-22.135 55.553 22.135zm1.35.54l55.553 22.135-55.543 22.135-55.553-22.115 55.543-22.155zm-1.34 44.81l-55.563 22.205-55.554-22.135 55.564-22.135 55.553 22.065zm1.35.53l55.553 22.135-55.563 22.145-55.543-22.115 55.553-22.165zm-1.36 44.82l-55.553 22.135-55.554-22.136 55.554-22.145 55.553 22.145zm1.35.54l55.563 22.134-55.553 22.165-55.553-22.145 55.543-22.155zm-1.34 44.81l-55.553 22.134-55.564-22.145 55.554-22.135 55.563 22.145zm1.35.54l55.543 22.124-55.553 22.145-55.543-22.115 55.553-22.155zm-1.36 44.8l-55.573 22.134-55.544-22.135 55.574-22.135 55.543 22.135zm1.35.54l55.563 22.134-55.573 22.145-55.533-22.115 55.543-22.165zm-1.36 44.82l-55.543 22.124-55.554-22.135 55.534-22.125 55.563 22.135zm1.35.539l55.553 22.135-55.543 22.125-55.543-22.115 55.533-22.145zm-1.34 44.8l-55.553 22.135-55.554-22.135 55.554-22.135 55.553 22.135zm1.35.54l55.553 22.135-55.553 22.135-55.543-22.115 55.543-22.155zm56.903 22.675l55.534 22.195-55.544 22.135-55.533-22.135 55.543-22.195zm56.904 22.675l55.623 22.155-55.553 22.135-55.564-22.135 55.494-22.155zm1.36-.54l55.543-22.135 55.563 22.195-55.543 22.095-55.564-22.155zm56.893-22.675l55.563-22.135 55.563 22.135-55.563 22.145-55.563-22.145zm56.913-22.675l55.553-22.135 55.564 22.135-55.554 22.135-55.563-22.135zm56.903-22.675l55.553-22.135 55.564 22.135-55.584 22.155-55.533-22.155zm-1.35-.54l-55.553-22.135 55.553-22.135 55.554 22.135-55.554 22.135zm1.35-44.81l55.573-22.135 55.554 22.135-55.594 22.155-55.533-22.155zm-1.35-.54l-55.553-22.125 55.573-22.145 55.554 22.135-55.574 22.135zm1.37-44.81l55.543-22.125 55.554 22.135-55.584 22.145-55.513-22.155zm-1.35-.54l-55.553-22.135 55.543-22.125 55.554 22.135-55.544 22.125zm1.34-44.8l55.553-22.135 55.554 22.135-55.584 22.165-55.523-22.165zm-1.35-.54l-55.563-22.135 55.553-22.145 55.564 22.136-55.554 22.145zm1.34-44.81l55.563-22.134 55.554 22.135-55.584 22.155-55.533-22.155zm-1.35-.54l-55.553-22.134 55.563-22.135 55.554 22.135-55.564 22.135zm1.36-44.81l55.523-22.104 55.554 22.135-55.554 22.125-55.523-22.155zm-1.35-.54l-55.563-22.134 55.553-22.135 55.564 22.135-55.554 22.135zm1.34-44.81l55.533-22.114 55.564 22.135-55.564 22.135-55.533-22.155zm-1.35-.539l-55.553-22.135 55.553-22.065 55.554 22.135-55.554 22.065zm1.35-44.81l55.583-22.145 55.554 22.135-55.604 22.165-55.533-22.155zm-1.35-.53l-55.553-22.135 55.573-22.145 55.564 22.135-55.584 22.145zm1.38-44.82l55.503-22.115 55.554 22.145-55.534 22.125-55.523-22.155zm-1.35-.54l-55.563-22.135 55.543-22.125 55.554 22.135-55.534 22.125zm1.33-44.8l55.523-22.115 55.554 22.135-55.554 22.135-55.523-22.155zm-1.35-.54l-55.563-22.135 55.553-22.135 55.564 22.135-55.554 22.135zm1.34-44.81l55.533-22.115 55.554 22.135-55.554 22.135-55.533-22.155zm-1.35-.54l-55.553-22.135 55.563-22.135 55.554 22.135-55.564 22.136zm1.36-44.77l55.523-22.155 55.584 22.156-55.584 22.115-55.523-22.115zm-1.35-.54l-55.563-22.154L1153.997 609l55.564 22.135-55.554 22.155zm1.34-44.81l55.533-22.154 55.564 22.135-55.564 22.135-55.533-22.115zm-1.35-.54l-55.523-22.094 55.553-22.135 55.524 22.125-55.554 22.105zm1.38-44.8l55.553-22.134 55.534 22.125-55.584 22.115-55.503-22.105zm-1.35-.53l-55.583-22.154 55.553-22.135 55.584 22.155-55.554 22.135zm-56.933-22.704l-55.553-22.135 55.553-22.135 55.553 22.135-55.553 22.135zm-56.903-22.675l-55.554-22.135 55.554-22.135 55.553 22.135-55.553 22.135zm-56.913-22.675l-55.554-22.135 55.554-22.145 55.563 22.145-55.563 22.135zm-56.904-22.685l-55.553-22.125 55.553-22.135 55.534 22.135-55.534 22.125zm-1.35.54l-55.553 22.135-55.543-22.125 55.553-22.145 55.543 22.135zm-56.903 22.675l-55.553 22.135-55.564-22.135 55.564-22.135 55.553 22.135zm-56.913 22.675l-55.553 22.145-55.554-22.145 55.554-22.135 55.553 22.135zm-56.903 22.675L698.75 562.57l-55.553-22.135L698.75 518.3l55.554 22.135zm1.35.54l55.563 22.135-55.553 22.135L700.1 563.11l55.554-22.135zm-1.34 44.81L698.76 607.92l-55.563-22.135 55.553-22.135 55.564 22.135zm1.35.54l55.553 22.135-55.543 22.135-55.564-22.135 55.554-22.135zm-1.34 44.81L698.75 653.27l-55.553-22.135L698.761 609l55.564 22.135zm1.35.54l55.553 22.155-55.573 22.135L700.1 653.83l55.574-22.156zm-1.37 44.81L698.75 698.62l-55.553-22.136 55.553-22.135 55.554 22.135zm1.35.54l55.573 22.144-55.553 22.135L700.1 699.16l55.554-22.135zm-1.33 44.79L698.77 743.95l-55.573-22.135 55.553-22.135 55.574 22.135zm1.35.54l55.533 22.134-55.553 22.135-55.534-22.115 55.554-22.155zm-1.37 44.8L698.74 789.32l-55.543-22.135 55.573-22.135 55.534 22.105zm1.35.54l55.563 22.134-55.563 22.165-55.564-22.135 55.564-22.165zm-1.35 44.82L698.76 834.65l-55.563-22.145L698.74 790.4l55.564 22.115zm1.35.539l55.553 22.135-55.543 22.125-55.554-22.135 55.544-22.125zm-1.34 44.8L698.76 879.99l-55.553-22.135 55.553-22.065 55.554 22.065zm1.35.54l55.553 22.135-55.553 22.135-55.554-22.135 55.554-22.135zm-1.35 44.81L698.75 925.34l-55.553-22.135 55.563-22.135 55.554 22.135zm1.35.54l55.563 22.135-55.573 22.135L700.1 925.88l55.564-22.135zm-1.36 44.81L698.75 970.76l-55.553-22.135 55.553-22.135 55.554 22.065zm1.36.54l55.553 22.135-55.553 22.135L700.1 971.23l55.564-22.135zm-1.36 44.81l-55.554 22.135-55.553-22.136 55.553-22.145 55.554 22.145zm1.35.54l55.553 22.134-55.553 22.165-55.554-22.135 55.554-22.165zm-1.35 44.8l-55.574 22.144-55.553-22.135 55.573-22.145 55.554 22.135zm1.35.54l55.573 22.144-55.573 22.145-55.564-22.145 55.564-22.145zm-1.35 44.82l-55.544 22.124-55.563-22.145 55.533-22.125 55.574 22.145zm1.35.54l55.543 22.134-55.533 22.125-55.554-22.125 55.544-22.135zm-1.34 44.8l-55.554 22.134-55.553-22.125 55.553-22.145 55.554 22.135zm1.35.539l55.553 22.135-55.553 22.135-55.554-22.135 55.554-22.135zm-1.35 44.81l-55.564 22.135-55.553-22.135 55.563-22.135 55.554 22.135zm1.35.54l55.553 22.135-55.553 22.135-55.554-22.135 55.554-22.135zm56.903 22.675l55.553 22.195-55.553 22.135-55.554-22.135 55.554-22.195zm56.903 22.675l55.553 22.135-55.553 22.135-55.543-22.115 55.543-22.155zm56.913 22.665l55.524 22.165-55.564 22.135-55.563-22.135 55.603-22.165zm56.914 22.685l55.543 22.155-55.553 22.145-55.544-22.145 55.554-22.155zm1.35-.54l55.553-22.135 55.543 22.135-55.553 22.135-55.544-22.135zm56.903-22.675l55.543-22.135 55.543 22.135-55.543 22.135-55.543-22.135zm56.893-22.665l55.563-22.145 55.554 22.135-55.564 22.135-55.553-22.125zm56.923-22.685l55.553-22.135 55.544 22.135-55.584 22.155-55.513-22.155zm56.903-22.675l55.554-22.135 55.543 22.135-55.553 22.135-55.544-22.135zm56.904-22.675l55.573-22.135 55.543 22.125-55.573 22.145-55.543-22.135zm-1.35-.53l-55.564-22.145 55.564-22.145 55.563 22.145-55.563 22.145zm1.36-44.82l55.533-22.135 55.563 22.145-55.543 22.125-55.553-22.135zm-1.31-.54l-55.554-22.135 55.544-22.135 55.553 22.135-55.543 22.135zm1.34-44.8l55.553-22.145 55.553 22.135-55.553 22.145-55.553-22.135zm-1.35-.54l-55.554-22.135 55.554-22.135 55.553 22.135-55.553 22.135zm1.35-44.81l55.563-22.135 55.553 22.135-55.613 22.165-55.503-22.165zm-1.35-.54l-55.554-22.135 55.564-22.145 55.553 22.136-55.563 22.145zm1.36-44.81l55.553-22.134 55.553 22.135-55.553 22.135-55.553-22.135zm-1.36-.54l-55.554-22.134 55.554-22.135 55.563 22.135-55.563 22.135zm1.35-44.81l55.553-22.134 55.563 22.135-55.553 22.135-55.563-22.135zm-1.35-.54l-55.554-22.134 55.554-22.135 55.553 22.135-55.553 22.135zm1.35-44.81l55.583-22.144 55.553 22.135-55.583 22.145-55.553-22.135zm-1.35-.539l-55.564-22.135 55.574-22.125 55.563 22.135-55.573 22.125zm1.37-44.82l55.533-22.125 55.563 22.135-55.533 22.135-55.563-22.145zm-1.35-.53l-55.554-22.135 55.534-22.135 55.553 22.135-55.533 22.135zm1.33-44.81l55.553-22.135 55.553 22.135-55.553 22.145-55.553-22.145zm-1.35-.53l-55.554-22.135 55.554-22.135 55.553 22.135-55.553 22.135zm1.35-44.81l55.563-22.135 55.553 22.135-55.563 22.135-55.553-22.135zm-1.35-.54l-55.604-22.135 55.554-22.135 55.563 22.135-55.513 22.135zm1.36-44.81l55.553-22.135 55.553 22.135-55.553 22.135-55.553-22.135zm-1.35-.54l-55.564-22.135 55.554-22.135 55.563 22.135-55.553 22.136zm1.34-44.81l55.553-22.134 55.513 22.175-55.553 22.135-55.513-22.175zm-1.35-.54l-55.554-22.134 55.554-22.135 55.553 22.135-55.553 22.135zm1.35-44.81l55.553-22.134 55.553 22.135-55.553 22.135-55.553-22.135zm-1.35-.54l-55.564-22.134 55.564-22.135 55.553 22.135-55.553 22.135zm1.35-44.81l55.553-22.134 55.553 22.135-55.553 22.135-55.553-22.135zm-1.35-.539l-55.584-22.095 55.594-22.135 55.523 22.115-55.533 22.115zm-56.884-22.655l-55.583-22.145 55.483-22.125 55.584 22.155-55.484 22.115zm-56.933-22.685l-55.553-22.135 55.563-22.135 55.554 22.135-55.564 22.135zm-56.953-22.655l-55.553-22.135 55.553-22.135 55.563 22.135-55.563 22.135zm-56.903-22.685l-55.564-22.135 55.564-22.145 55.553 22.145-55.553 22.135zm-56.913-22.675l-55.554-22.135 55.554-22.135 55.553 22.135-55.553 22.135zm-56.904-22.675l-55.543-22.125 55.563-22.145 55.514 22.145-55.534 22.125zm-1.35.54l-55.553 22.135-55.543-22.125 55.553-22.135 55.543 22.125zm-56.903 22.685l-55.553 22.125-55.544-22.135 55.554-22.135 55.543 22.145zm-56.903 22.675l-55.563 22.135-55.544-22.135 55.564-22.135 55.543 22.135zm-56.913 22.665l-55.554 22.145-55.543-22.135 55.553-22.135 55.544 22.125zm-56.903 22.685l-55.554 22.085-55.543-22.125 55.553-22.135 55.544 22.175zm-56.904 22.665l-55.543 22.135-55.543-22.135 55.543-22.135 55.543 22.135zm1.35.54l55.554 22.135-55.554 22.135-55.553-22.135 55.553-22.135zm-1.35 44.81l-55.543 22.135-55.553-22.135 55.553-22.135 55.543 22.135zm1.35.54l55.564 22.135-55.564 22.135-55.563-22.135 55.563-22.135zm-1.35 44.81l-55.543 22.135-55.573-22.135L584.955 609l55.543 22.135zm1.35.54l55.554 22.155-55.554 22.115-55.553-22.115 55.553-22.156zm-1.35 44.81l-55.543 22.135-55.553-22.136 55.553-22.135 55.543 22.135zm1.35.54l55.554 22.134-55.554 22.135-55.553-22.135 55.553-22.135zm-1.35 44.79l-55.543 22.154-55.583-22.155 55.583-22.115 55.543 22.115zm1.35.54l55.574 22.134-55.574 22.165-55.563-22.145 55.563-22.155zm-1.35 44.81l-55.543 22.154-55.563-22.145 55.563-22.125 55.543 22.115zm1.35.54l55.544 22.134-55.544 22.145-55.543-22.125 55.543-22.155zm-1.35 44.8l-55.543 22.154-55.543-22.125 55.543-22.135 55.543 22.105zm1.35.539l55.564 22.135-55.554 22.135-55.563-22.135 55.553-22.135zm-1.34 44.81l-55.553 22.165-55.563-22.145 55.563-22.085 55.553 22.065zm1.35.54l55.554 22.135-55.564 22.135-55.553-22.135 55.563-22.135zm-1.36 44.81l-55.543 22.155-55.553-22.135 55.553-22.135 55.543 22.115zm1.35.54l55.554 22.135-55.554 22.135-55.553-22.135 55.553-22.135zm-1.35 44.81l-55.543 22.205-55.553-22.135 55.553-22.185 55.543 22.115zm1.35.54l55.554 22.135-55.554 22.135-55.553-22.135 55.553-22.135zm-1.35 44.81l-55.543 22.165-55.553-22.136 55.553-22.175 55.543 22.145zm1.35.54l55.554 22.134-55.574 22.165-55.553-22.135 55.573-22.165zm-1.37 44.81l-55.523 22.154-55.553-22.145 55.553-22.125 55.523 22.115zm1.35.54l55.554 22.134-55.534 22.125-55.553-22.135 55.533-22.125zm-1.33 44.8l-55.543 22.134-55.553-22.135 55.553-22.115 55.543 22.115zm1.35.54l55.564 22.144-55.554 22.135-55.563-22.145 55.553-22.135zm-1.34 44.82l-55.553 22.154-55.573-22.145 55.573-22.135 55.553 22.125zm1.35.529l55.544 22.135-55.554 22.135-55.543-22.125 55.553-22.145zm-1.36 44.81l-55.543 22.155-55.543-22.125 55.543-22.145 55.543 22.115zm1.35.54l55.554 22.135-55.554 22.135-55.553-22.135 55.553-22.135zm56.903 22.675l55.554 22.195-55.554 22.135-55.553-22.135 55.553-22.195zm56.914 22.675l55.543 22.135-55.553 22.135-55.544-22.135 55.554-22.135zm56.903 22.675l55.553 22.135-55.553 22.135-55.554-22.135 55.554-22.135zm56.903 22.675l55.563 22.155-55.553 22.135-55.553-22.135 55.543-22.155zm56.913 22.674l55.524 22.156-55.554 22.135-55.543-22.135 55.573-22.156zm56.904 22.665l55.553 22.145-55.553 22.135-55.554-22.135 55.554-22.145zm1.35-.53l55.553-22.145 55.563 22.136-55.563 22.145-55.554-22.135zm56.913-22.654l55.543-22.125 55.563 22.125-55.553 22.135-55.553-22.135zm56.893-22.665l55.553-22.135 55.554 22.135-55.544 22.135-55.563-22.135zm56.903-22.675l55.533-22.145 55.554 22.135-55.554 22.135-55.533-22.125zm56.913-22.675l55.554-22.135 55.563 22.135-55.503 22.125-55.614-22.125zm56.904-22.675l55.553-22.135 55.563 22.135-55.553 22.135-55.563-22.135zm56.903-22.675l55.573-22.145 55.564 22.135-55.574 22.145-55.563-22.135zm56.923-22.685l55.533-22.125 55.564 22.135-55.534 22.135-55.563-22.145zm-1.35-.53l-55.543-22.135 55.533-22.135 55.544 22.135-55.534 22.135zm1.34-44.8l55.553-22.145 55.554 22.135-55.564 22.135-55.543-22.125zm-1.35-.54l-55.563-22.145 55.553-22.135 55.564 22.145-55.554 22.135zm1.34-44.82l55.563-22.135 55.554 22.135-55.554 22.145-55.563-22.145zm-1.35-.53l-55.553-22.135 55.563-22.145 55.554 22.135-55.564 22.145zm1.36-44.81l55.553-22.135 55.554 22.135-55.554 22.135-55.553-22.135zm-1.35-.54l-55.553-22.135 55.553-22.135 55.554 22.135-55.554 22.136zm1.35-44.81l55.553-22.134 55.554 22.135-55.554 22.135-55.553-22.135zm-1.35-.54l-55.553-22.134 55.553-22.135 55.554 22.135-55.554 22.135zm1.35-44.81l55.583-22.144 55.554 22.135-55.584 22.145-55.553-22.135zm-1.35-.54l-55.563-22.134 55.583-22.145 55.564 22.135-55.584 22.145zm1.37-44.82l55.523-22.124 55.564 22.135-55.524 22.125L1383 880.55zm-1.35-.539l-55.553-22.135 55.533-22.085 55.544 22.135-55.524 22.085zm1.33-44.8l55.553-22.135 55.554 22.135-55.564 22.135-55.543-22.135zm-1.35-.53l-55.563-22.145 55.553-22.135 55.564 22.135-55.554 22.145zm1.35-44.82l55.553-22.135 55.554 22.135-55.554 22.145-55.553-22.145zm-1.35-.53l-55.563-22.135 55.563-22.145 55.554 22.135-55.554 22.145zm1.35-44.81l55.553-22.135 55.554 22.135-55.554 22.135-55.553-22.135zm-1.35-.54l-55.553-22.165 55.553-22.135 55.554 22.135-55.554 22.165zm1.35-44.81l55.553-22.135 55.554 22.135-55.554 22.135-55.553-22.135zm-1.35-.54l-55.553-22.135 55.553-22.135 55.554 22.135-55.554 22.136zm1.35-44.81l55.553-22.135 55.554 22.146-55.554 22.135-55.553-22.145zm-1.35-.54l-55.563-22.144L1381.62 609l55.564 22.135-55.554 22.145zm1.34-44.81l55.553-22.134 55.564 22.135-55.554 22.135-55.563-22.135zm-1.35-.54l-55.553-22.134 55.553-22.135 55.554 22.135-55.554 22.135zm1.35-44.81l55.563-22.134 55.554 22.135-55.564 22.135-55.553-22.135zm-1.35-.53l-55.553-22.144 55.563-22.135 55.554 22.135-55.564 22.145zm-56.903-22.674l-55.523-22.125 55.563-22.145 55.523 22.125-55.563 22.145zm-56.843-22.675l-55.584-22.145 55.584-22.145 55.583 22.155-55.583 22.135zm-56.994-22.685l-55.553-22.135 55.553-22.145 55.554 22.145-55.554 22.135zm-56.873-22.685l-55.563-22.135 55.563-22.145 55.554 22.145-55.554 22.135zm-56.913-22.665l-55.553-22.135 55.553-22.185 55.563 22.145-55.563 22.175zm-56.903-22.675l-55.564-22.135 55.564-22.135 55.553 22.135-55.553 22.135zm-56.913-22.645l-55.534-22.125 55.564-22.145 55.533 22.135-55.563 22.135zm1.38-44.8l55.553-22.185 55.533 22.125-55.553 22.136-55.534-22.076zm-1.35-.54l-55.574-22.144 55.554-22.136 55.613 22.116-55.593 22.165zm-1.35.54l-55.564 22.106-55.573-22.146 55.563-22.145 55.574 22.185zm-56.914 22.675l-55.563 22.125-55.553-22.165 55.553-22.135 55.563 22.175zm-56.913 22.675l-55.553 22.135-55.574-22.145 55.564-22.135 55.563 22.145zm-56.903 22.635l-55.553 22.135-55.574-22.135 55.554-22.135 55.573 22.135zm-56.903 22.675l-55.564 22.125-55.563-22.135 55.553-22.135 55.574 22.145zm-56.913 22.675l-55.554 22.135-55.573-22.135 55.563-22.145 55.564 22.145zm-56.914 22.675l-55.543 22.135-55.563-22.145 55.563-22.125 55.543 22.135zm-56.893 22.675l-55.563 22.135-55.564-22.145 55.564-22.135 55.563 22.145zm-56.913 22.665l-55.554 22.145-55.563-22.145 55.553-22.135 55.564 22.135zm1.35.54l55.553 22.135-55.563 22.135-55.544-22.125 55.554-22.145zm-1.36 44.81l-55.554 22.135-55.553-22.135 55.553-22.135 55.554 22.135zm1.35.54l55.553 22.135-55.553 22.135-55.554-22.135 55.554-22.135zm-1.35 44.81l-55.554 22.135-55.553-22.135L471.128 609l55.554 22.135zm1.35.54l55.563 22.155-55.553 22.135-55.564-22.135 55.554-22.156zm-1.34 44.81l-55.574 22.145-55.563-22.146 55.573-22.135 55.564 22.135zm1.35.54l55.553 22.134-55.573 22.135-55.554-22.135 55.574-22.135zm-1.37 44.79l-55.534 22.134-55.553-22.135 55.533-22.135 55.554 22.135zm1.35.54l55.563 22.134-55.543 22.135-55.554-22.115 55.534-22.155zm-1.33 44.8L471.128 789.3l-55.553-22.115 55.563-22.145 55.554 22.115zm1.35.54l55.563 22.144-55.563 22.155-55.564-22.145 55.564-22.155zm-1.35 44.82l-55.554 22.134-55.563-22.115 55.553-22.145 55.564 22.125zm1.36.529l55.543 22.135-55.563 22.135-55.544-22.125 55.564-22.145zm-1.37 44.81l-55.554 22.135-55.543-22.135 55.553-22.065 55.544 22.065zm1.35.54l55.563 22.135-55.553 22.135-55.564-22.135 55.554-22.135zm-1.34 44.81l-55.554 22.135-55.563-22.135 55.553-22.135 55.564 22.135zm1.35.54l55.553 22.135-55.553 22.135-55.554-22.135 55.554-22.135zm-1.35 44.81l-55.584 22.205-55.553-22.135 55.583-22.145 55.554 22.075zm1.35.54l55.553 22.135-55.573 22.145-55.564-22.135 55.584-22.145zm-1.37 44.82l-55.534 22.125-55.553-22.136 55.523-22.145 55.564 22.155zm1.35.53l55.553 22.134-55.533 22.165-55.554-22.135 55.534-22.165zm-1.33 44.81l-55.564 22.134-55.553-22.135 55.563-22.145 55.554 22.145zm1.35.53l55.553 22.134-55.563 22.145-55.554-22.135 55.564-22.145zm-1.36 44.81l-55.554 22.134-55.553-22.135 55.553-22.145 55.554 22.145zm1.35.54l55.553 22.134-55.553 22.135-55.554-22.135 55.554-22.135zm-1.35 44.81l-55.554 22.134-55.553-22.135 55.553-22.135 55.554 22.135zm1.35.539l55.563 22.145-55.553 22.135-55.564-22.145 55.554-22.135zm-1.34 44.82l-55.554 22.135-55.563-22.125 55.553-22.135 55.564 22.125zm1.35.53l55.553 22.135-55.553 22.135-55.544-22.135 55.544-22.135zm56.913 22.695l55.543 22.175-55.543 22.095-55.563-22.095 55.563-22.175zm56.903 22.675l55.554 22.135-55.554 22.135-55.553-22.135 55.553-22.135zm56.903 22.675l55.554 22.135-55.554 22.135-55.553-22.135 55.553-22.135zm56.904 22.675l55.543 22.135-55.553 22.135-55.554-22.135 55.564-22.135zm56.913 22.664l55.563 22.146-55.553 22.135-55.564-22.145 55.554-22.136zm56.913 22.685l55.543 22.135-55.553 22.135-55.553-22.135 55.563-22.135zm56.893 22.665l55.524 22.105-55.554 22.135-55.533-22.135 55.563-22.105zm56.914 22.675l55.553 22.135-55.553 22.135-55.554-22.135 55.554-22.135zm1.35-.53l55.553-22.135 55.543 22.095-55.553 22.145-55.544-22.105zm56.903-22.675l55.563-22.145 55.553 22.135-55.573 22.145-55.543-22.135zm56.913-22.684l55.553-22.126 55.554 22.136-55.554 22.125-55.553-22.135zm56.893-22.665l55.543-22.135 55.554 22.135-55.574 22.135-55.523-22.135zm56.893-22.675l55.574-22.135 55.543 22.135-55.563 22.135-55.554-22.135zm56.924-22.675l55.553-22.135 55.553 22.135-55.553 22.135-55.553-22.135zm56.903-22.675l55.553-22.135 55.554 22.135-55.554 22.135-55.553-22.135zm56.903-22.675l55.573-22.145 55.554 22.135-55.574 22.145-55.553-22.135zm56.923-22.685l55.534-22.125 55.553 22.135-55.533 22.125-55.554-22.135zm56.883-22.665l55.564-22.135 55.553 22.135-55.563 22.135-55.554-22.135zm-1.35-.53l-55.583-22.145 55.554-22.135 55.563 22.135-55.533 22.145zm1.35-44.82l55.554-22.135 55.563 22.135-55.553 22.145-55.564-22.145zm-1.35-.54l-55.583-22.125 55.564-22.145 55.543 22.135-55.523 22.135zm1.36-44.8l55.554-22.145 55.543 22.135-55.553 22.135-55.544-22.125zm-1.35-.54l-55.593-22.145 55.554-22.135 55.563 22.145-55.523 22.135zm1.34-44.81l55.554-22.135 55.563 22.135-55.553 22.145-55.564-22.145zm-1.35-.54l-55.583-22.135 55.554-22.135 55.553 22.135-55.523 22.136zm1.35-44.81l55.584-22.144 55.553 22.135-55.583 22.145-55.554-22.135zm-1.35-.54l-55.583-22.134 55.584-22.145 55.553 22.135-55.553 22.145zm1.38-44.82l55.524-22.114 55.553 22.135-55.523 22.125-55.554-22.145zm-1.35-.54l-55.553-22.134 55.524-22.125 55.553 22.135-55.523 22.125zm1.32-44.8l55.564-22.134 55.553 22.135-55.563 22.135-55.554-22.135zm-1.35-.539l-55.583-22.135 55.584-22.085L1551 857.925l-55.563 22.085zm1.35-44.81l55.554-22.135 55.563 22.135-55.553 22.135-55.564-22.135zm-1.35-.54l-55.583-22.135 55.554-22.135 55.553 22.135-55.523 22.135zm1.36-44.81l55.544-22.135 55.553 22.135-55.553 22.135-55.544-22.135zm-1.36-.53l-55.583-22.145 55.554-22.135 55.553 22.145-55.523 22.135zm1.35-44.81l55.554-22.135 55.553 22.135-55.553 22.135-55.554-22.135zm-1.35-.54l-55.583-22.155 55.554-22.135 55.583 22.135-55.553 22.155zm1.35-44.81l55.554-22.135 55.553 22.135-55.553 22.135-55.554-22.135zm-1.35-.54l-55.583-22.135 55.554-22.135 55.553 22.135-55.523 22.136zm1.35-44.81l55.554-22.135 55.553 22.156-55.553 22.135-55.554-22.155zm-1.35-.54l-55.583-22.134L1495.407 609l55.553 22.135-55.523 22.135zm1.35-44.81l55.564-22.134 55.553 22.135-55.563 22.135-55.554-22.135zm-1.35-.53l-55.583-22.144 55.564-22.135 55.563 22.135-55.543 22.145zm1.35-44.82l55.554-22.134 55.563 22.135-55.553 22.135-55.564-22.135zm-1.35-.54l-55.583-22.134 55.554-22.135 55.553 22.135-55.523 22.135zm-56.903-22.714l-55.553-22.135 55.553-22.135 55.554 22.135-55.554 22.135zm-56.903-22.675l-55.523-22.115 55.553-22.135 55.524 22.115-55.554 22.135zm-56.873-22.655l-55.583-22.145 55.553-22.145 55.583 22.155-55.553 22.135zm-56.993-22.685l-55.554-22.135 55.664-22.095 55.553 22.135-55.663 22.095zm-56.884-22.635l-55.553-22.135 55.553-22.135 55.554 22.135-55.554 22.135zm-56.903-22.675l-55.563-22.135 55.553-22.135 55.564 22.135-55.554 22.135zm-56.883-22.645l-55.553-22.135 55.553-22.135 55.553 22.135-55.553 22.135zm1.35-44.81l55.553-22.175 55.554 22.135-55.554 22.136-55.553-22.096zm-1.35-.54l-55.533-22.124 55.553-22.136 55.533 22.126-55.553 22.135zm-56.883-22.664l-55.574-22.145 55.554-22.135 55.573 22.145-55.553 22.135zm-56.923-22.685l-55.554-22.135 55.554-22.135 55.553 22.135-55.553 22.135zm-1.35.54l-55.554 22.135-55.553-22.135 55.553-22.135 55.554 22.135zm-56.904 22.675l-55.563 22.135-55.543-22.165 55.563-22.136 55.543 22.166zm-56.913 22.644l-55.553 22.136-55.554-22.136 55.554-22.145 55.553 22.145zm-56.903 22.675l-55.563 22.165-55.554-22.135 55.554-22.135 55.563 22.105zm-56.913 22.675l-55.554 22.135-55.553-22.135 55.553-22.135 55.554 22.135zm-56.903 22.675l-55.554 22.135-55.553-22.135 55.553-22.135 55.554 22.135zm-56.904 22.675l-55.543 22.125-55.553-22.135 55.553-22.125 55.543 22.135zm-56.913 22.675l-55.543 22.135-55.554-22.135 55.544-22.135 55.553 22.135zm-56.893 22.665l-55.564 22.145-55.553-22.135 55.563-22.145 55.554 22.135zM469.78 517.76l-55.554 22.145-55.553-22.135 55.553-22.145 55.554 22.135zm-56.904 22.675l-55.553 22.145-55.563-22.145 55.563-22.135 55.553 22.135zm1.35.54l55.554 22.145-55.554 22.135-55.553-22.145 55.553-22.135zm-1.35 44.81l-55.553 22.135-55.563-22.135 55.563-22.135 55.553 22.135zm1.35.54l55.554 22.135-55.554 22.135-55.553-22.135 55.553-22.135zm-1.35 44.81l-55.573 22.145-55.553-22.135L357.322 609l55.553 22.135zm1.35.54l55.554 22.155-55.574 22.135-55.553-22.135 55.573-22.156zm-1.37 44.81l-55.543 22.135-55.553-22.136 55.543-22.135 55.553 22.135zm1.35.54l55.564 22.134-55.544 22.135-55.553-22.135 55.533-22.135zm-1.33 44.79l-55.553 22.134-55.563-22.135 55.563-22.145 55.553 22.145zm1.36.54l55.554 22.134-55.564 22.135-55.553-22.115 55.563-22.155zm-1.36 44.81L357.322 789.3l-55.553-22.115 55.553-22.135 55.553 22.115zm1.35.53l55.554 22.134-55.554 22.165-55.553-22.135 55.553-22.165zm-1.35 44.81l-55.553 22.134-55.553-22.115 55.553-22.135 55.553 22.115zm1.35.539l55.564 22.145-55.564 22.135-55.553-22.145 55.553-22.135zm-1.35 44.81l-55.553 22.135-55.553-22.115 55.553-22.085 55.553 22.065zm1.35.54l55.554 22.135-55.554 22.135-55.553-22.135 55.553-22.135zm-1.35 44.81l-55.583 22.145-55.553-22.135 55.583-22.145 55.553 22.135zm1.35.54l55.564 22.135-55.584 22.145-55.563-22.135 55.583-22.145zm-1.37 44.82l-55.533 22.195-55.553-22.135 55.523-22.125 55.563 22.065zm1.35.54l55.554 22.135-55.534 22.125-55.543-22.135 55.523-22.125zm-1.33 44.8l-55.553 22.135-55.553-22.136 55.553-22.145 55.553 22.145zm1.35.54l55.564 22.134-55.564 22.165-55.553-22.135 55.553-22.165zm-1.35 44.81l-55.553 22.134-55.553-22.135 55.553-22.135 55.553 22.135zm1.35.54l55.554 22.134-55.554 22.135-55.553-22.135 55.553-22.135zm-1.35 44.81l-55.553 22.124-55.553-22.135 55.553-22.145 55.553 22.155zm1.35.53l55.554 22.134-55.554 22.135-55.553-22.135 55.553-22.135zm-1.35 44.81l-55.553 22.134-55.553-22.135 55.553-22.135 55.553 22.135zm1.35.539l55.554 22.135-55.554 22.135-55.553-22.135 55.553-22.135zm-1.35 44.81l-55.593 22.145-55.553-22.135 55.593-22.145 55.553 22.135zm1.35.54l55.564 22.135-55.584 22.155-55.573-22.145 55.593-22.145zm56.913 22.675l55.554 22.195-55.584 22.145-55.553-22.145 55.583-22.195zm56.904 22.675l55.553 22.135-55.583 22.145-55.554-22.135 55.584-22.145zm56.913 22.695l55.553 22.135-55.553 22.145-55.553-22.135 55.553-22.145zm56.903 22.675l55.544 22.135-55.584 22.145-55.553-22.145 55.593-22.135zm56.903 22.664l55.554 22.136-55.574 22.145-55.553-22.125 55.573-22.156zm56.904 22.675l55.573 22.145-55.573 22.145-55.574-22.145 55.574-22.145zm56.923 22.685l55.533 22.095-55.573 22.145-55.544-22.125 55.584-22.115zm56.893 22.665l55.563 22.135-55.573 22.145-55.543-22.135 55.553-22.145zm56.913 22.675l55.514 22.135-55.574 22.145-55.553-22.135 55.613-22.145zm56.904 22.675l55.553 22.135-55.573 22.145-55.554-22.135 55.574-22.145zm1.35-.54l55.553-22.135 55.553 22.135-55.553 22.135-55.554-22.135zm56.903-22.675l55.553-22.135 55.553 22.135-55.553 22.135-55.553-22.135zm56.893-22.705l55.563-22.135 55.554 22.135-55.564 22.145-55.553-22.145zm56.913-22.675l55.553-22.125 55.554 22.135-55.584 22.155-55.523-22.165zm56.903-22.664l55.544-22.136 55.563 22.136-55.553 22.135-55.554-22.135zm56.904-22.675l55.563-22.135 55.553 22.135-55.563 22.135-55.553-22.135zm56.913-22.675l55.553-22.135 55.554 22.135-55.554 22.135-55.553-22.135zm56.903-22.675l55.553-22.135 55.554 22.135-55.554 22.135-55.553-22.135zm56.873-22.605l55.574-22.145 55.553 22.135-55.573 22.145-55.554-22.135zm56.923-22.685l55.534-22.125 55.553 22.135-55.533 22.125-55.554-22.135zm56.884-22.665l55.563-22.135 55.603 22.095-55.563 22.135-55.603-22.095zm56.913-22.675l55.553-22.135 55.554 22.135-55.554 22.135-55.553-22.135zm-1.35-.54l-55.553-22.135 55.553-22.135 55.553 22.135-55.553 22.135zm1.35-44.81l55.553-22.135 55.554 22.135-55.554 22.135-55.553-22.135zm-1.35-.53l-55.563-22.145 55.563-22.135 55.553 22.145-55.553 22.135zm1.35-44.82l55.553-22.135 55.554 22.145-55.554 22.135-55.553-22.145zm-1.36-.54l-55.543-22.125 55.553-22.135 55.543 22.125-55.553 22.135zm1.36-44.8l55.583-22.155 55.554 22.135-55.554 22.125-55.583-22.105zm-1.35-.54l-55.563-22.135 55.593-22.155 55.553 22.135-55.583 22.156zm1.38-44.82l55.523-22.124 55.554 22.135-55.524 22.125-55.553-22.135zm-1.35-.54l-55.563-22.134 55.523-22.125 55.553 22.135-55.513 22.125zm1.32-44.8l55.553-22.134 55.554 22.135-55.554 22.135-55.553-22.135zm-1.36-.54l-55.543-22.134 55.553-22.135 55.553 22.135-55.563 22.135zm1.36-44.81l55.553-22.134 55.554 22.135-55.554 22.135-55.553-22.135zm-1.35-.539l-55.553-22.135 55.583-22.125 55.573 22.085-55.603 22.175zm1.35-44.81l55.553-22.135 55.554 22.135-55.554 22.135-55.553-22.135zm-1.35-.53l-55.563-22.145 55.553-22.135 55.613 22.105-55.603 22.175zm1.34-44.82l55.553-22.135 55.564 22.145-55.554 22.135-55.563-22.145zm-1.35-.53l-55.553-22.135 55.553-22.145 55.613 22.095-55.613 22.185zm1.36-44.81l55.553-22.135 55.554 22.135-55.554 22.135-55.553-22.135zm-1.35-.54l-55.533-22.195 55.553-22.135 55.583 22.135-55.603 22.195zm1.34-44.81l55.553-22.135 55.564 22.135-55.554 22.135-55.563-22.135zm-1.35-.54l-55.553-22.135 55.553-22.135 55.613 22.095-55.613 22.176zm1.35-44.81l55.563-22.135 55.584 22.116-55.564 22.135-55.583-22.115zm-1.35-.54l-55.553-22.134 55.563-22.135 55.603 22.095-55.613 22.175zm1.36-44.81l55.553-22.134 55.554 22.135-55.554 22.135-55.553-22.135zm-1.35-.54l-55.553-22.134 55.553-22.135 55.603 22.095-55.603 22.175zm1.35-44.81l55.553-22.134 55.564 22.135-55.564 22.135-55.553-22.135zm-1.35-.53l-55.563-22.144 55.553-22.135 55.613 22.095-55.603 22.185zm-56.883-22.764l-55.554-22.135 55.554-22.135 55.553 22.135-55.553 22.135zm-56.903-22.665l-55.584-22.105 55.554-22.135 55.553 22.135-55.523 22.105zm-56.904-22.675l-55.523-22.125 55.563-22.135 55.514 22.125-55.554 22.135zm-56.873-22.645l-55.583-22.145 55.553-22.135 55.584 22.145-55.554 22.135zm-56.933-22.685l-55.553-22.135 55.553-22.135 55.553 22.135-55.553 22.135zm-56.913-22.675l-55.554-22.135 55.554-22.135 55.563 22.135-55.563 22.135zm-56.934-22.625l-55.563-22.135 55.563-22.165 55.564 22.135-55.564 22.165zm55.554-67.484l-55.554 22.105-55.553-22.135 55.553-22.136 55.554 22.166zm-56.913-22.675l-55.554 22.135-55.503-22.155 55.563-22.135 55.494 22.155zm-56.884-22.665l-55.553 22.135-55.573-22.145 55.583-22.135 55.543 22.145zm-56.923-22.685l-55.553 22.135-55.554-22.135 55.554-22.135 55.553 22.135zm-112.436-44.84l55.563 22.145-55.553 22.135-55.564-22.145 55.554-22.135zm-56.904 22.675l55.534 22.135-55.554 22.145-55.533-22.145 55.553-22.135zm-56.903 22.705l55.563 22.135-55.553 22.135-55.553-22.165 55.543-22.105zm-56.903 22.675l55.563 22.135-55.563 22.135-55.554-22.135 55.554-22.135zm-56.903 22.674l55.553 22.136-55.563 22.135-55.554-22.135 55.564-22.136zM698.752 336.9l55.554 22.135-55.554 22.136-55.553-22.136 55.553-22.135zm-56.903 22.685l55.554 22.135-55.554 22.165-55.553-22.135 55.553-22.165zm-56.893 22.675l55.553 22.135-55.553 22.135-55.553-22.135 55.553-22.135zm-56.903 22.675l55.553 22.135-55.563 22.135-55.554-22.135 55.564-22.135zm-56.914 22.675l55.554 22.135-55.554 22.125-55.563-22.125 55.563-22.135zm-56.913 22.665l55.564 22.145-55.564 22.135-55.553-22.135 55.553-22.145zm-56.903 22.685l55.553 22.135-55.553 22.135-55.563-22.135 55.563-22.135zm-112.467 44.81l55.554-22.135 55.573 22.135-55.573 22.135-55.554-22.135zm0 45.34l55.554-22.135 55.573 22.135-55.573 22.135-55.554-22.135zm0 45.36l55.564-22.145 55.563 22.135-55.583 22.145-55.544-22.135zm0 45.34l55.544-22.136 55.583 22.156-55.573 22.115-55.554-22.135zm0 45.35l55.564-22.146 55.563 22.135-55.573 22.145-55.554-22.135zm0 45.35l55.564-22.146 55.563 22.145-55.573 22.135-55.554-22.135zm0 45.35l55.554-22.136 55.573 22.135-55.573 22.135-55.554-22.135zm0 45.339l55.554-22.135 55.573 22.135-55.573 22.135-55.554-22.135zm0 45.36l55.574-22.145 55.553 22.135-55.593 22.145-55.534-22.135zm0 45.34l55.534-22.125 55.593 22.135-55.533 22.125-55.594-22.135zm0 45.35l55.554-22.145 55.573 22.145-55.553 22.135-55.574-22.135zm0 45.35l55.554-22.136 55.573 22.135-55.573 22.145-55.554-22.145zm0 45.35l55.554-22.136 55.573 22.135-55.553 22.135-55.574-22.135zm0 45.34l55.554-22.136 55.573 22.135-55.573 22.135-55.554-22.135zm0 45.369l55.584-22.155 55.543 22.135-55.583 22.155-55.544-22.135zm0 45.33l55.514-22.125 55.613 22.135-55.523 22.125-55.604-22.135zm56.914 22.715l55.513-22.125 55.573 22.125-55.523 22.115-55.563-22.115zm56.913 22.675l55.523-22.125 55.544 22.135-55.524 22.125-55.543-22.135zm56.903 22.675l55.513-22.125 55.564 22.135-55.524 22.125-55.553-22.135zm56.903 22.635l55.524-22.125 55.553 22.125-55.523 22.125-55.554-22.125zm56.904 22.675l55.563-22.126 55.553 22.136-55.553 22.125-55.563-22.135zm56.903 22.664l55.523-22.125 55.564 22.135-55.534 22.125-55.553-22.135zm56.903 22.645l55.533-22.125 55.574 22.145-55.534 22.125-55.573-22.145zm56.923 22.685l55.534-22.125 55.543 22.125-55.533 22.125-55.544-22.125zm56.893 22.665l55.534-22.125 55.553 22.135-55.533 22.125-55.554-22.135zm56.914 22.705l55.543-22.125 55.553 22.135-55.543 22.125-55.553-22.135zm56.903 22.675l55.543-22.125 55.534 22.135-55.544 22.125-55.533-22.135zm112.457 44.81l-55.554-22.135 55.544-22.125 55.553 22.135-55.543 22.125zm56.893-22.665l-55.554-22.135 55.574-22.145 55.553 22.135-55.573 22.145zm56.923-22.685l-55.553-22.135 55.553-22.135 55.553 22.135-55.553 22.135zm56.903-22.675l-55.553-22.135 55.553-22.135 55.554 22.135-55.554 22.135zm56.903-22.675l-55.553-22.135 55.573-22.135 55.554 22.135-55.574 22.135zm56.924-22.675l-55.564-22.165 55.544-22.135 55.553 22.135-55.533 22.165zm56.893-22.665l-55.553-22.135 55.553-22.135 55.553 22.135-55.553 22.135zm56.903-22.674l-55.553-22.135 55.563-22.146 55.554 22.136-55.564 22.145zm56.913-22.675l-55.563-22.135 55.553-22.135 55.554 22.135-55.544 22.135zm56.904-22.675l-55.594-22.135 55.554-22.135 55.553 22.135-55.513 22.135zm56.903-22.675l-55.554-22.135 55.584-22.145 55.553 22.135-55.583 22.145zm56.933-22.685l-55.563-22.085 55.523-22.125 55.583 22.125-55.543 22.085zm56.883-22.665l-55.553-22.135 55.553-22.135 55.554 22.135-55.554 22.135zm112.467-44.81l-55.563 22.135-55.554-22.135 55.554-22.135 55.563 22.135zm0-45.35l-55.563 22.135-55.554-22.135 55.554-22.135 55.563 22.135zm0-45.34l-55.573 22.105-55.544-22.125 55.544-22.135 55.573 22.155zm0-45.37l-55.593 22.155-55.554-22.135 55.584-22.155 55.563 22.135zm0-45.33l-55.524 22.116-55.553-22.136 55.524-22.115 55.553 22.135zm0-45.35l-55.573 22.186-55.554-22.135 55.554-22.135 55.573 22.085zm0-45.35l-55.563 22.136-55.554-22.135 55.554-22.135 55.563 22.135zm0-45.35l-55.553 22.136-55.544-22.135 55.524-22.085 55.573 22.085zm0-45.339l-55.563 22.135-55.554-22.135 55.554-22.145 55.563 22.145zm0-45.35l-55.563 22.135-55.554-22.145 55.554-22.135 55.563 22.145zm0-45.35l-55.553 22.135-55.574-22.155 55.554-22.135 55.573 22.155zm0-45.35l-55.563 22.136-55.554-22.136 55.554-22.135 55.563 22.135zm0-45.35l-55.563 22.136-55.554-22.135L1723.07 609l55.563 22.135zm0-45.35l-55.563 22.136-55.554-22.135 55.564-22.135 55.553 22.135zm0-45.35l-55.553 22.146-55.564-22.145 55.554-22.135 55.563 22.135zm-56.913-22.664l-55.554 22.135-55.563-22.145 55.563-22.135 55.554 22.145zm-56.894-22.685l-55.563 22.135-55.553-22.135 55.553-22.135 55.563 22.135zm-56.913-22.665l-55.553 22.135-55.554-22.135 55.554-22.145 55.553 22.145zm-56.903-22.675l-55.573 22.125-55.514-22.125 55.554-22.135 55.533 22.135zm-56.863-22.665l-55.564 22.135L1383 427.071l55.553-22.135 55.594 22.145zm-56.993-22.685l-55.554 22.135-55.553-22.135 55.553-22.135 55.554 22.135zm-56.904-22.675l-55.523 22.165-55.563-22.135 55.553-22.135 55.533 22.105z" fill="url(#c)" fill-rule="nonzero" mask="url(#d)"/></g><g transform="translate(700 490)"><path d="M290.102 0l-53.671 21.721a2 2 0 0 0 .003 3.709l48.064 19.37a2 2 0 0 1-.001 3.71L180.234 90.434a2 2 0 0 0 .013 3.716l111.02 43.706a2 2 0 0 0 2.732-1.919M565 156.5l-47.27-18.621a6 6 0 0 0-4.452.022L402 183m4-93l-118 48" stroke="#FFF" stroke-linecap="round" stroke-dasharray="2"/><path d="M175 274l53.03-22.596a2 2 0 0 0-.045-3.698l-105.261-41.829a2 2 0 0 1 .013-3.722L290 137M0 206l58.722-24.066a6 6 0 0 1 4.555.001l51.509 21.156a6 6 0 0 0 4.446.045L290 137M86 57l416 164" stroke="#FFF" stroke-linecap="round" stroke-dasharray="2"/><ellipse fill="#FFF" cx="87.5" cy="57.5" rx="3.5" ry="1.5"/></g><g fill-rule="nonzero" id="table"><path d="M14.287 69.358v56.158c0 .506 1.022.918 2.286.918s2.291-.412 2.291-.918V69.358h-4.577z" fill="url(#e)" transform="translate(659 435)"/><path fill="url(#f)" opacity=".64" d="M14.265 125.857L161.3 183.796l4.582-1.126-147.034-57.94z" transform="translate(659 435)"/><path fill="url(#g)" opacity=".64" d="M165.624 66.572L312.66 124.51l4.577-1.132-147.029-57.94z" transform="translate(659 435)"/><path d="M79.183 95.09v56.16c0 .505 1.027.911 2.291.911s2.291-.406 2.291-.912V95.091h-4.582zm86.65-85.578V65.67c0 .506 1.028.913 2.291.913 1.264 0 2.292-.407 2.292-.913V9.512h-4.583z" fill="url(#h)" transform="translate(659 435)"/><path d="M230.75 35.794v56.159c0 .5 1.023.912 2.287.912 1.263 0 2.29-.412 2.29-.912V35.794h-4.576z" fill="url(#i)" transform="translate(659 435)"/><path d="M247.175 36.712V32.8l-2.099 1.412L170.652 4.56a12.364 12.364 0 0 0-9.171 0L2.786 68.06 0 67.149v3.681a2.396 2.396 0 0 0 1.539 2.253l74.984 29.893a12.364 12.364 0 0 0 9.171 0l159.932-64a2.407 2.407 0 0 0 1.533-2.226l.016-.038z" fill="url(#j)" transform="translate(659 435)"/><path d="M1.539 64.88L161.48.88a12.419 12.419 0 0 1 9.171 0l74.974 29.892a2.44 2.44 0 0 1 0 4.533L85.722 99.3a12.413 12.413 0 0 1-9.171 0L1.539 69.418a2.445 2.445 0 0 1 0-4.539z" fill="url(#k)" transform="translate(659 435)"/><path d="M378.203 150.403l4.577-1.099-39.272-15.501.5-.204a2.44 2.44 0 0 0 0-4.533l-74.99-29.882a12.413 12.413 0 0 0-9.171 0l-2.072.825-23.079-9.095-3.522 1.545 22.908 9.028-146.056 58.45-24.695-9.732-3.522 1.55 24.524 9.66-4.429 1.786a2.445 2.445 0 0 0 0 4.539l74.99 29.881a12.419 12.419 0 0 0 9.171 0l6-2.406 36.779 14.495 4.577-1.132-37.657-14.836 146.051-58.461 38.388 15.122z" fill="url(#l)" opacity=".64" transform="translate(659 435)"/></g><g fill-rule="nonzero" id="phone"><path fill="url(#m)" opacity=".64" d="M159.296 209.815l11.472-4.325-91.326-35.988-11.472 4.328z" transform="translate(618 559)"/><path d="M79.496 24.858L18.626.601a8.3 8.3 0 0 0-6.182 0l-.34.146-7.268 3.025 2.56 2.597a8.403 8.403 0 0 0-.228 2.01v127.738a11.263 11.263 0 0 0 7.1 10.472l59.15 23.575.163 3.884 6.946-2.929a8.37 8.37 0 0 0 6.069-8.051V35.33a11.263 11.263 0 0 0-7.1-10.472z" fill="url(#n)" transform="translate(618 559)"/><path d="M0 139.1V11.362a8.373 8.373 0 0 1 11.472-7.778L72.359 27.84a11.263 11.263 0 0 1 7.1 10.472V166.05a8.373 8.373 0 0 1-11.472 7.779L7.099 149.572A11.263 11.263 0 0 1 0 139.1z" fill="url(#o)" transform="translate(618 559)"/><path d="M2.638 138.916V11.056a4.918 4.918 0 0 1 6.738-4.571l61.437 24.486a8.413 8.413 0 0 1 5.3 7.81v127.857a4.918 4.918 0 0 1-6.737 4.567L7.94 146.719a8.41 8.41 0 0 1-5.3-7.803z" fill="url(#p)" transform="translate(618 559)"/></g><g fill-rule="nonzero" id="keyboard"><path fill="url(#q)" opacity=".543" d="M57.947 76.118l64.732 25.132 124.233-49.504-67.235-26.13z" transform="translate(1212 617)"/><path d="M181.579 27.402v-3.058l-1.902 1.277-55.645-22.178a5.4 5.4 0 0 0-3.97 0L2.157 50.44.4 49.096v3.058a1.501 1.501 0 0 0 .957 1.413l56.59 22.55a5.348 5.348 0 0 0 3.967 0l118.704-47.294c.587-.225.97-.792.961-1.42z" fill="url(#r)" transform="translate(1212 617)"/><path d="M61.914 73.06l118.708-47.307a1.521 1.521 0 0 0 0-2.802L124.032.4a5.36 5.36 0 0 0-3.97 0L1.356 47.682a1.521 1.521 0 0 0 0 2.826l56.59 22.55a5.388 5.388 0 0 0 3.967 0z" fill="url(#s)" transform="translate(1212 617)"/><path d="M35.705 47.575l-9.031-3.603a1.201 1.201 0 0 0-.865 0l-9.172 3.667-.744-.46v1.036a.4.4 0 0 0 .26.4l9.656 3.827c.277.113.587.113.865 0l9.651-3.847a.4.4 0 0 0 .26-.4v-1.037l-.88.417z" fill="url(#t)" transform="translate(1212 617)"/><path d="M1237.809 668.398l-9.656-3.847a.4.4 0 0 1 0-.765l9.656-3.847c.277-.112.587-.112.865 0l9.651 3.847a.4.4 0 0 1 0 .765l-9.651 3.847a1.153 1.153 0 0 1-.865 0z" fill="#FFF"/><path d="M51.55 41.265l-9.032-3.603a1.153 1.153 0 0 0-.864 0l-9.172 3.651-.744-.46v1.037a.4.4 0 0 0 .26.4l9.656 3.847c.278.108.586.108.864 0l9.652-3.847a.4.4 0 0 0 .26-.4v-1.037l-.88.412z" fill="url(#u)" transform="translate(1212 617)"/><path d="M1253.654 662.089l-9.656-3.856a.4.4 0 0 1 0-.768l9.656-3.847c.278-.108.586-.108.864 0l9.652 3.847a.4.4 0 0 1 0 .768l-9.652 3.848c-.277.11-.585.112-.864.008z" fill="#FFF"/><path d="M67.395 34.952l-9.032-3.603a1.153 1.153 0 0 0-.864 0l-9.172 3.655-.744-.464v1.037a.4.4 0 0 0 .26.4l9.656 3.847c.277.112.587.112.864 0l9.652-3.847a.4.4 0 0 0 .26-.4v-1.033l-.88.408z" fill="url(#v)" transform="translate(1212 617)"/><path d="M1269.499 655.775l-9.656-3.847a.4.4 0 0 1 0-.764l9.656-3.847c.277-.113.587-.113.864 0l9.652 3.847a.4.4 0 0 1 0 .764l-9.652 3.847a1.201 1.201 0 0 1-.864 0z" fill="#FFF"/><path d="M83.24 28.64l-9.032-3.604a1.201 1.201 0 0 0-.865 0l-9.171 3.66-.745-.461v1.037a.4.4 0 0 0 .26.38l9.656 3.847c.278.112.588.112.865 0l9.652-3.847a.4.4 0 0 0 .26-.38v-1.037l-.88.404z" fill="url(#w)" transform="translate(1212 617)"/><path d="M1285.343 649.462l-9.655-3.847a.4.4 0 0 1 0-.764l9.655-3.832c.278-.112.588-.112.865 0l9.652 3.848a.4.4 0 0 1 0 .764l-9.652 3.847a1.15 1.15 0 0 1-.865-.016z" fill="#FFF"/><path d="M99.084 22.33l-9.031-3.603a1.201 1.201 0 0 0-.865 0l-9.171 3.655-.753-.46v1.037a.4.4 0 0 0 .26.4l9.656 3.847c.278.107.587.107.865 0l9.652-3.847a.4.4 0 0 0 .26-.4v-1.037l-.873.408z" fill="url(#x)" transform="translate(1212 617)"/><path d="M1301.188 643.15l-9.656-3.848a.4.4 0 0 1 0-.765l9.656-3.847c.278-.107.587-.107.865 0l9.652 3.847a.4.4 0 0 1 0 .765l-9.632 3.847a1.153 1.153 0 0 1-.885 0z" fill="#FFF"/><path d="M114.93 16.013l-9.036-3.603a1.145 1.145 0 0 0-.861 0l-9.171 3.655-.745-.452v1.036a.4.4 0 0 0 .26.4l9.656 3.848c.276.112.585.112.86 0l9.657-3.847a.4.4 0 0 0 .26-.4v-1.037l-.88.4z" fill="url(#y)" transform="translate(1212 617)"/><path d="M1317.033 636.84l-9.656-3.827a.4.4 0 0 1 0-.765l9.656-3.847c.276-.112.585-.112.86 0l9.657 3.811a.4.4 0 0 1 0 .765l-9.656 3.847a1.201 1.201 0 0 1-.861.016z" fill="#FFF"/><path d="M130.774 9.704L121.739 6.1a1.201 1.201 0 0 0-.861 0l-9.188 3.66-.744-.464v1.04a.4.4 0 0 0 .26.38l9.692 3.848c.276.112.585.112.86 0l9.656-3.847a.4.4 0 0 0 .26-.38V9.295l-.9.408z" fill="url(#z)" transform="translate(1212 617)"/><path d="M1332.898 630.527l-9.656-3.847a.4.4 0 0 1 0-.765l9.656-3.847c.276-.112.585-.112.86 0l9.656 3.847a.4.4 0 0 1 0 .765l-9.675 3.847c-.27.107-.571.107-.841 0z" fill="#FFF"/><path d="M52.919 54.408l-9.031-3.603a1.153 1.153 0 0 0-.865 0l-9.172 3.64-.74-.461v1.037a.4.4 0 0 0 .256.4l9.656 3.847c.278.107.586.107.865 0l9.651-3.847a.4.4 0 0 0 .26-.4v-1.037l-.88.424z" fill="url(#A)" transform="translate(1212 617)"/><path d="M1255.023 675.231l-9.656-3.851a.4.4 0 0 1 0-.765l9.656-3.847c.278-.107.586-.107.865 0l9.651 3.847a.4.4 0 0 1 0 .765l-9.651 3.851a1.201 1.201 0 0 1-.865 0z" fill="#FFF"/><path d="M68.764 48.095l-9.032-3.603a1.153 1.153 0 0 0-.864 0l-9.172 3.655-.74-.464v1.036a.4.4 0 0 0 .256.4l9.656 3.848c.277.112.587.112.864 0l9.652-3.847a.4.4 0 0 0 .26-.4v-1.037l-.88.412z" fill="url(#B)" transform="translate(1212 617)"/><path d="M1270.868 668.918l-9.656-3.847a.4.4 0 0 1 0-.765l9.656-3.847c.277-.112.587-.112.864 0l9.652 3.847a.4.4 0 0 1 0 .765l-9.652 3.847a1.201 1.201 0 0 1-.864 0z" fill="#FFF"/><path d="M84.609 41.782l-9.032-3.603a1.201 1.201 0 0 0-.865 0l-9.17 3.655-.746-.46v1.06a.4.4 0 0 0 .26.4l9.656 3.848c.278.112.588.112.865 0l9.652-3.847a.4.4 0 0 0 .26-.4v-1.037l-.88.384z" fill="url(#C)" transform="translate(1212 617)"/><path d="M1286.712 662.605l-9.655-3.847a.4.4 0 0 1 0-.765l9.655-3.847c.278-.112.588-.112.865 0l9.652 3.847a.4.4 0 0 1 0 .765l-9.652 3.847a1.153 1.153 0 0 1-.865 0z" fill="#FFF"/><path d="M100.453 35.473l-9.031-3.603a1.201 1.201 0 0 0-.865 0l-9.171 3.655-.745-.46V36.1a.4.4 0 0 0 .26.4l9.656 3.848c.279.107.587.107.865 0l9.652-3.847a.4.4 0 0 0 .26-.4v-1.038l-.88.409z" fill="url(#D)" transform="translate(1212 617)"/><path d="M1302.557 656.292l-9.655-3.847a.4.4 0 0 1 0-.765l9.655-3.855c.279-.107.587-.107.865 0l9.652 3.847a.4.4 0 0 1 0 .765l-9.652 3.847a1.153 1.153 0 0 1-.865.008z" fill="#FFF"/><path d="M116.298 29.16l-9.031-3.603a1.153 1.153 0 0 0-.865 0l-9.171 3.667-.753-.473v1.037a.4.4 0 0 0 .26.4l9.664 3.84c.283.117.602.117.885 0l9.652-3.848a.4.4 0 0 0 .26-.4v-1.029l-.9.409z" fill="url(#E)" transform="translate(1212 617)"/><path d="M1318.402 649.983l-9.656-3.847a.4.4 0 0 1 0-.765l9.656-3.847c.277-.112.588-.112.865 0l9.652 3.847a.4.4 0 0 1 0 .765l-9.632 3.847c-.284.112-.6.112-.885 0z" fill="#FFF"/><path d="M132.143 22.846l-9.031-3.602a1.201 1.201 0 0 0-.865 0l-9.171 3.655-.745-.465v1.041a.4.4 0 0 0 .26.4l9.656 3.847c.277.113.587.113.865 0l9.652-3.847a.4.4 0 0 0 .26-.4v-1.04l-.881.411z" fill="url(#F)" transform="translate(1212 617)"/><path d="M1334.247 643.67l-9.656-3.852a.4.4 0 0 1 0-.764l9.656-3.847c.277-.112.587-.112.865 0l9.652 3.847a.4.4 0 0 1 0 .764l-9.652 3.848a1.153 1.153 0 0 1-.865.004z" fill="#FFF"/><path d="M147.988 16.537l-9.031-3.603a1.201 1.201 0 0 0-.865 0l-9.188 3.655-.744-.46v1.037a.4.4 0 0 0 .26.4l9.692 3.831c.278.108.586.108.865 0l9.651-3.847a.4.4 0 0 0 .26-.4v-1.02l-.9.407z" fill="url(#G)" transform="translate(1212 617)"/><path d="M1350.112 637.356l-9.656-3.847a.4.4 0 0 1 0-.764l9.656-3.847c.278-.108.586-.108.865 0l9.651 3.847a.4.4 0 0 1 0 .764l-9.651 3.847a1.153 1.153 0 0 1-.865 0z" fill="#FFF"/><path d="M70.133 61.25L61.1 57.647a1.153 1.153 0 0 0-.864 0l-9.172 3.655-.74-.453v1.037a.4.4 0 0 0 .256.4l9.656 3.848c.277.112.587.112.864 0l9.656-3.848a.4.4 0 0 0 .257-.4V60.85l-.881.4z" fill="url(#H)" transform="translate(1212 617)"/><path d="M1272.237 682.06l-9.652-3.846a.4.4 0 0 1 0-.765l9.652-3.847c.277-.112.587-.112.864 0l9.656 3.847a.4.4 0 0 1 0 .765l-9.656 3.847a1.201 1.201 0 0 1-.864 0z" fill="#FFF"/><path d="M85.978 54.924l-9.032-3.602a1.201 1.201 0 0 0-.864 0l-9.172 3.655-.74-.46v1.036a.4.4 0 0 0 .256.38l9.656 3.847c.277.113.587.113.864 0l9.656-3.847a.4.4 0 0 0 .256-.38v-1.037l-.88.408z" fill="url(#I)" transform="translate(1212 617)"/><path d="M1288.082 675.748l-9.656-3.848a.4.4 0 0 1 0-.764l9.656-3.847c.277-.112.587-.112.864 0l9.656 3.847a.4.4 0 0 1 0 .764l-9.656 3.848a1.153 1.153 0 0 1-.864 0z" fill="#FFF"/><path d="M117.667 42.302l-9.031-3.603a1.153 1.153 0 0 0-.865 0L98.6 42.354l-.74-.464v1.037a.4.4 0 0 0 .255.4l9.656 3.847c.278.112.588.112.865 0l9.652-3.847a.4.4 0 0 0 .26-.4V41.89l-.88.412z" fill="url(#B)" transform="translate(1212 617)"/><path d="M1319.771 663.125l-9.656-3.847a.4.4 0 0 1 0-.764l9.656-3.848c.278-.112.588-.112.865 0l9.652 3.848a.4.4 0 0 1 0 .764l-9.652 3.847a1.201 1.201 0 0 1-.865 0z" fill="#FFF"/><path d="M133.512 35.99l-9.031-3.604a1.201 1.201 0 0 0-.865 0l-9.171 3.643-.753-.448v1.04a.4.4 0 0 0 .256.401l9.668 3.811c.277.112.587.112.865 0l9.652-3.847a.4.4 0 0 0 .26-.4v-1.041l-.88.444z" fill="url(#J)" transform="translate(1212 617)"/><path d="M1335.616 656.812l-9.656-3.847a.4.4 0 0 1 0-.764l9.656-3.848c.277-.112.587-.112.865 0l9.652 3.848a.4.4 0 0 1 0 .764l-9.632 3.847a1.153 1.153 0 0 1-.885 0z" fill="#FFF"/><path d="M101.822 48.615l-9.03-3.603a1.201 1.201 0 0 0-.866 0l-9.171 3.655-.74-.46v1.033a.4.4 0 0 0 .256.4l9.655 3.847c.279.108.587.108.865 0l41.342-16.485a.4.4 0 0 0 .26-.4V35.56l-32.57 13.054z" fill="url(#K)" transform="translate(1212 617)"/><path d="M149.357 29.68l-9.031-3.603a1.201 1.201 0 0 0-.865 0l-9.172 3.655-.74-.46v1.037a.4.4 0 0 0 .256.4l9.656 3.847c.278.107.586.107.865 0l9.651-3.847a.4.4 0 0 0 .26-.4v-1.037l-.88.408z" fill="url(#L)" transform="translate(1212 617)"/><path d="M1351.46 650.5l-9.655-3.848a.4.4 0 0 1 0-.765l9.656-3.847c.278-.107.586-.107.865 0l9.651 3.847a.4.4 0 0 1 0 .765l-9.651 3.847a1.153 1.153 0 0 1-.865 0zm-47.534 18.942l-9.655-3.847a.4.4 0 0 1 0-.764l41.345-16.478c.277-.112.587-.112.865 0l9.652 3.848a.4.4 0 0 1 0 .764l-41.342 16.477a1.153 1.153 0 0 1-.865 0z" fill="#FFF"/><path d="M165.202 23.367l-9.032-3.603a1.153 1.153 0 0 0-.864 0l-9.188 3.659-.744-.464v1.036a.4.4 0 0 0 .26.4l9.692 3.832c.277.112.587.112.864 0l9.652-3.847a.4.4 0 0 0 .26-.4v-1.021l-.9.408z" fill="url(#M)" transform="translate(1212 617)"/><path d="M1367.326 644.19l-9.656-3.847a.4.4 0 0 1 0-.765l9.656-3.85c.278-.108.586-.108.864 0l9.652 3.85a.4.4 0 0 1 0 .765l-9.652 3.847a1.201 1.201 0 0 1-.864 0z" fill="#FFF"/></g><g fill-rule="nonzero" id="commode"><path fill="url(#N)" d="M51.837 65.545l113.356-44.888L113.353 0 0 44.885z" transform="translate(1081 445)"/><path fill="url(#O)" d="M0 44.885v82.63l51.837 20.657V65.545z" transform="translate(1081 445)"/><path fill="url(#P)" d="M165.193 20.657v82.299L51.837 148.172V65.545z" transform="translate(1081 445)"/><path fill="url(#Q)" d="M56.541 68.94v33.799L88.35 90.064V56.26zm0 39.315v33.803l31.809-12.676V95.58z" transform="translate(1081 445)"/><path fill="url(#R)" d="M93.247 54.192v33.804L125.06 75.32V41.517zm0 39.319v33.803l31.812-12.678v-33.8z" transform="translate(1081 445)"/><path fill="url(#Q)" d="M129.957 39.723v33.803l31.809-12.675V27.048zm0 39.319v33.8l31.809-12.676V66.363z" transform="translate(1081 445)"/><path fill="url(#S)" d="M88.35 129.362l-31.81-12.675v-8.432l31.81-12.676z" transform="translate(1081 445)"/><path fill="url(#T)" d="M88.35 90.043L56.54 77.368V68.94l31.81-12.68z" transform="translate(1081 445)"/><path fill="url(#U)" d="M125.06 114.616L93.246 101.94v-8.429l31.812-12.675z" transform="translate(1081 445)"/><path fill="url(#V)" d="M125.06 75.3L93.246 62.622v-8.43l31.812-12.675z" transform="translate(1081 445)"/><path fill="url(#S)" d="M161.766 100.146l-31.809-12.675v-8.429l31.809-12.679z" transform="translate(1081 445)"/><path fill="url(#W)" d="M161.766 60.827l-31.809-12.675v-8.429l31.809-12.675z" transform="translate(1081 445)"/><path fill="url(#X)" opacity=".5" d="M294.79 154.583l-129.597-51.644-113.356 45.233 129.6 51.643z" transform="translate(1081 445)"/></g><g fill-rule="nonzero" id="mouse"><path fill="url(#Y)" opacity=".543" d="M180.501 53.711l24.491-3.144-84.434-32.814L99.21 22.15z" transform="translate(1109 700)"/><path fill="url(#Z)" opacity=".543" d="M83.803 51.2l24.491-3.145-85.061-33.441-20.721 5.024z" transform="translate(1109 700)"/><path d="M52.116 25.288l5.651-7.535L85.395 7.08C74.56 1.624 64.723-.678 55.884.172c-8.84.85-20.77 5.245-35.791 13.186l32.023 11.93z" fill="url(#aa)" opacity=".543" transform="translate(1109 700)"/><path d="M1197.625 708.536l-11.303-4.747c-11.345-4.75-25.521-4.826-36.957-.194l-20.99 8.486" stroke="#FFF" stroke-width="2" stroke-linejoin="round"/><path d="M122.532 17.678c0-2.511-1.052-4.93-3.022-7.01l-1.664-1.755c-2.555-2.699-6.742-4.442-11.375-4.737l-9.953-.29a21.424 21.424 0 0 0-8.285 1.37l-9.045 3.506.083.029c-1.127.506-1.93 1.338-1.93 2.35v.764l.089.036c.078.335.224.65.43.926l.065-.538c.18-1.41 2.322-2.394 4.629-2.125l11.481 1.35c4.432.52 8.282 2.231 10.46 4.646l1.417 1.572c1.679 1.862 2.436 3.972 2.17 6.063l-.129 1.048a28.59 28.59 0 0 0 1.873.136l.058.022v-.018c3.311.13 6.734-.294 9.271-1.31 2.444-.98 3.513-2.285 3.305-3.566h.072v-2.469z" fill="url(#ab)" transform="translate(1109 700.172)"/><path d="M105.912 17.772l-1.418-1.572c-2.177-2.415-6.027-4.126-10.459-4.647l-11.481-1.349c-2.307-.269-4.45.718-4.629 2.125l-.065.538c.51.717 1.436 1.406 2.846 1.973l22.142 8.873a19.67 19.67 0 0 0 5.098 1.17l.13-1.048c.283-2.091-.485-4.201-2.164-6.063z" fill="url(#ac)" transform="translate(1109 700.172)"/><path fill="url(#ad)" d="M4.277 16.139v-3.613l18.898-1.586v3.613l-11.299 4.632z" transform="translate(1109 700.172)"/><path fill="url(#ae)" d="M4.277 12.526l11.299-4.629 7.6 3.043-11.3 4.632z" transform="translate(1109 700.172)"/><path fill="url(#af)" d="M0 18.68v-1.91l10.786-.261v1.908L5.02 20.69z" transform="translate(1109 700.172)"/><path fill="url(#ag)" d="M0 16.77l5.766-2.274 5.02 2.013-5.766 2.274z" transform="translate(1109 700.172)"/></g><g fill-rule="nonzero" id="router"><path fill="url(#ah)" d="M0 43.773v-9.33h65.357v9.33L32.678 56.798z" transform="translate(972 440)"/><path fill="url(#ai)" d="M0 34.443L32.678 21.42l32.679 13.024-32.679 13.024z" transform="translate(972 440)"/><path fill="url(#aj)" d="M31.756 25.678V.366l.922.367v25.311z" transform="translate(972 440)"/><path fill="url(#ak)" d="M33.6 25.678V.366l-.922.367v25.311z" transform="translate(972 440)"/><path fill="url(#al)" d="M31.756.366L32.678 0l.923.366-.923.367z" transform="translate(972 440)"/><path fill="url(#am)" d="M58.293 34.077V8.766l.918.366v25.311z" transform="translate(972 440)"/><path fill="url(#ak)" d="M60.134 34.077V8.766l-.923.366v25.311z" transform="translate(972 440)"/><path fill="url(#an)" d="M58.293 8.766l.918-.367.923.367-.923.366z" transform="translate(972 440)"/><path fill="#50E6FF" d="M1000.365 492.02l-25.033-9.974v-2.548l25.033 9.975z"/><path fill="url(#ao)" opacity=".5" d="M32.678 56.776L98.04 82.821l32.679-13.025-65.361-26.044z" transform="translate(972 440)"/></g><g fill-rule="nonzero" id="fax"><path fill="url(#ap)" opacity=".64" d="M69.26 97.24l121.443 47.855 50.034-18.282-121.444-47.855z" transform="translate(766 694)"/><path d="M18.468 34.589c-2.637 1.166-3.917 3.177-3.917 6.054v30.16c0 2.146 1.58 4.13 4.148 5.21L70.44 97.67c9.223 3.871 20.6 3.88 29.832.027l26.284-11.138c2.577-1.075 4.166-3.063 4.166-5.215v-31.72c0-2.015-1.466-3.722-3.917-4.68l-4.502-1.878" fill="url(#aq)" transform="translate(766 694)"/><path d="M18.468 34.589L48.79 21.93a30.595 30.595 0 0 1 22.847 0l55.154 23.024c3.517 1.47 3.517 5.142 0 6.608L96.468 64.221a30.595 30.595 0 0 1-22.847 0L18.468 41.197c-3.518-1.466-3.518-5.138 0-6.608z" fill="url(#ar)" transform="translate(766 694)"/><path d="M57.314 26.088L76.83 5.864c1.992-2.06 5.827-2.682 8.845-1.434l40.394 16.706c4.293 1.78 5.546 5.832 2.723 8.764l-17.773 18.377-6.808 3.395-53.973-22.334 7.076-3.25z" fill="url(#as)" transform="translate(766 694)"/><path d="M23.787 77.365V60.717c0-2.632 3.94-4.28 7.094-2.963l31.63 13.198c4.175 1.743 6.753 4.965 6.753 8.474v17.36" fill="url(#at)" transform="translate(766 694)"/><path fill="url(#au)" d="M57.876 32.501L88.394 0l40.303 16.675-30.55 32.492z" transform="translate(766 694)"/><path fill="url(#av)" d="M0 88.294L33.885 70.14 69.26 84.777v4.674l-28.974 15.495z" transform="translate(766 694)"/></g><g fill-rule="nonzero" id="tv"><path fill="url(#aw)" opacity=".5" d="M159.947 187.98l-45.471-18.122-43.24 18.555 43.784 17.447-43.22 17.372L154 256l120.178-48.003-82.2-32.762z" transform="translate(960 637)"/><path d="M149.511 5.185l-6.346-3.634a6.14 6.14 0 0 0-5.525-.49L6.554 53.308A10.402 10.402 0 0 0 0 62.97v100.276a6.146 6.146 0 0 0 2.7 5.11c.253.168.517.319.79.452l6.46 3.672v-4.086l129.605-51.633a10.402 10.402 0 0 0 6.554-9.66V6.66l3.402-1.476z" fill="url(#ax)" transform="translate(960 637)"/><path d="M68.136 138.325l-12.894 27.79a12.819 12.819 0 0 0 6.905 17.307l22.38 8.902 46.93-19.844-25.945-10.59a9.793 9.793 0 0 1-6.076-10.602l4.846-31.15-36.146 18.187z" fill="url(#ay)" transform="translate(960 637)"/><path d="M84.508 193.673l-22.844-9.083a14.068 14.068 0 0 1-7.533-19.002l12.9-27.797 2.279 1.06-12.932 27.798a11.557 11.557 0 0 0 6.209 15.606l21.92 8.719 46.931-18.494v3.334l-46.93 17.86z" fill="url(#az)" transform="translate(960 637)"/><path d="M6.277 66.541v100.277a6.183 6.183 0 0 0 8.469 5.744l131.087-52.241a10.402 10.402 0 0 0 6.553-9.661V10.383a6.183 6.183 0 0 0-8.468-5.744L12.806 56.88a10.396 10.396 0 0 0-6.529 9.661z" fill="url(#aA)" transform="translate(960 637)"/><path d="M9.981 68.092v97.565a3.195 3.195 0 0 0 4.394 2.97l128.965-51.388a8.412 8.412 0 0 0 5.299-7.816V11.858a3.195 3.195 0 0 0-4.395-2.97L15.286 60.265a8.418 8.418 0 0 0-5.305 7.828z" fill="url(#aB)" transform="translate(960 637)"/></g><g transform="translate(932 606)" stroke="#FFF"><ellipse stroke-width=".5" opacity=".4" cx="56" cy="23" rx="56" ry="23"/><ellipse stroke-width=".8" opacity=".7" cx="56" cy="22" rx="39" ry="16"/><ellipse cx="56.5" cy="21" rx="24.5" ry="10"/><ellipse fill="#FFF" cx="56.5" cy="20.5" rx="8.5" ry="3.5"/></g><g id="dfg"><path fill="url(#aC)" opacity=".463" d="M0 40h50L31 357H17z" transform="translate(964 270)"/><use fill="#FFF" xlink:href="#aD" transform="translate(964 270)"/><path d="M988.149 279.894c-.961 0-1.74.78-1.74 1.74v12.484h-12.483a1.74 1.74 0 0 0-.001 3.48l14.208.003a1.742 1.742 0 0 0 1.74-1.74l.016-14.224c0-.962-.779-1.742-1.74-1.743zm4.261 15.965c0-.962.78-1.742 1.742-1.742h8.562a1.742 1.742 0 1 1 0 3.483h-8.562c-.962 0-1.742-.78-1.742-1.741zm-4.26 4.261c.962 0 1.741.78 1.741 1.741v8.563a1.742 1.742 0 0 1-3.483 0v-8.563c0-.962.78-1.741 1.742-1.741z" fill="#033144" fill-rule="nonzero"/><path fill="url(#aE)" opacity=".305" transform="rotate(-1 15966.968 -54955.238)" d="M13.122 92.992l5 .018-1.244 96.98h-4z"/><path fill="url(#aF)" opacity=".305" transform="rotate(1 -14950.683 55488.792)" d="M33.785 77.08l6-.035-1.878 90.034-3-.017z"/><path fill="url(#aG)" opacity=".305" transform="rotate(1 -14954.183 55603.8)" d="M30.785 192.072l5-.018-1.878 90.034-2-.035z"/><path fill="url(#aH)" opacity=".207" d="M17 231h4l2 83h-3z" transform="translate(964 270)"/></g><g id="flower"><path fill="url(#aI)" fill-rule="nonzero" d="M33.992 186.8v-32.231l40.441 16.113v32.235z" transform="translate(330 494)"/><path fill="url(#aJ)" fill-rule="nonzero" d="M74.433 170.682l40.44-16.113v32.23l-40.44 16.118z" transform="translate(330 494)"/><path fill="url(#aK)" fill-rule="nonzero" d="M33.992 154.569l40.441-16.118 40.44 16.118-40.44 16.113z" transform="translate(330 494)"/><path fill="url(#aL)" fill-rule="nonzero" d="M47.295 154.569l27.138-10.817 27.138 10.817-27.138 10.811z" transform="translate(330 494)"/><path fill="url(#aM)" fill-rule="nonzero" d="M74.433 148.298l21.44 8.538 5.698-2.267-27.138-10.817-27.138 10.817 5.698 2.267z" transform="translate(330 494)"/><path d="M402.28 654.032c2.236-32.027-4.472-55.897-4.472-55.897" stroke="#603813"/><path fill="url(#aN)" fill-rule="nonzero" opacity=".64" d="M74.433 202.917l80.887 32.23 40.44-16.117-80.886-32.23z" transform="translate(330 494)"/><g transform="translate(382.18 494)"><mask id="aQ" fill="#fff"><use xlink:href="#aO"/></mask><use fill="url(#aP)" fill-rule="nonzero" xlink:href="#aO"/><path d="M20.1 160.032c2.236-32.027-4.473-55.897-4.473-55.897" stroke="#E8D4C5" mask="url(#aQ)"/></g><path d="M408.807 651.238c-3.029-43.678 20.903-75.674 20.903-75.674" stroke="#603813"/><g transform="translate(406.477 559.092)"><mask id="aT" fill="#fff"><use xlink:href="#aR"/></mask><use fill="url(#aS)" fill-rule="nonzero" xlink:href="#aR"/><path d="M2.33 92.146C-.7 48.468 23.233 16.472 23.233 16.472" stroke="#E8D4C5" mask="url(#aT)"/></g><path d="M94.21 67.458s2.45 19.183 15.701 27.3c0 0 3.748-7.887 7.944-17.604 4.197-9.716-23.645-9.696-23.645-9.696z" fill="url(#aU)" fill-rule="nonzero" opacity=".3" transform="translate(330 494)"/><path d="M94.21 67.458l28.29-2.366s20.544 8.59 40.3 34.785c.02 0-39.737-12.855-68.59-32.419z" fill="url(#aV)" fill-rule="nonzero" transform="translate(330 494)"/><path d="M19.485 86.323S7.1 91.13 0 107.628c0 0 29.926-8.997 45.732-21.305H19.485z" fill="url(#aW)" fill-rule="nonzero" transform="translate(330 494)"/><path d="M396.53 651.238c.22-26.872-18.333-45.961-18.333-45.961" stroke="#603813"/><path d="M61.344 132.107c15.388-8.34-4.118-38.757-20.664-49.62l-21.195 3.836s28.681 52.936 41.859 45.784z" fill="url(#aX)" fill-rule="nonzero" transform="translate(330 494)"/><path d="M391.344 626.107c-10.426-26.403-28.926-44.923-28.926-44.923" stroke="#E8D4C5"/></g></g></svg>