<svg width="752" height="629" xmlns="http://www.w3.org/2000/svg" xmlns:xlink="http://www.w3.org/1999/xlink"><defs><rect id="b" x="0" y="0" width="700" height="530" rx="20"/><filter x="-9.5%" y="-7.6%" width="119%" height="130.6%" filterUnits="objectBoundingBox" id="a"><feOffset dy="55" in="SourceAlpha" result="shadowOffsetOuter1"/><feGaussianBlur stdDeviation="13" in="shadowOffsetOuter1" result="shadowBlurOuter1"/><feColorMatrix values="0 0 0 0 0 0 0 0 0 0 0 0 0 0 0 0 0 0 0.05 0" in="shadowBlurOuter1"/></filter><filter x="-4.7%" y="-1.3%" width="109.4%" height="117.9%" filterUnits="objectBoundingBox" id="c"><feGaussianBlur stdDeviation="6.5" in="SourceAlpha" result="shadowBlurInner1"/><feOffset dy="1" in="shadowBlurInner1" result="shadowOffsetInner1"/><feComposite in="shadowOffsetInner1" in2="SourceAlpha" operator="arithmetic" k2="-1" k3="1" result="shadowInnerInner1"/><feColorMatrix values="0 0 0 0 0 0 0 0 0 0 0 0 0 0 0 0 0 0 0.0938319493 0" in="shadowInnerInner1"/></filter><rect id="e" x="0" y="0" width="700" height="530" rx="20"/><filter x="-5.6%" y="-3.9%" width="111.3%" height="115.5%" filterUnits="objectBoundingBox" id="d"><feOffset dy="22" in="SourceAlpha" result="shadowOffsetOuter1"/><feGaussianBlur stdDeviation="9.5" in="shadowOffsetOuter1" result="shadowBlurOuter1"/><feColorMatrix values="0 0 0 0 0 0 0 0 0 0 0 0 0 0 0 0 0 0 0.05 0" in="shadowBlurOuter1"/></filter><filter x="-3.7%" y="-1.3%" width="107.4%" height="110.4%" filterUnits="objectBoundingBox" id="f"><feGaussianBlur stdDeviation="6.5" in="SourceAlpha" result="shadowBlurInner1"/><feOffset dy="1" in="shadowBlurInner1" result="shadowOffsetInner1"/><feComposite in="shadowOffsetInner1" in2="SourceAlpha" operator="arithmetic" k2="-1" k3="1" result="shadowInnerInner1"/><feColorMatrix values="0 0 0 0 0 0 0 0 0 0 0 0 0 0 0 0 0 0 0.150021853 0" in="shadowInnerInner1"/></filter><filter x="-95.6%" y="-95.6%" width="291.2%" height="291.2%" filterUnits="objectBoundingBox" id="g"><feOffset dy="22" in="SourceAlpha" result="shadowOffsetOuter1"/><feGaussianBlur stdDeviation="17" in="shadowOffsetOuter1" result="shadowBlurOuter1"/><feColorMatrix values="0 0 0 0 0.0117647059 0 0 0 0 0.192156863 0 0 0 0 0.266666667 0 0 0 0.137756774 0" in="shadowBlurOuter1" result="shadowMatrixOuter1"/><feMerge><feMergeNode in="shadowMatrixOuter1"/><feMergeNode in="SourceGraphic"/></feMerge></filter><radialGradient cx="-26.213%" cy="-26.171%" fx="-26.213%" fy="-26.171%" r="182.842%" gradientTransform="matrix(.94597 -.32426 .25513 .74429 .053 -.152)" id="i"><stop stop-color="#FDA916" stop-opacity=".776" offset="0%"/><stop stop-color="#F2D469" offset="32.97%"/><stop stop-color="#50BED3" offset="100%"/></radialGradient><circle id="h" cx="56.5" cy="56.5" r="56.5"/></defs><g transform="translate(26)" fill="none" fill-rule="evenodd"><use fill="#000" filter="url(#a)" xlink:href="#b"/><use fill="#FFF" xlink:href="#b"/><use fill="#000" filter="url(#c)" xlink:href="#b"/><use fill="#000" filter="url(#d)" xlink:href="#e"/><use fill="#FFF" xlink:href="#e"/><use fill="#000" filter="url(#f)" xlink:href="#e"/><rect stroke="#979797" fill="#FFF" opacity=".194" x="12.5" y="11.5" width="676" height="506" rx="11"/><path d="M125 626V413.327c0-28.522 17.304-54.191 43.743-64.89L370 267" stroke="#033144"/><rect fill="#FDBB39" opacity=".1" x="50" y="53" width="136" height="67" rx="6"/><rect fill="#FDBB39" opacity=".1" x="50" y="411" width="136" height="67" rx="6"/><rect fill="#FDBB39" opacity=".1" x="50" y="134" width="136" height="26" rx="6"/><rect fill="#FDBB39" opacity=".1" x="50" y="174" width="136" height="26" rx="6"/><rect fill="#FDBB39" opacity=".1" x="50" y="214" width="136" height="26" rx="6"/><rect fill="#FDBB39" opacity=".1" x="50" y="254" width="136" height="26" rx="6"/><rect fill="#FDBB39" opacity=".2" x="202" y="53" width="136" height="67" rx="6"/><rect fill="#FDBB39" opacity=".1" x="202" y="411" width="136" height="67" rx="6"/><rect fill="#FDBB39" opacity=".1" x="354" y="53" width="136" height="67" rx="6"/><rect fill="#FDBB39" opacity=".1" x="354" y="411" width="136" height="67" rx="6"/><rect fill="#FDBB39" opacity=".1" x="506" y="53" width="136" height="67" rx="6"/><rect fill="#FDBB39" opacity=".3" x="506" y="134" width="136" height="228" rx="6"/><rect fill="#FDBB39" opacity=".1" x="506" y="411" width="136" height="67" rx="6"/><g filter="url(#g)" transform="translate(294 208)"><mask id="j" fill="#fff"><use xlink:href="#h"/></mask><use fill="url(#i)" xlink:href="#h"/><g mask="url(#j)" fill="#033144"><path d="M76.651 48.597a7.048 7.048 0 0 1 .87 9.93l-54.366 64.788-10.798-9.06 54.365-64.79a7.048 7.048 0 0 1 9.93-.868zm-20.163-5.145a7.048 7.048 0 0 1-9.93.869L-18.23-10.044l9.06-10.798 64.79 54.365a7.048 7.048 0 0 1 .868 9.93z"/></g></g><text font-family="Gilroy-Bold, Gilroy" font-size="10" font-weight="bold" fill="#FDBB39"><tspan x="90.13" y="79">Dashboards</tspan></text><text font-family="Gilroy-Bold, Gilroy" font-size="10" font-weight="bold" fill="#FDBB39"><tspan x="255.355" y="79">Assets</tspan></text><text font-family="Gilroy-Bold, Gilroy" font-size="10" font-weight="bold" fill="#FDBB39"><tspan x="399.965" y="79">Locations</tspan></text><text font-family="Gilroy-Bold, Gilroy" font-size="10" font-weight="bold" fill="#FDBB39"><tspan x="541.4" y="79">Import/Export</tspan></text><circle fill="#033144" cx="125" cy="625" r="4"/></g></svg>