<svg xmlns="http://www.w3.org/2000/svg" width="551" height="636"><defs><radialGradient id="a" cx="77.951%" cy="-12.481%" r="255.257%" fx="77.951%" fy="-12.481%" gradientTransform="matrix(.34628 .12214 -.02643 .61549 .506 -.143)"><stop offset="0%" stop-color="#FDA916" stop-opacity=".776"/><stop offset="32.97%" stop-color="#F2D469"/><stop offset="100%" stop-color="#50BED3"/></radialGradient><linearGradient id="b" x1="51.293%" x2="51.293%" y1="70.211%" y2="-28.883%"><stop offset="0%" stop-color="#77C4DF" stop-opacity="0"/><stop offset="100%" stop-color="#114758"/></linearGradient><linearGradient id="c" x1="51.293%" x2="51.293%" y1="70.211%" y2="-28.883%"><stop offset="0%" stop-color="#77C4DF" stop-opacity="0"/><stop offset="100%" stop-color="#114758"/></linearGradient><linearGradient id="d" x1="50%" x2="33.355%" y1="53.449%" y2="38.975%"><stop offset="0%" stop-color="#77C4DF" stop-opacity="0"/><stop offset="100%" stop-color="#114758"/></linearGradient><linearGradient id="e" x1="38.968%" x2="64.463%" y1="118.463%" y2="-6.709%"><stop offset="0%" stop-color="#F9B231"/><stop offset="100%" stop-color="#FFFAF4"/></linearGradient><linearGradient id="f" x1="59.865%" x2="41.109%" y1="1.068%" y2="94.102%"><stop offset="0%" stop-color="#AC9370"/><stop offset="100%" stop-color="#594834"/></linearGradient><linearGradient id="g" x1="40.131%" x2="59.869%" y1="104.534%" y2="16.952%"><stop offset="0%" stop-color="#FFF6E8"/><stop offset="100%" stop-color="#FFF"/></linearGradient><linearGradient id="h" x1="78.939%" x2="35.406%" y1="57.168%" y2="41.621%"><stop offset="0%" stop-color="#FEE8C2"/><stop offset="100%" stop-color="#FFF" stop-opacity="0"/></linearGradient><linearGradient id="i" x1="78.939%" x2="64.918%" y1="52.565%" y2="33.703%"><stop offset="0%" stop-color="#FEE8C2"/><stop offset="100%" stop-color="#FFF" stop-opacity="0"/></linearGradient><linearGradient id="j" x1="16.539%" x2="117%" y1="228.889%" y2="-308.087%"><stop offset="0%" stop-color="#F9B231"/><stop offset="100%" stop-color="#FFFAF4"/></linearGradient><linearGradient id="k" x1="84.192%" x2="35.406%" y1="54.567%" y2="38.269%"><stop offset="0%" stop-color="#FEE8C2"/><stop offset="100%" stop-color="#FFF" stop-opacity="0"/></linearGradient><linearGradient id="l" x1="86.799%" x2="77.395%" y1="57.322%" y2="40.516%"><stop offset="0%" stop-color="#FEE8C2"/><stop offset="100%" stop-color="#FFF" stop-opacity="0"/></linearGradient><linearGradient id="m" x1="18.351%" x2="75.731%" y1="273.882%" y2="-131.943%"><stop offset="0%" stop-color="#F9B231"/><stop offset="100%" stop-color="#FFFAF4"/></linearGradient><linearGradient id="n" x1="61.099%" x2="35.406%" y1="63.473%" y2="44.017%"><stop offset="0%" stop-color="#FEE8C2"/><stop offset="100%" stop-color="#FFF" stop-opacity="0"/></linearGradient><linearGradient id="o" x1="54.464%" x2="38.683%" y1="56.62%" y2="45.646%"><stop offset="0%" stop-color="#FEE8C2"/><stop offset="100%" stop-color="#FFF" stop-opacity="0"/></linearGradient><linearGradient id="p" x1="68.388%" x2="21.465%" y1="63.928%" y2="34.926%"><stop offset="0%" stop-color="#FEE8C2"/><stop offset="100%" stop-color="#FFF" stop-opacity="0"/></linearGradient><linearGradient id="q" x1="-14.7%" x2="75.772%" y1="254.407%" y2="-31.38%"><stop offset="0%" stop-color="#F9B231"/><stop offset="100%" stop-color="#FFFAF4"/></linearGradient><linearGradient id="r" x1="43.912%" x2="61.358%" y1="128.028%" y2="-95.655%"><stop offset="0%" stop-color="#F9B231"/><stop offset="100%" stop-color="#FFFAF4"/></linearGradient></defs><g fill="none" fill-rule="evenodd"><path fill="url(#a)" d="M709.092 4.977l-197.03 79a74.42 74.42 0 0 1-52.886.23L422.09 69.793a74.448 74.448 0 0 0-52.763.176L10.102 212.89c-9.628 3.824-12.95 12.34-7.445 18.984a18.306 18.306 0 0 0 7.39 5.153l148.675 59.487c4.8 1.926 6.455 6.184 3.688 9.492a9.235 9.235 0 0 1-3.674 2.55l-18.985 7.62c-8 3.214-10.74 10.32-6.115 15.865a15.187 15.187 0 0 0 6.115 4.258l110.95 44.49a74.475 74.475 0 0 0 53.333.068l95.79-38.063a74.407 74.407 0 0 1 53.413.109l268.168 108.085a74.353 74.353 0 0 0 53.495.068l522.028-208.334c9.601-3.837 12.923-12.366 7.404-18.984a18.564 18.564 0 0 0-7.404-5.139L762.533 4.95a74.407 74.407 0 0 0-53.441.028z" transform="matrix(-1 0 0 1 549 250)"/><g fill-rule="nonzero"><path fill="url(#b)" d="M65.96 0v262.71L0 289V26.29z" opacity=".5" transform="translate(306 27)"/><path fill="url(#c)" d="M13 537.462l-13 5.185V6.147L13 .962z" opacity=".4" transform="translate(412 127)"/><path fill="url(#c)" d="M13 537.462l-13 5.185V6.147L13 .962z" opacity=".1" transform="translate(193 -1)"/><path fill="url(#d)" d="M41.342 431.69L329.4 542.61l171.513-67.977-288.059-110.92" transform="translate(150 101)"/><path fill="url(#e)" d="M32.063 62.056L184.046 1.5a20.722 20.722 0 0 1 15.43 0l.853.366 18.132 7.566-6.39 6.485a20.95 20.95 0 0 1 .604 5.018v318.868a28.118 28.118 0 0 1-17.723 26.142L47.238 424.797l-.374 9.696-17.34-7.31a20.884 20.884 0 0 1-15.15-20.1V88.196a28.118 28.118 0 0 1 17.69-26.141z" transform="translate(150 101)"/><path fill="url(#f)" d="M230.518 347.25V28.365A20.903 20.903 0 0 0 201.88 8.947L49.922 69.503A28.118 28.118 0 0 0 32.2 95.644V414.53a20.903 20.903 0 0 0 28.637 19.419l151.958-60.556a28.118 28.118 0 0 0 17.723-26.142z" transform="translate(150 101)"/><path fill="url(#g)" d="M223.931 346.79V27.598a12.28 12.28 0 0 0-16.82-11.409L53.681 77.316a21.003 21.003 0 0 0-13.216 19.496v319.183a12.281 12.281 0 0 0 16.845 11.4l153.371-61.127a20.995 20.995 0 0 0 13.25-19.478z" transform="translate(150 101)"/><path fill="url(#h)" d="M276.589 308.865l-132.207-52.683-58.145 96.675 132.207 52.683z" opacity=".49" transform="translate(150 101)"/><path fill="url(#i)" d="M144.382 256.182l-58.088 36.635L218.5 345.5l58.089-36.635z" opacity=".49" transform="translate(150 101)"/><path fill="url(#j)" d="M212.957 346.518v51.166a7.856 7.856 0 0 0 10.761 7.294l42.978-17.135a22.444 22.444 0 0 0 14.136-20.85v-51.124a7.84 7.84 0 0 0-10.728-7.336l-43.012 17.135a22.444 22.444 0 0 0-14.135 20.85z" transform="translate(150 101)"/><path fill="url(#k)" d="M279.06 172.228l-132.207-52.692-60.616 126.336 132.207 52.683z" opacity=".49" transform="translate(150 101)"/><path fill="url(#l)" d="M146.853 119.536l-60.56 34.78L218.5 207l60.56-34.772z" opacity=".49" transform="translate(150 101)"/><path fill="url(#m)" d="M212.957 208.006v82.693a7.856 7.856 0 0 0 10.761 7.294l42.978-17.135a22.452 22.452 0 0 0 14.136-20.85v-82.65a7.84 7.84 0 0 0-10.728-7.337l-43.012 17.135a22.444 22.444 0 0 0-14.135 20.85z" transform="translate(150 101)"/><path fill="url(#n)" d="M276.589 65.098L144.382 12.415 0 143.113l132.206 52.683z" opacity=".49" transform="translate(150 101)"/><path fill="url(#o)" d="M40.49 148.873V405.77l90.276 35.54 59.62-232.708z" opacity=".55" transform="translate(150 101)"/><path fill="url(#p)" d="M40.49 148.873l-6.266 66.587L124.5 251l65.885-42.398z" opacity=".55" transform="translate(150 101)"/><path fill="url(#q)" d="M125.143 137.43v51.166a7.856 7.856 0 0 0 10.761 7.294l130.792-51.814a22.452 22.452 0 0 0 14.136-20.85V72.059a7.839 7.839 0 0 0-10.728-7.302l-130.826 51.822a22.444 22.444 0 0 0-14.135 20.85z" transform="translate(150 101)"/><path fill="url(#r)" d="M124.282 245.548v187.795a7.848 7.848 0 0 0 10.753 7.294l43.046-17.16a22.444 22.444 0 0 0 14.136-20.85v-187.77a7.856 7.856 0 0 0-10.761-7.294l-43.004 17.135a22.452 22.452 0 0 0-14.17 20.85z" transform="translate(150 101)"/><path d="M65.96 0v262.71L0 289V26.29z" class="lineOne" fill="url(#b)" transform="translate(240 189)"/></g></g></svg>