<svg viewBox="0 0 1440 1080" xmlns="http://www.w3.org/2000/svg" xmlns:xlink="http://www.w3.org/1999/xlink"><defs><style>.cls-3{isolation:isolate;fill:url(#radial-gradient);opacity:.36}.cls-23{fill:#358a93}</style><radialGradient id="radial-gradient" cx="2490.65" cy="817.83" r=".46" gradientTransform="matrix(-1597.18 5.25 3.42 1041.17 3976211.13 -863610.6)" gradientUnits="userSpaceOnUse"><stop offset="0" stop-color="#fff"/><stop offset=".61" stop-color="#fcfdfc" stop-opacity=".96"/><stop offset="1" stop-color="#fff" stop-opacity="0"/></radialGradient><radialGradient id="radial-gradient-2" cx="2374.66" cy="822.05" r="1.86" gradientTransform="matrix(959.06 -60.96 -37.8 -594.75 -2246587.39 633583.76)" gradientUnits="userSpaceOnUse"><stop offset="0" stop-color="#fda916" stop-opacity=".7"/><stop offset=".33" stop-color="#f2d469"/><stop offset="1" stop-color="#50bed3"/></radialGradient><linearGradient id="linear-gradient" x1="-1305.61" y1="712.3" x2="-1305.69" y2="713.41" gradientTransform="matrix(55.38 0 0 -231.65 73453.26 165652.15)" gradientUnits="userSpaceOnUse"><stop offset="0" stop-color="#ffcb6c"/><stop offset="1" stop-color="#fffaf4"/></linearGradient><linearGradient id="linear-gradient-2" x1="-1305.56" y1="713.32" x2="-1305.56" y2="712.36" gradientTransform="matrix(55.6 0 0 -231.08 73795.01 165249.88)" gradientUnits="userSpaceOnUse"><stop offset="0" stop-color="#ffc04d"/><stop offset="1" stop-color="#c58409"/></linearGradient><linearGradient id="linear-gradient-3" x1="-1294.8" y1="729.01" x2="-1295.27" y2="729.23" gradientTransform="matrix(110.76 0 0 -44.11 144602.82 32578.2)" xlink:href="#linear-gradient"/><linearGradient id="linear-gradient-4" x1="-1299.04" y1="742.37" x2="-1299.02" y2="742.37" gradientTransform="matrix(80.22 0 0 -26.57 105380.72 20142.89)" gradientUnits="userSpaceOnUse"><stop offset="0" stop-color="#ac9370"/><stop offset="1" stop-color="#594834"/></linearGradient><linearGradient id="linear-gradient-5" x1="-1298.85" y1="736.66" x2="-1299.31" y2="736.88" gradientTransform="matrix(80.22 0 0 -31.95 105380.72 23942.42)" xlink:href="#linear-gradient"/><linearGradient id="linear-gradient-6" x1="-1355.87" y1="737.61" x2="-1358.06" y2="737.61" gradientTransform="matrix(19.47 0 0 -30.98 27572.63 23305.29)" gradientUnits="userSpaceOnUse"><stop offset="0" stop-color="#50bed3"/><stop offset="1" stop-color="#b8e0d4"/></linearGradient><linearGradient id="linear-gradient-7" x1="-1355.87" y1="737.61" x2="-1358.06" y2="737.61" gradientTransform="matrix(19.47 0 0 -30.98 27572.63 23333.81)" xlink:href="#linear-gradient-6"/><linearGradient id="linear-gradient-8" x1="-1354.64" y1="737.61" x2="-1356.87" y2="737.61" gradientTransform="matrix(19.47 0 0 -30.98 27546.11 23295.72)" xlink:href="#linear-gradient-6"/><linearGradient id="linear-gradient-9" x1="-1354.64" y1="737.61" x2="-1356.87" y2="737.61" gradientTransform="matrix(19.47 0 0 -30.98 27546.11 23324.24)" xlink:href="#linear-gradient-6"/><linearGradient id="linear-gradient-10" x1="-1355.87" y1="737.61" x2="-1358.06" y2="737.61" gradientTransform="matrix(19.47 0 0 -30.98 27572.63 23361.49)" xlink:href="#linear-gradient-6"/><linearGradient id="linear-gradient-11" x1="-1354.64" y1="737.61" x2="-1356.87" y2="737.61" gradientTransform="matrix(19.47 0 0 -30.98 27546.11 23351.92)" xlink:href="#linear-gradient-6"/><linearGradient id="linear-gradient-12" x1="-1355.87" y1="737.61" x2="-1358.06" y2="737.61" gradientTransform="matrix(19.47 0 0 -30.98 27572.63 23389.17)" xlink:href="#linear-gradient-6"/><linearGradient id="linear-gradient-13" x1="-1354.64" y1="737.61" x2="-1356.87" y2="737.61" gradientTransform="matrix(19.47 0 0 -30.98 27546.11 23379.6)" xlink:href="#linear-gradient-6"/><linearGradient id="linear-gradient-14" x1="-1355.87" y1="737.61" x2="-1358.06" y2="737.61" gradientTransform="matrix(19.47 0 0 -30.98 27572.63 23416.85)" xlink:href="#linear-gradient-6"/><linearGradient id="linear-gradient-15" x1="-1354.64" y1="737.61" x2="-1356.87" y2="737.61" gradientTransform="matrix(19.47 0 0 -30.98 27546.11 23407.28)" xlink:href="#linear-gradient-6"/><linearGradient id="linear-gradient-16" x1="-1355.87" y1="737.61" x2="-1358.06" y2="737.61" gradientTransform="matrix(19.47 0 0 -30.98 27572.63 23444.53)" xlink:href="#linear-gradient-6"/><linearGradient id="linear-gradient-17" x1="-1354.64" y1="737.61" x2="-1356.87" y2="737.61" gradientTransform="matrix(19.47 0 0 -30.98 27546.11 23434.97)" xlink:href="#linear-gradient-6"/><linearGradient id="linear-gradient-18" x1="-1355.87" y1="737.61" x2="-1358.06" y2="737.61" gradientTransform="matrix(19.47 0 0 -30.98 27572.63 23472.21)" xlink:href="#linear-gradient-6"/><linearGradient id="linear-gradient-19" x1="-1354.64" y1="737.61" x2="-1356.87" y2="737.61" gradientTransform="matrix(19.47 0 0 -30.98 27546.11 23462.65)" xlink:href="#linear-gradient-6"/><linearGradient id="linear-gradient-20" x1="-1294.25" y1="727.82" x2="-1294.38" y2="727.96" gradientTransform="matrix(118.07 0 0 -46.93 154053.67 34807.92)" gradientUnits="userSpaceOnUse"><stop offset="0" stop-color="#77c4df" stop-opacity="0"/><stop offset="1" stop-color="#114758"/></linearGradient><linearGradient id="linear-gradient-21" x1="-1307.06" y1="752.48" x2="-1307.14" y2="752.56" gradientTransform="matrix(51.81 0 0 -20.37 68920.77 15757.51)" xlink:href="#linear-gradient-20"/><linearGradient id="linear-gradient-22" x1="-1026.85" y1="712.78" x2="-1026.96" y2="713.92" gradientTransform="matrix(64.63 0 0 -205.78 67384.76 147348.08)" xlink:href="#linear-gradient"/><linearGradient id="linear-gradient-23" x1="-1026.82" y1="713.77" x2="-1026.82" y2="712.79" gradientTransform="matrix(64.89 0 0 -205.12 67711.85 146879.36)" xlink:href="#linear-gradient-2"/><linearGradient id="linear-gradient-24" x1="-1017.6" y1="726.11" x2="-1017.92" y2="726.36" gradientTransform="matrix(129.26 0 0 -51.4 132603.61 37794.42)" xlink:href="#linear-gradient"/><linearGradient id="linear-gradient-25" x1="-1060.13" y1="733.55" x2="-1062.33" y2="733.55" gradientTransform="matrix(22.73 0 0 -36.1 25133.39 26988.73)" xlink:href="#linear-gradient-6"/><linearGradient id="linear-gradient-26" x1="-1060.13" y1="733.55" x2="-1062.33" y2="733.55" gradientTransform="matrix(22.73 0 0 -36.1 25133.39 27021.7)" xlink:href="#linear-gradient-6"/><linearGradient id="linear-gradient-27" x1="-1058.87" y1="733.55" x2="-1061.14" y2="733.55" gradientTransform="matrix(22.72 0 0 -36.1 25103.04 26977.58)" xlink:href="#linear-gradient-6"/><linearGradient id="linear-gradient-28" x1="-1058.87" y1="733.55" x2="-1061.14" y2="733.55" gradientTransform="matrix(22.72 0 0 -36.1 25103.04 27010.55)" xlink:href="#linear-gradient-6"/><linearGradient id="linear-gradient-29" x1="-1060.13" y1="733.55" x2="-1062.33" y2="733.55" gradientTransform="matrix(22.73 0 0 -36.1 25133.39 27054.86)" xlink:href="#linear-gradient-6"/><linearGradient id="linear-gradient-30" x1="-1058.87" y1="733.55" x2="-1061.14" y2="733.55" gradientTransform="matrix(22.72 0 0 -36.1 25103.04 27043.71)" xlink:href="#linear-gradient-6"/><linearGradient id="linear-gradient-31" x1="-1060.13" y1="733.55" x2="-1062.33" y2="733.55" gradientTransform="matrix(22.73 0 0 -36.1 25133.39 27088.02)" xlink:href="#linear-gradient-6"/><linearGradient id="linear-gradient-32" x1="-1058.87" y1="733.55" x2="-1061.14" y2="733.55" gradientTransform="matrix(22.72 0 0 -36.1 25103.04 27076.87)" xlink:href="#linear-gradient-6"/><linearGradient id="linear-gradient-33" x1="-1060.13" y1="733.55" x2="-1062.33" y2="733.55" gradientTransform="matrix(22.73 0 0 -36.1 25133.39 27121.18)" xlink:href="#linear-gradient-6"/><linearGradient id="linear-gradient-34" x1="-1058.87" y1="733.55" x2="-1061.14" y2="733.55" gradientTransform="matrix(22.72 0 0 -36.1 25103.04 27110.03)" xlink:href="#linear-gradient-6"/><linearGradient id="linear-gradient-35" x1="-1017.01" y1="725.06" x2="-1017.49" y2="725.43" gradientTransform="matrix(137.8 0 0 -54.69 141280.59 40328.61)" xlink:href="#linear-gradient-20"/><linearGradient id="linear-gradient-36" x1="-1076.63" y1="745.03" x2="-1076.62" y2="745.03" gradientTransform="matrix(74.41 0 0 -24.61 81162.22 18803.13)" xlink:href="#linear-gradient-4"/><linearGradient id="linear-gradient-37" x1="-1076.45" y1="738.87" x2="-1076.91" y2="739.09" gradientTransform="matrix(74.41 0 0 -29.59 81162.22 22322.59)" xlink:href="#linear-gradient"/><linearGradient id="linear-gradient-38" x1="-1082.87" y1="752" x2="-1082.96" y2="752.08" gradientTransform="matrix(53.27 0 0 -20.6 58764.09 15968.94)" xlink:href="#linear-gradient-20"/><linearGradient id="linear-gradient-39" x1="1186.49" y1="524.82" x2="1186.49" y2="525.81" gradientTransform="matrix(65.96 0 0 -289 -77405.3 152153.26)" xlink:href="#linear-gradient-20"/><linearGradient id="linear-gradient-40" x1="901.55" y1="523.39" x2="901.55" y2="524.38" gradientTransform="matrix(13 0 0 -541.69 -10943.8 284273.29)" xlink:href="#linear-gradient-20"/><linearGradient id="linear-gradient-41" x1="1339.55" y1="523.39" x2="1339.55" y2="524.38" gradientTransform="matrix(13 0 0 -541.69 -16418.8 284145.31)" xlink:href="#linear-gradient-20"/><linearGradient id="linear-gradient-42" x1="1143.96" y1="296.2" x2="973.38" y2="377.06" gradientTransform="matrix(1 0 0 -1 0 1135.46)" xlink:href="#linear-gradient-20"/><linearGradient id="linear-gradient-43" x1="1510.48" y1="421.38" x2="1510.74" y2="422.63" gradientTransform="matrix(204.09 0 0 -434.48 -307367.31 183919.95)" gradientUnits="userSpaceOnUse"><stop offset="0" stop-color="#f9b231"/><stop offset="1" stop-color="#fffaf4"/></linearGradient><linearGradient id="linear-gradient-44" x1="1510.54" y1="422.48" x2="1510.35" y2="421.55" gradientTransform="matrix(198.32 0 0 -427.97 -298634.89 181189.01)" xlink:href="#linear-gradient-4"/><linearGradient id="linear-gradient-45" x1="1509.85" y1="421.61" x2="1510.05" y2="422.49" gradientTransform="matrix(183.47 0 0 -412.96 -276115.02 174884.64)" gradientUnits="userSpaceOnUse"><stop offset="0" stop-color="#fff6e8"/><stop offset="1" stop-color="#fff"/></linearGradient><linearGradient id="linear-gradient-46" x1="798.9" y1="425.94" x2="934.29" y2="481.74" gradientTransform="matrix(1 0 0 -1 0 1135.46)" gradientUnits="userSpaceOnUse"><stop offset="0" stop-color="#fee8c2"/><stop offset="1" stop-color="#fff" stop-opacity="0"/></linearGradient><linearGradient id="linear-gradient-47" x1="796.63" y1="452.13" x2="927.52" y2="511.84" xlink:href="#linear-gradient-46"/><linearGradient id="linear-gradient-48" x1="1498.69" y1="427.35" x2="1499.69" y2="432.72" gradientTransform="matrix(67.88 0 0 -97.55 -100947.59 42560.97)" xlink:href="#linear-gradient-43"/><linearGradient id="linear-gradient-49" x1="800.47" y1="549.86" x2="928.48" y2="600.74" xlink:href="#linear-gradient-46"/><linearGradient id="linear-gradient-50" x1="807.22" y1="590.68" x2="906.51" y2="644.02" xlink:href="#linear-gradient-46"/><linearGradient id="linear-gradient-51" x1="1498.7" y1="424.65" x2="1499.27" y2="428.71" gradientTransform="matrix(67.88 0 0 -129.08 -100947.59 55678.17)" xlink:href="#linear-gradient-43"/><linearGradient id="linear-gradient-52" x1="842.77" y1="651.09" x2="965.03" y2="705.25" xlink:href="#linear-gradient-46"/><linearGradient id="linear-gradient-53" x1="889.17" y1="465.32" x2="1008.97" y2="504.71" xlink:href="#linear-gradient-46"/><linearGradient id="linear-gradient-54" x1="893.9" y1="554.07" x2="989.09" y2="596.74" xlink:href="#linear-gradient-46"/><linearGradient id="linear-gradient-55" x1="1508.29" y1="424.97" x2="1509.19" y2="427.83" gradientTransform="matrix(155.69 0 0 -132.24 -234064.31 56902.06)" xlink:href="#linear-gradient-43"/><linearGradient id="linear-gradient-56" x1="1498.96" y1="422.96" x2="1499.13" y2="425.2" gradientTransform="matrix(67.94 0 0 -234.19 -100949.15 99910.01)" xlink:href="#linear-gradient-43"/><linearGradient id="linear-gradient-57" x1="1318.49" y1="524.82" x2="1318.49" y2="525.81" gradientTransform="matrix(65.96 0 0 -289 -86046.02 152315.26)" xlink:href="#linear-gradient-20"/><linearGradient id="linear-gradient-58" x1="-1350.8" y1="719.64" x2="-1350.8" y2="718.82" gradientTransform="matrix(30.95 0 0 -85.71 43100.36 62315.82)" xlink:href="#linear-gradient-2"/><linearGradient id="linear-gradient-59" x1="-1327.47" y1="737.2" x2="-1327.98" y2="737.69" gradientTransform="matrix(78.31 0 0 -31.19 105291.28 23714.51)" xlink:href="#linear-gradient-20"/><linearGradient id="linear-gradient-60" x1="-1331.7" y1="718.35" x2="-1331.7" y2="717.45" gradientTransform="matrix(61.9 0 0 -98.81 83694.5 71632.8)" xlink:href="#linear-gradient-2"/><linearGradient id="linear-gradient-61" x1="-1324.99" y1="716.45" x2="-1325.68" y2="717.45" gradientTransform="matrix(92.85 0 0 -111.16 124244.78 80383.19)" xlink:href="#linear-gradient"/><linearGradient id="linear-gradient-62" x1="-1319.34" y1="720.86" x2="-1319.75" y2="721.07" gradientTransform="matrix(170.23 0 0 -74.11 225848.77 54057.86)" xlink:href="#linear-gradient-43"/><linearGradient id="linear-gradient-63" x1="-1323.45" y1="737.53" x2="-1323.6" y2="737.62" gradientTransform="matrix(108.33 0 0 -30.88 144599.82 23404.65)" xlink:href="#linear-gradient-20"/><linearGradient id="linear-gradient-64" x1="-1323.72" y1="737.7" x2="-1323.51" y2="737.66" gradientTransform="matrix(108.33 0 0 -30.88 144596.04 23399.91)" xlink:href="#linear-gradient-4"/><linearGradient id="linear-gradient-65" x1="-1364.26" y1="767.11" x2="-1364.05" y2="766.86" gradientTransform="matrix(22.98 0 0 -15.33 32600.26 12396.2)" xlink:href="#linear-gradient-4"/><linearGradient id="linear-gradient-66" x1="-1319.23" y1="720.84" x2="-1320.14" y2="721.17" gradientTransform="matrix(170.23 0 0 -74.11 225848.77 54059.27)" xlink:href="#linear-gradient"/><linearGradient id="linear-gradient-67" x1="-1368.3" y1="736.78" x2="-1372.26" y2="736.78" gradientTransform="matrix(19.99 0 0 -31.91 28571.86 24164.26)" xlink:href="#linear-gradient-6"/><linearGradient id="linear-gradient-68" x1="-1370.99" y1="736.75" x2="-1372.53" y2="736.82" gradientTransform="matrix(19.99 0 0 -31.91 28600.93 24174.39)" xlink:href="#linear-gradient-6"/><linearGradient id="linear-gradient-69" x1="-1371.26" y1="736.78" x2="-1375.06" y2="736.78" gradientTransform="matrix(19.99 0 0 -31.91 28630 24187.36)" gradientUnits="userSpaceOnUse"><stop offset="0" stop-color="#50bed3"/><stop offset="1" stop-color="#91c7a9"/></linearGradient><linearGradient id="linear-gradient-70" x1="-1368.3" y1="736.78" x2="-1372.26" y2="736.78" gradientTransform="matrix(19.99 0 0 -31.91 28571.86 24200.31)" xlink:href="#linear-gradient-6"/><linearGradient id="linear-gradient-71" x1="-1370.99" y1="736.74" x2="-1372.53" y2="736.82" gradientTransform="matrix(19.99 0 0 -31.91 28600.93 24210.45)" xlink:href="#linear-gradient-6"/><linearGradient id="linear-gradient-72" x1="-1371.26" y1="736.78" x2="-1375.06" y2="736.78" gradientTransform="matrix(19.99 0 0 -31.91 28630 24223.42)" xlink:href="#linear-gradient-69"/><linearGradient id="linear-gradient-73" x1="-1323.36" y1="729.34" x2="-1323.74" y2="729.71" gradientTransform="matrix(108.33 0 0 -43.23 144655.31 32275.31)" xlink:href="#linear-gradient-20"/></defs><g id="Layer_2" data-name="Layer 2"><g id="Layer_1-2" data-name="Layer 1"><path d="M1462.3 473.3V472l-11.4-4.5-1.7.7z" style="isolation:isolate" fill="url(#radial-gradient)" opacity=".51"/><path id="path-2" d="M1440.5 0H.5L0 716.9l118.7 47.3c26.6 10.6 59.4 10.6 85.9 0l156.5-62.3c26.6-10.6 59.4-10.6 86 0l555.7 221.4c26.6 10.6 59.3 10.6 85.9 0l316.8-125.9c8.3-3.3 13.5-9.4 13.5-16.1s-5.1-12.7-13.5-16.1l-42.3-16.9c-5-2-8.1-5.6-8.1-9.6s3.1-7.7 8.1-9.6l77.2-30.8.1-678.1z" fill="url(#radial-gradient-2)"/><path class="cls-3" d="M1378.85 356.72l56.25-22.42c-.1-.3-.3-.6-.4-.9l-57.49 22.9c.54.15 1.09.28 1.64.42zm31.59 502.89l33.86 13.49a4.87 4.87 0 0 1 .1-1.2L1412 859z"/><path class="cls-3" d="M137.5 532.6l-37.1-14.8-.4.9 36.2 14.4-34.3 13.7.4.9 35.2-14 55.6 22.1-55.6 22.2-37.1-14.8-.4.9 36.2 14.4-34.3 13.7.4.9 35.2-14 55.6 22.1-55.6 22.1-37.1-14.8-.4.9 36.1 14.4-34.2 13.7.4.9 35.2-14 55.6 22.1-55.6 22.1-37.1-14.8-.4.9 36.2 14.4-34.3 13.6.4.9 35.2-14 55.6 22.1-55.6 22.1-37.1-14.8-.4.9 36.2 14.4-34.3 13.7.4.9 35.2-14 55.6 22.1-55.6 22.2-37.1-14.8-.4.9 36.2 14.4-34.3 13.7.4.9 35.2-14 55.6 22.1-55.6 22.1-37.1-14.8-.4.9 36.2 14.4-34.3 13.7.4.9 35.2-14.1 40.44 16.07 2.12.09-41.16-16.36 55.6-22.1 55.6 22.1-44.59 17.7 2.13.13 43.66-17.33 55.6 22.1-7.66 3.1 2.32.24 6.74-2.69 11.94 4.77 3.5.39L309.5 828l55.6-22.2 55.6 22.2-33.64 13.37 2.06.24 33-13.11 50 19.9 3.49.29L423.6 828l55.5-22.1 55.5 22-53.27 21.31 2 .18 52.57-20.89 55.6 22.1-27.45 10.91 1.89.37 26.86-10.68 55.6 22.1-11.32 4.5 1.59.38 11-4.38 38.56 15.33 4.54.74-41.67-16.57 55.5-22.1 55.6 22.1-49.07 19.54 2 .26 48.47-19.3 55.6 22.1-21.8 8.66 2 .39 21-8.35 55.6 22.1-3.78 1.5 1.74.37 3.44-1.37 11.21 4.46 5.52 1.17-15.43-6.13 55.6-22.1 55.6 22.1-44.39 17.64 1.76.42 43.93-17.46 55.6 22.1-30.06 12 1.84.38L1048.1 942l47.18 18.75 2.65-.16-48.43-19.29 55.5-22.1 55.6 22.1-42.46 16.88q2.94-.51 5.88-1.08l38-15.1 8 3.18 1-.3.75-.22-8.44-3.36 55.6-22.1 13 5.16 1.32-.49-13-5.17 55.6-22.2 12.82 5.1 1.24-.53-12.81-5.07 55.5-22.1 10.4 4.1 1.27-.55-10.27-4.05 55.6-22.1 7.82 3.12 1.48-.63-8-3.19 55.4-22a5.7 5.7 0 0 1 .1-1.3l-55.3-22 55.6-22.1 1.6.6v-1l-.4-.2.4-.2a4.87 4.87 0 0 1 .1-1.2l-1.8.7-55.6-22.1 55.6-22.1 3.9 1.5a4.1 4.1 0 0 1 .1-1.1l-2.5-1 2.7-1.1a4.1 4.1 0 0 1 .1-1.1l-4.1 1.6-55.6-22.1 55.6-22.1 6.6 2.6a3.4 3.4 0 0 1 .1-1l-5.4-2.1 5.7-2.3c0-.4.1-.8.1-1.1l-7.1 2.8-55.6-22.2 55.6-22.1 9.6 3.8a3.4 3.4 0 0 1 .1-1l-8.4-3.3 8.9-3.5c0-.4.1-.8.1-1.1l-10.2 4.1-55.6-22.1 55.6-22.1 12.5 5a3.4 3.4 0 0 1 .1-1l-11.2-4.5 11.7-4.7a4.87 4.87 0 0 1 .1-1.2l-13.1 5.2-55.6-22.1 55.6-22.1 14.7 5.8V561l-13.5-5.4 13.9-5.5V549l-15.2 6-55.6-22.1 55.6-22.1 16 6.3v-1l-14.7-5.8 14.7-5.9c-.4-.1-.4-.5-.4-.9l-16 6.4-55.6-22.1 55.6-22.1 4.4 1.7 11.2-4.4c0-1.5-.1-2.9-.1-4.4l-15.4 5.9-55.5-22.1 68.6-27.3c0-.3-.1-.6-.1-.9l-70 27.9-55.7-22.2 108.91-43.41-1.64-.16h-.42L1332.6 419.4l-55.6-22.1 86.52-34.48-1.51-.46-86.21 34.34-55.6-22.1 85.88-34.24-.62-.28-.69-.32L1218.9 374l-55.6-22.1 91.29-36.39-1.3-.63-91.39 36.42-55.6-22.1 95.14-37.9-1.21-.51-95.33 38-55.5-22.1 95.11-37.88-1.6-.58-95 37.76-55.6-22.1 90.14-35.89-1.48-.46-90.07 35.86-55.6-22.1 81.92-32.64-1.52-.45-81.8 32.59-55.2-22.5 72.09-28.73-1.58-.39-71.81 28.62-44-17.55-1.7.38L876 238.3l-55.6 22.1-48.84-19.46-1.35.57L819.1 261l-55.6 22.1-46.13-18.38-1.34.58 46.17 18.4-55.6 22.1-48.43-19.3-1.43.45 48.56 19.35-55.6 22.1-56.18-22.4-1.6.47L648.4 329l-55.6 22.1-64.8-25.83-1.6.47 65.13 26-55.6 22.1-71.71-28.57-1.45.48 71.73 28.55-55.5 22.1-77.18-30.72-1.72.53 77.5 30.89-55.6 22.2-86-34.3-1.41.4 86.11 34.3-55.6 22.1-95.62-38.07-1.6.45 95.92 38.22-55.6 22.1-103.84-41.36-1.56.49 104 41.47-55.6 22.1L142.87 444l-1.38.51L249.8 487.7l-55.6 22.1-94-37.5-.4.9 93.1 37.1zm1.4 45.9l55.6-22.1 55.6 22.1-55.6 22.1zM651 601.2l55.6-22.1 55.6 22.1-55.6 22.1zm54.3 22.6l-55.5 22.1-55.6-22.1 55.5-22.1zM876 601.2l-55.6 22.1-55.5-22.1 55.6-22.1zm-54.2-22.7l55.6-22.1 55.6 22.1-55.6 22.1zm55.6 23.2l55.7 22.2-55.6 22.1-55.6-22.2zm1.3-.5l55.6-22.1 55.6 22.2-55.6 22zm112.6.6l55.5 22.1-55.6 22.1-55.5-22.1zm56.8 22.6l55.6 22.1-55.6 22.2-55.6-22.2zm-55.5-23.2l55.6-22.1 55.5 22.1-55.6 22.1zm-1.4-.6l-55.6-22.1 55.6-22.1 55.6 22.1zM934.3 578l-55.6-22.2 55.6-22.1 55.6 22.1zm-56.9-22.7l-55.6-22.2 55.6-22.1 55.6 22.1zm-1.4.5L820.5 578l-55.6-22.2 55.6-22.1zm-56.8 22.7l-55.6 22.1-55.5-22.1 55.5-22.1zm-55.6 23.2l55.6 22.1-55.6 22.1-55.5-22.1zm56.8 22.6l55.6 22.2-55.6 22.1-55.6-22.2zm57 22.8l55.6 22.2-55.6 22.1-55.5-22.1zm1.4-.5l55.6-22.1 55.5 22.1-55.6 22.1zm112.4.5l55.6 22.1-55.6 22.1-55.6-22.1zm56.9 22.7l55.6 22.1-55.6 22.1-55.6-22.1zm1.4-.6L1105 647l55.6 22.2-55.6 22.1zm0-45.3l55.5-22.2 55.6 22.1-55.6 22.1zm0-45.4l55.6-22.1 55.5 22.1-55.6 22.1zm-1.4-.5l-55.6-22.2 55.6-22.1 55.6 22.2zm-56.9-22.7l-55.6-22.1 55.6-22.1 55.6 22.1zm-56.9-22.7l-55.6-22.1 55.6-22.1 55.6 22.1zm-56.9-22.7l-55.6-22.1 55.6-22.1 55.6 22.1zm-1.4.5l-55.5 22.2-55.6-22.2 55.6-22.1zm-56.9 22.8l-55.5 22.1-55.5-22.2 55.6-22.1zm-56.9 22.6l-55.6 22.1-55.6-22.1 55.6-22.1zm-56.9 22.7l-55.6 22.1-55.6-22.1 55.6-22.1zm-56.9 22.7l-55.6 22.1-55.6-22.1 55.6-22.1zm-56.9 22.6l-55.6 22.1-55.6-22.1 55.6-22.1zm1.3.6l55.6 22.1-55.6 22.1-55.6-22.1zm56.9 22.7l55.6 22.2-55.6 22.1-55.6-22.1zm1.4-.6l55.5-22.1 55.6 22.1-55.5 22.1zm112.5.6l55.6 22.2-55.5 22.1-55.6-22.1zm57 22.7l55.4 22.1-55.5 22.1-55.5-22.1zm56.8 22.6l55.6 22.1-55.6 22.1-55.6-22.1zm1.3-.5l55.6-22.1 55.6 22.1-55.6 22.1zm112.5.6l55.6 22.1-55.6 22.1-55.6-22.1zm56.9 22.7l55.6 22.1-55.6 22.1-55.6-22.1zm1.4-.7l55.5-22.1 55.6 22.1-55.6 22.1zm112.5.7l55.6 22.1-55.6 22.1-55.6-22.1zm-55.6-23.3l55.6-22.1 55.6 22.1L1162 714zm0-45.4l55.6-22.1 55.6 22.1-55.6 22.1zm0-45.3l55.6-22.1 55.6 22.1-55.6 22.1zm0-45.4l55.6-22.1 55.5 22.1-55.5 22.1zm-1.3-.5l-55.6-22.1 55.5-22.1 55.6 22.2zm-56.9-22.7l-55.6-22.1 55.6-22.1 55.6 22.1zm-57-22.7l-55.6-22.1 55.6-22.1 55.6 22.1zm-56.9-22.7l-55.6-22.1 55.6-22.1 55.6 22.1zm-56.9-22.6l-55.6-22.1 55.6-22.1 55.6 22.1zm-1.4.5l-55.5 22.1-55.6-22.1 55.6-22.1zm-56.9 22.7l-55.6 22.1-55.5-22.1 55.6-22.1zm-56.9 22.7l-55.6 22.1-55.6-22.1 55.6-22.1zm-56.9 22.6l-55.6 22.2-55.6-22.1 55.6-22.1zm-56.9 22.7l-55.6 22.1-55.6-22.1 55.6-22.1zm-56.9 22.7l-55.6 22.1-55.6-22.1 55.6-22.1zm-56.9 22.7l-55.5 22.1-55.6-22.1 55.6-22.1zm-56.9 22.6l-55.6 22.1-55.6-22.1 55.6-22.1zm-57 22.7l-55.6 22.1-55.6-22.1 55.6-22.1zm1.4.6l55.6 22.2-55.6 22.1-55.6-22.1zm1.4-.6l55.6-22.1 55.5 22.1-55.5 22.1zm112.4.6l55.6 22.2-55.6 22.1-55.6-22.1zm56.9 22.7l55.6 22.1-55.6 22.1-55.6-22.1zm56.9 22.6l55.6 22.2-55.6 22.1-55.6-22.2zm1.3-.5l55.6-22.1 55.6 22.1-55.6 22.2zm112.6.5l55.5 22.1-55.6 22.2-55.5-22.1zm56.9 22.6l55.5 22.2-55.6 22.2-55.5-22.2zm56.9 22.8l55.7 22.2-55.6 22.2-55.6-22.1zm1.3-.6l55.6-22.1 55.6 22.1-55.6 22.2zm112.5.6l55.6 22.1-55.5 22.1-55.6-22.1zm56.8 22.7l55.6 22.1-55.5 22.1-55.6-22.1zm1.5-.6l55.5-22.1 55.6 22.1L1105 782zm112.5.6l55.6 22.1-55.6 22.1-55.6-22.1zm1.3-.6l55.6-22.1 55.6 22.1-55.6 22.1zm.1-45.4l55.6-22.1 55.6 22.1-55.6 22.1zm55.4-23.1l-55.5-22.2 55.6-22.1 55.5 22.2zm-55.5-67.6l55.6-22.1 55.6 22.1-55.6 22.1zm0-45.3l55.6-22.1 55.6 22.1-55.6 22.1zm.1-45.3l55.6-22.1 55.5 22.1-55.6 22.1zm-1.4-.6l-55.6-22.2 55.6-22.1 55.6 22.2zm-57-22.7l-55.6-22.1 55.6-22.1 55.6 22.1zm-56.9-22.7l-55.6-22.1 55.6-22.1 55.6 22.1zm-56.9-22.6l-55.6-22.1 55.6-22.2 55.6 22.2zm-56.9-22.7l-55.6-22.1 55.6-22.1 55.6 22.1zm-56.9-22.7l-55.5-22.1 55.6-22.2L933 397zm-1.4.6l-55.5 22.1-55.6-22.1 55.6-22.2zm-56.9 22.6l-55.6 22.1-55.5-22.1 55.6-22.1zm-56.9 22.7l-55.6 22.1-55.5-22.1 55.6-22.1zm-56.9 22.7l-55.6 22.1-55.5-22.1 55.6-22.1zm-56.9 22.7l-55.6 22.2-55.5-22.1 55.6-22.1zm-56.9 22.6l-55.6 22.1-55.5-22.1L536 511zm-56.9 22.7l-55.5 22.1-55.6-22.1 55.5-22.1zm-56.9 22.7l-55.6 22.1-55.6-22.1 55.6-22.1zm-57 22.7l-55.6 22.1-55.6-22.1 55.6-22.1zm-56.8 22.6l-55.6 22.1-55.6-22.1 55.6-22.1zm0 45.5l-55.6 22.1-55.6-22.1 55.6-22.2zm-.1 45.2l-55.5 22.1-55.6-22.1 55.5-22.1zm-54.3-22.6l55.6-22.1 55.6 22.1-55.6 22.2zm112.6.5l55.6 22.1-55.6 22.1-55.6-22.1zm1.4-.5l55.6-22.1 55.5 22.1-55.5 22.1zm112.4.5l55.6 22.1-55.6 22.1-55.6-22.1zm56.9 22.7l55.6 22.1-55.6 22.1-55.6-22.1zm56.9 22.7l55.5 22.1-55.6 22.1-55.5-22.1zm1.4-.6l55.6-22.1 55.5 22.1-55.6 22.1zm112.5.6l55.6 22.1-55.6 22.1-55.5-22.1zm56.9 22.7l55.5 22.1-55.6 22.1-55.5-22.1zm56.9 22.6l55.6 22.2-55.5 22.1-55.6-22.2zm1.3-.4l55.6-22.2 55.6 22.1-55.6 22.2zm112.5.4l55.6 22.1-55.6 22.2-55.6-22.1zm56.9 22.7l55.6 22.1-55.6 22.2-55.6-22.1zm1.4-.5l55.5-22.1 55.6 22.2-55.5 22.1zm112.4.6l55.6 22.1-55.5 22.1-55.6-22.1zm1.4-.6l55.6-22.1 55.6 22.1-55.6 22.1zm56.9-22.6l55.6-22.2 55.6 22.1-55.6 22.2zm0-45.5l55.6-22.1 55.6 22.1-55.6 22.2zm0-45.3l55.6-22.1 55.6 22.1-55.6 22.1zm0-45.4l55.6-22.1 55.6 22.1-55.6 22.2zm0-45.3l55.6-22.1 55.6 22.1-55.6 22.1zm0-45.3l55.6-22.1 55.6 22.1-55.6 22.1zm.1-45.4l55.6-22.1 55.5 22.1-55.6 22.1zm-1.4-.6l-55.6-22.1 55.6-22.2 55.6 22.2zm-57-22.7l-55.6-22.1L1162 443l55.6 22.1zm-56.9-22.6l-55.6-22.1 55.6-22.1 55.6 22.1zm-56.9-22.7l-55.6-22.1 55.6-22.1 55.6 22.1zm-56.9-22.7l-55.6-22.1 55.6-22.1 55.6 22.1zm-56.9-22.8l-55.5-22 55.6-22.2 55.5 22.1zm-56.9-22.5l-55.6-22.1 55.6-22.1 55.6 22.1zm-1.3.5l-55.6 22.1-55.6-22.2 55.6-22.1zm-57 22.7l-55.6 22.1-55.6-22.2 55.6-22.1zm-56.9 22.7l-55.6 22.1-55.6-22.2 55.6-22.1zm-56.9 22.6l-55.6 22.1-55.6-22.1 55.6-22.1zm-56.9 22.7l-55.6 22.1-55.6-22.1 55.6-22.1zm-56.9 22.7l-55.6 22.1-55.6-22.1 55.6-22.1zm-56.9 22.7l-55.5 22.1-55.6-22.2 55.6-22.1zm-56.9 22.6l-55.6 22.2-55.6-22.2 55.6-22.1zm-57 22.7l-55.6 22.1-55.6-22.1 55.6-22.1zm-56.8 22.8l-55.6 22.1-55.6-22.1 55.6-22.2zm-57 22.6l-55.6 22.1-55.6-22.1 55.6-22.1zm0 45.3l-55.6 22.2-55.6-22.1 55.6-22.1zm0 45.4L251.3 714l-55.6-22.1 55.6-22.1zm0 45.3l-55.6 22.1-55.6-22.1 55.6-22.2zm1.4.6l55.6 22.1-55.6 22.1-55.6-22.1zm1.3-.6l55.5-22.1 55.6 22.1-55.5 22.1zm112.5.6l55.6 22.1-55.5 22.1-55.6-22.1zm1.4-.6l55.6-22.1 55.5 22.1-55.5 22.2zm112.4.6l55.6 22.1-55.6 22.2-55.6-22.2zm57 22.8l55.5 22-55.6 22.2-55.5-22.1zm56.8 22.5l55.6 22.1-55.6 22.2-55.6-22.1zm1.3-.6l55.6-22.1 55.6 22.2-55.6 22.1zm112.6.6l55.6 22.1-55.6 22.2-55.5-22.1zm56.9 22.8L876 828l-55.6 22.2-55.5-22.2zm56.9 22.6l55.6 22.1-55.6 22.1-55.6-22.1zm1.3-.6l55.6-22.1 55.6 22.2-55.6 22.1zm112.5.6l55.6 22.1-55.5 22.1-55.7-22.1zm56.9 22.7l55.6 22.1-55.6 22.1-55.6-22.1zm1.4-.6l55.6-22.2 55.6 22.1-55.6 22.2zm112.5.6l55.6 22.1-55.6 22.1-55.6-22.1zm1.4-.6l55.5-22.1 55.6 22.1-55.5 22.1zm56.8-22.7l55.6-22.1 55.6 22.1-55.6 22.2zm56.9-22.6l55.6-22.1 55.6 22.1-55.6 22.2zm0-45.4l55.6-22.1 55.6 22.1-55.6 22.1zm0-45.3l55.6-22.1 55.6 22.1-55.6 22.1zm0-45.4l55.6-22.1 55.6 22.2-55.6 22.1zm0-45.3l55.6-22.1 55.6 22.1-55.6 22.1zm0-45.4l55.6-22.1 55.6 22.1-55.6 22.1zm0-45.4l55.6-22.1 55.6 22.1-55.6 22.1zm.1-45.3l55.6-22.1 55.5 22.1-55.6 22.1zm-1.4-.6l-55.6-22.2 55.6-22.1 55.6 22.1zm-56.9-22.7l-55.6-22.1 55.6-22.1 55.6 22.1zm-57-22.6l-55.6-22.1 55.6-22.1 55.6 22.1zm-56.9-22.7l-55.6-22.1 55.6-22.2 55.6 22.1zm-56.8-22.8l-55.6-22 55.6-22.2 55.6 22.1zm-57-22.5l-55.5-22.1 55.6-22.1 55.5 22.1zm-56.9-22.7l-55.6-22.1 55.6-22.1 55.6 22.1zm-56.9-22.7l-55.6-22.1 55.6-22.1 55.6 22.1zm-1.4.6l-55.5 22.1-55.6-22.1 55.6-22.1zm-56.9 22.6l-55.6 22.1-55.5-22.2 55.6-22.1zm-56.9 22.7l-55.6 22.1-55.6-22.1 55.6-22.1zm-56.9 22.7l-55.6 22.2-55.6-22.1 55.6-22.1zm-56.9 22.6l-55.6 22.1-55.6-22.1 55.6-22.1zm-56.9 22.7l-55.6 22.1-55.6-22.1 55.6-22.1zm-56.9 22.7l-55.5 22.1-55.6-22.1 55.6-22.1zm-57 22.7l-55.5 22.1-55.6-22.1 55.5-22.1zm-56.9 22.7l-55.6 22.2-55.6-22.1 55.6-22.1zm-56.9 22.6l-55.5 22.2-55.6-22.1 55.6-22.1zm-56.9 22.7l-55.6 22.1-55.6-22.1 55.6-22.1zm-168 68.1l55.6-22.2 55.6 22.1-55.6 22.2zm0 45.3l55.6-22.1 55.6 22.2-55.6 22.1zm0 45.4l55.6-22.2 55.6 22.1-55.6 22.2zm0 45.3l55.6-22.2 55.6 22.2-55.6 22.1zm56.8 22.7l55.6-22.1 55.6 22.1-55.6 22.1zm112.6 44.8l-55.6-22.1 55.6-22.2 55.6 22.1zm1.2-44.7l55.6-22.2 55.6 22.1-55.6 22.2zm112.6 44.7l-55.6-22.1 55.6-22.2 55.6 22.1zm1.4-44.8l55.6-22.1 55.5 22.1-55.5 22.2zm57 22.8l55.4-22.3 55.6 22.2-55.5 22.2zm56.8 22.5l55.5-22.1 55.6 22.2-55.5 22.1zm112.4 44.8l-55.6-22.1 55.6-22.1 55.6 22.1zM651 828l55.6-22.2 55.6 22.1-55.6 22.2zm57.1 22.6l55.5-22.1 55.6 22.1-55.6 22.1zm56.8 22.8l55.6-22.1 55.5 22-55.6 22.2zm112.5 44.7L821.8 896l55.6-22.1L933 896zm1.3-44.7l55.6-22.1 55.6 22.1-55.6 22.1zm56.9 22.6l55.6-22.1 55.6 22.1-55.6 22.1zm112.5 44.8l-55.6-22.1 55.6-22.1 55.6 22.1zm1.4-44.8l55.5-22.1 55.6 22.1-55.6 22.1zm112.5 44.8l-55.6-22.1 55.6-22.1 55.6 22.1zm56.9-22.7l-55.6-22.1 55.6-22.2 55.6 22.1zm56.9-22.6l-55.6-22.1 55.5-22.1 55.5 22.1zm56.9-22.8l-55.6-22.1 55.6-22.1 55.6 22.1zm112.5-44.7l-55.6 22.1L1334 828l55.6-22.1zm0-45.3l-55.6 22.1-55.6-22.2 55.6-22.1zm0-45.5l-55.6 22.2-55.6-22.2 55.6-22.1zm0-45.3l-55.6 22.1-55.6-22.1 55.6-22.1zm0-45.3l-55.6 22.1-55.6-22.1 55.6-22.1zm0-45.5l-55.6 22.2-55.6-22.2 55.6-22.1zm0-45.2l-55.6 22.1-55.6-22.1 55.6-22.1zm0-45.4l-55.6 22.1-55.6-22.1 55.6-22.1zm-55.5-67.5l55.5 22.1-55.6 22.1-55.5-22.1zm-57-22.8l55.6 22.2-55.6 22.1-55.6-22.2zm-1.4-.5l-55.6 22.1-55.6-22.1 55.6-22.1zm-56.9-22.6l-55.5 22.2-55.6-22.1 55.6-22.1zm-56.9-22.7l-55.6 22.1-55.6-22.1 55.6-22.1zM1105 329.6l55.6 22.1-55.6 22.1-55.6-22.1zm-56.9-22.7l55.5 22.2-55.6 22.1-55.5-22.2zm-56.9-22.6l55.6 22.1-55.6 22.1-55.6-22.1zm-57-22.7l55.6 22.1-55.6 22.1-55.6-22.1zm-56.8-22.8L933 261l-55.6 22.1-55.6-22.1zm-56.9 22.7l55.5 22.1-55.6 22.1-55.5-22.1zm-56.9 22.7l55.6 22.1-55.6 22.1-55.6-22.1zm-57 22.7l55.6 22.1-55.6 22.1L651 329zm-56.9 22.7l55.6 22.1-55.6 22.1-55.6-22.1zm-56.9 22.6l55.6 22.1-55.6 22.1-55.6-22.1zm-56.9 22.7l55.6 22.1-55.6 22.2-55.6-22.1zM479 397.6l55.6 22.1-55.6 22.1-55.6-22.1zm-56.9 22.7l55.6 22.1-55.6 22.1-55.6-22.1zM365.2 443l55.6 22.1-55.6 22.1-55.6-22.1zm-56.9 22.6l55.6 22.1-55.6 22.1-55.6-22.1zm-57 22.7l55.6 22.1-55.6 22.1-55.6-22.1zM194.5 511l55.6 22.1-55.7 22.2-55.5-22.2z"/><g id="Group-21-Copy"><g id="Group-17"><path id="Path" fill="url(#linear-gradient)" d="M1121.24 626.2l55.4 22-.3-208.6-55.1-23v209.6z"/><path id="Path-2-2" data-name="Path" fill="url(#linear-gradient-2)" d="M1176.64 648.2l55.3-22v-209l-55.6 22.4.3 208.6z"/><path id="Path-3" data-name="Path" fill="url(#linear-gradient-3)" d="M1121.24 416.6l55.4-21.1 55.3 21.7-55.6 22.4-55.1-23z"/><path id="Path-4" data-name="Path" fill="url(#linear-gradient-4)" d="M1136.44 414.7v-9.9l80.3.4v9.9l-40.3 16.2-40-16.6z"/><path id="Path-5" data-name="Path" fill="url(#linear-gradient-5)" d="M1136.44 404.8l40.2-15.3 40.1 15.7-40.3 16.2-40-16.6z"/><g id="Group-15"><path id="Path-6" data-name="Path" fill="url(#linear-gradient-6)" d="M1170.52 445.75v23.2l-19.4-7.7v-23.3l19.4 7.8z"/><path id="Path-Copy-42" fill="url(#linear-gradient-7)" d="M1170.52 474.25v23.2l-19.4-7.7v-23.2l19.4 7.7z"/><path id="Path-7" data-name="Path" fill="url(#linear-gradient-8)" d="M1146.32 436.15v23.3l-19.4-7.8v-23.2l19.4 7.7z"/><path id="Path-Copy-43" fill="url(#linear-gradient-9)" d="M1146.32 464.65v23.3l-19.4-7.8v-23.2l19.4 7.7z"/><path id="Path-Copy-45" fill="url(#linear-gradient-10)" d="M1170.52 501.95v23.2l-19.4-7.7v-23.3l19.4 7.8z"/><path id="Path-Copy-44" fill="url(#linear-gradient-11)" d="M1146.32 492.35v23.3l-19.4-7.8v-23.2l19.4 7.7z"/><path id="Path-Copy-47" fill="url(#linear-gradient-12)" d="M1170.52 529.65v23.2l-19.4-7.8v-23.2l19.4 7.8z"/><path id="Path-Copy-46" fill="url(#linear-gradient-13)" d="M1146.32 520.05v23.2l-19.4-7.7v-23.2l19.4 7.7z"/><path id="Path-Copy-49" fill="url(#linear-gradient-14)" d="M1170.52 557.25v23.3l-19.4-7.8v-23.2l19.4 7.7z"/><path id="Path-Copy-48" fill="url(#linear-gradient-15)" d="M1146.32 547.75v23.2l-19.4-7.7v-23.3l19.4 7.8z"/><path id="Path-Copy-51" fill="url(#linear-gradient-16)" d="M1170.52 584.95v23.3l-19.4-7.8v-23.2l19.4 7.7z"/><path id="Path-Copy-50" fill="url(#linear-gradient-17)" d="M1146.32 575.45v23.2l-19.4-7.8v-23.2l19.4 7.8z"/><path id="Path-Copy-53" fill="url(#linear-gradient-18)" d="M1170.52 612.65v23.2l-19.4-7.7v-23.2l19.4 7.7z"/><path id="Path-Copy-52" fill="url(#linear-gradient-19)" d="M1146.32 603.05v23.3l-19.4-7.8v-23.2l19.4 7.7z"/></g><g id="Group-15-Copy"><path id="Path-8" data-name="Path" class="cls-23" d="M1181.62 445.75l.1 23.2 19.4-7.7v-23.3l-19.5 7.8z"/><path id="Path-Copy-42-2" data-name="Path-Copy-42" class="cls-23" d="M1181.62 474.25l.1 23.2 19.4-7.7v-23.2l-19.5 7.7z"/><path id="Path-9" data-name="Path" class="cls-23" d="M1205.82 436.15l.1 23.3 19.4-7.8v-23.2l-19.5 7.7z"/><path id="Path-Copy-43-2" data-name="Path-Copy-43" class="cls-23" d="M1205.82 464.65l.1 23.3 19.4-7.8v-23.2l-19.5 7.7z"/><path id="Path-Copy-45-2" data-name="Path-Copy-45" class="cls-23" d="M1181.62 501.95l.1 23.2 19.4-7.7v-23.3l-19.5 7.8z"/><path id="Path-Copy-44-2" data-name="Path-Copy-44" class="cls-23" d="M1205.82 492.35l.1 23.3 19.4-7.8v-23.2l-19.5 7.7z"/><path id="Path-Copy-47-2" data-name="Path-Copy-47" class="cls-23" d="M1181.62 529.65l.1 23.2 19.4-7.8v-23.2l-19.5 7.8z"/><path id="Path-Copy-46-2" data-name="Path-Copy-46" class="cls-23" d="M1205.82 520.05l.1 23.2 19.4-7.7v-23.2l-19.5 7.7z"/><path id="Path-Copy-49-2" data-name="Path-Copy-49" class="cls-23" d="M1181.62 557.25l.1 23.3 19.4-7.8v-23.2l-19.5 7.7z"/><path id="Path-Copy-48-2" data-name="Path-Copy-48" class="cls-23" d="M1205.82 547.75l.1 23.2 19.4-7.7v-23.3l-19.5 7.8z"/><path id="Path-Copy-51-2" data-name="Path-Copy-51" class="cls-23" d="M1181.62 584.95l.1 23.3 19.4-7.8v-23.2l-19.5 7.7z"/><path id="Path-Copy-50-2" data-name="Path-Copy-50" class="cls-23" d="M1205.82 575.45l.1 23.2 19.4-7.8v-23.2l-19.5 7.8z"/><path id="Path-Copy-53-2" data-name="Path-Copy-53" class="cls-23" d="M1181.62 612.65l.1 23.2 19.4-7.7v-23.2l-19.5 7.7z"/><path id="Path-Copy-52-2" data-name="Path-Copy-52" class="cls-23" d="M1205.82 603.05l.1 23.3 19.4-7.8v-23.2l-19.5 7.7z"/></g><path id="Path-10" data-name="Path" style="isolation:isolate" fill="url(#linear-gradient-20)" opacity=".5" d="M1176.64 648.2l62.6 25 55.4-22.1-62.7-24.9-55.3 22z"/><path id="Path-11" data-name="Path" style="isolation:isolate" fill="url(#linear-gradient-21)" opacity=".5" d="M1176.44 431.3l10.2 4.1 41.6-16.7-11.5-3.6-40.3 16.2z"/></g><g id="Group-18"><g id="house1"><path id="Path-12" data-name="Path" fill="url(#linear-gradient-22)" d="M983.4 643.59l64.6 25.6-.3-178.9-64.3-26.8v180.1z"/><path id="Path-13" data-name="Path" fill="url(#linear-gradient-23)" d="M1048 669.19l64.6-25.6v-179.5l-64.9 26.2.3 178.9z"/><path id="Path-14" data-name="Path" fill="url(#linear-gradient-24)" d="M983.4 463.49l64.6-24.6 64.6 25.2-64.9 26.2-64.3-26.8z"/><path id="Path-15" data-name="Path" class="cls-23" d="M1055.3 496.39l.1 27.1 22.7-9.1v-27l-22.8 9z"/><path id="Path-16" data-name="Path" class="cls-23" d="M1083.6 485.19l.1 27.1 22.6-9v-27.1l-22.7 9z"/><path id="Path-17" data-name="Path" class="cls-23" d="M1055.3 529.09l.1 27.1 22.7-9.1v-27l-22.8 9z"/><path id="Path-18" data-name="Path" class="cls-23" d="M1083.6 517.89l.1 27.1 22.6-9v-27.1l-22.7 9z"/><path id="Path-19" data-name="Path" class="cls-23" d="M1055.3 561.79l.1 27.1 22.7-9v-27.1l-22.8 9z"/><path id="Path-20" data-name="Path" class="cls-23" d="M1083.6 550.69l.1 27.1 22.6-9.1v-27l-22.7 9z"/><path id="Path-21" data-name="Path" class="cls-23" d="M1055.3 594.59l.1 27 22.7-9v-27.1l-22.8 9.1z"/><path id="Path-22" data-name="Path" class="cls-23" d="M1083.6 583.39l.1 27.1 22.6-9.1v-27l-22.7 9z"/><path id="Path-23" data-name="Path" class="cls-23" d="M1055.3 627.29l.1 27.1 22.7-9.1v-27l-22.8 9z"/><path id="Path-24" data-name="Path" class="cls-23" d="M1083.6 616.09l.1 27.1 22.6-9v-27.1l-22.7 9z"/><path id="Path-25" data-name="Path" fill="url(#linear-gradient-25)" d="M1041 496.39l-.1 27.1-22.7-9.1v-27l22.8 9z"/><path id="Path-Copy-34" fill="url(#linear-gradient-26)" d="M1041 529.29l-.1 27.1-22.7-9v-27.1l22.8 9z"/><path id="Path-26" data-name="Path" fill="url(#linear-gradient-27)" d="M1012.7 485.19v27.1l-22.7-9v-27.1l22.7 9z"/><path id="Path-Copy-35" fill="url(#linear-gradient-28)" d="M1012.7 518.19v27.1l-22.7-9.1v-27l22.7 9z"/><path id="Path-Copy-37" fill="url(#linear-gradient-29)" d="M1041 562.49l-.1 27.1-22.7-9.1v-27l22.8 9z"/><path id="Path-Copy-36" fill="url(#linear-gradient-30)" d="M1012.7 551.39v27l-22.7-9v-27.1l22.7 9.1z"/><path id="Path-Copy-39" fill="url(#linear-gradient-31)" d="M1041 595.69l-.1 27-22.7-9v-27.1l22.8 9.1z"/><path id="Path-Copy-38" fill="url(#linear-gradient-32)" d="M1012.7 584.49v27.1l-22.7-9.1v-27l22.7 9z"/><path id="Path-Copy-41" fill="url(#linear-gradient-33)" d="M1041 628.79l-.1 27.1-22.7-9v-27.1l22.8 9z"/><path id="Path-Copy-40" fill="url(#linear-gradient-34)" d="M1012.7 617.69v27.1l-22.7-9.1v-27l22.7 9z"/><path id="Path-27" data-name="Path" style="isolation:isolate" fill="url(#linear-gradient-35)" opacity=".5" d="M1048 669.19l73.2 29.1 64.6-25.7-73.2-29-64.6 25.6z"/></g><g id="Group-16"><path id="Path-Copy-56" fill="url(#linear-gradient-36)" d="M1009.47 463.93v-9.2l74.4.4v9.19l-37.4 15-37-15.39z"/><path id="Path-Copy-55" fill="url(#linear-gradient-37)" d="M1009.47 454.73l37.2-14.1 37.2 14.5-37.4 15.1-37-15.5z"/><path id="Path-Copy-54" style="isolation:isolate" fill="url(#linear-gradient-38)" opacity=".5" d="M1061.17 484.93l38.6-15.61-15.9-5-37.4 15 14.7 5.61z"/></g></g></g><path id="Path-7-2" data-name="Path-7" d="M988 603l-53.7 21.7a2 2 0 0 0-1.1 2.6 2 2 0 0 0 1.1 1.1l48.1 19.4a2 2 0 0 1 1.1 2.6 2 2 0 0 1-1.1 1.1l-104.3 41.9a2 2 0 0 0-1.1 2.6 2 2 0 0 0 1.1 1.1l111 43.7a2 2 0 0 0 2.6-1.1 2.2 2.2 0 0 0 .1-.8" stroke-linecap="round" stroke-dasharray="2" stroke="#fff" fill="none"/><ellipse id="Oval-Copy" cx="985.9" cy="741" rx="39" ry="16" style="isolation:isolate" stroke-width=".8" opacity=".7" stroke="#fff" fill="none"/><ellipse id="Oval-Copy-3" cx="986.4" cy="740" rx="24.5" ry="10" stroke="#fff" fill="none"/><ellipse id="Oval-Copy-4" cx="986.4" cy="739.5" rx="8.5" ry="3.5" fill="#fff" stroke="#fff"/><ellipse id="Oval-Copy-5" cx="785.4" cy="660.5" rx="3.5" ry="1.5" fill="#fff"/><g id="SHADOW-Copy" opacity=".5"><path id="Path-28" data-name="Path" fill="url(#linear-gradient-39)" d="M822.9 278v262.7l66 26.3V304.3l-66-26.3z"/></g><g id="SHADOW-Copy-3" opacity=".4"><path id="Path-29" data-name="Path" fill="url(#linear-gradient-40)" d="M769.9 915.5l13 5.1V384.1l-13-5.1v536.5z"/></g><g id="SHADOW-Copy-4" opacity=".1"><path id="Path-30" data-name="Path" fill="url(#linear-gradient-41)" d="M988.9 787.5l13 5.1V256.1l-13-5.1v536.5z"/></g><path id="Path-31" data-name="Path" fill="url(#linear-gradient-42)" d="M1191.6 840l-36.7 13-171.5-68 36.6-13 171.6 68z"/><path id="Path-32" data-name="Path" d="M1012.8 414.1l-152-60.6a20.51 20.51 0 0 0-15.4 0l-.9.4-18.1 7.6 6.4 6.5a20.74 20.74 0 0 0-.6 5v318.9a28 28 0 0 0 17.7 26.1l147.7 58.9.4 9.7 17.3-7.3a20.76 20.76 0 0 0 15.1-20.1v-319a27.78 27.78 0 0 0-17.6-26.1z" fill="url(#linear-gradient-43)"/><path id="Path-33" data-name="Path" d="M814.4 699.3V380.4a20.93 20.93 0 0 1 28.7-19.4l152 60.6a28.12 28.12 0 0 1 17.7 26.1v318.9a20.93 20.93 0 0 1-28.7 19.4l-152-60.6a28.12 28.12 0 0 1-17.7-26.1z" fill="url(#linear-gradient-44)"/><path id="Path-34" data-name="Path" d="M821 698.8V379.6a12.26 12.26 0 0 1 5.4-10.2 11.93 11.93 0 0 1 11.4-1.2l153.4 61.1a21 21 0 0 1 13.2 19.5V768a12.23 12.23 0 0 1-16.8 11.4l-153.4-61.1a21 21 0 0 1-13.2-19.5z" fill="url(#linear-gradient-45)"/><path id="Path-35" data-name="Path" style="isolation:isolate" fill="url(#linear-gradient-46)" opacity=".49" d="M768.3 660.9l132.2-52.7 58.2 96.7-132.2 52.6-58.2-96.6z"/><path id="Path-Copy-14" style="isolation:isolate" fill="url(#linear-gradient-47)" opacity=".49" d="M900.5 608.2l58.1 36.6-132.2 52.7-58.1-36.6 132.2-52.7z"/><path id="Path-36" data-name="Path" d="M831.9 698.5v51.2a8 8 0 0 1-3.4 6.5 7.61 7.61 0 0 1-7.3.8l-43-17.1a22.52 22.52 0 0 1-14.1-20.9v-51.1a8 8 0 0 1 3.4-6.5 7.64 7.64 0 0 1 7.3-.8l43 17.1a22.38 22.38 0 0 1 14.1 20.8z" fill="url(#linear-gradient-48)"/><path id="Path-37" data-name="Path" style="isolation:isolate" fill="url(#linear-gradient-49)" opacity=".49" d="M765.8 524.2L898 471.5l60.7 126.4-132.2 52.7-60.7-126.4z"/><path id="Path-Copy-13" style="isolation:isolate" fill="url(#linear-gradient-50)" opacity=".49" d="M898 471.5l60.6 34.8L826.4 559l-60.6-34.8L898 471.5z"/><path id="Path-38" data-name="Path" d="M831.9 560v82.7a8 8 0 0 1-3.4 6.5 7.61 7.61 0 0 1-7.3.8l-43-17.1a22.52 22.52 0 0 1-14.1-20.9v-82.7a8 8 0 0 1 3.4-6.5 7.64 7.64 0 0 1 7.3-.8l43 17.1a22.62 22.62 0 0 1 14.1 20.9z" fill="url(#linear-gradient-51)"/><path id="Path-39" data-name="Path" style="isolation:isolate" fill="url(#linear-gradient-52)" opacity=".49" d="M768.3 417.1l132.2-52.7 144.4 130.7-132.2 52.7-144.4-130.7z"/><path id="Path-40" data-name="Path" style="isolation:isolate" fill="url(#linear-gradient-53)" opacity=".55" d="M1004.4 500.9v256.9l-90.3 35.5-59.6-232.7 149.9-59.7z"/><path id="Path-Copy-15" style="isolation:isolate" fill="url(#linear-gradient-54)" opacity=".55" d="M1004.4 500.9l6.3 66.6-90.3 35.5-65.9-42.4 149.9-59.7z"/><path id="Path-41" data-name="Path" d="M919.8 489.4v51.2a8 8 0 0 1-3.4 6.5 7.64 7.64 0 0 1-7.3.8l-130.8-51.8a22.52 22.52 0 0 1-14.1-20.9v-51.1a8 8 0 0 1 3.4-6.5 7.61 7.61 0 0 1 7.3-.8l130.7 51.8a22.33 22.33 0 0 1 14.2 20.8z" fill="url(#linear-gradient-55)"/><path id="Path-42" data-name="Path" d="M920.6 597.5v187.8a8 8 0 0 1-3.4 6.5 7.64 7.64 0 0 1-7.3.8l-43-17.2a22.52 22.52 0 0 1-14.1-20.9V566.9a8 8 0 0 1 3.4-6.5 7.64 7.64 0 0 1 7.3-.8l43 17.1a22.49 22.49 0 0 1 14.1 20.8z" fill="url(#linear-gradient-56)"/><g id="SHADOW-Copy-2"><path id="Path-43" data-name="Path" fill="url(#linear-gradient-57)" d="M888.9 440v262.7l66 26.3V466.3l-66-26.3z"/></g><g id="house-copy"><path id="Path-44" data-name="Path" fill="url(#linear-gradient-58)" d="M1305.6 623.4V697l-29.8 12.1-1.1-73.4 30.9-12.3z"/><path id="Path-45" data-name="Path" style="isolation:isolate" fill="url(#linear-gradient-59)" opacity=".64" d="M1352 715.5l-46.4-18.6-31.9 12.7 46.4 18.5 31.9-12.6z"/><path id="Path-46" data-name="Path" class="cls-23" d="M1296.3 657.4v-23.9l-20 8v23.9l20-8z"/><path id="Path-47" data-name="Path" class="cls-23" d="M1296.3 693.1v-23.9l-20 7.9v24l20-8z"/><path id="Path-48" data-name="Path" fill="url(#linear-gradient-60)" d="M1290.1 716v-74.1l-61.9 24.7v74.1l61.9-24.7z"/><path id="Path-49" data-name="Path" fill="url(#linear-gradient-61)" d="M1228.2 740.7l-92.8-37.1v-74.1l92.8 37.1v74.1z"/><path id="Path-50" data-name="Path" fill="url(#linear-gradient-62)" d="M1228.2 666.6l61.9-24.7-15.4-6.2 30.9-12.3-77.4-30.9-92.8 37 92.8 37.1z"/><path id="Path-Copy-33" style="isolation:isolate" opacity=".2" fill="url(#linear-gradient-63)" d="M1278.4 628.1l-46.4-18.5-61.9 24.7v6.1l61.9-24.7 46.4 18.6v-6.2z"/><path id="Path-51" data-name="Path" fill="url(#linear-gradient-64)" d="M1274.7 623.4l-46.5-18.6-61.9 24.7v6.2l61.9-24.7 46.5 18.5v-6.1z"/><path id="Path-52" data-name="Path" fill="url(#linear-gradient-65)" d="M1243.8 641.9l22.9 9.1v-6.1l-22.9-9.2v6.2z"/><path id="Shape" d="M1305.6 623.4l-77.4-30.9-92.9 37.1 92.9 37.1 61.9-24.8-15.5-6.2zm-77.4 30.8l-61.9-24.7 61.9-24.7 46.4 18.5-31 12.4 15.5 6.2z" fill="url(#linear-gradient-66)"/><path id="Path-53" data-name="Path" fill="url(#linear-gradient-67)" d="M1141.7 663.2v-23.9l19.9 8v23.9l-19.9-8z"/><path id="Path-54" data-name="Path" fill="url(#linear-gradient-68)" d="M1170.7 674.8v-24l20 8v23.9l-20-7.9z"/><path id="Path-55" data-name="Path" fill="url(#linear-gradient-69)" d="M1199.8 686.3v-23.9l20 8v23.9l-20-8z"/><path id="Path-Copy-28" fill="url(#linear-gradient-70)" d="M1141.7 699.3v-24l19.9 8v23.9l-19.9-7.9z"/><path id="Path-Copy-27" fill="url(#linear-gradient-71)" d="M1170.7 710.8v-23.9l20 8v23.9l-20-8z"/><path id="Path-Copy-19" fill="url(#linear-gradient-72)" d="M1199.8 722.4v-24l20 8v23.9l-20-7.9z"/><path id="Path-Copy-32" class="cls-23" d="M1256.1 688v-23.9l-20 8V696l20-8z"/><path id="Path-Copy-31" class="cls-23" d="M1285.2 676.8v-23.9l-20 8v23.9l20-8z"/><path id="Path-Copy-30" class="cls-23" d="M1256.1 724.1v-23.9l-20 7.9v24l20-8z"/><path id="Path-Copy-29" class="cls-23" d="M1285.2 712.9V689l-20 7.9v24l20-8z"/><path id="Path-56" data-name="Path" style="isolation:isolate" fill="url(#linear-gradient-73)" opacity=".64" d="M1228.2 740.8l46.5 18.5 61.9-24.7-46.5-18.5-61.9 24.7z"/></g></g></g></svg>