<svg width="427" height="234" xmlns="http://www.w3.org/2000/svg"><defs><linearGradient x1="61.075%" y1="55.59%" x2="42.191%" y2="43.695%" id="a"><stop stop-color="#77C4DF" stop-opacity="0" offset="0%"/><stop stop-color="#114758" offset="100%"/></linearGradient><linearGradient x1="105.98%" y1="-26.282%" x2="91.387%" y2="82.132%" id="b"><stop stop-color="#AC9370" offset="0%"/><stop stop-color="#594834" offset="100%"/></linearGradient><linearGradient x1="70.847%" y1="42.402%" x2="64.837%" y2="50%" id="c"><stop stop-color="#FEE8C4" offset="0%"/><stop stop-color="#FFF" offset="100%"/></linearGradient><linearGradient x1="58.909%" y1="18.114%" x2="58.909%" y2="100%" id="d"><stop stop-color="#FFC04D" offset="0%"/><stop stop-color="#C58409" offset="100%"/></linearGradient><linearGradient x1="123.488%" y1="68.645%" x2="5.944%" y2="41.57%" id="e"><stop stop-color="#F9B231" offset="0%"/><stop stop-color="#FFFAF4" offset="100%"/></linearGradient></defs><g fill="none" fill-rule="evenodd"><path d="M182.645 5.715L83.91 45.057c-8.276 3.286-11.13 10.657-6.35 16.371a15.78 15.78 0 0 0 6.321 4.286l8.376 3.343c5.593 2.242 7.505 7.142 4.28 11.07a10.687 10.687 0 0 1-4.28 2.972L9.73 116.3c-9.303 3.728-12.484 12-7.134 18.456a17.778 17.778 0 0 0 7.134 4.943l30.92 12.371c5.592 2.229 7.518 7.143 4.28 11.071a10.658 10.658 0 0 1-4.28 2.972l-16.623 6.742c-5.593 2.229-7.52 7.143-4.28 11.072a10.515 10.515 0 0 0 4.28 2.971l80.814 32.328a86.765 86.765 0 0 0 62.251 0l78.931-31.57a54.157 54.157 0 0 1 38.91 0l12.64 5.042a54.157 54.157 0 0 0 38.895 0l80.786-32.3c9.317-3.728 12.513-12 7.134-18.456a17.692 17.692 0 0 0-7.134-4.972l-82.384-32.856c-5.593-2.243-7.519-7.143-4.28-11.085a10.786 10.786 0 0 1 4.28-2.972l30.834-12.485c9.33-3.729 12.527-11.986 7.134-18.457a17.75 17.75 0 0 0-7.134-4.957l-120.95-48.37a86.722 86.722 0 0 0-62.11-.072z" fill="#F0F2F5"/><path fill="url(#a)" fill-rule="nonzero" opacity=".64" d="M253.974 195.407l85.91-37.737-116.948-46.014-94.342 34.42z" transform="translate(51 42)"/><path d="M42.852 110.025v-30.71c0-4.957 7.428-8.059 13.376-5.58l59.64 24.848c7.873 3.281 12.734 9.348 12.734 15.954v31.52l-85.75-36.032z" fill="url(#b)" fill-rule="nonzero" transform="translate(51 42)"/><path fill-opacity=".3" fill="#033144" d="M110.213 140.88v6l49.367 21.114v-6.662z"/><path fill="url(#c)" fill-rule="nonzero" d="M63.893 104l42.367 17.029-60.71 36.061L0 138.18z" transform="translate(51 42)"/><path d="M128.602 145.96v-30.423c0-6.606-4.86-12.673-12.734-15.954l-59.64-24.849c-5.948-2.478-13.376.624-13.376 5.58v29.807l-9.593-4.01c-4.844-2.034-7.822-5.768-7.822-9.81V39.52c0-5.417 2.413-9.203 7.385-11.399L228.61 44.083l8.49 3.538c4.62 1.803 7.385 5.016 7.385 8.81v59.72c0 4.05-2.995 7.793-7.856 9.818l-49.559 20.97c-17.407 7.254-38.861 7.237-56.251-.052l-2.217-.926z" fill="url(#d)" fill-rule="nonzero" transform="translate(51 42)"/><path d="M32.822 28.121L89.998 4.29a57.77 57.77 0 0 1 43.08 0l103.996 43.349c6.632 2.768 6.632 9.681 0 12.441l-57.175 23.832a57.77 57.77 0 0 1-43.081 0L32.822 40.563c-6.632-2.76-6.632-9.673 0-12.442z" fill="url(#e)" fill-rule="nonzero" transform="translate(51 42)"/><path d="M80.27 173.734l.701-.367c.298-.156.803-.171 1.127-.033l18.074 7.694c.324.138.345.377.047.533l-.7.366c-.3.157-.803.171-1.127.034l-18.075-7.695c-.324-.138-.344-.376-.046-.532zm3.598-1.864l4.246-2.223c.299-.156.803-.171 1.127-.033l18.052 7.685c.324.138.345.376.047.532l-4.247 2.224c-.298.156-.802.17-1.126.033l-18.053-7.685c-.324-.138-.344-.376-.046-.533zm17.893-9.37l4.247-2.223c.298-.156.802-.17 1.126-.033l18.053 7.685c.324.138.344.377.046.533l-4.246 2.223c-.298.156-.803.171-1.127.033l-18.052-7.685c-.324-.138-.345-.376-.047-.532zm-10.763 5.617l.7-.367c.299-.156.803-.171 1.127-.033l18.074 7.694c.324.138.345.376.047.533l-.7.366c-.299.157-.803.171-1.127.034l-18.075-7.695c-.323-.138-.344-.376-.046-.532zm3.576-1.873l.7-.366c.298-.157.803-.171 1.127-.034l18.074 7.695c.324.138.345.376.046.532l-.7.367c-.298.156-.802.171-1.126.033l-18.075-7.694c-.324-.138-.344-.377-.046-.533zm3.576-1.872l.7-.367c.298-.156.802-.17 1.126-.033l18.075 7.695c.324.137.344.376.046.532l-.7.367c-.298.156-.803.17-1.127.033l-18.074-7.695c-.324-.138-.345-.376-.046-.532zm10.727-5.617l.7-.367c.298-.156.803-.17 1.127-.033l18.074 7.695c.324.137.345.376.046.532l-.7.367c-.298.156-.803.17-1.126.033l-18.075-7.695c-.324-.138-.345-.376-.046-.532zm-7.168 24.105l.7-.367c.298-.156.803-.17 1.126-.033l.76.324c.325.138.346.376.047.532l-.7.367c-.298.156-.803.17-1.127.033l-.76-.324c-.324-.138-.345-.376-.046-.532zm7.151-3.745l.7-.367c.299-.156.803-.17 1.127-.033l.76.324c.324.138.345.376.047.533l-.7.366c-.299.156-.803.171-1.127.033l-.76-.323c-.324-.138-.345-.377-.047-.533zm3.576-1.872l.7-.367c.298-.156.803-.17 1.127-.033l.76.324c.324.138.345.376.046.532l-.7.367c-.298.156-.802.17-1.126.033l-.76-.324c-.325-.138-.345-.376-.047-.532zm7.151-3.745l.7-.367c.299-.156.803-.17 1.127-.033l.76.324c.324.138.345.376.047.532l-.7.367c-.299.156-.803.171-1.127.033l-.76-.323c-.324-.138-.345-.377-.047-.533zm7.152-3.745l.7-.366c.298-.156.803-.171 1.127-.033l.76.323c.324.138.345.377.046.533l-.7.367c-.298.156-.803.17-1.126.033l-.76-.324c-.325-.138-.346-.376-.047-.533zm3.575-1.872l.7-.367c.3-.156.803-.17 1.127-.033l.76.324c.325.138.345.376.047.532l-.7.367c-.298.156-.803.171-1.127.033l-.76-.323c-.324-.138-.345-.377-.047-.533z" fill="#033144" fill-rule="nonzero"/><path d="M142.262 82.54l52.635 20.91a4 4 0 0 0 2.99-.015l35.123-14.357a2 2 0 0 0-.019-3.71l-53.172-21.086a4 4 0 0 0-3.024.03l-34.57 14.526a2 2 0 0 0 .037 3.702z" fill-opacity=".3" fill="#6F5C44"/><path d="M141.322 81.666l35.463-14.864a4 4 0 0 1 3.04-.022l53.972 21.706c.773-1.144.63-2.118-.43-2.922-1.657-.752-19.508-7.847-53.554-21.287a4 4 0 0 0-3.013.03c-20.54 8.594-31.794 13.333-33.763 14.219-1.872.638-2.444 1.684-1.715 3.14z" fill-opacity=".3" fill="#6F5C44"/></g></svg>