<svg width="710" height="474" xmlns="http://www.w3.org/2000/svg"><defs><radialGradient cx="-7.25%" cy="0%" fx="-7.25%" fy="0%" r="158.698%" gradientTransform="matrix(.32427 .08079 -.0163 .6181 -.049 .006)" id="a"><stop stop-color="#FDA916" stop-opacity=".776" offset="0%"/><stop stop-color="#F2D469" offset="32.97%"/><stop stop-color="#50BED3" offset="100%"/></radialGradient><linearGradient x1="61.075%" y1="55.292%" x2="33.969%" y2="40.776%" id="b"><stop stop-color="#77C4DF" stop-opacity="0" offset="0%"/><stop stop-color="#114758" offset="100%"/></linearGradient><linearGradient x1="58.909%" y1="18.114%" x2="58.909%" y2="100%" id="c"><stop stop-color="#FFC04D" offset="0%"/><stop stop-color="#C58409" offset="100%"/></linearGradient><linearGradient x1="123.488%" y1="68.702%" x2="5.944%" y2="41.544%" id="d"><stop stop-color="#F9B231" offset="0%"/><stop stop-color="#FFFAF4" offset="100%"/></linearGradient><linearGradient x1="4.059%" y1="32.498%" x2="91.387%" y2="65.774%" id="e"><stop stop-color="#AC9370" offset="0%"/><stop stop-color="#594834" offset="100%"/></linearGradient><linearGradient x1="105.98%" y1="-28.968%" x2="91.387%" y2="83.263%" id="f"><stop stop-color="#AC9370" offset="0%"/><stop stop-color="#594834" offset="100%"/></linearGradient><linearGradient x1="31.351%" y1="66.168%" x2="41.3%" y2="50%" id="g"><stop stop-color="#FEE8C4" offset="0%"/><stop stop-color="#FFF" offset="100%"/></linearGradient><linearGradient x1="70.847%" y1="42.313%" x2="62.455%" y2="50%" id="h"><stop stop-color="#FEE8C4" offset="0%"/><stop stop-color="#FFF" offset="100%"/></linearGradient><linearGradient x1="76.595%" y1="64.517%" x2="14.38%" y2="44.537%" id="i"><stop stop-color="#77C4DF" stop-opacity="0" offset="0%"/><stop stop-color="#114758" offset="100%"/></linearGradient><linearGradient x1="59.377%" y1="75.808%" x2="36.367%" y2="8.397%" id="j"><stop stop-color="#F9B231" offset="0%"/><stop stop-color="#FFFAF4" offset="100%"/></linearGradient><linearGradient x1="40.131%" y1="1.068%" x2="58.891%" y2="94.102%" id="k"><stop stop-color="#AC9370" offset="0%"/><stop stop-color="#594834" offset="100%"/></linearGradient><linearGradient x1="59.865%" y1="102.117%" x2="40.135%" y2="4.811%" id="l"><stop stop-color="#FEE8C4" offset="0%"/><stop stop-color="#FFF" offset="100%"/></linearGradient><linearGradient x1="-.36%" y1="49.995%" x2="108.523%" y2="49.995%" id="m"><stop stop-color="#AC9370" offset="0%"/><stop stop-color="#594834" offset="100%"/></linearGradient><linearGradient x1="90.998%" y1="54.868%" x2="4.376%" y2="42.422%" id="n"><stop stop-color="#77C4DF" stop-opacity="0" offset="0%"/><stop stop-color="#114758" offset="100%"/></linearGradient><linearGradient x1="94.992%" y1="54.807%" x2="3.56%" y2="42.42%" id="o"><stop stop-color="#77C4DF" stop-opacity="0" offset="0%"/><stop stop-color="#114758" offset="100%"/></linearGradient><linearGradient x1="0%" y1="50%" x2="108.873%" y2="50%" id="p"><stop stop-color="#AC9370" offset="0%"/><stop stop-color="#594834" offset="100%"/></linearGradient><linearGradient x1="0%" y1="50%" x2="108.884%" y2="50%" id="q"><stop stop-color="#AC9370" offset="0%"/><stop stop-color="#594834" offset="100%"/></linearGradient><linearGradient x1="30.861%" y1="41.404%" x2="51.792%" y2="50.543%" id="r"><stop stop-color="#AC9370" offset="0%"/><stop stop-color="#594834" offset="100%"/></linearGradient><linearGradient x1="66.871%" y1="60.025%" x2="39.675%" y2="43.764%" id="s"><stop stop-color="#FFCB6C" offset="0%"/><stop stop-color="#FFFAF4" offset="100%"/></linearGradient><linearGradient x1="51.293%" y1="53.103%" x2="40.416%" y2="43.623%" id="t"><stop stop-color="#77C4DF" stop-opacity="0" offset="0%"/><stop stop-color="#114758" offset="100%"/></linearGradient></defs><g fill="none" fill-rule="evenodd"><path d="M413.958 500.762l63.007-25.129a116.889 116.889 0 0 1 83.508 0l503.01 200.615a116.54 116.54 0 0 0 83.508 0l939.762-374.965c14.977-5.96 20.107-19.19 11.462-29.517a28.382 28.382 0 0 0-11.266-7.838L1832.3 160.837a72.832 72.832 0 0 0-52.397-.131l-25.5 10.174a72.94 72.94 0 0 1-52.244 0L1294.096 7.75a116.78 116.78 0 0 0-83.595 0l-245.152 97.743a116.802 116.802 0 0 1-82.744.305L779.995 65.89a116.845 116.845 0 0 0-82.679.262L15.676 337.284c-14.977 5.96-20.042 19.19-11.484 29.495a28.622 28.622 0 0 0 11.418 7.903l314.71 126.037a116.67 116.67 0 0 0 83.638.043z" fill="url(#a)" transform="translate(0 -62)"/><g fill-rule="nonzero"><path fill="url(#b)" opacity=".64" d="M69.26 97.24l121.443 47.855 50.034-18.282-121.444-47.855z" transform="translate(469 104)"/><path d="M18.468 34.589c-2.637 1.166-3.917 3.177-3.917 6.054v30.16c0 2.146 1.58 4.13 4.148 5.21L70.44 97.67c9.223 3.871 20.6 3.88 29.832.027l26.284-11.138c2.577-1.075 4.166-3.063 4.166-5.215v-31.72c0-2.015-1.466-3.722-3.917-4.68l-4.502-1.878" fill="url(#c)" transform="translate(469 104)"/><path d="M18.468 34.589L48.79 21.93a30.595 30.595 0 0 1 22.847 0l55.154 23.024c3.517 1.47 3.517 5.142 0 6.608L96.468 64.221a30.595 30.595 0 0 1-22.847 0L18.468 41.197c-3.518-1.466-3.518-5.138 0-6.608z" fill="url(#d)" transform="translate(469 104)"/><path d="M57.314 26.088L76.83 5.864c1.992-2.06 5.827-2.682 8.845-1.434l40.394 16.706c4.293 1.78 5.546 5.832 2.723 8.764l-17.773 18.377-6.808 3.395-53.973-22.334 7.076-3.25z" fill="url(#e)" transform="translate(469 104)"/><path d="M23.787 77.365V60.717c0-2.632 3.94-4.28 7.094-2.963l31.63 13.198c4.175 1.743 6.753 4.965 6.753 8.474v17.36" fill="url(#f)" transform="translate(469 104)"/><path fill="url(#g)" d="M57.876 32.501L88.394 0l40.303 16.675-30.55 32.492z" transform="translate(469 104)"/><path fill="url(#h)" d="M0 88.294L33.885 70.14 69.26 84.777v4.674l-28.974 15.495z" transform="translate(469 104)"/></g><g fill-rule="nonzero"><path fill="url(#i)" opacity=".64" d="M159.296 209.815l11.472-4.325-91.326-35.988-11.472 4.328z" transform="translate(544 214)"/><path d="M79.496 24.858L18.626.601a8.3 8.3 0 0 0-6.182 0l-.34.146-7.268 3.025 2.56 2.597a8.403 8.403 0 0 0-.228 2.01v127.738a11.263 11.263 0 0 0 7.1 10.472l59.15 23.575.163 3.884 6.946-2.929a8.37 8.37 0 0 0 6.069-8.051V35.33a11.263 11.263 0 0 0-7.1-10.472z" fill="url(#j)" transform="translate(544 214)"/><path d="M0 139.1V11.362a8.373 8.373 0 0 1 11.472-7.778L72.359 27.84a11.263 11.263 0 0 1 7.1 10.472V166.05a8.373 8.373 0 0 1-11.472 7.779L7.099 149.572A11.263 11.263 0 0 1 0 139.1z" fill="url(#k)" transform="translate(544 214)"/><path d="M2.638 138.916V11.056a4.919 4.919 0 0 1 6.738-4.571l61.437 24.486a8.413 8.413 0 0 1 5.3 7.81v127.857a4.918 4.918 0 0 1-6.737 4.567L7.94 146.719a8.41 8.41 0 0 1-5.3-7.803z" fill="url(#l)" transform="translate(544 214)"/></g><g fill-rule="nonzero"><path d="M16.339 79.266v64.181c0 .578 1.168 1.049 2.614 1.049 1.445 0 2.62-.471 2.62-1.049V79.266H16.34z" fill="url(#m)" transform="translate(180 173)"/><path fill="url(#n)" opacity=".64" d="M16.313 143.837l168.15 66.216 5.24-1.288L21.555 142.55z" transform="translate(180 173)"/><path fill="url(#o)" opacity=".64" d="M189.408 76.082l168.15 66.216 5.234-1.294L194.65 74.788z" transform="translate(180 173)"/><path d="M90.554 108.675v64.181c0 .578 1.175 1.043 2.62 1.043s2.62-.465 2.62-1.043v-64.181h-5.24zm99.093-97.805v64.182c0 .578 1.175 1.042 2.62 1.042 1.446 0 2.621-.464 2.621-1.042V10.871h-5.24z" fill="url(#p)" transform="translate(180 173)"/><path d="M263.887 40.908v64.181c0 .572 1.169 1.043 2.614 1.043 1.446 0 2.62-.471 2.62-1.043V40.908h-5.234z" fill="url(#q)" transform="translate(180 173)"/><path d="M282.67 41.957v-4.472l-2.4 1.614-85.112-33.887a14.148 14.148 0 0 0-10.488 0L3.186 77.784 0 76.74v4.208a2.738 2.738 0 0 0 1.76 2.575l85.752 34.163a14.148 14.148 0 0 0 10.488 0l182.898-73.143A2.75 2.75 0 0 0 282.651 42l.02-.043z" fill="url(#r)" transform="translate(180 173)"/><path d="M1.76 74.148L184.67 1.005a14.21 14.21 0 0 1 10.488 0l85.74 34.163a2.788 2.788 0 0 1 0 5.18L98.032 113.486a14.204 14.204 0 0 1-10.489 0L1.76 79.335a2.795 2.795 0 0 1 0-5.187z" fill="url(#s)" transform="translate(180 173)"/><path d="M432.514 171.89l5.235-1.257-44.913-17.716.572-.232a2.788 2.788 0 0 0 0-5.18l-85.759-34.151a14.204 14.204 0 0 0-10.488 0l-2.369.942-26.393-10.394-4.028 1.765 26.198 10.318-167.03 66.8-28.241-11.122-4.028 1.771 28.046 11.04-5.065 2.041a2.795 2.795 0 0 0 0 5.188l85.759 34.15a14.21 14.21 0 0 0 10.488 0l6.862-2.75 42.06 16.566 5.234-1.294-43.065-16.956 167.024-66.812 43.901 17.282z" fill="url(#t)" opacity=".64" transform="translate(180 173)"/></g></g></svg>