<svg width="45" height="45" xmlns="http://www.w3.org/2000/svg"><path d="M45 22.5C45 10.094 34.906 0 22.5 0S0 10.094 0 22.5c0 6.553 2.818 12.46 7.303 16.575l-.021.019.73.615c.047.04.099.073.146.112.388.321.79.627 1.199.922.132.096.265.191.4.285.437.3.885.586 1.343.857.1.06.2.116.301.174.502.285 1.014.554 1.539.801l.116.053a22.297 22.297 0 0 0 5.441 1.722c.05.01.1.018.151.027.592.102 1.191.184 1.798.239.073.007.147.01.221.017.604.05 1.214.082 1.833.082.613 0 1.217-.032 1.818-.08.076-.007.152-.01.228-.017a22.752 22.752 0 0 0 1.782-.235l.153-.028a22.296 22.296 0 0 0 5.365-1.681l.187-.085a22.614 22.614 0 0 0 1.841-.973c.44-.26.873-.53 1.294-.818.151-.104.3-.212.45-.32.358-.259.71-.526 1.054-.805.076-.061.158-.114.232-.177l.749-.625-.022-.02C42.155 35.02 45 29.087 45 22.5zm-43.364 0c0-11.504 9.36-20.864 20.864-20.864 11.504 0 20.864 9.36 20.864 20.864 0 6.2-2.72 11.773-7.028 15.597a6.132 6.132 0 0 0-.73-.44l-6.928-3.463a1.814 1.814 0 0 1-1.008-1.63v-2.42c.16-.198.33-.422.505-.668a16.673 16.673 0 0 0 2.14-4.192 2.97 2.97 0 0 0 1.706-2.69v-2.901c0-.71-.26-1.398-.726-1.938v-3.819c.043-.425.194-2.821-1.54-4.798-1.508-1.721-3.949-2.593-7.255-2.593s-5.747.872-7.255 2.592c-1.734 1.977-1.583 4.374-1.54 4.798v3.819a2.981 2.981 0 0 0-.726 1.938v2.9c0 .901.404 1.742 1.096 2.309.663 2.596 2.027 4.56 2.53 5.227v2.368c0 .667-.363 1.281-.95 1.602l-6.47 3.529c-.205.112-.41.243-.615.389-4.253-3.823-6.934-9.362-6.934-15.516zM34.74 39.38c-.286.209-.577.41-.873.602-.136.088-.27.177-.409.263a20.57 20.57 0 0 1-1.18.679l-.266.136a20.83 20.83 0 0 1-2.854 1.208l-.104.035c-.513.17-1.033.322-1.558.452h-.005c-.53.132-1.067.24-1.607.33l-.044.008a20.93 20.93 0 0 1-1.534.187c-.09.008-.182.014-.273.02-.508.04-1.019.064-1.532.064-.519 0-1.036-.026-1.55-.064-.09-.007-.179-.012-.267-.02a21.16 21.16 0 0 1-1.547-.191l-.068-.013a20.786 20.786 0 0 1-3.183-.794l-.097-.033a21.158 21.158 0 0 1-1.523-.583l-.01-.005a21.35 21.35 0 0 1-1.396-.668c-.06-.03-.12-.06-.179-.092a21.027 21.027 0 0 1-1.586-.945A20.796 20.796 0 0 1 10 39.193l-.109-.086.079-.044 6.47-3.529a3.46 3.46 0 0 0 1.803-3.038v-2.947l-.189-.228c-.018-.02-1.787-2.172-2.455-5.086l-.075-.324-.279-.18a1.356 1.356 0 0 1-.629-1.14v-2.9c0-.38.161-.735.456-1l.27-.244v-4.558l-.007-.107c-.003-.02-.244-1.987 1.142-3.567 1.183-1.348 3.21-2.033 6.024-2.033 2.803 0 4.824.679 6.01 2.017 1.385 1.564 1.158 3.569 1.156 3.585l-.007 4.664.27.244c.294.265.456.62.456 1v2.901c0 .584-.397 1.113-.966 1.289l-.407.125-.131.405a15.136 15.136 0 0 1-2.042 4.117c-.215.303-.423.571-.602.777l-.203.231v3.027a3.44 3.44 0 0 0 1.913 3.094l6.927 3.463.131.068c-.087.067-.177.128-.266.192z" fill="#033144" fill-rule="evenodd"/></svg>