<svg width="46" height="45" xmlns="http://www.w3.org/2000/svg"><g fill="#033144" fill-rule="evenodd"><path d="M44.546 21.036a4.133 4.133 0 0 0-2.55-1.068 3.649 3.649 0 0 0-2.803 1.067l-5.073 5.02a3.367 3.367 0 0 0-.343-.49c-.624-.741-1.537-1.15-2.57-1.15h-7.101c-1.339 0-2.645-.173-3.882-.515-3.226-.892-6.307-.24-8.912 1.886a12.961 12.961 0 0 0-2.32 2.49l-1.274-1.235a.905.905 0 0 0-.628-.255h-.005a.907.907 0 0 0-.644.276L.25 33.488a.897.897 0 0 0 .027 1.273l10.47 9.969a.895.895 0 0 0 1.262-.024l6.132-6.291a.906.906 0 0 0-.018-1.277l-.534-.518 1.222-.138c.74-.086 1.491-.129 2.235-.129h10.805c1.756 0 3.247-.384 4.433-1.141l.029-.02c.425-.295.81-.645 1.145-1.04l7.281-8.565c1.246-1.466 1.168-3.295-.194-4.551zM11.343 42.818L2.17 34.083l4.942-5.13 9.12 8.85-4.889 5.015zm32.03-18.394L36.09 32.99a4.195 4.195 0 0 1-.788.719c-.89.563-2.05.85-3.45.85H21.046c-.813 0-1.634.047-2.439.14l-2.686.302-5.625-5.459a11.18 11.18 0 0 1 2.15-2.366c2.165-1.767 4.62-2.287 7.298-1.546 1.393.385 2.86.58 4.361.58h7.102c1.275 0 1.615 1.106 1.615 1.758 0 .477-.153.931-.42 1.246-.29.34-.701.513-1.224.513h-6.182a.898.898 0 0 0 0 1.795h6.182c1.044 0 1.964-.407 2.592-1.146.523-.615.82-1.423.846-2.287l5.842-5.781c.835-.836 2.14-.626 2.87.047.377.348.885 1.08.043 2.07z"/><path d="M22.199 30.386a.898.898 0 0 0-1.748.41l.009.036a.898.898 0 0 0 1.747-.41l-.008-.036zM6.066 18.98h8.746a2.16 2.16 0 0 0 1.275-.415c.358.26.8.415 1.275.415h8.746a2.16 2.16 0 0 0 1.275-.415c.359.26.8.415 1.276.415h8.745a2.175 2.175 0 0 0 2.173-2.173V12.73a4.706 4.706 0 0 0-2.56-4.208 5.153 5.153 0 0 0 1.191-3.3A5.183 5.183 0 0 0 33.031.046a5.183 5.183 0 0 0-5.177 5.177c0 1.253.448 2.403 1.191 3.3-.663.34-1.23.83-1.662 1.424a4.692 4.692 0 0 0-1.662-1.425 5.153 5.153 0 0 0 1.19-3.3A5.183 5.183 0 0 0 21.736.046a5.183 5.183 0 0 0-5.177 5.177c0 1.253.448 2.403 1.191 3.3a4.71 4.71 0 0 0-1.662 1.425 4.697 4.697 0 0 0-1.662-1.426 5.152 5.152 0 0 0 1.19-3.3A5.183 5.183 0 0 0 10.44.046a5.183 5.183 0 0 0-5.177 5.177c0 1.253.448 2.403 1.191 3.3a4.707 4.707 0 0 0-2.56 4.207v4.078c0 1.198.975 2.173 2.173 2.173zM33.032 1.84a3.386 3.386 0 0 1 3.382 3.382 3.386 3.386 0 0 1-3.382 3.382 3.386 3.386 0 0 1-3.382-3.382 3.385 3.385 0 0 1 3.382-3.382zM30.7 9.842a5.144 5.144 0 0 0 2.331.557 5.15 5.15 0 0 0 2.332-.557 2.916 2.916 0 0 1 2.419 2.887v4.078c0 .209-.17.378-.378.378h-8.745a.378.378 0 0 1-.378-.378V12.73A2.916 2.916 0 0 1 30.7 9.842zM21.735 1.84a3.386 3.386 0 0 1 3.382 3.382 3.386 3.386 0 0 1-3.382 3.382 3.386 3.386 0 0 1-3.382-3.382 3.386 3.386 0 0 1 3.382-3.382zm-2.331 8.002a5.142 5.142 0 0 0 2.331.557 5.15 5.15 0 0 0 2.332-.557 2.916 2.916 0 0 1 2.419 2.887v4.078c0 .209-.17.378-.378.378h-8.745a.378.378 0 0 1-.378-.378V12.73a2.917 2.917 0 0 1 2.419-2.887zM10.439 1.84a3.386 3.386 0 0 1 3.382 3.382 3.386 3.386 0 0 1-3.382 3.382 3.386 3.386 0 0 1-3.382-3.382 3.386 3.386 0 0 1 3.382-3.382zm-4.75 10.889a2.917 2.917 0 0 1 2.419-2.887 5.143 5.143 0 0 0 2.331.557c.838 0 1.63-.202 2.331-.557a2.916 2.916 0 0 1 2.42 2.887v4.078c0 .209-.17.378-.378.378H6.066a.378.378 0 0 1-.378-.378V12.73z"/></g></svg>