<svg width="56" height="40" xmlns="http://www.w3.org/2000/svg"><g fill="#033144"><path d="M46.341 3.464H17.37a.808.808 0 1 0 0 1.617h28.972c.42 0 .76.341.76.76V28.33a.76.76 0 0 1-.76.76H8.861a.761.761 0 0 1-.76-.76V5.84c0-.419.34-.76.76-.76h14.491a.809.809 0 1 0 0-1.617H8.861A2.38 2.38 0 0 0 6.483 5.84v22.49a2.38 2.38 0 0 0 2.378 2.377h37.48a2.38 2.38 0 0 0 2.378-2.377V5.84a2.38 2.38 0 0 0-2.378-2.377z"/><path d="M52.826 32.07h-.892V5.514A5.522 5.522 0 0 0 46.415 0H8.787A5.522 5.522 0 0 0 3.27 5.513V32.07h-.892A2.38 2.38 0 0 0 0 34.447a5.519 5.519 0 0 0 5.513 5.513H40.37a.808.808 0 1 0 0-1.618H5.513a3.9 3.9 0 0 1-3.896-3.895.76.76 0 0 1 .76-.759h50.449a.76.76 0 0 1 .759.759 3.9 3.9 0 0 1-3.895 3.895H34.388a.809.809 0 0 0 0 1.618H49.69a5.519 5.519 0 0 0 5.512-5.513 2.38 2.38 0 0 0-2.376-2.376zM4.886 5.514a3.903 3.903 0 0 1 3.901-3.896h37.628a3.903 3.903 0 0 1 3.901 3.896V32.07H4.886V5.513z"/><path d="M17.658 35.206a.809.809 0 0 0 0 1.618h19.886a.809.809 0 1 0 0-1.618H17.658z"/></g></svg>