<svg width="142" height="191" xmlns="http://www.w3.org/2000/svg" xmlns:xlink="http://www.w3.org/1999/xlink"><defs><linearGradient x1="50%" y1="21.993%" x2="20.548%" y2="118.73%" id="c"><stop stop-color="#FFC04D" offset="0%"/><stop stop-color="#C58409" offset="100%"/></linearGradient><rect id="b" x=".087" y="0" width="104.605" height="150" rx="16"/><filter x="-37.8%" y="-13.7%" width="175.5%" height="154.7%" filterUnits="objectBoundingBox" id="a"><feOffset dy="22" in="SourceAlpha" result="shadowOffsetOuter1"/><feGaussianBlur stdDeviation="9.5" in="shadowOffsetOuter1" result="shadowBlurOuter1"/><feColorMatrix values="0 0 0 0 0 0 0 0 0 0 0 0 0 0 0 0 0 0 0.05 0" in="shadowBlurOuter1"/></filter><filter x="-24.9%" y="-4.7%" width="149.7%" height="136.7%" filterUnits="objectBoundingBox" id="d"><feGaussianBlur stdDeviation="6.5" in="SourceAlpha" result="shadowBlurInner1"/><feOffset dy="1" in="shadowBlurInner1" result="shadowOffsetInner1"/><feComposite in="shadowOffsetInner1" in2="SourceAlpha" operator="arithmetic" k2="-1" k3="1" result="shadowInnerInner1"/><feColorMatrix values="0 0 0 0 0 0 0 0 0 0 0 0 0 0 0 0 0 0 0.150021853 0" in="shadowInnerInner1"/></filter><linearGradient x1="-31.899%" y1="187.229%" x2="68.922%" y2="6.992%" id="f"><stop stop-color="#FFCB6C" offset="0%"/><stop stop-color="#FFFAF4" offset="100%"/></linearGradient><linearGradient x1="64.954%" y1="-3.065%" x2="23.558%" y2="111.337%" id="e"><stop stop-color="#AC9370" offset="0%"/><stop stop-color="#594834" offset="100%"/></linearGradient></defs><g fill="none" fill-rule="evenodd"><g transform="translate(19)"><use fill="#000" filter="url(#a)" xlink:href="#b"/><use fill="url(#c)" xlink:href="#b"/><use fill="#000" filter="url(#d)" xlink:href="#b"/><rect stroke="url(#e)" stroke-width="4" fill="url(#f)" x="4.609" y="4.609" width="94.863" height="140.783" rx="10"/></g><g transform="translate(43 55)" fill="#033144" fill-rule="nonzero"><rect y=".074" width="3.297" height="32.821" rx="1"/><rect x="6.621" y=".11" width="9.863" height="32.784" rx="1"/><rect x="39.753" y=".11" width="9.863" height="32.784" rx="1"/><rect x="19.863" y=".074" width="3.297" height="32.821" rx="1"/><rect x="26.484" y=".074" width="3.297" height="32.821" rx="1"/><rect x="33.104" y=".074" width="3.297" height="32.821" rx="1"/><rect x="52.967" y=".074" width="3.297" height="32.821" rx="1"/><rect y="36.63" width="3.297" height="3.297" rx="1"/><rect x="13.242" y="36.63" width="3.297" height="3.297" rx="1"/><rect x="19.863" y="36.63" width="3.297" height="3.297" rx="1"/><rect x="33.104" y="36.63" width="3.297" height="3.297" rx="1"/><rect x="46.346" y="36.63" width="3.297" height="3.297" rx="1"/><rect x="52.967" y="36.63" width="3.297" height="3.297" rx="1"/></g></g></svg>