<svg width="142" height="191" xmlns="http://www.w3.org/2000/svg" xmlns:xlink="http://www.w3.org/1999/xlink"><defs><linearGradient x1="50%" y1="21.993%" x2="20.548%" y2="118.73%" id="c"><stop stop-color="#FFC04D" offset="0%"/><stop stop-color="#C58409" offset="100%"/></linearGradient><rect id="b" x=".087" y="0" width="104.605" height="150" rx="16"/><filter x="-37.8%" y="-13.7%" width="175.5%" height="154.7%" filterUnits="objectBoundingBox" id="a"><feOffset dy="22" in="SourceAlpha" result="shadowOffsetOuter1"/><feGaussianBlur stdDeviation="9.5" in="shadowOffsetOuter1" result="shadowBlurOuter1"/><feColorMatrix values="0 0 0 0 0 0 0 0 0 0 0 0 0 0 0 0 0 0 0.05 0" in="shadowBlurOuter1"/></filter><filter x="-24.9%" y="-4.7%" width="149.7%" height="136.7%" filterUnits="objectBoundingBox" id="d"><feGaussianBlur stdDeviation="6.5" in="SourceAlpha" result="shadowBlurInner1"/><feOffset dy="1" in="shadowBlurInner1" result="shadowOffsetInner1"/><feComposite in="shadowOffsetInner1" in2="SourceAlpha" operator="arithmetic" k2="-1" k3="1" result="shadowInnerInner1"/><feColorMatrix values="0 0 0 0 0 0 0 0 0 0 0 0 0 0 0 0 0 0 0.150021853 0" in="shadowInnerInner1"/></filter><linearGradient x1="-31.899%" y1="187.229%" x2="68.922%" y2="6.992%" id="f"><stop stop-color="#FFCB6C" offset="0%"/><stop stop-color="#FFFAF4" offset="100%"/></linearGradient><linearGradient x1="64.954%" y1="-3.065%" x2="23.558%" y2="111.337%" id="e"><stop stop-color="#AC9370" offset="0%"/><stop stop-color="#594834" offset="100%"/></linearGradient></defs><g fill="none" fill-rule="evenodd"><g transform="translate(19)"><use fill="#000" filter="url(#a)" xlink:href="#b"/><use fill="url(#c)" xlink:href="#b"/><use fill="#000" filter="url(#d)" xlink:href="#b"/><rect stroke="url(#e)" stroke-width="4" fill="url(#f)" x="4.609" y="4.609" width="94.863" height="140.783" rx="10"/></g><path d="M91.32 96.43v-1.12c0-.477-.273-.91-.703-1.115-.274-.132-6.6-3.084-16.953-3.31v-4.22a2.459 2.459 0 0 0 1.235-2.13v-1.363h8.788a2.472 2.472 0 0 0 2.396-3.068c2.157-.712 3.29-1.357 3.39-1.417.378-.221.61-.626.61-1.067v-6.758h1.172a1.235 1.235 0 1 0 0-2.47h-4.813a1.235 1.235 0 0 0 0 2.47h1.173v5.995c-.605.278-1.66.712-3.146 1.152l-.837-.837a2.474 2.474 0 0 0-2.16-.69c-.028.004-2.492.41-6.572.537v-2.158c4.499-.28 6.787-1.251 7.07-1.38a2.471 2.471 0 0 0 1.438-2.498L81.514 52.17c-.09-.9-.665-1.68-1.498-2.03-.278-.117-2.847-1.141-7.588-1.141s-7.308 1.024-7.585 1.14a2.469 2.469 0 0 0-1.5 2.031L61.45 70.987a2.469 2.469 0 0 0 1.44 2.499c.282.127 2.57 1.1 7.068 1.38v2.158c-4.08-.128-6.542-.531-6.569-.538a2.463 2.463 0 0 0-2.163.69l-.836.837c-1.488-.44-2.542-.873-3.145-1.152v-5.993h1.171a1.235 1.235 0 1 0 0-2.471h-4.814a1.235 1.235 0 1 0 0 2.471h1.172v6.758c0 .437.233.845.61 1.067.105.061 1.243.714 3.424 1.428-.122.5-.102 1.036.104 1.531a2.472 2.472 0 0 0 2.283 1.525h8.764v1.365c0 .912.5 1.7 1.236 2.129v4.22c-10.354.224-16.679 3.177-16.954 3.308a1.24 1.24 0 0 0-.702 1.115v1.123a2.4 2.4 0 0 0-1.171 2.057 2.408 2.408 0 0 0 4.815 0c0-.876-.473-1.636-1.173-2.057v-.302c1.856-.738 7.295-2.595 15.185-2.775v3.077a2.4 2.4 0 0 0-1.172 2.057 2.408 2.408 0 0 0 4.815 0c0-.876-.472-1.636-1.172-2.057V93.36c7.86.182 13.32 2.04 15.184 2.775v.302a2.398 2.398 0 0 0-1.172 2.057 2.408 2.408 0 1 0 3.644-2.064zM68.482 56.138c.055-.023 1.401-.58 3.946-.58s3.89.557 3.946.58a.619.619 0 1 1-.48 1.139c-.01-.005-1.198-.483-3.467-.483s-3.457.478-3.47.484a.617.617 0 0 1-.475-1.14zm-.617 3.751c.064-.026 1.613-.667 4.564-.667 2.952 0 4.5.64 4.565.667a.62.62 0 0 1 .331.81.624.624 0 0 1-.811.329c-.014-.005-1.412-.571-4.085-.571s-4.072.565-4.086.572a.618.618 0 0 1-.478-1.14zm4.563 4.23c-3.077 0-4.688.653-4.704.66a.618.618 0 0 1-.478-1.138c.072-.032 1.827-.757 5.182-.757 3.356 0 5.11.725 5.182.756a.62.62 0 0 1 .33.807.623.623 0 0 1-.81.331c-.012-.005-1.623-.659-4.702-.659z" fill="#033144" fill-rule="nonzero"/></g></svg>