<svg width="142" height="191" xmlns="http://www.w3.org/2000/svg" xmlns:xlink="http://www.w3.org/1999/xlink"><defs><linearGradient x1="50%" y1="21.993%" x2="20.548%" y2="118.73%" id="c"><stop stop-color="#FFC04D" offset="0%"/><stop stop-color="#C58409" offset="100%"/></linearGradient><rect id="b" x=".087" y="0" width="104.605" height="150" rx="16"/><filter x="-37.8%" y="-13.7%" width="175.5%" height="154.7%" filterUnits="objectBoundingBox" id="a"><feOffset dy="22" in="SourceAlpha" result="shadowOffsetOuter1"/><feGaussianBlur stdDeviation="9.5" in="shadowOffsetOuter1" result="shadowBlurOuter1"/><feColorMatrix values="0 0 0 0 0 0 0 0 0 0 0 0 0 0 0 0 0 0 0.05 0" in="shadowBlurOuter1"/></filter><filter x="-24.9%" y="-4.7%" width="149.7%" height="136.7%" filterUnits="objectBoundingBox" id="d"><feGaussianBlur stdDeviation="6.5" in="SourceAlpha" result="shadowBlurInner1"/><feOffset dy="1" in="shadowBlurInner1" result="shadowOffsetInner1"/><feComposite in="shadowOffsetInner1" in2="SourceAlpha" operator="arithmetic" k2="-1" k3="1" result="shadowInnerInner1"/><feColorMatrix values="0 0 0 0 0 0 0 0 0 0 0 0 0 0 0 0 0 0 0.150021853 0" in="shadowInnerInner1"/></filter><linearGradient x1="-31.899%" y1="187.229%" x2="68.922%" y2="6.992%" id="f"><stop stop-color="#FFCB6C" offset="0%"/><stop stop-color="#FFFAF4" offset="100%"/></linearGradient><linearGradient x1="64.954%" y1="-3.065%" x2="23.558%" y2="111.337%" id="e"><stop stop-color="#AC9370" offset="0%"/><stop stop-color="#594834" offset="100%"/></linearGradient></defs><g fill="none" fill-rule="evenodd"><g transform="translate(19)"><use fill="#000" filter="url(#a)" xlink:href="#b"/><use fill="url(#c)" xlink:href="#b"/><use fill="#000" filter="url(#d)" xlink:href="#b"/><rect stroke="url(#e)" stroke-width="4" fill="url(#f)" x="4.609" y="4.609" width="94.863" height="140.783" rx="10"/></g><g fill="#033144" fill-rule="nonzero"><path d="M47.636 68.092c.292 1 .696 1.964 1.207 2.869L47.387 72.8a1.512 1.512 0 0 0 .113 2l2.507 2.512a1.5 1.5 0 0 0 1.997.113l1.824-1.447a13.24 13.24 0 0 0 2.977 1.262l.273 2.351c.089.762.73 1.334 1.491 1.334h3.547c.761 0 1.403-.572 1.492-1.334l.261-2.267a13.392 13.392 0 0 0 3.191-1.292l1.765 1.399c.6.476 1.455.422 1.996-.113l2.508-2.512c.54-.542.588-1.399.112-2l-1.372-1.744a13.13 13.13 0 0 0 1.313-3.143l2.115-.244a1.505 1.505 0 0 0 1.331-1.494v-3.554c0-.762-.57-1.405-1.33-1.494l-2.086-.244a13.216 13.216 0 0 0-1.26-3.107l1.284-1.625a1.512 1.512 0 0 0-.113-2l-2.502-2.506a1.498 1.498 0 0 0-1.996-.113l-1.575 1.25a13.21 13.21 0 0 0-3.262-1.37l-.237-2.04a1.504 1.504 0 0 0-1.492-1.334h-3.547c-.76 0-1.402.571-1.492 1.333l-.237 2.042a13.12 13.12 0 0 0-3.345 1.417l-1.634-1.298a1.505 1.505 0 0 0-1.997.113L47.5 54.163a1.505 1.505 0 0 0-.113 2l1.366 1.732a12.962 12.962 0 0 0-1.235 3.137l-2.187.25c-.76.09-1.33.732-1.33 1.494v3.554c0 .761.57 1.404 1.33 1.494l2.305.268zm12.852-9.614c3.233 0 5.865 2.637 5.865 5.875 0 3.239-2.632 5.875-5.865 5.875-3.232 0-5.864-2.636-5.864-5.875 0-3.238 2.632-5.875 5.864-5.875z"/><path d="M95.557 68.967l-1.872-1.584a1.478 1.478 0 0 0-1.973.054l-1.033.97c-.874-.423-1.8-.72-2.757-.893l-.291-1.428a1.495 1.495 0 0 0-1.581-1.19l-2.442.207a1.49 1.49 0 0 0-1.36 1.435L82.2 67.99a10.71 10.71 0 0 0-2.633 1.387l-1.235-.821a1.483 1.483 0 0 0-1.955.28l-1.58 1.887a1.485 1.485 0 0 0 .053 1.976l1.081 1.154a11.11 11.11 0 0 0-.796 2.643l-1.545.316a1.497 1.497 0 0 0-1.188 1.583l.208 2.447c.065.75.677 1.339 1.432 1.363l1.67.053c.302.798.7 1.554 1.182 2.262l-.933 1.41a1.49 1.49 0 0 0 .279 1.96l1.872 1.582a1.479 1.479 0 0 0 1.972-.053l1.224-1.149c.803.375 1.646.655 2.514.821l.338 1.68c.149.737.832 1.25 1.581 1.19l2.442-.209a1.49 1.49 0 0 0 1.36-1.434l.054-1.643a10.975 10.975 0 0 0 2.514-1.274l1.348.893c.63.417 1.468.297 1.955-.28l1.58-1.875a1.485 1.485 0 0 0-.053-1.976l-1.087-1.155c.398-.845.69-1.738.855-2.655l1.486-.303a1.497 1.497 0 0 0 1.188-1.584l-.208-2.446a1.489 1.489 0 0 0-1.432-1.363l-1.491-.048a10.817 10.817 0 0 0-1.242-2.452l.814-1.226a1.481 1.481 0 0 0-.267-1.964zm-9.204 14.142a4.803 4.803 0 0 1-5.187-4.386 4.807 4.807 0 0 1 4.379-5.197 4.803 4.803 0 0 1 5.187 4.387 4.807 4.807 0 0 1-4.379 5.196zM56.18 89.693a1.486 1.486 0 0 0-1.33 1.464l-.018 1.506a1.483 1.483 0 0 0 1.295 1.494l1.105.143c.185.673.446 1.315.785 1.923l-.713.88c-.476.59-.44 1.435.089 1.977l1.051 1.077a1.482 1.482 0 0 0 1.973.137l.885-.685a8.67 8.67 0 0 0 1.973.864l.119 1.142c.077.75.707 1.328 1.462 1.334l1.503.018a1.482 1.482 0 0 0 1.491-1.298l.137-1.083a8.918 8.918 0 0 0 2.139-.834l.832.673a1.48 1.48 0 0 0 1.973-.09l1.075-1.053c.54-.53.6-1.375.137-1.976l-.636-.828a8.64 8.64 0 0 0 .903-2.083l.986-.101a1.486 1.486 0 0 0 1.331-1.464l.018-1.506a1.483 1.483 0 0 0-1.295-1.494l-.963-.125a8.977 8.977 0 0 0-.814-2.084l.6-.738c.476-.59.44-1.434-.089-1.976l-1.051-1.077a1.481 1.481 0 0 0-1.973-.137l-.72.553a8.732 8.732 0 0 0-2.162-.94l-.095-.935a1.485 1.485 0 0 0-1.462-1.333l-1.503-.018a1.482 1.482 0 0 0-1.491 1.298l-.12.928a8.966 8.966 0 0 0-2.24.917l-.742-.607a1.48 1.48 0 0 0-1.973.09l-1.081 1.059a1.49 1.49 0 0 0-.137 1.976l.636.821a8.721 8.721 0 0 0-.85 2.084l-1.04.107zm9.704-1.703c2.156.024 3.885 1.804 3.862 3.965a3.916 3.916 0 0 1-3.958 3.869c-2.156-.024-3.885-1.804-3.862-3.965a3.917 3.917 0 0 1 3.958-3.869z"/></g></g></svg>