<svg width="50" height="47" xmlns="http://www.w3.org/2000/svg"><defs><linearGradient x1="395.714%" y1="34.174%" x2="0%" y2="34.174%" id="a"><stop stop-color="#50BED3" offset="0%"/><stop stop-color="#50BED3" offset="60.359%"/><stop stop-color="#B8E0D4" offset="100%"/></linearGradient><linearGradient x1="395.714%" y1="34.174%" x2="0%" y2="34.174%" id="b"><stop stop-color="#50BED3" offset="0%"/><stop stop-color="#50BED3" offset="60.359%"/><stop stop-color="#B8E0D4" offset="100%"/></linearGradient></defs><g fill="none"><path d="M25 .01c-.81 0-1.465.656-1.465 1.466V5.87a1.464 1.464 0 1 0 2.93 0V1.476C26.465.666 25.81.01 25 .01zm-7.753 9.219l-2.93-2.93a1.464 1.464 0 1 0-2.071 2.072l2.93 2.93a1.464 1.464 0 1 0 2.07-2.072zM37.754 6.3a1.464 1.464 0 0 0-2.07 0l-2.93 2.929a1.464 1.464 0 1 0 2.07 2.071l2.93-2.93a1.461 1.461 0 0 0 0-2.07zm10.781 14.219h-4.492v20.507h4.492c.81 0 1.465-.655 1.465-1.464V21.983c0-.81-.655-1.464-1.465-1.464zm-47.07 0c-.81 0-1.465.655-1.465 1.464v17.579c0 .81.655 1.464 1.465 1.464h4.492V20.52H1.465z" fill="#033144"/><path d="M23.881 21.983a2.913 2.913 0 0 0-2.62 1.62l-4.46 8.92a5.804 5.804 0 0 0 2.344.494 5.825 5.825 0 0 0 5.237-3.246l.964-1.928h2.835a2.95 2.95 0 0 1 2.072.858l10.86 10.86V21.984H23.881z" fill="url(#a)"/><path d="M28.181 30.773h-1.024l-.084.169c-1.384 2.767-4.082 4.72-7.166 4.973-2.27.185-3.841-.467-5.706-1.315a1.474 1.474 0 0 1-.716-1.996l5.154-10.31a5.86 5.86 0 0 1 5.242-3.24h6.322c.406-.899.656-1.88.656-2.93 0-.81-.655-1.465-1.464-1.465H18.022c-1.665 0-3.187.94-3.931 2.43l-1.31 2.62c-.248.496-.756.81-1.31.81H8.886v20.507h6.717l4.15 4.15c1.203 1.203 2.936 1.583 4.43 1.083l12.51-3.932a4.238 4.238 0 0 0 1.892-1.15L28.181 30.773z" fill="url(#b)"/></g></svg>