<svg width="50" height="44" xmlns="http://www.w3.org/2000/svg"><defs><linearGradient x1="84.25%" y1="77.787%" x2="36.577%" y2="22.213%" id="a"><stop stop-color="#50BED3" offset="0%"/><stop stop-color="#B8E0D4" offset="100%"/></linearGradient></defs><g fill="none"><path d="M33.773 22.98a12.31 12.31 0 0 0-20.725 0L6.817 32.7a7.175 7.175 0 0 0 .585 8.532 7.175 7.175 0 0 0 8.34 1.905l.002-.001a19.05 19.05 0 0 1 15.334.001A7.173 7.173 0 0 0 40.004 32.7l-6.231-9.72z" fill="url(#a)"/><path d="M8.03 22.043c2.864-1.1 4.136-4.72 2.842-8.08-1.294-3.36-4.665-5.193-7.526-4.09-2.862 1.1-4.132 4.718-2.841 8.08 1.295 3.358 4.666 5.192 7.524 4.09zm11.25-6.086c3.73 0 6.756-3.552 6.756-7.933 0-4.382-3.026-7.934-6.757-7.934-3.73 0-6.756 3.552-6.756 7.934 0 4.38 3.026 7.933 6.756 7.933zm12.597 2.358c3.54 1.177 7.532-1.24 8.914-5.398 1.383-4.157-.37-8.483-3.908-9.66-3.54-1.176-7.533 1.242-8.913 5.4-1.382 4.157.368 8.482 3.907 9.658zm16.047-1.193c-2.468-1.823-6.203-.957-8.346 1.939-2.14 2.896-1.878 6.722.585 8.545 2.462 1.824 6.2.957 8.345-1.938 2.141-2.896 1.878-6.722-.584-8.546z" fill="#033144"/></g></svg>