<svg width="50" height="34" xmlns="http://www.w3.org/2000/svg"><defs><linearGradient x1="50%" y1="231.298%" x2="50%" y2="0%" id="a"><stop stop-color="#54BED0" offset="0%"/><stop stop-color="#B8E0D4" offset="100%"/></linearGradient><linearGradient x1="50%" y1="231.298%" x2="50%" y2="0%" id="b"><stop stop-color="#54BED0" offset="0%"/><stop stop-color="#B8E0D4" offset="100%"/></linearGradient></defs><g fill="none"><path d="M36.628.003a7.25 7.25 0 0 0-3.105.695 10.815 10.815 0 0 1 1.67 3.075c.383 1.106.592 2.292.592 3.526a10.737 10.737 0 0 1-2.262 6.601 7.25 7.25 0 0 0 3.105.696c4.023 0 7.297-3.273 7.297-7.297 0-4.023-3.274-7.296-7.297-7.296zm0 18.081a13.2 13.2 0 0 0-1.29.063 17.019 17.019 0 0 1 3.489 3.672 16.76 16.76 0 0 1 3.034 9.637 5.22 5.22 0 0 1-.3 1.744h6.695c.963 0 1.744-.78 1.744-1.744 0-7.373-5.999-13.372-13.372-13.372zm-21.82-7.258a10.737 10.737 0 0 1-.593-3.526A10.738 10.738 0 0 1 16.477.698a7.25 7.25 0 0 0-3.105-.695c-4.023 0-7.296 3.273-7.296 7.296 0 4.024 3.273 7.297 7.296 7.297a7.25 7.25 0 0 0 3.105-.696 10.821 10.821 0 0 1-1.67-3.074zm-1.436 7.258C6 18.084 0 24.083 0 31.456 0 32.42.781 33.2 1.744 33.2H8.44a5.212 5.212 0 0 1-.3-1.744 16.76 16.76 0 0 1 3.034-9.637 16.99 16.99 0 0 1 3.489-3.672 13.41 13.41 0 0 0-1.29-.063z" fill="#033144"/><path d="M31.777 4.599a7.298 7.298 0 0 0-.963-1.702A7.289 7.289 0 0 0 25 .003a7.289 7.289 0 0 0-5.814 2.894 7.298 7.298 0 0 0-1.482 4.402 7.298 7.298 0 0 0 1.483 4.402A7.29 7.29 0 0 0 25 14.597a7.291 7.291 0 0 0 5.814-2.894A7.298 7.298 0 0 0 32.297 7.3c0-.954-.186-1.864-.52-2.7z" fill="url(#a)"/><path d="M38.259 29.712a13.35 13.35 0 0 0-3.965-7.86 13.475 13.475 0 0 0-3.482-2.438 13.267 13.267 0 0 0-4.068-1.216V29.13a1.744 1.744 0 0 1-3.488 0V18.198a13.268 13.268 0 0 0-5.937 2.319c-.572.403-1.111.85-1.613 1.335a13.348 13.348 0 0 0-4.078 9.604c0 .963.781 1.744 1.744 1.744h23.256c.964 0 1.744-.78 1.744-1.744 0-.59-.039-1.173-.113-1.744z" fill="url(#b)"/></g></svg>