<svg width="16" height="16" xmlns="http://www.w3.org/2000/svg"><g fill="#033144"><path d="M11.352 0H4.648A4.653 4.653 0 0 0 0 4.648v6.704A4.653 4.653 0 0 0 4.648 16h6.704A4.653 4.653 0 0 0 16 11.352V4.648A4.653 4.653 0 0 0 11.352 0zm3.398 11.352a3.402 3.402 0 0 1-3.398 3.398H4.648a3.402 3.402 0 0 1-3.398-3.398V4.648A3.402 3.402 0 0 1 4.648 1.25h6.704a3.402 3.402 0 0 1 3.398 3.398v6.704z"/><path d="M8 3.688A4.317 4.317 0 0 0 3.687 8 4.317 4.317 0 0 0 8 12.313 4.317 4.317 0 0 0 12.313 8 4.317 4.317 0 0 0 8 3.687zm0 7.374A3.066 3.066 0 0 1 4.937 8 3.066 3.066 0 0 1 8 4.937 3.066 3.066 0 0 1 11.063 8 3.066 3.066 0 0 1 8 11.063z"/><circle cx="12.375" cy="3.625" r="1"/></g></svg>