<svg width="14" height="17" xmlns="http://www.w3.org/2000/svg"><path d="M4.296 3.807c-.172-.308-.39-.462-.654-.462h-2.37c-.153 0-.259.051-.318.154-.073.102-.07.229.01.38L2.56 6.74c.006.007.006.01 0 .01l-2.51 4.6a.37.37 0 0 0 0 .37.33.33 0 0 0 .308.174h2.37c.251 0 .466-.157.645-.472 1.633-2.996 2.483-4.556 2.549-4.68L4.296 3.808zM13.917.534c.073-.144.073-.27 0-.38C13.857.052 13.755 0 13.61 0h-2.39c-.259 0-.47.154-.635.462l-5.267 9.666L8.68 16.51c.159.307.377.461.655.461h2.37c.146 0 .251-.051.318-.154.066-.116.062-.242-.01-.38l-3.333-6.31v-.01L13.917.534z" fill="#033144"/></svg>