<svg width="44" height="49" xmlns="http://www.w3.org/2000/svg"><path d="M33.757 30.285l7.89 10.469a.882.882 0 0 1-.174 1.235l-8.676 6.538a.882.882 0 0 1-1.236-.173l-7.89-10.47-5.724 8.356a.883.883 0 0 1-1.598-.356l-5.61-34.356a.882.882 0 0 1 1.247-.94l20.121 9.502c.44.208.621.768.414 1.209-.209.44-.746.584-1.187.376L12.751 12.9l4.984 30.527 5.175-7.553a.882.882 0 0 1 1.432-.032l8.097 10.745 7.267-5.476-8.097-10.744a.883.883 0 0 1 .426-1.369l8.686-2.892-11.937-5.636a.882.882 0 1 1 .753-1.596l13.929 6.576a.882.882 0 0 1-.099 1.635l-9.61 3.2zM6.3 2.873l1.909 2.533a.882.882 0 1 1-1.41 1.062L4.89 3.935A.882.882 0 1 1 6.3 2.873zm10.635 5.28a.883.883 0 0 1-.408-1.578l2.534-1.909a.883.883 0 0 1 1.061 1.41L17.59 7.985a.88.88 0 0 1-.654.169zM5.63 14.788a.883.883 0 0 1 1.062 1.41L4.16 18.104a.88.88 0 0 1-1.236-.173.882.882 0 0 1 .174-1.236l2.533-1.91zm6.806-9.283a.882.882 0 0 1-.75-.997l.44-3.141a.883.883 0 0 1 1.748.245l-.441 3.142a.883.883 0 0 1-.997.75zM5.728 10.56a.883.883 0 0 1-.997.751L1.59 10.87a.883.883 0 0 1 .245-1.748l3.142.442a.883.883 0 0 1 .75.996z" fill="#033144"/></svg>