<svg width="51" height="45" xmlns="http://www.w3.org/2000/svg"><g fill="#033144" fill-rule="evenodd"><path d="M20.075 32.656a.837.837 0 0 1-.544-.2l-5.436-4.63a.84.84 0 0 1 0-1.278l5.436-4.629a.84.84 0 1 1 1.089 1.279l-4.684 3.989 4.684 3.99a.84.84 0 0 1-.545 1.479zm10.73 0a.84.84 0 0 1-.545-1.48l4.684-3.989-4.684-3.989a.84.84 0 0 1 1.09-1.279l5.435 4.629a.84.84 0 0 1 0 1.279l-5.436 4.628a.837.837 0 0 1-.544.2zm-7.289 3.471a.84.84 0 0 1-.823-1.013L26.08 19.03a.84.84 0 0 1 1.644.346L24.337 35.46a.84.84 0 0 1-.821.667z"/><path d="M45.24 44.89H5.64C2.53 44.89 0 42.36 0 39.25V5.64C0 2.53 2.53 0 5.64 0h39.6c3.11 0 5.64 2.53 5.64 5.64v33.61c0 3.11-2.53 5.64-5.64 5.64zM5.64 1.68a3.965 3.965 0 0 0-3.96 3.96v33.61a3.965 3.965 0 0 0 3.96 3.96h39.6a3.965 3.965 0 0 0 3.96-3.96V5.64a3.965 3.965 0 0 0-3.96-3.96H5.64z"/><path d="M50.04 13.45H.84a.84.84 0 1 1 0-1.68h49.2a.84.84 0 0 1 0 1.68zM14.352 9.431a2.662 2.662 0 0 1-2.658-2.658 2.662 2.662 0 0 1 2.658-2.658 2.661 2.661 0 0 1 2.658 2.658 2.662 2.662 0 0 1-2.658 2.658zm0-3.636a.98.98 0 0 0-.978.978.98.98 0 1 0 .978-.978zm-8.167 3.61a2.661 2.661 0 0 1-2.659-2.658A2.661 2.661 0 0 1 6.185 4.09a2.661 2.661 0 0 1 2.658 2.658 2.661 2.661 0 0 1-2.658 2.658zm0-3.636a.98.98 0 0 0-.979.978.98.98 0 1 0 .978-.978zM22.52 9.457a2.661 2.661 0 0 1-2.658-2.659A2.661 2.661 0 0 1 22.52 4.14a2.661 2.661 0 0 1 2.658 2.658 2.661 2.661 0 0 1-2.658 2.659zm0-3.637a.98.98 0 0 0 0 1.957.98.98 0 0 0 0-1.957z"/></g></svg>