<svg width="41" height="41" xmlns="http://www.w3.org/2000/svg"><g fill="#033144"><path d="M39.721 19.261c-.662 0-1.198.537-1.198 1.2 0 9.959-8.103 18.061-18.063 18.061-9.96 0-18.062-8.102-18.062-18.062S10.5 2.398 20.46 2.398c3.037 0 5.991.754 8.629 2.19l-1.5 1.5a1.199 1.199 0 0 0 .848 2.046h5.737a1.2 1.2 0 0 0 1.199-1.199V1.2a1.199 1.199 0 0 0-2.047-.85l-2.479 2.48A20.38 20.38 0 0 0 20.46 0 20.327 20.327 0 0 0 5.993 5.992 20.326 20.326 0 0 0 0 20.46a20.326 20.326 0 0 0 5.993 14.468A20.326 20.326 0 0 0 20.46 40.92a20.326 20.326 0 0 0 14.468-5.992A20.326 20.326 0 0 0 40.92 20.46c0-.662-.536-1.199-1.199-1.199z"/><path d="M28.165 19.261h-6.506v-6.505a1.199 1.199 0 0 0-2.398 0v7.704a1.2 1.2 0 0 0 1.2 1.199h7.704a1.199 1.199 0 0 0 0-2.398z"/></g></svg>