<svg width="51" height="45" xmlns="http://www.w3.org/2000/svg"><g fill="#033144" fill-rule="evenodd"><path d="M45.24 44.89H5.64C2.53 44.89 0 42.36 0 39.25V5.64C0 2.53 2.53 0 5.64 0h39.6c3.11 0 5.64 2.53 5.64 5.64v33.61c0 3.11-2.53 5.64-5.64 5.64zM5.64 1.68a3.965 3.965 0 0 0-3.96 3.96v33.61a3.965 3.965 0 0 0 3.96 3.96h39.6a3.965 3.965 0 0 0 3.96-3.96V5.64a3.965 3.965 0 0 0-3.96-3.96H5.64z"/><path d="M50.04 13.45H.84a.84.84 0 1 1 0-1.68h49.2a.84.84 0 0 1 0 1.68zM14.352 9.431a2.662 2.662 0 0 1-2.658-2.658 2.662 2.662 0 0 1 2.658-2.658 2.661 2.661 0 0 1 2.658 2.658 2.662 2.662 0 0 1-2.658 2.658zm0-3.636a.98.98 0 0 0-.978.978.98.98 0 1 0 .978-.978zm-8.167 3.61a2.661 2.661 0 0 1-2.659-2.658A2.661 2.661 0 0 1 6.185 4.09a2.661 2.661 0 0 1 2.658 2.658 2.661 2.661 0 0 1-2.658 2.658zm0-3.636a.98.98 0 0 0-.979.978.98.98 0 1 0 .978-.978zM22.52 9.457a2.661 2.661 0 0 1-2.658-2.659A2.661 2.661 0 0 1 22.52 4.14a2.661 2.661 0 0 1 2.658 2.658 2.661 2.661 0 0 1-2.658 2.659zm0-3.637a.98.98 0 0 0 0 1.957.98.98 0 0 0 0-1.957z"/><path d="M19.102 23.981a.72.72 0 0 1 .337-.323.564.564 0 0 1 .374-.029c.12.034.22.11.301.23.082.12.118.27.108.453-.278.929-.563 1.86-.855 2.794a20.455 20.455 0 0 1-1.07 2.722c-.143.172-.301.263-.474.273-.172.01-.34-.067-.503-.23a27.435 27.435 0 0 1-.747-1.623 85.011 85.011 0 0 1-.675-1.652 3.565 3.565 0 0 1-.2-.489 87.614 87.614 0 0 0-.705 1.789c-.115.301-.234.61-.359.926l-.402 1.02c-.172.21-.364.302-.575.273-.21-.029-.373-.163-.488-.402a18.651 18.651 0 0 1-.582-1.588c-.167-.531-.332-1.07-.495-1.616a19.523 19.523 0 0 1-.31-1.084c-.09-.36-.164-.72-.222-1.085-.029-.21.005-.38.1-.51a.577.577 0 0 1 .346-.237.56.56 0 0 1 .409.08c.139.08.237.222.294.423.106.642.247 1.283.424 1.925.177.642.376 1.278.596 1.91l.352-.89.33-.833c.11-.278.23-.575.36-.89.129-.317.27-.671.423-1.064a.705.705 0 0 1 .28-.287.549.549 0 0 1 .331-.065.59.59 0 0 1 .309.144.736.736 0 0 1 .215.352c.086.306.19.605.31.898.119.292.236.581.351.869a58.273 58.273 0 0 0 .776 1.925c.268-.67.505-1.35.71-2.04.207-.69.415-1.38.626-2.069zm9.365 0c.096-.163.209-.27.338-.323a.564.564 0 0 1 .373-.029c.12.034.22.11.302.23.082.12.117.27.108.453-.278.929-.563 1.86-.855 2.794a20.455 20.455 0 0 1-1.07 2.722c-.144.172-.302.263-.474.273-.172.01-.34-.067-.503-.23a27.435 27.435 0 0 1-.747-1.623 85.01 85.01 0 0 1-.675-1.652 3.565 3.565 0 0 1-.201-.489 87.614 87.614 0 0 0-.704 1.789c-.115.301-.235.61-.359.926l-.402 1.02c-.173.21-.364.302-.575.273-.21-.029-.373-.163-.488-.402a18.651 18.651 0 0 1-.582-1.588c-.168-.531-.333-1.07-.496-1.616a19.523 19.523 0 0 1-.308-1.084c-.091-.36-.166-.72-.223-1.085-.029-.21.005-.38.1-.51a.577.577 0 0 1 .345-.237.56.56 0 0 1 .41.08c.139.08.237.222.294.423.105.642.247 1.283.424 1.925.177.642.376 1.278.596 1.91l.352-.89.33-.833c.11-.278.23-.575.36-.89.129-.317.27-.671.423-1.064a.705.705 0 0 1 .28-.287.549.549 0 0 1 .33-.065.59.59 0 0 1 .31.144.736.736 0 0 1 .215.352c.086.306.19.605.309.898.12.292.237.581.352.869a58.273 58.273 0 0 0 .775 1.925c.269-.67.506-1.35.712-2.04.205-.69.414-1.38.624-2.069zm9.366 0c.096-.163.208-.27.338-.323a.564.564 0 0 1 .373-.029c.12.034.22.11.302.23.081.12.117.27.108.453-.278.929-.563 1.86-.855 2.794a20.455 20.455 0 0 1-1.07 2.722c-.144.172-.302.263-.474.273-.173.01-.34-.067-.503-.23a27.435 27.435 0 0 1-.747-1.623 85.01 85.01 0 0 1-.675-1.652 3.565 3.565 0 0 1-.201-.489 87.614 87.614 0 0 0-.704 1.789c-.115.301-.235.61-.36.926l-.401 1.02c-.173.21-.364.302-.575.273-.21-.029-.374-.163-.488-.402a18.651 18.651 0 0 1-.582-1.588c-.168-.531-.333-1.07-.496-1.616a19.523 19.523 0 0 1-.309-1.084c-.09-.36-.165-.72-.222-1.085-.029-.21.005-.38.1-.51a.577.577 0 0 1 .345-.237.56.56 0 0 1 .41.08c.138.08.236.222.294.423.105.642.246 1.283.424 1.925.177.642.376 1.278.596 1.91l.352-.89.33-.833c.11-.278.23-.575.36-.89.128-.317.27-.671.423-1.064a.705.705 0 0 1 .28-.287.549.549 0 0 1 .33-.065.59.59 0 0 1 .31.144.736.736 0 0 1 .215.352c.086.306.189.605.309.898.12.292.237.581.352.869a58.272 58.272 0 0 0 .775 1.925c.268-.67.505-1.35.711-2.04.206-.69.414-1.38.625-2.069z" fill-rule="nonzero"/></g></svg>