<svg width="257" height="177" xmlns="http://www.w3.org/2000/svg"><defs><linearGradient x1="73.652%" y1="3.564%" x2="106.819%" y2="100.256%" id="a"><stop stop-color="#77C4DF" stop-opacity="0" offset="0%"/><stop stop-color="#114758" offset="100%"/></linearGradient><linearGradient x1="145.762%" y1="27.601%" x2="40.416%" y2="42.657%" id="b"><stop stop-color="#77C4DF" stop-opacity="0" offset="0%"/><stop stop-color="#114758" offset="100%"/></linearGradient><linearGradient x1="145.762%" y1="27.603%" x2="40.416%" y2="42.658%" id="c"><stop stop-color="#77C4DF" stop-opacity="0" offset="0%"/><stop stop-color="#114758" offset="100%"/></linearGradient><linearGradient x1="145.762%" y1="27.604%" x2="40.416%" y2="42.658%" id="d"><stop stop-color="#77C4DF" stop-opacity="0" offset="0%"/><stop stop-color="#114758" offset="100%"/></linearGradient><linearGradient x1="68.725%" y1="19.49%" x2="84.578%" y2="68.692%" id="e"><stop stop-color="#E3F0F5" offset="0%"/><stop stop-color="#92B6C2" offset="100%"/></linearGradient><linearGradient x1="178.825%" y1="23.133%" x2="40.416%" y2="42.664%" id="f"><stop stop-color="#77C4DF" stop-opacity="0" offset="0%"/><stop stop-color="#114758" offset="100%"/></linearGradient><linearGradient x1="178.825%" y1="23.116%" x2="40.416%" y2="42.659%" id="g"><stop stop-color="#77C4DF" stop-opacity="0" offset="0%"/><stop stop-color="#114758" offset="100%"/></linearGradient><linearGradient x1="178.825%" y1="23.106%" x2="40.416%" y2="42.657%" id="h"><stop stop-color="#77C4DF" stop-opacity="0" offset="0%"/><stop stop-color="#114758" offset="100%"/></linearGradient><linearGradient x1="66.871%" y1="89.137%" x2="39.675%" y2="25.654%" id="i"><stop stop-color="#FFCB6C" offset="0%"/><stop stop-color="#FFFAF4" offset="100%"/></linearGradient><linearGradient x1="-72.256%" y1="50%" x2="90.152%" y2="41.16%" id="j"><stop stop-color="#77C4DF" stop-opacity="0" offset="0%"/><stop stop-color="#114758" offset="100%"/></linearGradient><linearGradient x1="-72.256%" y1="50%" x2="90.152%" y2="41.163%" id="k"><stop stop-color="#77C4DF" stop-opacity="0" offset="0%"/><stop stop-color="#114758" offset="100%"/></linearGradient><linearGradient x1="-72.256%" y1="50%" x2="90.152%" y2="41.161%" id="l"><stop stop-color="#77C4DF" stop-opacity="0" offset="0%"/><stop stop-color="#114758" offset="100%"/></linearGradient><linearGradient x1="51.293%" y1="53.578%" x2="40.261%" y2="42.401%" id="m"><stop stop-color="#77C4DF" stop-opacity="0" offset="0%"/><stop stop-color="#63ACC5" stop-opacity=".194" offset="39.544%"/><stop stop-color="#114758" offset="100%"/></linearGradient></defs><g fill="none" fill-rule="evenodd"><path d="M79.255 100.635l-62.41 26.171c-2.684 1.128-3.608 3.629-2.063 5.584a5.154 5.154 0 0 0 2.062 1.52l.808.337c2.428 1.024 3.258 3.285 1.858 5.057a4.702 4.702 0 0 1-1.858 1.354l-13.423 5.645c-4.043 1.698-5.431 5.473-3.067 8.421a7.777 7.777 0 0 0 3.096 2.256l32.77 13.784a35.997 35.997 0 0 0 27.08 0l15.066-6.338a35.997 35.997 0 0 1 27.079 0l15.102 6.338a35.986 35.986 0 0 0 27.072 0l32.789-13.79c4.066-1.704 5.436-5.474 3.096-8.422a7.704 7.704 0 0 0-3.085-2.255l-5.076-2.14c-2.48-1.023-3.305-3.254-1.9-5.056a4.65 4.65 0 0 1 1.865-1.354l13.4-5.602c4.066-1.692 5.454-5.461 3.13-8.415a7.767 7.767 0 0 0-3.107-2.268l-37.865-15.936a22.52 22.52 0 0 0-16.844 0h-.064a22.536 22.536 0 0 1-16.804 0l-11.715-4.903a36.007 36.007 0 0 0-26.992.012z" fill="#F0F2F5"/><path d="M0 81.338l92.71-38.982c3.871-1.627 6.41-5.58 6.41-9.976V4.233c0-1.404-.66-2.716-1.762-3.504a3.837 3.837 0 0 0-3.737-.428L6.423 36.967C2.548 38.59.003 42.543 0 46.943v34.395z" fill="url(#a)" fill-rule="nonzero" transform="translate(23)"/><path d="M7.733 46.15l15.99-6.723" stroke="url(#b)" stroke-width="2" opacity=".5" stroke-linecap="round" transform="translate(23)"/><path d="M7.733 56.295l74.341-31.258" stroke="url(#c)" stroke-width="2" opacity=".5" stroke-linecap="round" transform="translate(23)"/><path d="M7.733 66.739L96.07 29.597" stroke="url(#d)" stroke-width="2" opacity=".5" stroke-linecap="round" transform="translate(23)"/><path d="M0 153.596l92.71-38.978c3.872-1.628 6.411-5.582 6.41-9.979V76.496c0-1.405-.659-2.718-1.76-3.507a3.837 3.837 0 0 0-3.74-.43L6.424 109.226C2.547 110.85.001 114.804 0 119.205v34.391z" fill="url(#e)" fill-rule="nonzero" transform="translate(23)"/><path d="M7.733 118.41l15.99-6.72" stroke="url(#f)" stroke-width="2" opacity=".5" stroke-linecap="round" transform="translate(23)"/><path d="M7.733 128.553L82.074 97.3" stroke="url(#g)" stroke-width="2" opacity=".5" stroke-linecap="round" transform="translate(23)"/><path d="M7.733 139l88.337-37.145" stroke="url(#h)" stroke-width="2" opacity=".5" stroke-linecap="round" transform="translate(23)"/><path d="M63.304 118.026l93.627-39.363v-35.43c0-1.404-.661-2.716-1.763-3.504a3.837 3.837 0 0 0-3.737-.428L64.233 75.967c-3.877 1.626-6.421 5.584-6.42 9.986v28.153c.004 1.4.664 2.709 1.763 3.493a3.829 3.829 0 0 0 3.728.427z" fill="url(#i)" fill-rule="nonzero" transform="translate(23)"/><path d="M135.657 55.942l15.99-6.723" stroke="url(#j)" stroke-width="2" opacity=".5" stroke-linecap="round" transform="translate(23)"/><path d="M77.303 90.236l74.342-31.254" stroke="url(#k)" stroke-width="2" opacity=".5" stroke-linecap="round" transform="translate(23)"/><path d="M63.307 107.087l88.338-37.142" stroke="url(#l)" stroke-width="2" opacity=".5" stroke-linecap="round" transform="translate(23)"/><path fill="url(#m)" fill-rule="nonzero" opacity=".417" d="M74.345 184.857l94.36-39.73-74.344-31.257L0 153.596z" transform="translate(23)"/><path d="M158.695 174.988l94.361-39.73L178.712 104l-85.6 36.038a4 4 0 0 0 .002 7.374l65.581 27.576z" fill="url(#m)" fill-rule="nonzero" opacity=".049" transform="translate(23)"/></g></svg>