<svg width="248" height="168" xmlns="http://www.w3.org/2000/svg" xmlns:xlink="http://www.w3.org/1999/xlink"><defs><linearGradient x1="66.292%" y1="62.18%" x2="36.742%" y2="43.591%" id="a"><stop stop-color="#F9B231" offset="0%"/><stop stop-color="#FFFAF4" offset="100%"/></linearGradient><linearGradient x1="40.075%" y1="45.127%" x2="75.072%" y2="69.976%" id="b"><stop stop-color="#FFC65D" offset="0%"/><stop stop-color="#CC8F1C" offset="100%"/></linearGradient><linearGradient x1="-36.039%" y1="38.467%" x2="80.603%" y2="54.103%" id="c"><stop stop-color="#AC9370" offset="0%"/><stop stop-color="#594834" offset="100%"/></linearGradient><linearGradient x1="27.442%" y1=".867%" x2="70.335%" y2="94.286%" id="d"><stop stop-color="#FEE8C4" offset="0%"/><stop stop-color="#FFF" offset="100%"/></linearGradient><linearGradient x1="27.438%" y1=".867%" x2="70.339%" y2="94.286%" id="e"><stop stop-color="#FEE8C4" offset="0%"/><stop stop-color="#FFF" offset="100%"/></linearGradient><linearGradient x1=".344%" y1="51.919%" x2="171.271%" y2="48.428%" id="f"><stop stop-color="#EACFA1" offset="0%"/><stop stop-color="#FFF" offset="100%"/></linearGradient><linearGradient x1="5.638%" y1="40.329%" x2="100.178%" y2="79.379%" id="g"><stop stop-color="#ECD3A9" offset="0%"/><stop stop-color="#F5E9D3" offset="100%"/></linearGradient><linearGradient x1=".324%" y1="51.919%" x2="171.32%" y2="48.428%" id="h"><stop stop-color="#EACFA1" offset="0%"/><stop stop-color="#FFF" offset="100%"/></linearGradient><linearGradient x1=".334%" y1="51.919%" x2="171.296%" y2="48.428%" id="i"><stop stop-color="#EACFA1" offset="0%"/><stop stop-color="#FFF" offset="100%"/></linearGradient><linearGradient x1=".335%" y1="51.919%" x2="171.295%" y2="48.428%" id="j"><stop stop-color="#EACFA1" offset="0%"/><stop stop-color="#FFF" offset="100%"/></linearGradient><linearGradient x1="49.024%" y1="50%" x2="40.717%" y2="42.057%" id="k"><stop stop-color="#77C4DF" stop-opacity="0" offset="0%"/><stop stop-color="#5499B0" stop-opacity=".347" offset="54.071%"/><stop stop-color="#114758" offset="100%"/></linearGradient><linearGradient x1="62.627%" y1="93.714%" x2="30.826%" y2="-16.938%" id="l"><stop stop-color="#FEE8C4" offset="0%"/><stop stop-color="#FFF" offset="100%"/></linearGradient><linearGradient x1="0%" y1="49.995%" x2="100%" y2="49.995%" id="m"><stop stop-color="#AC9370" offset="0%"/><stop stop-color="#594834" offset="100%"/></linearGradient><linearGradient x1="43.336%" y1="56.442%" x2="78.021%" y2="25.768%" id="n"><stop stop-color="#FEE8C4" offset="0%"/><stop stop-color="#FFF" offset="100%"/></linearGradient><linearGradient x1="87.783%" y1="53.623%" x2="-1.028%" y2="45.111%" id="o"><stop stop-color="#AC9370" offset="0%"/><stop stop-color="#594834" offset="100%"/></linearGradient><linearGradient x1="49.741%" y1="50%" x2="50.134%" y2="50%" id="p"><stop stop-color="#AC9370" offset="0%"/><stop stop-color="#594834" offset="100%"/></linearGradient><linearGradient x1="56.514%" y1="50%" x2="32.935%" y2="35.719%" id="q"><stop stop-color="#77C4DF" stop-opacity="0" offset="0%"/><stop stop-color="#114758" offset="100%"/></linearGradient><linearGradient x1="46.227%" y1="7.032%" x2="53.692%" y2="139.354%" id="s"><stop stop-color="#FEE8C4" offset="0%"/><stop stop-color="#FFF" offset="100%"/></linearGradient><path d="M16.006 96.776C27.709 94.152 20.517 32.604.467 0c0 0-4.672 101.313 15.539 96.776z" id="r"/><linearGradient x1=".011%" y1="50.006%" x2="100.045%" y2="50.006%" id="v"><stop stop-color="#FEE8C4" offset="0%"/><stop stop-color="#FFF" offset="100%"/></linearGradient><path d="M5.38 43.152c-11.004-4.046-3.514-31.61 7.99-41.369L34.695 0S17.87 47.756 5.38 43.152z" id="u"/><linearGradient x1="0%" y1="49.99%" x2="100.008%" y2="49.99%" id="x"><stop stop-color="#AC9370" offset="0%"/><stop stop-color="#594834" offset="100%"/></linearGradient><linearGradient x1="0%" y1="50.007%" x2="100.03%" y2="50.007%" id="y"><stop stop-color="#FEE8C4" offset="0%"/><stop stop-color="#FFF" offset="100%"/></linearGradient><linearGradient x1="55.751%" y1="43.604%" x2="-39.559%" y2="74.83%" id="z"><stop stop-color="#FEE8C4" offset="0%"/><stop stop-color="#FFF" offset="100%"/></linearGradient><linearGradient x1="95.609%" y1="80.226%" x2="-46.4%" y2="-35.101%" id="A"><stop stop-color="#FEE8C4" offset="0%"/><stop stop-color="#FFF" offset="100%"/></linearGradient></defs><g fill="none" fill-rule="evenodd"><path d="M117.919 47.533L65.439 68.41c-4.399 1.744-5.916 5.655-3.375 8.688a8.388 8.388 0 0 0 3.36 2.274l4.451 1.774c2.973 1.19 3.99 3.79 2.275 5.875a5.68 5.68 0 0 1-2.275 1.577L26.01 106.215c-4.945 1.98-6.636 6.368-3.792 9.795a9.45 9.45 0 0 0 3.792 2.623l16.434 6.565c2.973 1.182 3.997 3.79 2.276 5.875a5.665 5.665 0 0 1-2.276 1.577l-8.835 3.578c-2.973 1.182-3.997 3.79-2.275 5.875a5.59 5.59 0 0 0 2.275 1.577l42.955 17.155a46.188 46.188 0 0 0 33.088 0l41.954-16.754a28.83 28.83 0 0 1 20.681 0l6.72 2.676a28.83 28.83 0 0 0 20.673 0l42.94-17.14c4.952-1.978 6.651-6.368 3.792-9.794a9.404 9.404 0 0 0-3.792-2.638l-43.789-17.436c-2.973-1.19-3.997-3.79-2.275-5.883a5.733 5.733 0 0 1 2.275-1.576l16.389-6.626c4.96-1.979 6.658-6.36 3.792-9.794a9.434 9.434 0 0 0-3.792-2.63l-64.29-25.67a46.165 46.165 0 0 0-33.012-.037z" fill="#F0F2F5"/><g fill-rule="nonzero"><path fill="url(#a)" d="M36.783 46.491l80.437-31.84L80.434 0 0 31.837z" transform="translate(77.67 24.617)"/><path fill="url(#b)" d="M0 31.837v58.61l36.783 14.652V46.49z" transform="translate(77.67 24.617)"/><path fill="url(#c)" d="M117.22 14.652v58.375L36.783 105.1V46.49z" transform="translate(77.67 24.617)"/><path fill="url(#d)" d="M40.121 48.899v23.974l22.571-8.99V39.905zm0 27.886v23.977l22.571-8.99V67.794z" transform="translate(77.67 24.617)"/><path fill="url(#e)" d="M66.168 38.439v23.977l22.573-8.991V29.448zm0 27.889v23.977l22.573-8.993V57.337z" transform="translate(77.67 24.617)"/><path fill="url(#d)" d="M92.217 28.176v23.976l22.57-8.99V19.185zm0 27.889v23.974l22.57-8.99V47.071z" transform="translate(77.67 24.617)"/><path fill="url(#f)" d="M62.692 91.757l-22.57-8.99v-5.982l22.57-8.99z" transform="translate(77.67 24.617)"/><path fill="url(#g)" d="M62.692 63.868l-22.57-8.99v-5.98l22.57-8.992z" transform="translate(77.67 24.617)"/><path fill="url(#h)" d="M88.741 81.297l-22.573-8.99v-5.979l22.573-8.99z" transform="translate(77.67 24.617)"/><path fill="url(#i)" d="M88.741 53.41l-22.573-8.992v-5.98l22.573-8.99z" transform="translate(77.67 24.617)"/><path fill="url(#f)" d="M114.788 71.034l-22.571-8.99v-5.98l22.57-8.992z" transform="translate(77.67 24.617)"/><path fill="url(#j)" d="M114.788 43.145l-22.571-8.99v-5.98l22.57-8.99z" transform="translate(77.67 24.617)"/><path fill="url(#k)" opacity=".347" d="M209.18 109.646l-91.96-36.63-80.437 32.083 91.963 36.63z" transform="translate(77.67 24.617)"/></g><path fill="url(#l)" fill-rule="nonzero" d="M25.627 140.769V116.48l30.487 12.143v24.292z"/><path fill="url(#m)" fill-rule="nonzero" d="M56.114 128.623l30.488-12.143v24.289l-30.488 12.146z"/><path fill="url(#n)" fill-rule="nonzero" d="M25.627 116.48l30.487-12.146 30.488 12.146-30.488 12.143z"/><path fill="url(#o)" fill-rule="nonzero" d="M35.656 116.48l20.458-8.15 20.46 8.15-20.46 8.148z"/><path fill="url(#p)" fill-rule="nonzero" d="M56.114 111.755l16.164 6.434 4.295-1.709-20.459-8.15-20.458 8.15 4.295 1.71z"/><path d="M54.491 120.597c1.686-24.135-3.372-42.122-3.372-42.122" stroke="#603813"/><path fill="url(#q)" fill-rule="nonzero" opacity=".5" d="M56.114 152.915l60.98 24.288 30.488-12.146-60.98-24.288z"/><g transform="translate(39.338)"><mask id="t" fill="#fff"><use xlink:href="#r"/></mask><use fill="url(#s)" fill-rule="nonzero" xlink:href="#r"/><path d="M15.153 120.597c1.686-24.135-3.372-42.122-3.372-42.122" stroke="#E8D4C5" mask="url(#t)"/></g><path d="M59.411 118.492c-2.283-32.915 15.76-57.027 15.76-57.027" stroke="#603813"/><g transform="translate(57.655 49.052)"><mask id="w" fill="#fff"><use xlink:href="#u"/></mask><use fill="url(#v)" fill-rule="nonzero" xlink:href="#u"/><path d="M1.756 69.44c-2.283-32.915 15.76-57.027 15.76-57.027" stroke="#E8D4C5" mask="url(#w)"/></g><path d="M71.024 50.835s1.847 14.456 11.837 20.573c0 0 2.825-5.944 5.989-13.266 3.164-7.322-17.826-7.307-17.826-7.307z" fill="url(#x)" fill-rule="nonzero" opacity=".3"/><path d="M71.024 50.835l21.327-1.783s15.488 6.474 30.382 26.213c.016 0-29.957-9.687-51.709-24.43z" fill="url(#y)" fill-rule="nonzero"/><path d="M14.69 65.052S5.352 68.674 0 81.107c0 0 22.561-6.78 34.477-16.055H14.69z" fill="url(#z)" fill-rule="nonzero"/><path d="M50.157 118.492c.165-20.25-13.822-34.636-13.822-34.636" stroke="#603813"/><path d="M46.246 99.554c11.601-6.286-3.104-29.207-15.577-37.393l-15.98 2.89s21.623 39.892 31.557 34.503z" fill="url(#A)" fill-rule="nonzero"/><path d="M46.246 99.554C38.386 79.657 24.44 65.7 24.44 65.7" stroke="#E8D4C5"/></g></svg>