<svg width="240" height="174" xmlns="http://www.w3.org/2000/svg"><defs><linearGradient x1="70.186%" y1="100%" x2="70.186%" y2="0%" id="a"><stop stop-color="#EEAE39" offset="0%"/><stop stop-color="#FFF" stop-opacity="0" offset="100%"/></linearGradient><linearGradient x1="45.783%" y1="47.914%" x2="42.054%" y2="44.242%" id="b"><stop stop-color="#77C4DF" stop-opacity="0" offset="0%"/><stop stop-color="#114758" offset="100%"/></linearGradient><linearGradient x1="49.633%" y1="96.076%" x2="50.135%" y2="96.076%" id="c"><stop stop-color="#AC9370" offset="0%"/><stop stop-color="#594834" offset="100%"/></linearGradient><linearGradient x1="27.456%" y1="42.935%" x2="51.792%" y2="50.368%" id="d"><stop stop-color="#AC9370" offset="0%"/><stop stop-color="#594834" offset="100%"/></linearGradient><linearGradient x1="41.848%" y1="42.033%" x2="68.247%" y2="63.635%" id="e"><stop stop-color="#FFC04D" offset="0%"/><stop stop-color="#C58409" offset="100%"/></linearGradient><linearGradient x1="62.393%" y1="58.008%" x2="27.316%" y2="36.383%" id="f"><stop stop-color="#FFCB6C" offset="0%"/><stop stop-color="#FFFAF4" offset="100%"/></linearGradient><linearGradient x1="64.091%" y1="41.246%" x2="80.33%" y2="59.347%" id="g"><stop stop-color="#FFC04D" offset="0%"/><stop stop-color="#C58409" offset="100%"/></linearGradient><linearGradient x1="30.861%" y1="47.306%" x2="55.19%" y2="52.196%" id="h"><stop stop-color="#AC9370" offset="0%"/><stop stop-color="#594834" offset="100%"/></linearGradient><linearGradient x1="62.601%" y1="59.474%" x2="28.716%" y2="38.81%" id="i"><stop stop-color="#FFCB6C" offset="0%"/><stop stop-color="#FFFAF4" offset="100%"/></linearGradient><linearGradient x1="70.186%" y1="100%" x2="70.186%" y2="0%" id="j"><stop stop-color="#FFF" offset="0%"/><stop stop-color="#FFF" stop-opacity="0" offset="100%"/></linearGradient><linearGradient x1="70.186%" y1="100%" x2="70.186%" y2="0%" id="k"><stop stop-color="#FFF" offset="0%"/><stop stop-color="#FFF" stop-opacity="0" offset="100%"/></linearGradient></defs><g fill="none" fill-rule="evenodd"><path d="M65.845 60.7l21.188 8.395a31.499 31.499 0 0 0 22.351 0l21.241-8.41a31.415 31.415 0 0 1 22.351 0l81.095 32.099c5.337 2.125 7.154 6.831 4.052 10.452a10.218 10.218 0 0 1-4.075 2.793l-38.635 15.309c-3.2 1.267-4.295 4.068-2.448 6.262a6.082 6.082 0 0 0 2.448 1.67l16.862 6.679c5.322 2.118 7.162 6.793 4.075 10.444a10.279 10.279 0 0 1-4.075 2.785l-52.593 20.828a50.252 50.252 0 0 1-35.731 0L5.939 123.289c-5.322-2.11-7.154-6.786-4.068-10.444a10.195 10.195 0 0 1 4.068-2.786L22.8 103.41c3.208-1.267 4.295-4.068 2.448-6.262a6.082 6.082 0 0 0-2.448-1.677L6.136 88.875c-5.321-2.118-7.161-6.831-4.075-10.444a10.15 10.15 0 0 1 4.045-2.778l37.32-14.93a31.438 31.438 0 0 1 22.42-.022z" fill="#F0F2F5"/><path fill="url(#a)" opacity=".2" d="M45.465 0h91.877v82.272H45.465z" transform="translate(19.214)"/><path fill="url(#a)" opacity=".2" d="M0 26.478h91.877v82.272H0zm91.877 0h91.877v82.272H91.877z" transform="translate(19.214)"/><g fill-rule="nonzero"><path fill="url(#b)" opacity=".417" d="M158.514 109.488l90.121-37.543-66.692-26.533-90.121 37.541z" transform="translate(19.214 64.304)"/><path d="M45.64 64.68l46.012 18.377 46.024-18.377v-2.56c-3.025-1.21-11.536-5.119-8.48-6.277l1.77-.691c3.038-1.184 3.057-4.204.038-5.414l-6.274-2.502a6.303 6.303 0 0 0-4.487 0L109.4 51.472a6.284 6.284 0 0 1-4.487 0l-13.068-5.24-15.69 6.239 8.64 3.372c3.038 1.19 3.057 4.21.038 5.413a23.75 23.75 0 0 1-17.023 0l-22.169.89v2.534z" fill="url(#c)" transform="translate(19.214 64.304)"/><path d="M156.903 128.984l46.204-18.448v-2.56l-61.361-9.598-9.05-3.532a18.166 18.166 0 0 0-12.921.045l-1.968.787c-3 1.203-2.993 4.198 0 5.4l8.441 3.405-15.19 6.053 15.344 6.124 8.82-3.45a18.198 18.198 0 0 1 12.933.04l2.057.818c3.019 1.21 3 4.23-.038 5.414l6.71 6.968.02 2.534z" fill="#594834"/><path d="M0 46.149l45.64 18.556v-2.56c1.39-.556 16.196-3.25 17.593-2.693l10.832 4.332a6.284 6.284 0 0 0 4.486 0l6.262-2.502c3.019-1.203 3-4.223-.038-5.414l-1.77-.69c-3.037-1.184-3.056-4.205-.038-5.414l8.858-3.532-15.523-6.054-6.967 2.784a23.192 23.192 0 0 1-16.433.058l-.385-.148c-3.038-1.183-3.064-4.204-.038-5.413l8.498-3.391L0 43.615v2.534z" fill="url(#d)" transform="translate(19.214 64.304)"/><path d="M0 43.615L45.64 62.17l13.088-5.221a6.284 6.284 0 0 1 4.486 0l10.832 4.325a6.284 6.284 0 0 0 4.486 0l6.262-2.495c3.019-1.21 3-4.23-.039-5.414l-1.768-.69c-3.038-1.19-3.058-4.211-.039-5.414l8.858-3.539-15.524-6.053-6.966 2.784a23.153 23.153 0 0 1-16.434.057l-.365-.198c-3.038-1.19-3.064-4.21-.038-5.414l8.498-3.397-15.055-5.977L0 43.615z" fill="url(#e)" transform="translate(19.214 64.304)"/><path d="M45.64 62.146l46.012 18.377 46.024-18.377-8.511-3.398c-3.019-1.21-3-4.23 0-5.414l1.769-.69c3.038-1.19 3.057-4.211.038-5.414l-6.274-2.508a6.303 6.303 0 0 0-4.487 0l-10.844 4.236a6.284 6.284 0 0 1-4.487 0L91.844 43.69l-15.69 6.265 8.64 3.378c3.038 1.184 3.057 4.205.038 5.414a23.801 23.801 0 0 1-17.023 0l-6.832-2.732-15.337 6.13z" fill="url(#f)" transform="translate(19.214 64.304)"/><path d="M137.69 62.146l46.203-18.455-46.544-18.166-14.818 6.066-9.05-3.538a18.166 18.166 0 0 0-12.92.05l-1.968.788c-3 1.196-2.993 4.197 0 5.394l8.44 3.353-15.189 6.053 15.344 6.13 8.819-3.455a18.198 18.198 0 0 1 12.934.045l2.057.819c3.019 1.203 3 4.223-.039 5.413l-8.633 3.373 15.363 6.13z" fill="url(#g)" transform="translate(19.214 64.304)"/><path d="M45.922 18.435v2.56l15.055 5.989-7.364 2.943H50.32l-.11 2.38c-.352 1.242.488 2.778 2.308 3.488l.404.16a23.192 23.192 0 0 0 16.433-.057l6.967-2.784 15.523 6.053 15.19-6.072v-2.56c-17.786-.64-11.409-5.01-8.409-6.213l1.968-.787a18.127 18.127 0 0 1 12.92-.045l6.782 2.643c1.444.55 3.041.55 4.486 0l12.575-5.12v-2.559l-91.434-.019z" fill="url(#h)" transform="translate(19.214 64.304)"/><path d="M45.922 18.435L91.844 0l45.505 18.435-12.574 5.151a6.271 6.271 0 0 1-4.487 0l-6.78-2.649a18.166 18.166 0 0 0-12.922.051l-1.967.78c-3 1.204-2.994 4.205 0 5.402l8.415 3.385-15.19 6.053-15.523-6.053-6.967 2.783a23.153 23.153 0 0 1-16.433.058l-.404-.16c-3.038-1.184-3.064-4.204-.038-5.414l8.498-3.391-15.055-5.996z" fill="url(#i)" transform="translate(19.214 64.304)"/></g><path fill="url(#j)" opacity=".2" d="M45.465 44.446h91.877v82.271l-45.939 17.968-45.938-17.968z" transform="translate(19.214)"/><path fill="url(#k)" opacity=".307" d="M137.342 44.446v82.271l-45.939 17.968V44.445z" transform="translate(19.214)"/></g></svg>